<svg version="1.1" xmlns="http://www.w3.org/2000/svg" xmlns:xlink="http://www.w3.org/1999/xlink" stroke-linecap="round" stroke-linejoin="round" stroke-width="0" fill-rule="evenodd" width="70.1mm" height="100.8mm" viewBox="137900 -142950 70100 100800" id="gKRjCjDaHA0rw_G73zyH"><defs><g id="gKRjCjDaHA0rw_G73zyH_pad-10"><polygon points="-800,-450 800,-450 800,450 -800,450"/><circle cx="-800" cy="-450" r="250"/><circle cx="800" cy="-450" r="250"/><circle cx="800" cy="450" r="250"/><circle cx="-800" cy="450" r="250"/><polygon points="-800,-700 800,-700 800,-200 -800,-200"/><polygon points="1050,-450 1050,450 550,450 550,-450"/><polygon points="800,200 -800,200 -800,700 800,700"/><polygon points="-550,450 -550,-450 -1050,-450 -1050,450"/></g><rect x="-1750" y="-1100" width="3500" height="2200" rx="1100" ry="1100" id="gKRjCjDaHA0rw_G73zyH_pad-11"/><rect x="-1250" y="-750" width="2500" height="1500" id="gKRjCjDaHA0rw_G73zyH_pad-12"/><rect x="-1250" y="-750" width="2500" height="1500" rx="750" ry="750" id="gKRjCjDaHA0rw_G73zyH_pad-13"/><g id="gKRjCjDaHA0rw_G73zyH_pad-14"><polygon points="-325,-650 325,-650 325,650 -325,650"/><circle cx="-325" cy="-650" r="250"/><circle cx="325" cy="-650" r="250"/><circle cx="325" cy="650" r="250"/><circle cx="-325" cy="650" r="250"/><polygon points="-325,-900 325,-900 325,-400 -325,-400"/><polygon points="575,-650 575,650 75,650 75,-650"/><polygon points="325,400 -325,400 -325,900 325,900"/><polygon points="-75,650 -75,-650 -575,-650 -575,650"/></g><rect x="-1000" y="-1000" width="2000" height="2000" id="gKRjCjDaHA0rw_G73zyH_pad-15"/><circle cx="0" cy="0" r="1000" id="gKRjCjDaHA0rw_G73zyH_pad-16"/><g id="gKRjCjDaHA0rw_G73zyH_pad-17"><polygon points="312.5,625 -312.5,625 -312.5,-625 312.5,-625"/><circle cx="312.5" cy="625" r="250"/><circle cx="-312.5" cy="625" r="250"/><circle cx="-312.5" cy="-625" r="250"/><circle cx="312.5" cy="-625" r="250"/><polygon points="312.5,375 -312.5,375 -312.5,875 312.5,875"/><polygon points="-62.5,625 -62.5,-625 -562.5,-625 -562.5,625"/><polygon points="-312.5,-875 312.5,-875 312.5,-375 -312.5,-375"/><polygon points="562.5,-625 562.5,625 62.5,625 62.5,-625"/></g><g id="gKRjCjDaHA0rw_G73zyH_pad-18"><polygon points="-1075.001,512.501 -1075.001,-512.501 1075.001,-512.501 1075.001,512.501"/><circle cx="-1075.001" cy="512.501" r="249.999"/><circle cx="-1075.001" cy="-512.501" r="249.999"/><circle cx="1075.001" cy="-512.501" r="249.999"/><circle cx="1075.001" cy="512.501" r="249.999"/><polygon points="-825.002,512.501 -825.002,-512.501 -1325,-512.501 -1325,512.501"/><polygon points="-1075.001,-762.5 1075.001,-762.5 1075.001,-262.502 -1075.001,-262.502"/><polygon points="1325,-512.501 1325,512.501 825.002,512.501 825.002,-512.501"/><polygon points="1075.001,262.502 -1075.001,262.502 -1075.001,762.5 1075.001,762.5"/></g><g id="gKRjCjDaHA0rw_G73zyH_pad-19"><polygon points="-625,312.5 -625,-312.5 625,-312.5 625,312.5"/><circle cx="-625" cy="312.5" r="250"/><circle cx="-625" cy="-312.5" r="250"/><circle cx="625" cy="-312.5" r="250"/><circle cx="625" cy="312.5" r="250"/><polygon points="-375,312.5 -375,-312.5 -875,-312.5 -875,312.5"/><polygon points="-625,-562.5 625,-562.5 625,-62.5 -625,-62.5"/><polygon points="875,-312.5 875,312.5 375,312.5 375,-312.5"/><polygon points="625,62.5 -625,62.5 -625,562.5 625,562.5"/></g><g id="gKRjCjDaHA0rw_G73zyH_pad-20"><polygon points="-450,800 -450,-800 450,-800 450,800"/><circle cx="-450" cy="800" r="250"/><circle cx="-450" cy="-800" r="250"/><circle cx="450" cy="-800" r="250"/><circle cx="450" cy="800" r="250"/><polygon points="-200,800 -200,-800 -700,-800 -700,800"/><polygon points="-450,-1050 450,-1050 450,-550 -450,-550"/><polygon points="700,-800 700,800 200,800 200,-800"/><polygon points="450,550 -450,550 -450,1050 450,1050"/></g><g id="gKRjCjDaHA0rw_G73zyH_pad-21"><polygon points="550,-550 550,550 -550,550 -550,-550"/><circle cx="550" cy="-550" r="250"/><circle cx="550" cy="550" r="250"/><circle cx="-550" cy="550" r="250"/><circle cx="-550" cy="-550" r="250"/><polygon points="800,-550 800,550 300,550 300,-550"/><polygon points="550,300 -550,300 -550,800 550,800"/><polygon points="-300,550 -300,-550 -800,-550 -800,550"/><polygon points="-550,-800 550,-800 550,-300 -550,-300"/></g><circle cx="0" cy="0" r="800" id="gKRjCjDaHA0rw_G73zyH_pad-22"/><g id="gKRjCjDaHA0rw_G73zyH_pad-23"><polygon points="125,125 -125,125 -125,-125 125,-125"/><circle cx="125" cy="125" r="125"/><circle cx="-125" cy="125" r="125"/><circle cx="-125" cy="-125" r="125"/><circle cx="125" cy="-125" r="125"/><polygon points="125,0 -125,0 -125,250 125,250"/><polygon points="0,125 0,-125 -250,-125 -250,125"/><polygon points="-125,-250 125,-250 125,0 -125,0"/><polygon points="250,-125 250,125 0,125 0,-125"/></g><g id="gKRjCjDaHA0rw_G73zyH_pad-24"><polygon points="-754,-754 754,-754 754,754 -754,754"/><circle cx="-754" cy="-754" r="102"/><circle cx="754" cy="-754" r="102"/><circle cx="754" cy="754" r="102"/><circle cx="-754" cy="754" r="102"/><polygon points="-754,-856 754,-856 754,-652 -754,-652"/><polygon points="856,-754 856,754 652,754 652,-754"/><polygon points="754,652 -754,652 -754,856 754,856"/><polygon points="-652,754 -652,-754 -856,-754 -856,754"/></g><circle cx="0" cy="0" r="856" id="gKRjCjDaHA0rw_G73zyH_pad-25"/><g id="gKRjCjDaHA0rw_G73zyH_pad-26"><polygon points="625,-312.5 625,312.5 -625,312.5 -625,-312.5"/><circle cx="625" cy="-312.5" r="250"/><circle cx="625" cy="312.5" r="250"/><circle cx="-625" cy="312.5" r="250"/><circle cx="-625" cy="-312.5" r="250"/><polygon points="875,-312.5 875,312.5 375,312.5 375,-312.5"/><polygon points="625,62.5 -625,62.5 -625,562.5 625,562.5"/><polygon points="-375,312.5 -375,-312.5 -875,-312.5 -875,312.5"/><polygon points="-625,-562.5 625,-562.5 625,-62.5 -625,-62.5"/></g><g id="gKRjCjDaHA0rw_G73zyH_pad-27"><polygon points="-550,550 -550,-550 550,-550 550,550"/><circle cx="-550" cy="550" r="250"/><circle cx="-550" cy="-550" r="250"/><circle cx="550" cy="-550" r="250"/><circle cx="550" cy="550" r="250"/><polygon points="-300,550 -300,-550 -800,-550 -800,550"/><polygon points="-550,-800 550,-800 550,-300 -550,-300"/><polygon points="800,-550 800,550 300,550 300,-550"/><polygon points="550,300 -550,300 -550,800 550,800"/></g></defs><g transform="translate(0,-185100) scale(1,-1)" fill="currentColor" stroke="currentColor"><use xlink:href="#gKRjCjDaHA0rw_G73zyH_pad-10" x="138950" y="-99500"/><use xlink:href="#gKRjCjDaHA0rw_G73zyH_pad-10" x="148050" y="-99500"/><use xlink:href="#gKRjCjDaHA0rw_G73zyH_pad-10" x="138950" y="-104000"/><use xlink:href="#gKRjCjDaHA0rw_G73zyH_pad-10" x="148050" y="-104000"/><use xlink:href="#gKRjCjDaHA0rw_G73zyH_pad-11" x="206250" y="-68100"/><use xlink:href="#gKRjCjDaHA0rw_G73zyH_pad-11" x="206250" y="-59900"/><use xlink:href="#gKRjCjDaHA0rw_G73zyH_pad-12" x="206250" y="-66000"/><use xlink:href="#gKRjCjDaHA0rw_G73zyH_pad-13" x="206250" y="-64000"/><use xlink:href="#gKRjCjDaHA0rw_G73zyH_pad-13" x="206250" y="-62000"/><use xlink:href="#gKRjCjDaHA0rw_G73zyH_pad-10" x="167950" y="-99500"/><use xlink:href="#gKRjCjDaHA0rw_G73zyH_pad-10" x="177050" y="-99500"/><use xlink:href="#gKRjCjDaHA0rw_G73zyH_pad-10" x="167950" y="-104000"/><use xlink:href="#gKRjCjDaHA0rw_G73zyH_pad-10" x="177050" y="-104000"/><use xlink:href="#gKRjCjDaHA0rw_G73zyH_pad-14" x="186050" y="-91000"/><use xlink:href="#gKRjCjDaHA0rw_G73zyH_pad-14" x="189000" y="-91000"/><use xlink:href="#gKRjCjDaHA0rw_G73zyH_pad-10" x="139000" y="-137750"/><use xlink:href="#gKRjCjDaHA0rw_G73zyH_pad-10" x="148100" y="-137750"/><use xlink:href="#gKRjCjDaHA0rw_G73zyH_pad-10" x="139000" y="-142250"/><use xlink:href="#gKRjCjDaHA0rw_G73zyH_pad-10" x="148100" y="-142250"/><use xlink:href="#gKRjCjDaHA0rw_G73zyH_pad-10" x="196350" y="-124000"/><use xlink:href="#gKRjCjDaHA0rw_G73zyH_pad-10" x="205450" y="-124000"/><use xlink:href="#gKRjCjDaHA0rw_G73zyH_pad-10" x="196350" y="-128500"/><use xlink:href="#gKRjCjDaHA0rw_G73zyH_pad-10" x="205450" y="-128500"/><use xlink:href="#gKRjCjDaHA0rw_G73zyH_pad-10" x="196500" y="-137750"/><use xlink:href="#gKRjCjDaHA0rw_G73zyH_pad-10" x="205600" y="-137750"/><use xlink:href="#gKRjCjDaHA0rw_G73zyH_pad-10" x="196500" y="-142250"/><use xlink:href="#gKRjCjDaHA0rw_G73zyH_pad-10" x="205600" y="-142250"/><use xlink:href="#gKRjCjDaHA0rw_G73zyH_pad-10" x="182550" y="-99500"/><use xlink:href="#gKRjCjDaHA0rw_G73zyH_pad-10" x="191650" y="-99500"/><use xlink:href="#gKRjCjDaHA0rw_G73zyH_pad-10" x="182550" y="-104000"/><use xlink:href="#gKRjCjDaHA0rw_G73zyH_pad-10" x="191650" y="-104000"/><use xlink:href="#gKRjCjDaHA0rw_G73zyH_pad-10" x="153600" y="-124000"/><use xlink:href="#gKRjCjDaHA0rw_G73zyH_pad-10" x="162700" y="-124000"/><use xlink:href="#gKRjCjDaHA0rw_G73zyH_pad-10" x="153600" y="-128500"/><use xlink:href="#gKRjCjDaHA0rw_G73zyH_pad-10" x="162700" y="-128500"/><use xlink:href="#gKRjCjDaHA0rw_G73zyH_pad-15" x="144500" y="-60620.785"/><use xlink:href="#gKRjCjDaHA0rw_G73zyH_pad-16" x="144500" y="-55620.785"/><use xlink:href="#gKRjCjDaHA0rw_G73zyH_pad-17" x="189000" y="-87750"/><use xlink:href="#gKRjCjDaHA0rw_G73zyH_pad-17" x="186075" y="-87750"/><use xlink:href="#gKRjCjDaHA0rw_G73zyH_pad-18" x="202750" y="-42912.5"/><use xlink:href="#gKRjCjDaHA0rw_G73zyH_pad-18" x="202750" y="-47587.5"/><use xlink:href="#gKRjCjDaHA0rw_G73zyH_pad-10" x="139000" y="-111500"/><use xlink:href="#gKRjCjDaHA0rw_G73zyH_pad-10" x="148100" y="-111500"/><use xlink:href="#gKRjCjDaHA0rw_G73zyH_pad-10" x="139000" y="-116000"/><use xlink:href="#gKRjCjDaHA0rw_G73zyH_pad-10" x="148100" y="-116000"/><use xlink:href="#gKRjCjDaHA0rw_G73zyH_pad-19" x="202750" y="-50287.5"/><use xlink:href="#gKRjCjDaHA0rw_G73zyH_pad-19" x="202750" y="-53212.5"/><use xlink:href="#gKRjCjDaHA0rw_G73zyH_pad-10" x="182600" y="-124000"/><use xlink:href="#gKRjCjDaHA0rw_G73zyH_pad-10" x="191700" y="-124000"/><use xlink:href="#gKRjCjDaHA0rw_G73zyH_pad-10" x="182600" y="-128500"/><use xlink:href="#gKRjCjDaHA0rw_G73zyH_pad-10" x="191700" y="-128500"/><use xlink:href="#gKRjCjDaHA0rw_G73zyH_pad-10" x="153600" y="-137750"/><use xlink:href="#gKRjCjDaHA0rw_G73zyH_pad-10" x="162700" y="-137750"/><use xlink:href="#gKRjCjDaHA0rw_G73zyH_pad-10" x="153600" y="-142250"/><use xlink:href="#gKRjCjDaHA0rw_G73zyH_pad-10" x="162700" y="-142250"/><use xlink:href="#gKRjCjDaHA0rw_G73zyH_pad-10" x="167950" y="-124000"/><use xlink:href="#gKRjCjDaHA0rw_G73zyH_pad-10" x="177050" y="-124000"/><use xlink:href="#gKRjCjDaHA0rw_G73zyH_pad-10" x="167950" y="-128500"/><use xlink:href="#gKRjCjDaHA0rw_G73zyH_pad-10" x="177050" y="-128500"/><use xlink:href="#gKRjCjDaHA0rw_G73zyH_pad-10" x="196350" y="-111500"/><use xlink:href="#gKRjCjDaHA0rw_G73zyH_pad-10" x="205450" y="-111500"/><use xlink:href="#gKRjCjDaHA0rw_G73zyH_pad-10" x="196350" y="-116000"/><use xlink:href="#gKRjCjDaHA0rw_G73zyH_pad-10" x="205450" y="-116000"/><use xlink:href="#gKRjCjDaHA0rw_G73zyH_pad-10" x="196300" y="-99500"/><use xlink:href="#gKRjCjDaHA0rw_G73zyH_pad-10" x="205400" y="-99500"/><use xlink:href="#gKRjCjDaHA0rw_G73zyH_pad-10" x="196300" y="-104000"/><use xlink:href="#gKRjCjDaHA0rw_G73zyH_pad-10" x="205400" y="-104000"/><use xlink:href="#gKRjCjDaHA0rw_G73zyH_pad-20" x="203500" y="-76500"/><use xlink:href="#gKRjCjDaHA0rw_G73zyH_pad-20" x="203500" y="-85600"/><use xlink:href="#gKRjCjDaHA0rw_G73zyH_pad-20" x="199000" y="-76500"/><use xlink:href="#gKRjCjDaHA0rw_G73zyH_pad-20" x="199000" y="-85600"/><use xlink:href="#gKRjCjDaHA0rw_G73zyH_pad-10" x="182700" y="-137750"/><use xlink:href="#gKRjCjDaHA0rw_G73zyH_pad-10" x="191800" y="-137750"/><use xlink:href="#gKRjCjDaHA0rw_G73zyH_pad-10" x="182700" y="-142250"/><use xlink:href="#gKRjCjDaHA0rw_G73zyH_pad-10" x="191800" y="-142250"/><use xlink:href="#gKRjCjDaHA0rw_G73zyH_pad-10" x="182600" y="-111500"/><use xlink:href="#gKRjCjDaHA0rw_G73zyH_pad-10" x="191700" y="-111500"/><use xlink:href="#gKRjCjDaHA0rw_G73zyH_pad-10" x="182600" y="-116000"/><use xlink:href="#gKRjCjDaHA0rw_G73zyH_pad-10" x="191700" y="-116000"/><use xlink:href="#gKRjCjDaHA0rw_G73zyH_pad-21" x="141740" y="-89055"/><use xlink:href="#gKRjCjDaHA0rw_G73zyH_pad-22" x="144280" y="-89055"/><use xlink:href="#gKRjCjDaHA0rw_G73zyH_pad-22" x="146820" y="-89055"/><use xlink:href="#gKRjCjDaHA0rw_G73zyH_pad-22" x="149360" y="-89055"/><use xlink:href="#gKRjCjDaHA0rw_G73zyH_pad-22" x="151900" y="-89055"/><use xlink:href="#gKRjCjDaHA0rw_G73zyH_pad-22" x="154440" y="-89055"/><use xlink:href="#gKRjCjDaHA0rw_G73zyH_pad-22" x="156980" y="-89055"/><use xlink:href="#gKRjCjDaHA0rw_G73zyH_pad-22" x="159520" y="-89055"/><use xlink:href="#gKRjCjDaHA0rw_G73zyH_pad-22" x="162060" y="-89055"/><use xlink:href="#gKRjCjDaHA0rw_G73zyH_pad-22" x="164600" y="-89055"/><use xlink:href="#gKRjCjDaHA0rw_G73zyH_pad-22" x="167140" y="-89055"/><use xlink:href="#gKRjCjDaHA0rw_G73zyH_pad-22" x="169680" y="-89055"/><use xlink:href="#gKRjCjDaHA0rw_G73zyH_pad-22" x="172220" y="-89055"/><use xlink:href="#gKRjCjDaHA0rw_G73zyH_pad-22" x="174760" y="-89055"/><use xlink:href="#gKRjCjDaHA0rw_G73zyH_pad-22" x="174760" y="-81435"/><use xlink:href="#gKRjCjDaHA0rw_G73zyH_pad-22" x="172220" y="-81435"/><use xlink:href="#gKRjCjDaHA0rw_G73zyH_pad-22" x="169680" y="-81435"/><use xlink:href="#gKRjCjDaHA0rw_G73zyH_pad-22" x="167140" y="-81435"/><use xlink:href="#gKRjCjDaHA0rw_G73zyH_pad-22" x="164600" y="-81435"/><use xlink:href="#gKRjCjDaHA0rw_G73zyH_pad-22" x="162060" y="-81435"/><use xlink:href="#gKRjCjDaHA0rw_G73zyH_pad-22" x="159520" y="-81435"/><use xlink:href="#gKRjCjDaHA0rw_G73zyH_pad-22" x="156980" y="-81435"/><use xlink:href="#gKRjCjDaHA0rw_G73zyH_pad-22" x="154440" y="-81435"/><use xlink:href="#gKRjCjDaHA0rw_G73zyH_pad-22" x="151900" y="-81435"/><use xlink:href="#gKRjCjDaHA0rw_G73zyH_pad-22" x="149360" y="-81435"/><use xlink:href="#gKRjCjDaHA0rw_G73zyH_pad-22" x="146820" y="-81435"/><use xlink:href="#gKRjCjDaHA0rw_G73zyH_pad-22" x="144280" y="-81435"/><use xlink:href="#gKRjCjDaHA0rw_G73zyH_pad-22" x="141740" y="-81435"/><use xlink:href="#gKRjCjDaHA0rw_G73zyH_pad-10" x="153500" y="-111500"/><use xlink:href="#gKRjCjDaHA0rw_G73zyH_pad-10" x="162600" y="-111500"/><use xlink:href="#gKRjCjDaHA0rw_G73zyH_pad-10" x="153500" y="-116000"/><use xlink:href="#gKRjCjDaHA0rw_G73zyH_pad-10" x="162600" y="-116000"/><use xlink:href="#gKRjCjDaHA0rw_G73zyH_pad-23" x="188750" y="-81750"/><use xlink:href="#gKRjCjDaHA0rw_G73zyH_pad-23" x="186550" y="-81750"/><use xlink:href="#gKRjCjDaHA0rw_G73zyH_pad-10" x="139000" y="-124000"/><use xlink:href="#gKRjCjDaHA0rw_G73zyH_pad-10" x="148100" y="-124000"/><use xlink:href="#gKRjCjDaHA0rw_G73zyH_pad-10" x="139000" y="-128500"/><use xlink:href="#gKRjCjDaHA0rw_G73zyH_pad-10" x="148100" y="-128500"/><use xlink:href="#gKRjCjDaHA0rw_G73zyH_pad-17" x="189000" y="-84500"/><use xlink:href="#gKRjCjDaHA0rw_G73zyH_pad-17" x="186075" y="-84500"/><use xlink:href="#gKRjCjDaHA0rw_G73zyH_pad-10" x="168000" y="-137750"/><use xlink:href="#gKRjCjDaHA0rw_G73zyH_pad-10" x="177100" y="-137750"/><use xlink:href="#gKRjCjDaHA0rw_G73zyH_pad-10" x="168000" y="-142250"/><use xlink:href="#gKRjCjDaHA0rw_G73zyH_pad-10" x="177100" y="-142250"/><use xlink:href="#gKRjCjDaHA0rw_G73zyH_pad-24" x="169380" y="-43750"/><use xlink:href="#gKRjCjDaHA0rw_G73zyH_pad-25" x="171920" y="-43750"/><use xlink:href="#gKRjCjDaHA0rw_G73zyH_pad-25" x="174460" y="-43750"/><use xlink:href="#gKRjCjDaHA0rw_G73zyH_pad-25" x="177000" y="-43750"/><use xlink:href="#gKRjCjDaHA0rw_G73zyH_pad-10" x="153450" y="-99500"/><use xlink:href="#gKRjCjDaHA0rw_G73zyH_pad-10" x="162550" y="-99500"/><use xlink:href="#gKRjCjDaHA0rw_G73zyH_pad-10" x="153450" y="-104000"/><use xlink:href="#gKRjCjDaHA0rw_G73zyH_pad-10" x="162550" y="-104000"/><use xlink:href="#gKRjCjDaHA0rw_G73zyH_pad-26" x="145500" y="-69212.5"/><use xlink:href="#gKRjCjDaHA0rw_G73zyH_pad-26" x="145500" y="-66287.5"/><use xlink:href="#gKRjCjDaHA0rw_G73zyH_pad-10" x="167950" y="-111500"/><use xlink:href="#gKRjCjDaHA0rw_G73zyH_pad-10" x="177050" y="-111500"/><use xlink:href="#gKRjCjDaHA0rw_G73zyH_pad-10" x="167950" y="-116000"/><use xlink:href="#gKRjCjDaHA0rw_G73zyH_pad-10" x="177050" y="-116000"/><use xlink:href="#gKRjCjDaHA0rw_G73zyH_pad-27" x="195750" y="-44500"/><use xlink:href="#gKRjCjDaHA0rw_G73zyH_pad-22" x="195750" y="-47000"/></g></svg>