<svg version="1.1" xmlns="http://www.w3.org/2000/svg" xmlns:xlink="http://www.w3.org/1999/xlink" stroke-linecap="round" stroke-linejoin="round" stroke-width="0" fill-rule="evenodd" width="65.66mm" height="101.4mm" viewBox="141340 -144650 65660 101400" id="x-V7rCRIxaomUQCPtIpQ"><defs><circle cx="0" cy="0" r="150" id="x-V7rCRIxaomUQCPtIpQ_pad-1"/><circle cx="0" cy="0" r="400" id="x-V7rCRIxaomUQCPtIpQ_pad-2"/><circle cx="0" cy="0" r="450" id="x-V7rCRIxaomUQCPtIpQ_pad-3"/><circle cx="0" cy="0" r="500" id="x-V7rCRIxaomUQCPtIpQ_pad-4"/><circle cx="0" cy="0" r="750" id="x-V7rCRIxaomUQCPtIpQ_pad-5"/></defs><g transform="translate(0,-187900) scale(1,-1)" fill="currentColor" stroke="currentColor"><use xlink:href="#x-V7rCRIxaomUQCPtIpQ_pad-1" x="148000" y="-106250"/><use xlink:href="#x-V7rCRIxaomUQCPtIpQ_pad-1" x="148000" y="-118250"/><use xlink:href="#x-V7rCRIxaomUQCPtIpQ_pad-1" x="148000" y="-131000"/><use xlink:href="#x-V7rCRIxaomUQCPtIpQ_pad-1" x="148250" y="-144500"/><use xlink:href="#x-V7rCRIxaomUQCPtIpQ_pad-1" x="153000" y="-77250"/><use xlink:href="#x-V7rCRIxaomUQCPtIpQ_pad-1" x="153500" y="-106500"/><use xlink:href="#x-V7rCRIxaomUQCPtIpQ_pad-1" x="153500" y="-118250"/><use xlink:href="#x-V7rCRIxaomUQCPtIpQ_pad-1" x="153500" y="-144500"/><use xlink:href="#x-V7rCRIxaomUQCPtIpQ_pad-1" x="153750" y="-131000"/><use xlink:href="#x-V7rCRIxaomUQCPtIpQ_pad-1" x="162500" y="-106250"/><use xlink:href="#x-V7rCRIxaomUQCPtIpQ_pad-1" x="162750" y="-118250"/><use xlink:href="#x-V7rCRIxaomUQCPtIpQ_pad-1" x="162750" y="-131000"/><use xlink:href="#x-V7rCRIxaomUQCPtIpQ_pad-1" x="167750" y="-118250"/><use xlink:href="#x-V7rCRIxaomUQCPtIpQ_pad-1" x="168000" y="-106250"/><use xlink:href="#x-V7rCRIxaomUQCPtIpQ_pad-1" x="168000" y="-131000"/><use xlink:href="#x-V7rCRIxaomUQCPtIpQ_pad-1" x="177000" y="-106250"/><use xlink:href="#x-V7rCRIxaomUQCPtIpQ_pad-1" x="177000" y="-118250"/><use xlink:href="#x-V7rCRIxaomUQCPtIpQ_pad-1" x="177250" y="-131000"/><use xlink:href="#x-V7rCRIxaomUQCPtIpQ_pad-1" x="182500" y="-106250"/><use xlink:href="#x-V7rCRIxaomUQCPtIpQ_pad-1" x="182500" y="-118250"/><use xlink:href="#x-V7rCRIxaomUQCPtIpQ_pad-1" x="182500" y="-131000"/><use xlink:href="#x-V7rCRIxaomUQCPtIpQ_pad-1" x="185250" y="-80000"/><use xlink:href="#x-V7rCRIxaomUQCPtIpQ_pad-1" x="191500" y="-106250"/><use xlink:href="#x-V7rCRIxaomUQCPtIpQ_pad-1" x="191750" y="-118250"/><use xlink:href="#x-V7rCRIxaomUQCPtIpQ_pad-1" x="191750" y="-131000"/><use xlink:href="#x-V7rCRIxaomUQCPtIpQ_pad-1" x="196250" y="-106250"/><use xlink:href="#x-V7rCRIxaomUQCPtIpQ_pad-1" x="196250" y="-131000"/><use xlink:href="#x-V7rCRIxaomUQCPtIpQ_pad-1" x="196500" y="-118250"/><use xlink:href="#x-V7rCRIxaomUQCPtIpQ_pad-1" x="199000" y="-80500"/><use xlink:href="#x-V7rCRIxaomUQCPtIpQ_pad-1" x="199000" y="-82550"/><use xlink:href="#x-V7rCRIxaomUQCPtIpQ_pad-1" x="203500" y="-80750"/><use xlink:href="#x-V7rCRIxaomUQCPtIpQ_pad-1" x="203500" y="-82550"/><use xlink:href="#x-V7rCRIxaomUQCPtIpQ_pad-2" x="141740" y="-81435"/><use xlink:href="#x-V7rCRIxaomUQCPtIpQ_pad-2" x="141740" y="-89055"/><use xlink:href="#x-V7rCRIxaomUQCPtIpQ_pad-2" x="144280" y="-81435"/><use xlink:href="#x-V7rCRIxaomUQCPtIpQ_pad-2" x="144280" y="-89055"/><use xlink:href="#x-V7rCRIxaomUQCPtIpQ_pad-2" x="146820" y="-81435"/><use xlink:href="#x-V7rCRIxaomUQCPtIpQ_pad-2" x="146820" y="-89055"/><use xlink:href="#x-V7rCRIxaomUQCPtIpQ_pad-2" x="149360" y="-81435"/><use xlink:href="#x-V7rCRIxaomUQCPtIpQ_pad-2" x="149360" y="-89055"/><use xlink:href="#x-V7rCRIxaomUQCPtIpQ_pad-2" x="151900" y="-81435"/><use xlink:href="#x-V7rCRIxaomUQCPtIpQ_pad-2" x="151900" y="-89055"/><use xlink:href="#x-V7rCRIxaomUQCPtIpQ_pad-2" x="154440" y="-81435"/><use xlink:href="#x-V7rCRIxaomUQCPtIpQ_pad-2" x="154440" y="-89055"/><use xlink:href="#x-V7rCRIxaomUQCPtIpQ_pad-2" x="156980" y="-81435"/><use xlink:href="#x-V7rCRIxaomUQCPtIpQ_pad-2" x="156980" y="-89055"/><use xlink:href="#x-V7rCRIxaomUQCPtIpQ_pad-2" x="159520" y="-81435"/><use xlink:href="#x-V7rCRIxaomUQCPtIpQ_pad-2" x="159520" y="-89055"/><use xlink:href="#x-V7rCRIxaomUQCPtIpQ_pad-2" x="162060" y="-81435"/><use xlink:href="#x-V7rCRIxaomUQCPtIpQ_pad-2" x="162060" y="-89055"/><use xlink:href="#x-V7rCRIxaomUQCPtIpQ_pad-2" x="164600" y="-81435"/><use xlink:href="#x-V7rCRIxaomUQCPtIpQ_pad-2" x="164600" y="-89055"/><use xlink:href="#x-V7rCRIxaomUQCPtIpQ_pad-2" x="167140" y="-81435"/><use xlink:href="#x-V7rCRIxaomUQCPtIpQ_pad-2" x="167140" y="-89055"/><use xlink:href="#x-V7rCRIxaomUQCPtIpQ_pad-2" x="169680" y="-81435"/><use xlink:href="#x-V7rCRIxaomUQCPtIpQ_pad-2" x="169680" y="-89055"/><use xlink:href="#x-V7rCRIxaomUQCPtIpQ_pad-2" x="172220" y="-81435"/><use xlink:href="#x-V7rCRIxaomUQCPtIpQ_pad-2" x="172220" y="-89055"/><use xlink:href="#x-V7rCRIxaomUQCPtIpQ_pad-2" x="174760" y="-81435"/><use xlink:href="#x-V7rCRIxaomUQCPtIpQ_pad-2" x="174760" y="-89055"/><use xlink:href="#x-V7rCRIxaomUQCPtIpQ_pad-2" x="195750" y="-44500"/><use xlink:href="#x-V7rCRIxaomUQCPtIpQ_pad-2" x="195750" y="-47000"/><use xlink:href="#x-V7rCRIxaomUQCPtIpQ_pad-3" x="206250" y="-62000"/><use xlink:href="#x-V7rCRIxaomUQCPtIpQ_pad-3" x="206250" y="-64000"/><use xlink:href="#x-V7rCRIxaomUQCPtIpQ_pad-3" x="206250" y="-66000"/><use xlink:href="#x-V7rCRIxaomUQCPtIpQ_pad-4" x="144500" y="-55621"/><use xlink:href="#x-V7rCRIxaomUQCPtIpQ_pad-4" x="144500" y="-60621"/><use xlink:href="#x-V7rCRIxaomUQCPtIpQ_pad-4" x="169380" y="-43750"/><use xlink:href="#x-V7rCRIxaomUQCPtIpQ_pad-4" x="171920" y="-43750"/><use xlink:href="#x-V7rCRIxaomUQCPtIpQ_pad-4" x="174460" y="-43750"/><use xlink:href="#x-V7rCRIxaomUQCPtIpQ_pad-4" x="177000" y="-43750"/><use xlink:href="#x-V7rCRIxaomUQCPtIpQ_pad-5" x="206250" y="-59900"/><use xlink:href="#x-V7rCRIxaomUQCPtIpQ_pad-5" x="206250" y="-68100"/></g></svg>