<svg version="1.1" xmlns="http://www.w3.org/2000/svg" xmlns:xlink="http://www.w3.org/1999/xlink" stroke-linecap="round" stroke-linejoin="round" stroke-width="0" fill-rule="evenodd" width="41.129819000000005mm" height="24.4mm" viewBox="158900 -67600 41129.819 24400" id="EXuRuKgmZyTdN8YzvVIm"><g transform="translate(0,-110800) scale(1,-1)" fill="currentColor" stroke="currentColor"><path d="M 174626.189 -47254.819 174007.142 -47254.819 174340.475 -47635.771 174197.618 -47635.771 174102.38 -47683.39 174054.761 -47731.009 174007.142 -47826.247 174007.142 -48064.342 174054.761 -48159.58 174102.38 -48207.2 174197.618 -48254.819 174483.332 -48254.819 174578.57 -48207.2 174626.189 -48159.58 M 173578.57 -48159.58 173530.951 -48207.2 173578.57 -48254.819 173626.189 -48207.2 173578.57 -48159.58 173578.57 -48254.819 M 173197.618 -47254.819 172578.571 -47254.819 172911.904 -47635.771 172769.047 -47635.771 172673.809 -47683.39 172626.19 -47731.009 172578.571 -47826.247 172578.571 -48064.342 172626.19 -48159.58 172673.809 -48207.2 172769.047 -48254.819 173054.761 -48254.819 173149.999 -48207.2 173197.618 -48159.58 M 172292.856 -47254.819 171959.523 -48254.819 171626.19 -47254.819 M 173935.714 -59481.009 173792.857 -59528.628 173745.238 -59576.247 173697.619 -59671.485 173697.619 -59814.342 173745.238 -59909.58 173792.857 -59957.2 173888.095 -60004.819 174269.047 -60004.819 174269.047 -59004.819 173935.714 -59004.819 173840.476 -59052.438 173792.857 -59100.057 173745.238 -59195.295 173745.238 -59290.533 173792.857 -59385.771 173840.476 -59433.39 173935.714 -59481.009 174269.047 -59481.009 M 173411.904 -59004.819 172840.476 -59004.819 M 173126.19 -60004.819 173126.19 -59004.819 M 171983.333 -60004.819 172554.761 -60004.819 M 172269.047 -60004.819 172269.047 -59004.819 172364.285 -59147.676 172459.523 -59242.914 172554.761 -59290.533 M 199954.819 -44202.38 199954.819 -43630.952 M 199954.819 -43916.666 198954.819 -43916.666 199097.676 -43821.428 199192.914 -43726.19 199240.533 -43630.952 M 198954.819 -44821.428 198954.819 -44916.666 199002.438 -45011.904 199050.057 -45059.523 199145.295 -45107.142 199335.771 -45154.761 199573.866 -45154.761 199764.342 -45107.142 199859.58 -45059.523 199907.2 -45011.904 199954.819 -44916.666 199954.819 -44821.428 199907.2 -44726.19 199859.58 -44678.571 199764.342 -44630.952 199573.866 -44583.333 199335.771 -44583.333 199145.295 -44630.952 199050.057 -44678.571 199002.438 -44726.19 198954.819 -44821.428 M 198954.819 -45773.809 198954.819 -45869.047 199002.438 -45964.285 199050.057 -46011.904 199145.295 -46059.523 199335.771 -46107.142 199573.866 -46107.142 199764.342 -46059.523 199859.58 -46011.904 199907.2 -45964.285 199954.819 -45869.047 199954.819 -45773.809 199907.2 -45678.571 199859.58 -45630.952 199764.342 -45583.333 199573.866 -45535.714 199335.771 -45535.714 199145.295 -45583.333 199050.057 -45630.952 199002.438 -45678.571 198954.819 -45773.809 M 199288.152 -46964.285 199954.819 -46964.285 M 199288.152 -46535.714 199811.961 -46535.714 199907.2 -46583.333 199954.819 -46678.571 199954.819 -46821.428 199907.2 -46916.666 199859.58 -46964.285 M 199431.009 -47773.809 199431.009 -47440.476 M 199954.819 -47440.476 198954.819 -47440.476 198954.819 -47916.666 M 196109.58 -45583.333 196157.2 -45535.714 196204.819 -45392.857 196204.819 -45297.619 196157.2 -45154.762 196061.961 -45059.524 195966.723 -45011.905 195776.247 -44964.286 195633.39 -44964.286 195442.914 -45011.905 195347.676 -45059.524 195252.438 -45154.762 195204.819 -45297.619 195204.819 -45392.857 195252.438 -45535.714 195300.057 -45583.333 M 196204.819 -46535.714 196204.819 -45964.286 M 196204.819 -46250 195204.819 -46250 195347.676 -46154.762 195442.914 -46059.524 195490.533 -45964.286" fill="none" stroke-width="150"/><path d="M 158950 -56050 162150 -56050 M 158950 -63050 158950 -56050 M 162150 -51550 162150 -56050 M 162150 -51550 184150 -51550 M 162150 -63050 158950 -63050 M 162150 -67550 162150 -63050 M 162150 -67550 182550 -67550 184150 -65950 M 184150 -51550 184150 -56050 M 184150 -63050 187350 -63050 M 184150 -65950 184150 -63050 M 187350 -56050 184150 -56050 M 187350 -63050 187350 -56050 M 194412.5 -43866.395 194912.5 -43866.395 M 194662.5 -43616.395 194662.5 -44116.395 M 198250 -45750 A 2500 2500 0 0 0 193250 -45750 2500 2500 0 0 0 198250 -45750" fill="none" stroke-width="100"/></g></svg>