<svg version="1.1" xmlns="http://www.w3.org/2000/svg" xmlns:xlink="http://www.w3.org/1999/xlink" stroke-linecap="round" stroke-linejoin="round" stroke-width="0" fill-rule="evenodd" width="76.225057mm" height="103.225057mm" viewBox="138350 -144775.057 76225.057 103225.057" id="ShMGrX1iqhc8pA15dGPj"><g transform="translate(0,-186325.057) scale(1,-1)" fill="currentColor" stroke="currentColor"><path d="M 140452.381 -106307.2 140595.238 -106354.819 140833.333 -106354.819 140928.571 -106307.2 140976.19 -106259.58 141023.809 -106164.342 141023.809 -106069.104 140976.19 -105973.866 140928.571 -105926.247 140833.333 -105878.628 140642.857 -105831.009 140547.619 -105783.39 140500 -105735.771 140452.381 -105640.533 140452.381 -105545.295 140500 -105450.057 140547.619 -105402.438 140642.857 -105354.819 140880.952 -105354.819 141023.809 -105402.438 M 141357.143 -105354.819 141595.238 -106354.819 141785.714 -105640.533 141976.19 -106354.819 142214.286 -105354.819 M 142357.143 -106450.057 143119.047 -106450.057 M 143357.143 -106354.819 143357.143 -105354.819 143738.095 -105354.819 143833.333 -105402.438 143880.952 -105450.057 143928.571 -105545.295 143928.571 -105688.152 143880.952 -105783.39 143833.333 -105831.009 143738.095 -105878.628 143357.143 -105878.628 M 144785.714 -105688.152 144785.714 -106354.819 M 144357.143 -105688.152 144357.143 -106211.961 144404.762 -106307.2 144500 -106354.819 144642.857 -106354.819 144738.095 -106307.2 144785.714 -106259.58 M 145214.286 -106307.2 145309.524 -106354.819 145500 -106354.819 145595.238 -106307.2 145642.857 -106211.961 145642.857 -106164.342 145595.238 -106069.104 145500 -106021.485 145357.143 -106021.485 145261.905 -105973.866 145214.286 -105878.628 145214.286 -105831.009 145261.905 -105735.771 145357.143 -105688.152 145500 -105688.152 145595.238 -105735.771 M 146071.429 -106354.819 146071.429 -105354.819 M 146500 -106354.819 146500 -105831.009 146452.381 -105735.771 146357.143 -105688.152 146214.286 -105688.152 146119.048 -105735.771 146071.429 -105783.39 M 142166.667 -102157.2 142309.524 -102204.819 142547.619 -102204.819 142642.857 -102157.2 142690.476 -102109.58 142738.095 -102014.342 142738.095 -101919.104 142690.476 -101823.866 142642.857 -101776.247 142547.619 -101728.628 142357.143 -101681.009 142261.905 -101633.39 142214.286 -101585.771 142166.667 -101490.533 142166.667 -101395.295 142214.286 -101300.057 142261.905 -101252.438 142357.143 -101204.819 142595.238 -101204.819 142738.095 -101252.438 M 143071.429 -101204.819 143309.524 -102204.819 143500 -101490.533 143690.476 -102204.819 143928.572 -101204.819 M 144261.905 -101300.057 144309.524 -101252.438 144404.762 -101204.819 144642.857 -101204.819 144738.095 -101252.438 144785.714 -101300.057 144833.333 -101395.295 144833.333 -101490.533 144785.714 -101633.39 144214.286 -102204.819 144833.333 -102204.819 M 214357.2 -69204.761 214404.819 -69061.904 214404.819 -68823.809 214357.2 -68728.571 214309.58 -68680.952 214214.342 -68633.333 214119.104 -68633.333 214023.866 -68680.952 213976.247 -68728.571 213928.628 -68823.809 213881.009 -69014.285 213833.39 -69109.523 213785.771 -69157.142 213690.533 -69204.761 213595.295 -69204.761 213500.057 -69157.142 213452.438 -69109.523 213404.819 -69014.285 213404.819 -68776.19 213452.438 -68633.333 M 213404.819 -68299.999 214404.819 -68061.904 213690.533 -67871.428 214404.819 -67680.952 213404.819 -67442.857 M 214500.057 -67300 214500.057 -66538.095 M 214357.2 -66347.618 214404.819 -66204.761 214404.819 -65966.666 214357.2 -65871.428 214309.58 -65823.809 214214.342 -65776.19 214119.104 -65776.19 214023.866 -65823.809 213976.247 -65871.428 213928.628 -65966.666 213881.009 -66157.142 213833.39 -66252.38 213785.771 -66299.999 213690.533 -66347.618 213595.295 -66347.618 213500.057 -66299.999 213452.438 -66252.38 213404.819 -66157.142 213404.819 -65919.047 213452.438 -65776.19 M 214404.819 -65347.618 213404.819 -65347.618 213404.819 -64966.666 213452.438 -64871.428 213500.057 -64823.809 213595.295 -64776.19 213738.152 -64776.19 213833.39 -64823.809 213881.009 -64871.428 213928.628 -64966.666 213928.628 -65347.618 M 214404.819 -64347.618 213404.819 -64347.618 213404.819 -64109.523 213452.438 -63966.666 213547.676 -63871.428 213642.914 -63823.809 213833.39 -63776.19 213976.247 -63776.19 214166.723 -63823.809 214261.961 -63871.428 214357.2 -63966.666 214404.819 -64109.523 214404.819 -64347.618 M 213404.819 -63490.475 213404.819 -62919.047 M 214404.819 -63204.761 213404.819 -63204.761 M 214500.057 -62823.809 214500.057 -62061.904 M 213404.819 -61919.046 213404.819 -61299.999 213785.771 -61633.332 213785.771 -61490.475 213833.39 -61395.237 213881.009 -61347.618 213976.247 -61299.999 214214.342 -61299.999 214309.58 -61347.618 214357.2 -61395.237 214404.819 -61490.475 214404.819 -61776.189 214357.2 -61871.427 214309.58 -61919.046 M 214404.819 -60347.618 214404.819 -60919.046 M 214404.819 -60633.332 213404.819 -60633.332 213547.676 -60728.57 213642.914 -60823.808 213690.533 -60919.046 M 213500.057 -59966.665 213452.438 -59919.046 213404.819 -59823.808 213404.819 -59585.713 213452.438 -59490.475 213500.057 -59442.856 213595.295 -59395.237 213690.533 -59395.237 213833.39 -59442.856 214404.819 -60014.284 214404.819 -59395.237" fill="none" stroke-width="150"/><path d="M 208152.3 -64604.76 208176.109 -64533.332 208176.109 -64414.284 208152.3 -64366.665 208128.49 -64342.856 208080.871 -64319.046 208033.252 -64319.046 207985.633 -64342.856 207961.823 -64366.665 207938.014 -64414.284 207914.204 -64509.522 207890.395 -64557.141 207866.585 -64580.951 207818.966 -64604.76 207771.347 -64604.76 207723.728 -64580.951 207699.919 -64557.141 207676.109 -64509.522 207676.109 -64390.475 207699.919 -64319.046 M 207676.109 -64152.38 208176.109 -64033.332 207818.966 -63938.094 208176.109 -63842.856 207676.109 -63723.809 M 207723.728 -63557.141 207699.919 -63533.332 207676.109 -63485.713 207676.109 -63366.665 207699.919 -63319.046 207723.728 -63295.237 207771.347 -63271.427 207818.966 -63271.427 207890.395 -63295.237 208176.109 -63580.951 208176.109 -63271.427 M 207723.728 -63080.951 207699.919 -63057.142 207676.109 -63009.523 207676.109 -62890.475 207699.919 -62842.856 207723.728 -62819.047 207771.347 -62795.237 207818.966 -62795.237 207890.395 -62819.047 208176.109 -63104.761 208176.109 -62795.237" fill="none" stroke-width="100"/><path d="M 169452.381 -106307.2 169595.238 -106354.819 169833.333 -106354.819 169928.571 -106307.2 169976.19 -106259.58 170023.809 -106164.342 170023.809 -106069.104 169976.19 -105973.866 169928.571 -105926.247 169833.333 -105878.628 169642.857 -105831.009 169547.619 -105783.39 169500 -105735.771 169452.381 -105640.533 169452.381 -105545.295 169500 -105450.057 169547.619 -105402.438 169642.857 -105354.819 169880.952 -105354.819 170023.809 -105402.438 M 170357.143 -105354.819 170595.238 -106354.819 170785.714 -105640.533 170976.19 -106354.819 171214.286 -105354.819 M 171357.143 -106450.057 172119.047 -106450.057 M 172357.143 -106354.819 172357.143 -105354.819 172738.095 -105354.819 172833.333 -105402.438 172880.952 -105450.057 172928.571 -105545.295 172928.571 -105688.152 172880.952 -105783.39 172833.333 -105831.009 172738.095 -105878.628 172357.143 -105878.628 M 173785.714 -105688.152 173785.714 -106354.819 M 173357.143 -105688.152 173357.143 -106211.961 173404.762 -106307.2 173500 -106354.819 173642.857 -106354.819 173738.095 -106307.2 173785.714 -106259.58 M 174214.286 -106307.2 174309.524 -106354.819 174500 -106354.819 174595.238 -106307.2 174642.857 -106211.961 174642.857 -106164.342 174595.238 -106069.104 174500 -106021.485 174357.143 -106021.485 174261.905 -105973.866 174214.286 -105878.628 174214.286 -105831.009 174261.905 -105735.771 174357.143 -105688.152 174500 -105688.152 174595.238 -105735.771 M 175071.429 -106354.819 175071.429 -105354.819 M 175500 -106354.819 175500 -105831.009 175452.381 -105735.771 175357.143 -105688.152 175214.286 -105688.152 175119.048 -105735.771 175071.429 -105783.39 M 170690.476 -102157.2 170833.333 -102204.819 171071.428 -102204.819 171166.666 -102157.2 171214.285 -102109.58 171261.904 -102014.342 171261.904 -101919.104 171214.285 -101823.866 171166.666 -101776.247 171071.428 -101728.628 170880.952 -101681.009 170785.714 -101633.39 170738.095 -101585.771 170690.476 -101490.533 170690.476 -101395.295 170738.095 -101300.057 170785.714 -101252.438 170880.952 -101204.819 171119.047 -101204.819 171261.904 -101252.438 M 171595.238 -101204.819 171833.333 -102204.819 172023.809 -101490.533 172214.285 -102204.819 172452.381 -101204.819 M 173357.142 -102204.819 172785.714 -102204.819 M 173071.428 -102204.819 173071.428 -101204.819 172976.19 -101347.676 172880.952 -101442.914 172785.714 -101490.533 M 173690.476 -101204.819 174309.523 -101204.819 173976.19 -101585.771 174119.047 -101585.771 174214.285 -101633.39 174261.904 -101681.009 174309.523 -101776.247 174309.523 -102014.342 174261.904 -102109.58 174214.285 -102157.2 174119.047 -102204.819 173833.333 -102204.819 173738.095 -102157.2 173690.476 -102109.58 M 185977.38 -93304.819 185405.952 -93304.819 M 185691.666 -93304.819 185691.666 -92304.819 185596.428 -92447.676 185501.19 -92542.914 185405.952 -92590.533 M 186596.428 -92304.819 186691.666 -92304.819 186786.904 -92352.438 186834.523 -92400.057 186882.142 -92495.295 186929.761 -92685.771 186929.761 -92923.866 186882.142 -93114.342 186834.523 -93209.58 186786.904 -93257.2 186691.666 -93304.819 186596.428 -93304.819 186501.19 -93257.2 186453.571 -93209.58 186405.952 -93114.342 186358.333 -92923.866 186358.333 -92685.771 186405.952 -92495.295 186453.571 -92400.057 186501.19 -92352.438 186596.428 -92304.819 M 187548.809 -92304.819 187644.047 -92304.819 187739.285 -92352.438 187786.904 -92400.057 187834.523 -92495.295 187882.142 -92685.771 187882.142 -92923.866 187834.523 -93114.342 187786.904 -93209.58 187739.285 -93257.2 187644.047 -93304.819 187548.809 -93304.819 187453.571 -93257.2 187405.952 -93209.58 187358.333 -93114.342 187310.714 -92923.866 187310.714 -92685.771 187358.333 -92495.295 187405.952 -92400.057 187453.571 -92352.438 187548.809 -92304.819 M 188310.714 -92638.152 188310.714 -93304.819 M 188310.714 -92733.39 188358.333 -92685.771 188453.571 -92638.152 188596.428 -92638.152 188691.666 -92685.771 188739.285 -92781.009 188739.285 -93304.819 M 189548.809 -92781.009 189215.476 -92781.009 M 189215.476 -93304.819 189215.476 -92304.819 189691.666 -92304.819" fill="none" stroke-width="150"/><path d="M 187391.667 -91287.664 187353.571 -91325.76 187239.286 -91363.855 187163.095 -91363.855 187048.809 -91325.76 186972.619 -91249.569 186934.524 -91173.379 186896.428 -91020.998 186896.428 -90906.712 186934.524 -90754.331 186972.619 -90678.14 187048.809 -90601.95 187163.095 -90563.855 187239.286 -90563.855 187353.571 -90601.95 187391.667 -90640.045 M 187696.428 -90640.045 187734.524 -90601.95 187810.714 -90563.855 188001.19 -90563.855 188077.381 -90601.95 188115.476 -90640.045 188153.571 -90716.236 188153.571 -90792.426 188115.476 -90906.712 187658.333 -91363.855 188153.571 -91363.855" fill="none" stroke-width="120"/><path d="M 140502.381 -144557.2 140645.238 -144604.819 140883.333 -144604.819 140978.571 -144557.2 141026.19 -144509.58 141073.809 -144414.342 141073.809 -144319.104 141026.19 -144223.866 140978.571 -144176.247 140883.333 -144128.628 140692.857 -144081.009 140597.619 -144033.39 140550 -143985.771 140502.381 -143890.533 140502.381 -143795.295 140550 -143700.057 140597.619 -143652.438 140692.857 -143604.819 140930.952 -143604.819 141073.809 -143652.438 M 141407.143 -143604.819 141645.238 -144604.819 141835.714 -143890.533 142026.19 -144604.819 142264.286 -143604.819 M 142407.143 -144700.057 143169.047 -144700.057 M 143407.143 -144604.819 143407.143 -143604.819 143788.095 -143604.819 143883.333 -143652.438 143930.952 -143700.057 143978.571 -143795.295 143978.571 -143938.152 143930.952 -144033.39 143883.333 -144081.009 143788.095 -144128.628 143407.143 -144128.628 M 144835.714 -143938.152 144835.714 -144604.819 M 144407.143 -143938.152 144407.143 -144461.961 144454.762 -144557.2 144550 -144604.819 144692.857 -144604.819 144788.095 -144557.2 144835.714 -144509.58 M 145264.286 -144557.2 145359.524 -144604.819 145550 -144604.819 145645.238 -144557.2 145692.857 -144461.961 145692.857 -144414.342 145645.238 -144319.104 145550 -144271.485 145407.143 -144271.485 145311.905 -144223.866 145264.286 -144128.628 145264.286 -144081.009 145311.905 -143985.771 145407.143 -143938.152 145550 -143938.152 145645.238 -143985.771 M 146121.429 -144604.819 146121.429 -143604.819 M 146550 -144604.819 146550 -144081.009 146502.381 -143985.771 146407.143 -143938.152 146264.286 -143938.152 146169.048 -143985.771 146121.429 -144033.39 M 142216.667 -140407.2 142359.524 -140454.819 142597.619 -140454.819 142692.857 -140407.2 142740.476 -140359.58 142788.095 -140264.342 142788.095 -140169.104 142740.476 -140073.866 142692.857 -140026.247 142597.619 -139978.628 142407.143 -139931.009 142311.905 -139883.39 142264.286 -139835.771 142216.667 -139740.533 142216.667 -139645.295 142264.286 -139550.057 142311.905 -139502.438 142407.143 -139454.819 142645.238 -139454.819 142788.095 -139502.438 M 143121.429 -139454.819 143359.524 -140454.819 143550 -139740.533 143740.476 -140454.819 143978.572 -139454.819 M 144835.714 -139454.819 144359.524 -139454.819 144311.905 -139931.009 144359.524 -139883.39 144454.762 -139835.771 144692.857 -139835.771 144788.095 -139883.39 144835.714 -139931.009 144883.333 -140026.247 144883.333 -140264.342 144835.714 -140359.58 144788.095 -140407.2 144692.857 -140454.819 144454.762 -140454.819 144359.524 -140407.2 144311.905 -140359.58 M 197852.381 -130807.2 197995.238 -130854.819 198233.333 -130854.819 198328.571 -130807.2 198376.19 -130759.58 198423.809 -130664.342 198423.809 -130569.104 198376.19 -130473.866 198328.571 -130426.247 198233.333 -130378.628 198042.857 -130331.009 197947.619 -130283.39 197900 -130235.771 197852.381 -130140.533 197852.381 -130045.295 197900 -129950.057 197947.619 -129902.438 198042.857 -129854.819 198280.952 -129854.819 198423.809 -129902.438 M 198757.143 -129854.819 198995.238 -130854.819 199185.714 -130140.533 199376.19 -130854.819 199614.286 -129854.819 M 199757.143 -130950.057 200519.047 -130950.057 M 200757.143 -130854.819 200757.143 -129854.819 201138.095 -129854.819 201233.333 -129902.438 201280.952 -129950.057 201328.571 -130045.295 201328.571 -130188.152 201280.952 -130283.39 201233.333 -130331.009 201138.095 -130378.628 200757.143 -130378.628 M 202185.714 -130188.152 202185.714 -130854.819 M 201757.143 -130188.152 201757.143 -130711.961 201804.762 -130807.2 201900 -130854.819 202042.857 -130854.819 202138.095 -130807.2 202185.714 -130759.58 M 202614.286 -130807.2 202709.524 -130854.819 202900 -130854.819 202995.238 -130807.2 203042.857 -130711.961 203042.857 -130664.342 202995.238 -130569.104 202900 -130521.485 202757.143 -130521.485 202661.905 -130473.866 202614.286 -130378.628 202614.286 -130331.009 202661.905 -130235.771 202757.143 -130188.152 202900 -130188.152 202995.238 -130235.771 M 203471.429 -130854.819 203471.429 -129854.819 M 203900 -130854.819 203900 -130331.009 203852.381 -130235.771 203757.143 -130188.152 203614.286 -130188.152 203519.048 -130235.771 203471.429 -130283.39 M 199090.476 -126657.2 199233.333 -126704.819 199471.428 -126704.819 199566.666 -126657.2 199614.285 -126609.58 199661.904 -126514.342 199661.904 -126419.104 199614.285 -126323.866 199566.666 -126276.247 199471.428 -126228.628 199280.952 -126181.009 199185.714 -126133.39 199138.095 -126085.771 199090.476 -125990.533 199090.476 -125895.295 199138.095 -125800.057 199185.714 -125752.438 199280.952 -125704.819 199519.047 -125704.819 199661.904 -125752.438 M 199995.238 -125704.819 200233.333 -126704.819 200423.809 -125990.533 200614.285 -126704.819 200852.381 -125704.819 M 201185.714 -125800.057 201233.333 -125752.438 201328.571 -125704.819 201566.666 -125704.819 201661.904 -125752.438 201709.523 -125800.057 201757.142 -125895.295 201757.142 -125990.533 201709.523 -126133.39 201138.095 -126704.819 201757.142 -126704.819 M 202376.19 -125704.819 202471.428 -125704.819 202566.666 -125752.438 202614.285 -125800.057 202661.904 -125895.295 202709.523 -126085.771 202709.523 -126323.866 202661.904 -126514.342 202614.285 -126609.58 202566.666 -126657.2 202471.428 -126704.819 202376.19 -126704.819 202280.952 -126657.2 202233.333 -126609.58 202185.714 -126514.342 202138.095 -126323.866 202138.095 -126085.771 202185.714 -125895.295 202233.333 -125800.057 202280.952 -125752.438 202376.19 -125704.819 M 198002.381 -144557.2 198145.238 -144604.819 198383.333 -144604.819 198478.571 -144557.2 198526.19 -144509.58 198573.809 -144414.342 198573.809 -144319.104 198526.19 -144223.866 198478.571 -144176.247 198383.333 -144128.628 198192.857 -144081.009 198097.619 -144033.39 198050 -143985.771 198002.381 -143890.533 198002.381 -143795.295 198050 -143700.057 198097.619 -143652.438 198192.857 -143604.819 198430.952 -143604.819 198573.809 -143652.438 M 198907.143 -143604.819 199145.238 -144604.819 199335.714 -143890.533 199526.19 -144604.819 199764.286 -143604.819 M 199907.143 -144700.057 200669.047 -144700.057 M 200907.143 -144604.819 200907.143 -143604.819 201288.095 -143604.819 201383.333 -143652.438 201430.952 -143700.057 201478.571 -143795.295 201478.571 -143938.152 201430.952 -144033.39 201383.333 -144081.009 201288.095 -144128.628 200907.143 -144128.628 M 202335.714 -143938.152 202335.714 -144604.819 M 201907.143 -143938.152 201907.143 -144461.961 201954.762 -144557.2 202050 -144604.819 202192.857 -144604.819 202288.095 -144557.2 202335.714 -144509.58 M 202764.286 -144557.2 202859.524 -144604.819 203050 -144604.819 203145.238 -144557.2 203192.857 -144461.961 203192.857 -144414.342 203145.238 -144319.104 203050 -144271.485 202907.143 -144271.485 202811.905 -144223.866 202764.286 -144128.628 202764.286 -144081.009 202811.905 -143985.771 202907.143 -143938.152 203050 -143938.152 203145.238 -143985.771 M 203621.429 -144604.819 203621.429 -143604.819 M 204050 -144604.819 204050 -144081.009 204002.381 -143985.771 203907.143 -143938.152 203764.286 -143938.152 203669.048 -143985.771 203621.429 -144033.39 M 199240.476 -140407.2 199383.333 -140454.819 199621.428 -140454.819 199716.666 -140407.2 199764.285 -140359.58 199811.904 -140264.342 199811.904 -140169.104 199764.285 -140073.866 199716.666 -140026.247 199621.428 -139978.628 199430.952 -139931.009 199335.714 -139883.39 199288.095 -139835.771 199240.476 -139740.533 199240.476 -139645.295 199288.095 -139550.057 199335.714 -139502.438 199430.952 -139454.819 199669.047 -139454.819 199811.904 -139502.438 M 200145.238 -139454.819 200383.333 -140454.819 200573.809 -139740.533 200764.285 -140454.819 201002.381 -139454.819 M 201335.714 -139550.057 201383.333 -139502.438 201478.571 -139454.819 201716.666 -139454.819 201811.904 -139502.438 201859.523 -139550.057 201907.142 -139645.295 201907.142 -139740.533 201859.523 -139883.39 201288.095 -140454.819 201907.142 -140454.819 M 202859.523 -140454.819 202288.095 -140454.819 M 202573.809 -140454.819 202573.809 -139454.819 202478.571 -139597.676 202383.333 -139692.914 202288.095 -139740.533 M 184052.381 -106307.2 184195.238 -106354.819 184433.333 -106354.819 184528.571 -106307.2 184576.19 -106259.58 184623.809 -106164.342 184623.809 -106069.104 184576.19 -105973.866 184528.571 -105926.247 184433.333 -105878.628 184242.857 -105831.009 184147.619 -105783.39 184100 -105735.771 184052.381 -105640.533 184052.381 -105545.295 184100 -105450.057 184147.619 -105402.438 184242.857 -105354.819 184480.952 -105354.819 184623.809 -105402.438 M 184957.143 -105354.819 185195.238 -106354.819 185385.714 -105640.533 185576.19 -106354.819 185814.286 -105354.819 M 185957.143 -106450.057 186719.047 -106450.057 M 186957.143 -106354.819 186957.143 -105354.819 187338.095 -105354.819 187433.333 -105402.438 187480.952 -105450.057 187528.571 -105545.295 187528.571 -105688.152 187480.952 -105783.39 187433.333 -105831.009 187338.095 -105878.628 186957.143 -105878.628 M 188385.714 -105688.152 188385.714 -106354.819 M 187957.143 -105688.152 187957.143 -106211.961 188004.762 -106307.2 188100 -106354.819 188242.857 -106354.819 188338.095 -106307.2 188385.714 -106259.58 M 188814.286 -106307.2 188909.524 -106354.819 189100 -106354.819 189195.238 -106307.2 189242.857 -106211.961 189242.857 -106164.342 189195.238 -106069.104 189100 -106021.485 188957.143 -106021.485 188861.905 -105973.866 188814.286 -105878.628 188814.286 -105831.009 188861.905 -105735.771 188957.143 -105688.152 189100 -105688.152 189195.238 -105735.771 M 189671.429 -106354.819 189671.429 -105354.819 M 190100 -106354.819 190100 -105831.009 190052.381 -105735.771 189957.143 -105688.152 189814.286 -105688.152 189719.048 -105735.771 189671.429 -105783.39 M 185290.476 -102157.2 185433.333 -102204.819 185671.428 -102204.819 185766.666 -102157.2 185814.285 -102109.58 185861.904 -102014.342 185861.904 -101919.104 185814.285 -101823.866 185766.666 -101776.247 185671.428 -101728.628 185480.952 -101681.009 185385.714 -101633.39 185338.095 -101585.771 185290.476 -101490.533 185290.476 -101395.295 185338.095 -101300.057 185385.714 -101252.438 185480.952 -101204.819 185719.047 -101204.819 185861.904 -101252.438 M 186195.238 -101204.819 186433.333 -102204.819 186623.809 -101490.533 186814.285 -102204.819 187052.381 -101204.819 M 187957.142 -102204.819 187385.714 -102204.819 M 187671.428 -102204.819 187671.428 -101204.819 187576.19 -101347.676 187480.952 -101442.914 187385.714 -101490.533 M 188814.285 -101538.152 188814.285 -102204.819 M 188576.19 -101157.2 188338.095 -101871.485 188957.142 -101871.485 M 155102.381 -130807.2 155245.238 -130854.819 155483.333 -130854.819 155578.571 -130807.2 155626.19 -130759.58 155673.809 -130664.342 155673.809 -130569.104 155626.19 -130473.866 155578.571 -130426.247 155483.333 -130378.628 155292.857 -130331.009 155197.619 -130283.39 155150 -130235.771 155102.381 -130140.533 155102.381 -130045.295 155150 -129950.057 155197.619 -129902.438 155292.857 -129854.819 155530.952 -129854.819 155673.809 -129902.438 M 156007.143 -129854.819 156245.238 -130854.819 156435.714 -130140.533 156626.19 -130854.819 156864.286 -129854.819 M 157007.143 -130950.057 157769.047 -130950.057 M 158007.143 -130854.819 158007.143 -129854.819 158388.095 -129854.819 158483.333 -129902.438 158530.952 -129950.057 158578.571 -130045.295 158578.571 -130188.152 158530.952 -130283.39 158483.333 -130331.009 158388.095 -130378.628 158007.143 -130378.628 M 159435.714 -130188.152 159435.714 -130854.819 M 159007.143 -130188.152 159007.143 -130711.961 159054.762 -130807.2 159150 -130854.819 159292.857 -130854.819 159388.095 -130807.2 159435.714 -130759.58 M 159864.286 -130807.2 159959.524 -130854.819 160150 -130854.819 160245.238 -130807.2 160292.857 -130711.961 160292.857 -130664.342 160245.238 -130569.104 160150 -130521.485 160007.143 -130521.485 159911.905 -130473.866 159864.286 -130378.628 159864.286 -130331.009 159911.905 -130235.771 160007.143 -130188.152 160150 -130188.152 160245.238 -130235.771 M 160721.429 -130854.819 160721.429 -129854.819 M 161150 -130854.819 161150 -130331.009 161102.381 -130235.771 161007.143 -130188.152 160864.286 -130188.152 160769.048 -130235.771 160721.429 -130283.39 M 156816.667 -126657.2 156959.524 -126704.819 157197.619 -126704.819 157292.857 -126657.2 157340.476 -126609.58 157388.095 -126514.342 157388.095 -126419.104 157340.476 -126323.866 157292.857 -126276.247 157197.619 -126228.628 157007.143 -126181.009 156911.905 -126133.39 156864.286 -126085.771 156816.667 -125990.533 156816.667 -125895.295 156864.286 -125800.057 156911.905 -125752.438 157007.143 -125704.819 157245.238 -125704.819 157388.095 -125752.438 M 157721.429 -125704.819 157959.524 -126704.819 158150 -125990.533 158340.476 -126704.819 158578.572 -125704.819 M 159102.381 -126133.39 159007.143 -126085.771 158959.524 -126038.152 158911.905 -125942.914 158911.905 -125895.295 158959.524 -125800.057 159007.143 -125752.438 159102.381 -125704.819 159292.857 -125704.819 159388.095 -125752.438 159435.714 -125800.057 159483.333 -125895.295 159483.333 -125942.914 159435.714 -126038.152 159388.095 -126085.771 159292.857 -126133.39 159102.381 -126133.39 159007.143 -126181.009 158959.524 -126228.628 158911.905 -126323.866 158911.905 -126514.342 158959.524 -126609.58 159007.143 -126657.2 159102.381 -126704.819 159292.857 -126704.819 159388.095 -126657.2 159435.714 -126609.58 159483.333 -126514.342 159483.333 -126323.866 159435.714 -126228.628 159388.095 -126181.009 159292.857 -126133.39 M 151741.009 -60049.356 151788.628 -59906.499 151836.247 -59858.88 151931.485 -59811.261 152074.342 -59811.261 152169.58 -59858.88 152217.2 -59906.499 152264.819 -60001.737 152264.819 -60382.689 151264.819 -60382.689 151264.819 -60049.356 151312.438 -59954.118 151360.057 -59906.499 151455.295 -59858.88 151550.533 -59858.88 151645.771 -59906.499 151693.39 -59954.118 151741.009 -60049.356 151741.009 -60382.689 M 151598.152 -58954.118 152264.819 -58954.118 M 151598.152 -59382.689 152121.961 -59382.689 152217.2 -59335.07 152264.819 -59239.832 152264.819 -59096.975 152217.2 -59001.737 152169.58 -58954.118 M 151598.152 -58573.165 151598.152 -58049.356 152264.819 -58573.165 152264.819 -58049.356 M 151598.152 -57763.641 151598.152 -57239.832 152264.819 -57763.641 152264.819 -57239.832 M 152217.2 -56477.927 152264.819 -56573.165 152264.819 -56763.641 152217.2 -56858.879 152121.961 -56906.498 151741.009 -56906.498 151645.771 -56858.879 151598.152 -56763.641 151598.152 -56573.165 151645.771 -56477.927 151741.009 -56430.308 151836.247 -56430.308 151931.485 -56906.498 M 152264.819 -56001.736 151598.152 -56001.736 M 151788.628 -56001.736 151693.39 -55954.117 151645.771 -55906.498 151598.152 -55811.26 151598.152 -55716.022 M 142001.009 -59001.737 142048.628 -58858.88 142096.247 -58811.261 142191.485 -58763.642 142334.342 -58763.642 142429.58 -58811.261 142477.2 -58858.88 142524.819 -58954.118 142524.819 -59335.07 141524.819 -59335.07 141524.819 -59001.737 141572.438 -58906.499 141620.057 -58858.88 141715.295 -58811.261 141810.533 -58811.261 141905.771 -58858.88 141953.39 -58906.499 142001.009 -59001.737 142001.009 -59335.07 M 141524.819 -58430.308 141524.819 -57763.642 142524.819 -58430.308 142524.819 -57763.642 M 142524.819 -56858.88 142524.819 -57430.308 M 142524.819 -57144.594 141524.819 -57144.594 141667.676 -57239.832 141762.914 -57335.07 141810.533 -57430.308 M 185751.786 -85374.819 186370.833 -85374.819 186037.5 -85755.771 186180.357 -85755.771 186275.595 -85803.39 186323.214 -85851.009 186370.833 -85946.247 186370.833 -86184.342 186323.214 -86279.58 186275.595 -86327.2 186180.357 -86374.819 185894.643 -86374.819 185799.405 -86327.2 185751.786 -86279.58 M 186989.881 -85374.819 187085.119 -85374.819 187180.357 -85422.438 187227.976 -85470.057 187275.595 -85565.295 187323.214 -85755.771 187323.214 -85993.866 187275.595 -86184.342 187227.976 -86279.58 187180.357 -86327.2 187085.119 -86374.819 186989.881 -86374.819 186894.643 -86327.2 186847.024 -86279.58 186799.405 -86184.342 186751.786 -85993.866 186751.786 -85755.771 186799.405 -85565.295 186847.024 -85470.057 186894.643 -85422.438 186989.881 -85374.819 M 187942.262 -85374.819 188037.5 -85374.819 188132.738 -85422.438 188180.357 -85470.057 188227.976 -85565.295 188275.595 -85755.771 188275.595 -85993.866 188227.976 -86184.342 188180.357 -86279.58 188132.738 -86327.2 188037.5 -86374.819 187942.262 -86374.819 187847.024 -86327.2 187799.405 -86279.58 187751.786 -86184.342 187704.167 -85993.866 187704.167 -85755.771 187751.786 -85565.295 187799.405 -85470.057 187847.024 -85422.438 187942.262 -85374.819 M 189275.595 -86374.819 188942.262 -85898.628 M 188704.167 -86374.819 188704.167 -85374.819 189085.119 -85374.819 189180.357 -85422.438 189227.976 -85470.057 189275.595 -85565.295 189275.595 -85708.152 189227.976 -85803.39 189180.357 -85851.009 189085.119 -85898.628 188704.167 -85898.628" fill="none" stroke-width="150"/><path d="M 187404.167 -88113.855 187137.5 -87732.902 M 186947.024 -88113.855 186947.024 -87313.855 187251.786 -87313.855 187327.976 -87351.95 187366.071 -87390.045 187404.167 -87466.236 187404.167 -87580.521 187366.071 -87656.712 187327.976 -87694.807 187251.786 -87732.902 186947.024 -87732.902 M 187708.928 -87390.045 187747.024 -87351.95 187823.214 -87313.855 188013.69 -87313.855 188089.881 -87351.95 188127.976 -87390.045 188166.071 -87466.236 188166.071 -87542.426 188127.976 -87656.712 187670.833 -88113.855 188166.071 -88113.855" fill="none" stroke-width="120"/><path d="M 204502.438 -46666.666 204454.819 -46761.904 204454.819 -46904.761 204502.438 -47047.618 204597.676 -47142.856 204692.914 -47190.475 204883.39 -47238.094 205026.247 -47238.094 205216.723 -47190.475 205311.961 -47142.856 205407.2 -47047.618 205454.819 -46904.761 205454.819 -46809.523 205407.2 -46666.666 205359.58 -46619.047 205026.247 -46619.047 205026.247 -46809.523 M 205454.819 -45619.047 204978.628 -45952.38 M 205454.819 -46190.475 204454.819 -46190.475 204454.819 -45809.523 204502.438 -45714.285 204550.057 -45666.666 204645.295 -45619.047 204788.152 -45619.047 204883.39 -45666.666 204931.009 -45714.285 204978.628 -45809.523 204978.628 -46190.475 M 204931.009 -45190.475 204931.009 -44857.142 M 205454.819 -44714.285 205454.819 -45190.475 204454.819 -45190.475 204454.819 -44714.285 M 204931.009 -44285.713 204931.009 -43952.38 M 205454.819 -43809.523 205454.819 -44285.713 204454.819 -44285.713 204454.819 -43809.523 M 205454.819 -43380.951 204454.819 -43380.951 205454.819 -42809.523 204454.819 -42809.523 M 203204.819 -45988.094 202204.819 -45988.094 202204.819 -45749.999 202252.438 -45607.142 202347.676 -45511.904 202442.914 -45464.285 202633.39 -45416.666 202776.247 -45416.666 202966.723 -45464.285 203061.961 -45511.904 203157.2 -45607.142 203204.819 -45749.999 203204.819 -45988.094 M 202300.057 -45035.713 202252.438 -44988.094 202204.819 -44892.856 202204.819 -44654.761 202252.438 -44559.523 202300.057 -44511.904 202395.295 -44464.285 202490.533 -44464.285 202633.39 -44511.904 203204.819 -45083.332 203204.819 -44464.285 M 140502.381 -118307.2 140645.238 -118354.819 140883.333 -118354.819 140978.571 -118307.2 141026.19 -118259.58 141073.809 -118164.342 141073.809 -118069.104 141026.19 -117973.866 140978.571 -117926.247 140883.333 -117878.628 140692.857 -117831.009 140597.619 -117783.39 140550 -117735.771 140502.381 -117640.533 140502.381 -117545.295 140550 -117450.057 140597.619 -117402.438 140692.857 -117354.819 140930.952 -117354.819 141073.809 -117402.438 M 141407.143 -117354.819 141645.238 -118354.819 141835.714 -117640.533 142026.19 -118354.819 142264.286 -117354.819 M 142407.143 -118450.057 143169.047 -118450.057 M 143407.143 -118354.819 143407.143 -117354.819 143788.095 -117354.819 143883.333 -117402.438 143930.952 -117450.057 143978.571 -117545.295 143978.571 -117688.152 143930.952 -117783.39 143883.333 -117831.009 143788.095 -117878.628 143407.143 -117878.628 M 144835.714 -117688.152 144835.714 -118354.819 M 144407.143 -117688.152 144407.143 -118211.961 144454.762 -118307.2 144550 -118354.819 144692.857 -118354.819 144788.095 -118307.2 144835.714 -118259.58 M 145264.286 -118307.2 145359.524 -118354.819 145550 -118354.819 145645.238 -118307.2 145692.857 -118211.961 145692.857 -118164.342 145645.238 -118069.104 145550 -118021.485 145407.143 -118021.485 145311.905 -117973.866 145264.286 -117878.628 145264.286 -117831.009 145311.905 -117735.771 145407.143 -117688.152 145550 -117688.152 145645.238 -117735.771 M 146121.429 -118354.819 146121.429 -117354.819 M 146550 -118354.819 146550 -117831.009 146502.381 -117735.771 146407.143 -117688.152 146264.286 -117688.152 146169.048 -117735.771 146121.429 -117783.39 M 142216.667 -114157.2 142359.524 -114204.819 142597.619 -114204.819 142692.857 -114157.2 142740.476 -114109.58 142788.095 -114014.342 142788.095 -113919.104 142740.476 -113823.866 142692.857 -113776.247 142597.619 -113728.628 142407.143 -113681.009 142311.905 -113633.39 142264.286 -113585.771 142216.667 -113490.533 142216.667 -113395.295 142264.286 -113300.057 142311.905 -113252.438 142407.143 -113204.819 142645.238 -113204.819 142788.095 -113252.438 M 143121.429 -113204.819 143359.524 -114204.819 143550 -113490.533 143740.476 -114204.819 143978.572 -113204.819 M 144264.286 -113204.819 144883.333 -113204.819 144550 -113585.771 144692.857 -113585.771 144788.095 -113633.39 144835.714 -113681.009 144883.333 -113776.247 144883.333 -114014.342 144835.714 -114109.58 144788.095 -114157.2 144692.857 -114204.819 144407.143 -114204.819 144311.905 -114157.2 144264.286 -114109.58 M 204454.819 -53535.713 204454.819 -52916.666 204835.771 -53249.999 204835.771 -53107.142 204883.39 -53011.904 204931.009 -52964.285 205026.247 -52916.666 205264.342 -52916.666 205359.58 -52964.285 205407.2 -53011.904 205454.819 -53107.142 205454.819 -53392.856 205407.2 -53488.094 205359.58 -53535.713 M 204454.819 -52583.332 204454.819 -51964.285 204835.771 -52297.618 204835.771 -52154.761 204883.39 -52059.523 204931.009 -52011.904 205026.247 -51964.285 205264.342 -51964.285 205359.58 -52011.904 205407.2 -52059.523 205454.819 -52154.761 205454.819 -52440.475 205407.2 -52535.713 205359.58 -52583.332 M 204454.819 -51345.237 204454.819 -51249.999 204502.438 -51154.761 204550.057 -51107.142 204645.295 -51059.523 204835.771 -51011.904 205073.866 -51011.904 205264.342 -51059.523 205359.58 -51107.142 205407.2 -51154.761 205454.819 -51249.999 205454.819 -51345.237 205407.2 -51440.475 205359.58 -51488.094 205264.342 -51535.713 205073.866 -51583.332 204835.771 -51583.332 204645.295 -51535.713 204550.057 -51488.094 204502.438 -51440.475 204454.819 -51345.237 M 205454.819 -50011.904 204978.628 -50345.237 M 205454.819 -50583.332 204454.819 -50583.332 204454.819 -50202.38 204502.438 -50107.142 204550.057 -50059.523 204645.295 -50011.904 204788.152 -50011.904 204883.39 -50059.523 204931.009 -50107.142 204978.628 -50202.38 204978.628 -50583.332" fill="none" stroke-width="150"/><path d="M 203113.855 -51883.332 202732.902 -52149.999 M 203113.855 -52340.475 202313.855 -52340.475 202313.855 -52035.713 202351.95 -51959.523 202390.045 -51921.428 202466.236 -51883.332 202580.521 -51883.332 202656.712 -51921.428 202694.807 -51959.523 202732.902 -52035.713 202732.902 -52340.475 M 202313.855 -51616.666 202313.855 -51121.428 202618.617 -51388.094 202618.617 -51273.809 202656.712 -51197.618 202694.807 -51159.523 202770.998 -51121.428 202961.474 -51121.428 203037.664 -51159.523 203075.76 -51197.618 203113.855 -51273.809 203113.855 -51502.38 203075.76 -51578.571 203037.664 -51616.666" fill="none" stroke-width="120"/><path d="M 184102.381 -130807.2 184245.238 -130854.819 184483.333 -130854.819 184578.571 -130807.2 184626.19 -130759.58 184673.809 -130664.342 184673.809 -130569.104 184626.19 -130473.866 184578.571 -130426.247 184483.333 -130378.628 184292.857 -130331.009 184197.619 -130283.39 184150 -130235.771 184102.381 -130140.533 184102.381 -130045.295 184150 -129950.057 184197.619 -129902.438 184292.857 -129854.819 184530.952 -129854.819 184673.809 -129902.438 M 185007.143 -129854.819 185245.238 -130854.819 185435.714 -130140.533 185626.19 -130854.819 185864.286 -129854.819 M 186007.143 -130950.057 186769.047 -130950.057 M 187007.143 -130854.819 187007.143 -129854.819 187388.095 -129854.819 187483.333 -129902.438 187530.952 -129950.057 187578.571 -130045.295 187578.571 -130188.152 187530.952 -130283.39 187483.333 -130331.009 187388.095 -130378.628 187007.143 -130378.628 M 188435.714 -130188.152 188435.714 -130854.819 M 188007.143 -130188.152 188007.143 -130711.961 188054.762 -130807.2 188150 -130854.819 188292.857 -130854.819 188388.095 -130807.2 188435.714 -130759.58 M 188864.286 -130807.2 188959.524 -130854.819 189150 -130854.819 189245.238 -130807.2 189292.857 -130711.961 189292.857 -130664.342 189245.238 -130569.104 189150 -130521.485 189007.143 -130521.485 188911.905 -130473.866 188864.286 -130378.628 188864.286 -130331.009 188911.905 -130235.771 189007.143 -130188.152 189150 -130188.152 189245.238 -130235.771 M 189721.429 -130854.819 189721.429 -129854.819 M 190150 -130854.819 190150 -130331.009 190102.381 -130235.771 190007.143 -130188.152 189864.286 -130188.152 189769.048 -130235.771 189721.429 -130283.39 M 185340.476 -126657.2 185483.333 -126704.819 185721.428 -126704.819 185816.666 -126657.2 185864.285 -126609.58 185911.904 -126514.342 185911.904 -126419.104 185864.285 -126323.866 185816.666 -126276.247 185721.428 -126228.628 185530.952 -126181.009 185435.714 -126133.39 185388.095 -126085.771 185340.476 -125990.533 185340.476 -125895.295 185388.095 -125800.057 185435.714 -125752.438 185530.952 -125704.819 185769.047 -125704.819 185911.904 -125752.438 M 186245.238 -125704.819 186483.333 -126704.819 186673.809 -125990.533 186864.285 -126704.819 187102.381 -125704.819 M 188007.142 -126704.819 187435.714 -126704.819 M 187721.428 -126704.819 187721.428 -125704.819 187626.19 -125847.676 187530.952 -125942.914 187435.714 -125990.533 M 188864.285 -125704.819 188673.809 -125704.819 188578.571 -125752.438 188530.952 -125800.057 188435.714 -125942.914 188388.095 -126133.39 188388.095 -126514.342 188435.714 -126609.58 188483.333 -126657.2 188578.571 -126704.819 188769.047 -126704.819 188864.285 -126657.2 188911.904 -126609.58 188959.523 -126514.342 188959.523 -126276.247 188911.904 -126181.009 188864.285 -126133.39 188769.047 -126085.771 188578.571 -126085.771 188483.333 -126133.39 188435.714 -126181.009 188388.095 -126276.247 M 155102.381 -144557.2 155245.238 -144604.819 155483.333 -144604.819 155578.571 -144557.2 155626.19 -144509.58 155673.809 -144414.342 155673.809 -144319.104 155626.19 -144223.866 155578.571 -144176.247 155483.333 -144128.628 155292.857 -144081.009 155197.619 -144033.39 155150 -143985.771 155102.381 -143890.533 155102.381 -143795.295 155150 -143700.057 155197.619 -143652.438 155292.857 -143604.819 155530.952 -143604.819 155673.809 -143652.438 M 156007.143 -143604.819 156245.238 -144604.819 156435.714 -143890.533 156626.19 -144604.819 156864.286 -143604.819 M 157007.143 -144700.057 157769.047 -144700.057 M 158007.143 -144604.819 158007.143 -143604.819 158388.095 -143604.819 158483.333 -143652.438 158530.952 -143700.057 158578.571 -143795.295 158578.571 -143938.152 158530.952 -144033.39 158483.333 -144081.009 158388.095 -144128.628 158007.143 -144128.628 M 159435.714 -143938.152 159435.714 -144604.819 M 159007.143 -143938.152 159007.143 -144461.961 159054.762 -144557.2 159150 -144604.819 159292.857 -144604.819 159388.095 -144557.2 159435.714 -144509.58 M 159864.286 -144557.2 159959.524 -144604.819 160150 -144604.819 160245.238 -144557.2 160292.857 -144461.961 160292.857 -144414.342 160245.238 -144319.104 160150 -144271.485 160007.143 -144271.485 159911.905 -144223.866 159864.286 -144128.628 159864.286 -144081.009 159911.905 -143985.771 160007.143 -143938.152 160150 -143938.152 160245.238 -143985.771 M 160721.429 -144604.819 160721.429 -143604.819 M 161150 -144604.819 161150 -144081.009 161102.381 -143985.771 161007.143 -143938.152 160864.286 -143938.152 160769.048 -143985.771 160721.429 -144033.39 M 156816.667 -140407.2 156959.524 -140454.819 157197.619 -140454.819 157292.857 -140407.2 157340.476 -140359.58 157388.095 -140264.342 157388.095 -140169.104 157340.476 -140073.866 157292.857 -140026.247 157197.619 -139978.628 157007.143 -139931.009 156911.905 -139883.39 156864.286 -139835.771 156816.667 -139740.533 156816.667 -139645.295 156864.286 -139550.057 156911.905 -139502.438 157007.143 -139454.819 157245.238 -139454.819 157388.095 -139502.438 M 157721.429 -139454.819 157959.524 -140454.819 158150 -139740.533 158340.476 -140454.819 158578.572 -139454.819 M 159007.143 -140454.819 159197.619 -140454.819 159292.857 -140407.2 159340.476 -140359.58 159435.714 -140216.723 159483.333 -140026.247 159483.333 -139645.295 159435.714 -139550.057 159388.095 -139502.438 159292.857 -139454.819 159102.381 -139454.819 159007.143 -139502.438 158959.524 -139550.057 158911.905 -139645.295 158911.905 -139883.39 158959.524 -139978.628 159007.143 -140026.247 159102.381 -140073.866 159292.857 -140073.866 159388.095 -140026.247 159435.714 -139978.628 159483.333 -139883.39 M 169452.381 -130807.2 169595.238 -130854.819 169833.333 -130854.819 169928.571 -130807.2 169976.19 -130759.58 170023.809 -130664.342 170023.809 -130569.104 169976.19 -130473.866 169928.571 -130426.247 169833.333 -130378.628 169642.857 -130331.009 169547.619 -130283.39 169500 -130235.771 169452.381 -130140.533 169452.381 -130045.295 169500 -129950.057 169547.619 -129902.438 169642.857 -129854.819 169880.952 -129854.819 170023.809 -129902.438 M 170357.143 -129854.819 170595.238 -130854.819 170785.714 -130140.533 170976.19 -130854.819 171214.286 -129854.819 M 171357.143 -130950.057 172119.047 -130950.057 M 172357.143 -130854.819 172357.143 -129854.819 172738.095 -129854.819 172833.333 -129902.438 172880.952 -129950.057 172928.571 -130045.295 172928.571 -130188.152 172880.952 -130283.39 172833.333 -130331.009 172738.095 -130378.628 172357.143 -130378.628 M 173785.714 -130188.152 173785.714 -130854.819 M 173357.143 -130188.152 173357.143 -130711.961 173404.762 -130807.2 173500 -130854.819 173642.857 -130854.819 173738.095 -130807.2 173785.714 -130759.58 M 174214.286 -130807.2 174309.524 -130854.819 174500 -130854.819 174595.238 -130807.2 174642.857 -130711.961 174642.857 -130664.342 174595.238 -130569.104 174500 -130521.485 174357.143 -130521.485 174261.905 -130473.866 174214.286 -130378.628 174214.286 -130331.009 174261.905 -130235.771 174357.143 -130188.152 174500 -130188.152 174595.238 -130235.771 M 175071.429 -130854.819 175071.429 -129854.819 M 175500 -130854.819 175500 -130331.009 175452.381 -130235.771 175357.143 -130188.152 175214.286 -130188.152 175119.048 -130235.771 175071.429 -130283.39 M 170690.476 -126657.2 170833.333 -126704.819 171071.428 -126704.819 171166.666 -126657.2 171214.285 -126609.58 171261.904 -126514.342 171261.904 -126419.104 171214.285 -126323.866 171166.666 -126276.247 171071.428 -126228.628 170880.952 -126181.009 170785.714 -126133.39 170738.095 -126085.771 170690.476 -125990.533 170690.476 -125895.295 170738.095 -125800.057 170785.714 -125752.438 170880.952 -125704.819 171119.047 -125704.819 171261.904 -125752.438 M 171595.238 -125704.819 171833.333 -126704.819 172023.809 -125990.533 172214.285 -126704.819 172452.381 -125704.819 M 173357.142 -126704.819 172785.714 -126704.819 M 173071.428 -126704.819 173071.428 -125704.819 172976.19 -125847.676 172880.952 -125942.914 172785.714 -125990.533 M 174309.523 -126704.819 173738.095 -126704.819 M 174023.809 -126704.819 174023.809 -125704.819 173928.571 -125847.676 173833.333 -125942.914 173738.095 -125990.533 M 197852.381 -118307.2 197995.238 -118354.819 198233.333 -118354.819 198328.571 -118307.2 198376.19 -118259.58 198423.809 -118164.342 198423.809 -118069.104 198376.19 -117973.866 198328.571 -117926.247 198233.333 -117878.628 198042.857 -117831.009 197947.619 -117783.39 197900 -117735.771 197852.381 -117640.533 197852.381 -117545.295 197900 -117450.057 197947.619 -117402.438 198042.857 -117354.819 198280.952 -117354.819 198423.809 -117402.438 M 198757.143 -117354.819 198995.238 -118354.819 199185.714 -117640.533 199376.19 -118354.819 199614.286 -117354.819 M 199757.143 -118450.057 200519.047 -118450.057 M 200757.143 -118354.819 200757.143 -117354.819 201138.095 -117354.819 201233.333 -117402.438 201280.952 -117450.057 201328.571 -117545.295 201328.571 -117688.152 201280.952 -117783.39 201233.333 -117831.009 201138.095 -117878.628 200757.143 -117878.628 M 202185.714 -117688.152 202185.714 -118354.819 M 201757.143 -117688.152 201757.143 -118211.961 201804.762 -118307.2 201900 -118354.819 202042.857 -118354.819 202138.095 -118307.2 202185.714 -118259.58 M 202614.286 -118307.2 202709.524 -118354.819 202900 -118354.819 202995.238 -118307.2 203042.857 -118211.961 203042.857 -118164.342 202995.238 -118069.104 202900 -118021.485 202757.143 -118021.485 202661.905 -117973.866 202614.286 -117878.628 202614.286 -117831.009 202661.905 -117735.771 202757.143 -117688.152 202900 -117688.152 202995.238 -117735.771 M 203471.429 -118354.819 203471.429 -117354.819 M 203900 -118354.819 203900 -117831.009 203852.381 -117735.771 203757.143 -117688.152 203614.286 -117688.152 203519.048 -117735.771 203471.429 -117783.39 M 199090.476 -114157.2 199233.333 -114204.819 199471.428 -114204.819 199566.666 -114157.2 199614.285 -114109.58 199661.904 -114014.342 199661.904 -113919.104 199614.285 -113823.866 199566.666 -113776.247 199471.428 -113728.628 199280.952 -113681.009 199185.714 -113633.39 199138.095 -113585.771 199090.476 -113490.533 199090.476 -113395.295 199138.095 -113300.057 199185.714 -113252.438 199280.952 -113204.819 199519.047 -113204.819 199661.904 -113252.438 M 199995.238 -113204.819 200233.333 -114204.819 200423.809 -113490.533 200614.285 -114204.819 200852.381 -113204.819 M 201757.142 -114204.819 201185.714 -114204.819 M 201471.428 -114204.819 201471.428 -113204.819 201376.19 -113347.676 201280.952 -113442.914 201185.714 -113490.533 M 202233.333 -114204.819 202423.809 -114204.819 202519.047 -114157.2 202566.666 -114109.58 202661.904 -113966.723 202709.523 -113776.247 202709.523 -113395.295 202661.904 -113300.057 202614.285 -113252.438 202519.047 -113204.819 202328.571 -113204.819 202233.333 -113252.438 202185.714 -113300.057 202138.095 -113395.295 202138.095 -113633.39 202185.714 -113728.628 202233.333 -113776.247 202328.571 -113823.866 202519.047 -113823.866 202614.285 -113776.247 202661.904 -113728.628 202709.523 -113633.39 M 197802.381 -106307.2 197945.238 -106354.819 198183.333 -106354.819 198278.571 -106307.2 198326.19 -106259.58 198373.809 -106164.342 198373.809 -106069.104 198326.19 -105973.866 198278.571 -105926.247 198183.333 -105878.628 197992.857 -105831.009 197897.619 -105783.39 197850 -105735.771 197802.381 -105640.533 197802.381 -105545.295 197850 -105450.057 197897.619 -105402.438 197992.857 -105354.819 198230.952 -105354.819 198373.809 -105402.438 M 198707.143 -105354.819 198945.238 -106354.819 199135.714 -105640.533 199326.19 -106354.819 199564.286 -105354.819 M 199707.143 -106450.057 200469.047 -106450.057 M 200707.143 -106354.819 200707.143 -105354.819 201088.095 -105354.819 201183.333 -105402.438 201230.952 -105450.057 201278.571 -105545.295 201278.571 -105688.152 201230.952 -105783.39 201183.333 -105831.009 201088.095 -105878.628 200707.143 -105878.628 M 202135.714 -105688.152 202135.714 -106354.819 M 201707.143 -105688.152 201707.143 -106211.961 201754.762 -106307.2 201850 -106354.819 201992.857 -106354.819 202088.095 -106307.2 202135.714 -106259.58 M 202564.286 -106307.2 202659.524 -106354.819 202850 -106354.819 202945.238 -106307.2 202992.857 -106211.961 202992.857 -106164.342 202945.238 -106069.104 202850 -106021.485 202707.143 -106021.485 202611.905 -105973.866 202564.286 -105878.628 202564.286 -105831.009 202611.905 -105735.771 202707.143 -105688.152 202850 -105688.152 202945.238 -105735.771 M 203421.429 -106354.819 203421.429 -105354.819 M 203850 -106354.819 203850 -105831.009 203802.381 -105735.771 203707.143 -105688.152 203564.286 -105688.152 203469.048 -105735.771 203421.429 -105783.39 M 199040.476 -102157.2 199183.333 -102204.819 199421.428 -102204.819 199516.666 -102157.2 199564.285 -102109.58 199611.904 -102014.342 199611.904 -101919.104 199564.285 -101823.866 199516.666 -101776.247 199421.428 -101728.628 199230.952 -101681.009 199135.714 -101633.39 199088.095 -101585.771 199040.476 -101490.533 199040.476 -101395.295 199088.095 -101300.057 199135.714 -101252.438 199230.952 -101204.819 199469.047 -101204.819 199611.904 -101252.438 M 199945.238 -101204.819 200183.333 -102204.819 200373.809 -101490.533 200564.285 -102204.819 200802.381 -101204.819 M 201707.142 -102204.819 201135.714 -102204.819 M 201421.428 -102204.819 201421.428 -101204.819 201326.19 -101347.676 201230.952 -101442.914 201135.714 -101490.533 M 202278.571 -101633.39 202183.333 -101585.771 202135.714 -101538.152 202088.095 -101442.914 202088.095 -101395.295 202135.714 -101300.057 202183.333 -101252.438 202278.571 -101204.819 202469.047 -101204.819 202564.285 -101252.438 202611.904 -101300.057 202659.523 -101395.295 202659.523 -101442.914 202611.904 -101538.152 202564.285 -101585.771 202469.047 -101633.39 202278.571 -101633.39 202183.333 -101681.009 202135.714 -101728.628 202088.095 -101823.866 202088.095 -102014.342 202135.714 -102109.58 202183.333 -102157.2 202278.571 -102204.819 202469.047 -102204.819 202564.285 -102157.2 202611.904 -102109.58 202659.523 -102014.342 202659.523 -101823.866 202611.904 -101728.628 202564.285 -101681.009 202469.047 -101633.39 M 197554.819 -82502.381 197078.628 -82835.714 M 197554.819 -83073.809 196554.819 -83073.809 196554.819 -82692.857 196602.438 -82597.619 196650.057 -82550 196745.295 -82502.381 196888.152 -82502.381 196983.39 -82550 197031.009 -82597.619 197078.628 -82692.857 197078.628 -83073.809 M 197031.009 -82073.809 197031.009 -81740.476 M 197554.819 -81597.619 197554.819 -82073.809 196554.819 -82073.809 196554.819 -81597.619 M 197507.2 -81216.666 197554.819 -81073.809 197554.819 -80835.714 197507.2 -80740.476 197459.58 -80692.857 197364.342 -80645.238 197269.104 -80645.238 197173.866 -80692.857 197126.247 -80740.476 197078.628 -80835.714 197031.009 -81026.19 196983.39 -81121.428 196935.771 -81169.047 196840.533 -81216.666 196745.295 -81216.666 196650.057 -81169.047 196602.438 -81121.428 196554.819 -81026.19 196554.819 -80788.095 196602.438 -80645.238 M 197031.009 -80216.666 197031.009 -79883.333 M 197554.819 -79740.476 197554.819 -80216.666 196554.819 -80216.666 196554.819 -79740.476 M 196554.819 -79454.761 196554.819 -78883.333 M 197554.819 -79169.047 196554.819 -79169.047 M 201657.2 -82383.332 201704.819 -82240.475 201704.819 -82002.38 201657.2 -81907.142 201609.58 -81859.523 201514.342 -81811.904 201419.104 -81811.904 201323.866 -81859.523 201276.247 -81907.142 201228.628 -82002.38 201181.009 -82192.856 201133.39 -82288.094 201085.771 -82335.713 200990.533 -82383.332 200895.295 -82383.332 200800.057 -82335.713 200752.438 -82288.094 200704.819 -82192.856 200704.819 -81954.761 200752.438 -81811.904 M 200704.819 -81478.57 201704.819 -81240.475 200990.533 -81049.999 201704.819 -80859.523 200704.819 -80621.428 M 201704.819 -79716.666 201704.819 -80288.094 M 201704.819 -80002.38 200704.819 -80002.38 200847.676 -80097.618 200942.914 -80192.856 200990.533 -80288.094 M 184202.381 -144557.2 184345.238 -144604.819 184583.333 -144604.819 184678.571 -144557.2 184726.19 -144509.58 184773.809 -144414.342 184773.809 -144319.104 184726.19 -144223.866 184678.571 -144176.247 184583.333 -144128.628 184392.857 -144081.009 184297.619 -144033.39 184250 -143985.771 184202.381 -143890.533 184202.381 -143795.295 184250 -143700.057 184297.619 -143652.438 184392.857 -143604.819 184630.952 -143604.819 184773.809 -143652.438 M 185107.143 -143604.819 185345.238 -144604.819 185535.714 -143890.533 185726.19 -144604.819 185964.286 -143604.819 M 186107.143 -144700.057 186869.047 -144700.057 M 187107.143 -144604.819 187107.143 -143604.819 187488.095 -143604.819 187583.333 -143652.438 187630.952 -143700.057 187678.571 -143795.295 187678.571 -143938.152 187630.952 -144033.39 187583.333 -144081.009 187488.095 -144128.628 187107.143 -144128.628 M 188535.714 -143938.152 188535.714 -144604.819 M 188107.143 -143938.152 188107.143 -144461.961 188154.762 -144557.2 188250 -144604.819 188392.857 -144604.819 188488.095 -144557.2 188535.714 -144509.58 M 188964.286 -144557.2 189059.524 -144604.819 189250 -144604.819 189345.238 -144557.2 189392.857 -144461.961 189392.857 -144414.342 189345.238 -144319.104 189250 -144271.485 189107.143 -144271.485 189011.905 -144223.866 188964.286 -144128.628 188964.286 -144081.009 189011.905 -143985.771 189107.143 -143938.152 189250 -143938.152 189345.238 -143985.771 M 189821.429 -144604.819 189821.429 -143604.819 M 190250 -144604.819 190250 -144081.009 190202.381 -143985.771 190107.143 -143938.152 189964.286 -143938.152 189869.048 -143985.771 189821.429 -144033.39 M 185440.476 -140407.2 185583.333 -140454.819 185821.428 -140454.819 185916.666 -140407.2 185964.285 -140359.58 186011.904 -140264.342 186011.904 -140169.104 185964.285 -140073.866 185916.666 -140026.247 185821.428 -139978.628 185630.952 -139931.009 185535.714 -139883.39 185488.095 -139835.771 185440.476 -139740.533 185440.476 -139645.295 185488.095 -139550.057 185535.714 -139502.438 185630.952 -139454.819 185869.047 -139454.819 186011.904 -139502.438 M 186345.238 -139454.819 186583.333 -140454.819 186773.809 -139740.533 186964.285 -140454.819 187202.381 -139454.819 M 188107.142 -140454.819 187535.714 -140454.819 M 187821.428 -140454.819 187821.428 -139454.819 187726.19 -139597.676 187630.952 -139692.914 187535.714 -139740.533 M 188440.476 -139454.819 189107.142 -139454.819 188678.571 -140454.819 M 184102.381 -118307.2 184245.238 -118354.819 184483.333 -118354.819 184578.571 -118307.2 184626.19 -118259.58 184673.809 -118164.342 184673.809 -118069.104 184626.19 -117973.866 184578.571 -117926.247 184483.333 -117878.628 184292.857 -117831.009 184197.619 -117783.39 184150 -117735.771 184102.381 -117640.533 184102.381 -117545.295 184150 -117450.057 184197.619 -117402.438 184292.857 -117354.819 184530.952 -117354.819 184673.809 -117402.438 M 185007.143 -117354.819 185245.238 -118354.819 185435.714 -117640.533 185626.19 -118354.819 185864.286 -117354.819 M 186007.143 -118450.057 186769.047 -118450.057 M 187007.143 -118354.819 187007.143 -117354.819 187388.095 -117354.819 187483.333 -117402.438 187530.952 -117450.057 187578.571 -117545.295 187578.571 -117688.152 187530.952 -117783.39 187483.333 -117831.009 187388.095 -117878.628 187007.143 -117878.628 M 188435.714 -117688.152 188435.714 -118354.819 M 188007.143 -117688.152 188007.143 -118211.961 188054.762 -118307.2 188150 -118354.819 188292.857 -118354.819 188388.095 -118307.2 188435.714 -118259.58 M 188864.286 -118307.2 188959.524 -118354.819 189150 -118354.819 189245.238 -118307.2 189292.857 -118211.961 189292.857 -118164.342 189245.238 -118069.104 189150 -118021.485 189007.143 -118021.485 188911.905 -117973.866 188864.286 -117878.628 188864.286 -117831.009 188911.905 -117735.771 189007.143 -117688.152 189150 -117688.152 189245.238 -117735.771 M 189721.429 -118354.819 189721.429 -117354.819 M 190150 -118354.819 190150 -117831.009 190102.381 -117735.771 190007.143 -117688.152 189864.286 -117688.152 189769.048 -117735.771 189721.429 -117783.39 M 185340.476 -114157.2 185483.333 -114204.819 185721.428 -114204.819 185816.666 -114157.2 185864.285 -114109.58 185911.904 -114014.342 185911.904 -113919.104 185864.285 -113823.866 185816.666 -113776.247 185721.428 -113728.628 185530.952 -113681.009 185435.714 -113633.39 185388.095 -113585.771 185340.476 -113490.533 185340.476 -113395.295 185388.095 -113300.057 185435.714 -113252.438 185530.952 -113204.819 185769.047 -113204.819 185911.904 -113252.438 M 186245.238 -113204.819 186483.333 -114204.819 186673.809 -113490.533 186864.285 -114204.819 187102.381 -113204.819 M 188007.142 -114204.819 187435.714 -114204.819 M 187721.428 -114204.819 187721.428 -113204.819 187626.19 -113347.676 187530.952 -113442.914 187435.714 -113490.533 M 188911.904 -113204.819 188435.714 -113204.819 188388.095 -113681.009 188435.714 -113633.39 188530.952 -113585.771 188769.047 -113585.771 188864.285 -113633.39 188911.904 -113681.009 188959.523 -113776.247 188959.523 -114014.342 188911.904 -114109.58 188864.285 -114157.2 188769.047 -114204.819 188530.952 -114204.819 188435.714 -114157.2 188388.095 -114109.58 M 177259.104 -90411.666 177259.104 -89935.476 M 177544.819 -90506.904 176544.819 -90173.571 177544.819 -89840.238 M 176544.819 -89649.761 176544.819 -89078.333 M 177544.819 -89364.047 176544.819 -89364.047 M 177544.819 -88744.999 176878.152 -88744.999 M 176973.39 -88744.999 176925.771 -88697.38 176878.152 -88602.142 176878.152 -88459.285 176925.771 -88364.047 177021.009 -88316.428 177544.819 -88316.428 M 177021.009 -88316.428 176925.771 -88268.809 176878.152 -88173.571 176878.152 -88030.714 176925.771 -87935.475 177021.009 -87887.856 177544.819 -87887.856 M 177497.2 -87030.714 177544.819 -87125.952 177544.819 -87316.428 177497.2 -87411.666 177401.961 -87459.285 177021.009 -87459.285 176925.771 -87411.666 176878.152 -87316.428 176878.152 -87125.952 176925.771 -87030.714 177021.009 -86983.095 177116.247 -86983.095 177211.485 -87459.285 M 176878.152 -86125.952 177687.676 -86125.952 177782.914 -86173.571 177830.533 -86221.19 177878.152 -86316.428 177878.152 -86459.285 177830.533 -86554.523 M 177497.2 -86125.952 177544.819 -86221.19 177544.819 -86411.666 177497.2 -86506.904 177449.58 -86554.523 177354.342 -86602.142 177068.628 -86602.142 176973.39 -86554.523 176925.771 -86506.904 176878.152 -86411.666 176878.152 -86221.19 176925.771 -86125.952 M 177544.819 -85221.19 177021.009 -85221.19 176925.771 -85268.809 176878.152 -85364.047 176878.152 -85554.523 176925.771 -85649.761 M 177497.2 -85221.19 177544.819 -85316.428 177544.819 -85554.523 177497.2 -85649.761 177401.961 -85697.38 177306.723 -85697.38 177211.485 -85649.761 177163.866 -85554.523 177163.866 -85316.428 177116.247 -85221.19 M 176544.819 -84840.237 176544.819 -84221.19 176925.771 -84554.523 176925.771 -84411.666 176973.39 -84316.428 177021.009 -84268.809 177116.247 -84221.19 177354.342 -84221.19 177449.58 -84268.809 177497.2 -84316.428 177544.819 -84411.666 177544.819 -84697.38 177497.2 -84792.618 177449.58 -84840.237 M 176640.057 -83840.237 176592.438 -83792.618 176544.819 -83697.38 176544.819 -83459.285 176592.438 -83364.047 176640.057 -83316.428 176735.295 -83268.809 176830.533 -83268.809 176973.39 -83316.428 177544.819 -83887.856 177544.819 -83268.809 M 176973.39 -82697.38 176925.771 -82792.618 176878.152 -82840.237 176782.914 -82887.856 176735.295 -82887.856 176640.057 -82840.237 176592.438 -82792.618 176544.819 -82697.38 176544.819 -82506.904 176592.438 -82411.666 176640.057 -82364.047 176735.295 -82316.428 176782.914 -82316.428 176878.152 -82364.047 176925.771 -82411.666 176973.39 -82506.904 176973.39 -82697.38 177021.009 -82792.618 177068.628 -82840.237 177163.866 -82887.856 177354.342 -82887.856 177449.58 -82840.237 177497.2 -82792.618 177544.819 -82697.38 177544.819 -82506.904 177497.2 -82411.666 177449.58 -82364.047 177354.342 -82316.428 177163.866 -82316.428 177068.628 -82364.047 177021.009 -82411.666 176973.39 -82506.904 M 177163.866 -81887.856 177163.866 -81125.952 M 177544.819 -80649.761 176544.819 -80649.761 176544.819 -80268.809 176592.438 -80173.571 176640.057 -80125.952 176735.295 -80078.333 176878.152 -80078.333 176973.39 -80125.952 177021.009 -80173.571 177068.628 -80268.809 177068.628 -80649.761 M 157488.095 -84699.819 157488.095 -85509.342 157535.714 -85604.58 157583.333 -85652.2 157678.571 -85699.819 157869.047 -85699.819 157964.285 -85652.2 158011.904 -85604.58 158059.523 -85509.342 158059.523 -84699.819 M 159059.523 -85699.819 158488.095 -85699.819 M 158773.809 -85699.819 158773.809 -84699.819 158678.571 -84842.676 158583.333 -84937.914 158488.095 -84985.533 M 155002.381 -118307.2 155145.238 -118354.819 155383.333 -118354.819 155478.571 -118307.2 155526.19 -118259.58 155573.809 -118164.342 155573.809 -118069.104 155526.19 -117973.866 155478.571 -117926.247 155383.333 -117878.628 155192.857 -117831.009 155097.619 -117783.39 155050 -117735.771 155002.381 -117640.533 155002.381 -117545.295 155050 -117450.057 155097.619 -117402.438 155192.857 -117354.819 155430.952 -117354.819 155573.809 -117402.438 M 155907.143 -117354.819 156145.238 -118354.819 156335.714 -117640.533 156526.19 -118354.819 156764.286 -117354.819 M 156907.143 -118450.057 157669.047 -118450.057 M 157907.143 -118354.819 157907.143 -117354.819 158288.095 -117354.819 158383.333 -117402.438 158430.952 -117450.057 158478.571 -117545.295 158478.571 -117688.152 158430.952 -117783.39 158383.333 -117831.009 158288.095 -117878.628 157907.143 -117878.628 M 159335.714 -117688.152 159335.714 -118354.819 M 158907.143 -117688.152 158907.143 -118211.961 158954.762 -118307.2 159050 -118354.819 159192.857 -118354.819 159288.095 -118307.2 159335.714 -118259.58 M 159764.286 -118307.2 159859.524 -118354.819 160050 -118354.819 160145.238 -118307.2 160192.857 -118211.961 160192.857 -118164.342 160145.238 -118069.104 160050 -118021.485 159907.143 -118021.485 159811.905 -117973.866 159764.286 -117878.628 159764.286 -117831.009 159811.905 -117735.771 159907.143 -117688.152 160050 -117688.152 160145.238 -117735.771 M 160621.429 -118354.819 160621.429 -117354.819 M 161050 -118354.819 161050 -117831.009 161002.381 -117735.771 160907.143 -117688.152 160764.286 -117688.152 160669.048 -117735.771 160621.429 -117783.39 M 156716.667 -114157.2 156859.524 -114204.819 157097.619 -114204.819 157192.857 -114157.2 157240.476 -114109.58 157288.095 -114014.342 157288.095 -113919.104 157240.476 -113823.866 157192.857 -113776.247 157097.619 -113728.628 156907.143 -113681.009 156811.905 -113633.39 156764.286 -113585.771 156716.667 -113490.533 156716.667 -113395.295 156764.286 -113300.057 156811.905 -113252.438 156907.143 -113204.819 157145.238 -113204.819 157288.095 -113252.438 M 157621.429 -113204.819 157859.524 -114204.819 158050 -113490.533 158240.476 -114204.819 158478.572 -113204.819 M 158764.286 -113204.819 159430.952 -113204.819 159002.381 -114204.819 M 184026.19 -79304.819 184645.237 -79304.819 184311.904 -79685.771 184454.761 -79685.771 184549.999 -79733.39 184597.618 -79781.009 184645.237 -79876.247 184645.237 -80114.342 184597.618 -80209.58 184549.999 -80257.2 184454.761 -80304.819 184169.047 -80304.819 184073.809 -80257.2 184026.19 -80209.58 M 185073.809 -80209.58 185121.428 -80257.2 185073.809 -80304.819 185026.19 -80257.2 185073.809 -80209.58 185073.809 -80304.819 M 185978.57 -79638.152 185978.57 -80304.819 M 185740.475 -79257.2 185502.38 -79971.485 186121.427 -79971.485 M 187169.047 -79304.819 187835.713 -79304.819 187169.047 -80304.819 187835.713 -80304.819 M 188597.618 -80257.2 188502.38 -80304.819 188311.904 -80304.819 188216.666 -80257.2 188169.047 -80161.961 188169.047 -79781.009 188216.666 -79685.771 188311.904 -79638.152 188502.38 -79638.152 188597.618 -79685.771 188645.237 -79781.009 188645.237 -79876.247 188169.047 -79971.485 M 189073.809 -79638.152 189073.809 -80304.819 M 189073.809 -79733.39 189121.428 -79685.771 189216.666 -79638.152 189359.523 -79638.152 189454.761 -79685.771 189502.38 -79781.009 189502.38 -80304.819 M 190359.523 -80257.2 190264.285 -80304.819 190073.809 -80304.819 189978.571 -80257.2 189930.952 -80161.961 189930.952 -79781.009 189978.571 -79685.771 190073.809 -79638.152 190264.285 -79638.152 190359.523 -79685.771 190407.142 -79781.009 190407.142 -79876.247 189930.952 -79971.485 M 190835.714 -80304.819 190835.714 -79638.152 M 190835.714 -79828.628 190883.333 -79733.39 190930.952 -79685.771 191026.19 -79638.152 191121.428 -79638.152 M 186911.905 -84054.819 186911.905 -83054.819 187150 -83054.819 187292.857 -83102.438 187388.095 -83197.676 187435.714 -83292.914 187483.333 -83483.39 187483.333 -83626.247 187435.714 -83816.723 187388.095 -83911.961 187292.857 -84007.2 187150 -84054.819 186911.905 -84054.819 M 188435.714 -84054.819 187864.286 -84054.819 M 188150 -84054.819 188150 -83054.819 188054.762 -83197.676 187959.524 -83292.914 187864.286 -83340.533 M 140502.381 -130807.2 140645.238 -130854.819 140883.333 -130854.819 140978.571 -130807.2 141026.19 -130759.58 141073.809 -130664.342 141073.809 -130569.104 141026.19 -130473.866 140978.571 -130426.247 140883.333 -130378.628 140692.857 -130331.009 140597.619 -130283.39 140550 -130235.771 140502.381 -130140.533 140502.381 -130045.295 140550 -129950.057 140597.619 -129902.438 140692.857 -129854.819 140930.952 -129854.819 141073.809 -129902.438 M 141407.143 -129854.819 141645.238 -130854.819 141835.714 -130140.533 142026.19 -130854.819 142264.286 -129854.819 M 142407.143 -130950.057 143169.047 -130950.057 M 143407.143 -130854.819 143407.143 -129854.819 143788.095 -129854.819 143883.333 -129902.438 143930.952 -129950.057 143978.571 -130045.295 143978.571 -130188.152 143930.952 -130283.39 143883.333 -130331.009 143788.095 -130378.628 143407.143 -130378.628 M 144835.714 -130188.152 144835.714 -130854.819 M 144407.143 -130188.152 144407.143 -130711.961 144454.762 -130807.2 144550 -130854.819 144692.857 -130854.819 144788.095 -130807.2 144835.714 -130759.58 M 145264.286 -130807.2 145359.524 -130854.819 145550 -130854.819 145645.238 -130807.2 145692.857 -130711.961 145692.857 -130664.342 145645.238 -130569.104 145550 -130521.485 145407.143 -130521.485 145311.905 -130473.866 145264.286 -130378.628 145264.286 -130331.009 145311.905 -130235.771 145407.143 -130188.152 145550 -130188.152 145645.238 -130235.771 M 146121.429 -130854.819 146121.429 -129854.819 M 146550 -130854.819 146550 -130331.009 146502.381 -130235.771 146407.143 -130188.152 146264.286 -130188.152 146169.048 -130235.771 146121.429 -130283.39 M 142216.667 -126657.2 142359.524 -126704.819 142597.619 -126704.819 142692.857 -126657.2 142740.476 -126609.58 142788.095 -126514.342 142788.095 -126419.104 142740.476 -126323.866 142692.857 -126276.247 142597.619 -126228.628 142407.143 -126181.009 142311.905 -126133.39 142264.286 -126085.771 142216.667 -125990.533 142216.667 -125895.295 142264.286 -125800.057 142311.905 -125752.438 142407.143 -125704.819 142645.238 -125704.819 142788.095 -125752.438 M 143121.429 -125704.819 143359.524 -126704.819 143550 -125990.533 143740.476 -126704.819 143978.572 -125704.819 M 144788.095 -126038.152 144788.095 -126704.819 M 144550 -125657.2 144311.905 -126371.485 144930.952 -126371.485 M 186942.261 -83124.819 186370.833 -83124.819 M 186656.547 -83124.819 186656.547 -82124.819 186561.309 -82267.676 186466.071 -82362.914 186370.833 -82410.533 M 187561.309 -82124.819 187656.547 -82124.819 187751.785 -82172.438 187799.404 -82220.057 187847.023 -82315.295 187894.642 -82505.771 187894.642 -82743.866 187847.023 -82934.342 187799.404 -83029.58 187751.785 -83077.2 187656.547 -83124.819 187561.309 -83124.819 187466.071 -83077.2 187418.452 -83029.58 187370.833 -82934.342 187323.214 -82743.866 187323.214 -82505.771 187370.833 -82315.295 187418.452 -82220.057 187466.071 -82172.438 187561.309 -82124.819 M 188323.214 -83124.819 188323.214 -82124.819 M 188418.452 -82743.866 188704.166 -83124.819 M 188704.166 -82458.152 188323.214 -82839.104" fill="none" stroke-width="150"/><path d="M 187404.167 -84863.855 187137.5 -84482.902 M 186947.024 -84863.855 186947.024 -84063.855 187251.786 -84063.855 187327.976 -84101.95 187366.071 -84140.045 187404.167 -84216.236 187404.167 -84330.521 187366.071 -84406.712 187327.976 -84444.807 187251.786 -84482.902 186947.024 -84482.902 M 188166.071 -84863.855 187708.928 -84863.855 M 187937.5 -84863.855 187937.5 -84063.855 187861.309 -84178.14 187785.119 -84254.331 187708.928 -84292.426" fill="none" stroke-width="120"/><path d="M 169502.381 -144557.2 169645.238 -144604.819 169883.333 -144604.819 169978.571 -144557.2 170026.19 -144509.58 170073.809 -144414.342 170073.809 -144319.104 170026.19 -144223.866 169978.571 -144176.247 169883.333 -144128.628 169692.857 -144081.009 169597.619 -144033.39 169550 -143985.771 169502.381 -143890.533 169502.381 -143795.295 169550 -143700.057 169597.619 -143652.438 169692.857 -143604.819 169930.952 -143604.819 170073.809 -143652.438 M 170407.143 -143604.819 170645.238 -144604.819 170835.714 -143890.533 171026.19 -144604.819 171264.286 -143604.819 M 171407.143 -144700.057 172169.047 -144700.057 M 172407.143 -144604.819 172407.143 -143604.819 172788.095 -143604.819 172883.333 -143652.438 172930.952 -143700.057 172978.571 -143795.295 172978.571 -143938.152 172930.952 -144033.39 172883.333 -144081.009 172788.095 -144128.628 172407.143 -144128.628 M 173835.714 -143938.152 173835.714 -144604.819 M 173407.143 -143938.152 173407.143 -144461.961 173454.762 -144557.2 173550 -144604.819 173692.857 -144604.819 173788.095 -144557.2 173835.714 -144509.58 M 174264.286 -144557.2 174359.524 -144604.819 174550 -144604.819 174645.238 -144557.2 174692.857 -144461.961 174692.857 -144414.342 174645.238 -144319.104 174550 -144271.485 174407.143 -144271.485 174311.905 -144223.866 174264.286 -144128.628 174264.286 -144081.009 174311.905 -143985.771 174407.143 -143938.152 174550 -143938.152 174645.238 -143985.771 M 175121.429 -144604.819 175121.429 -143604.819 M 175550 -144604.819 175550 -144081.009 175502.381 -143985.771 175407.143 -143938.152 175264.286 -143938.152 175169.048 -143985.771 175121.429 -144033.39 M 170740.476 -140407.2 170883.333 -140454.819 171121.428 -140454.819 171216.666 -140407.2 171264.285 -140359.58 171311.904 -140264.342 171311.904 -140169.104 171264.285 -140073.866 171216.666 -140026.247 171121.428 -139978.628 170930.952 -139931.009 170835.714 -139883.39 170788.095 -139835.771 170740.476 -139740.533 170740.476 -139645.295 170788.095 -139550.057 170835.714 -139502.438 170930.952 -139454.819 171169.047 -139454.819 171311.904 -139502.438 M 171645.238 -139454.819 171883.333 -140454.819 172073.809 -139740.533 172264.285 -140454.819 172502.381 -139454.819 M 173407.142 -140454.819 172835.714 -140454.819 M 173121.428 -140454.819 173121.428 -139454.819 173026.19 -139597.676 172930.952 -139692.914 172835.714 -139740.533 M 174026.19 -139454.819 174121.428 -139454.819 174216.666 -139502.438 174264.285 -139550.057 174311.904 -139645.295 174359.523 -139835.771 174359.523 -140073.866 174311.904 -140264.342 174264.285 -140359.58 174216.666 -140407.2 174121.428 -140454.819 174026.19 -140454.819 173930.952 -140407.2 173883.333 -140359.58 173835.714 -140264.342 173788.095 -140073.866 173788.095 -139835.771 173835.714 -139645.295 173883.333 -139550.057 173930.952 -139502.438 174026.19 -139454.819 M 167015.476 -69674.819 167015.476 -68674.819 167253.571 -68674.819 167396.428 -68722.438 167491.666 -68817.676 167539.285 -68912.914 167586.904 -69103.39 167586.904 -69246.247 167539.285 -69436.723 167491.666 -69531.961 167396.428 -69627.2 167253.571 -69674.819 167015.476 -69674.819 M 168015.476 -69674.819 168015.476 -68674.819 168348.809 -69389.104 168682.142 -68674.819 168682.142 -69674.819 M 169158.333 -69293.866 169920.238 -69293.866 M 170586.904 -68674.819 170777.38 -68674.819 170872.618 -68722.438 170967.856 -68817.676 171015.475 -69008.152 171015.475 -69341.485 170967.856 -69531.961 170872.618 -69627.2 170777.38 -69674.819 170586.904 -69674.819 170491.666 -69627.2 170396.428 -69531.961 170348.809 -69341.485 170348.809 -69008.152 170396.428 -68817.676 170491.666 -68722.438 170586.904 -68674.819 M 171920.237 -69674.819 171444.047 -69674.819 171444.047 -68674.819 M 172253.571 -69151.009 172586.904 -69151.009 M 172729.761 -69674.819 172253.571 -69674.819 172253.571 -68674.819 172729.761 -68674.819 M 173158.333 -69674.819 173158.333 -68674.819 173396.428 -68674.819 173539.285 -68722.438 173634.523 -68817.676 173682.142 -68912.914 173729.761 -69103.39 173729.761 -69246.247 173682.142 -69436.723 173634.523 -69531.961 173539.285 -69627.2 173396.428 -69674.819 173158.333 -69674.819 M 174348.809 -68674.819 174444.047 -68674.819 174539.285 -68722.438 174586.904 -68770.057 174634.523 -68865.295 174682.142 -69055.771 174682.142 -69293.866 174634.523 -69484.342 174586.904 -69579.58 174539.285 -69627.2 174444.047 -69674.819 174348.809 -69674.819 174253.571 -69627.2 174205.952 -69579.58 174158.333 -69484.342 174110.714 -69293.866 174110.714 -69055.771 174158.333 -68865.295 174205.952 -68770.057 174253.571 -68722.438 174348.809 -68674.819 M 175158.333 -69674.819 175348.809 -69674.819 175444.047 -69627.2 175491.666 -69579.58 175586.904 -69436.723 175634.523 -69246.247 175634.523 -68865.295 175586.904 -68770.057 175539.285 -68722.438 175444.047 -68674.819 175253.571 -68674.819 175158.333 -68722.438 175110.714 -68770.057 175063.095 -68865.295 175063.095 -69103.39 175110.714 -69198.628 175158.333 -69246.247 175253.571 -69293.866 175444.047 -69293.866 175539.285 -69246.247 175586.904 -69198.628 175634.523 -69103.39 M 176491.666 -68674.819 176301.19 -68674.819 176205.952 -68722.438 176158.333 -68770.057 176063.095 -68912.914 176015.476 -69103.39 176015.476 -69484.342 176063.095 -69579.58 176110.714 -69627.2 176205.952 -69674.819 176396.428 -69674.819 176491.666 -69627.2 176539.285 -69579.58 176586.904 -69484.342 176586.904 -69246.247 176539.285 -69151.009 176491.666 -69103.39 176396.428 -69055.771 176205.952 -69055.771 176110.714 -69103.39 176063.095 -69151.009 176015.476 -69246.247 M 177015.476 -69293.866 177777.381 -69293.866 M 178682.142 -68674.819 178491.666 -68674.819 178396.428 -68722.438 178348.809 -68770.057 178253.571 -68912.914 178205.952 -69103.39 178205.952 -69484.342 178253.571 -69579.58 178301.19 -69627.2 178396.428 -69674.819 178586.904 -69674.819 178682.142 -69627.2 178729.761 -69579.58 178777.38 -69484.342 178777.38 -69246.247 178729.761 -69151.009 178682.142 -69103.39 178586.904 -69055.771 178396.428 -69055.771 178301.19 -69103.39 178253.571 -69151.009 178205.952 -69246.247 M 179110.714 -68674.819 179729.761 -68674.819 179396.428 -69055.771 179539.285 -69055.771 179634.523 -69103.39 179682.142 -69151.009 179729.761 -69246.247 179729.761 -69484.342 179682.142 -69579.58 179634.523 -69627.2 179539.285 -69674.819 179253.571 -69674.819 179158.333 -69627.2 179110.714 -69579.58 M 180586.904 -68674.819 180396.428 -68674.819 180301.19 -68722.438 180253.571 -68770.057 180158.333 -68912.914 180110.714 -69103.39 180110.714 -69484.342 180158.333 -69579.58 180205.952 -69627.2 180301.19 -69674.819 180491.666 -69674.819 180586.904 -69627.2 180634.523 -69579.58 180682.142 -69484.342 180682.142 -69246.247 180634.523 -69151.009 180586.904 -69103.39 180491.666 -69055.771 180301.19 -69055.771 180205.952 -69103.39 180158.333 -69151.009 180110.714 -69246.247 M 154952.381 -106307.2 155095.238 -106354.819 155333.333 -106354.819 155428.571 -106307.2 155476.19 -106259.58 155523.809 -106164.342 155523.809 -106069.104 155476.19 -105973.866 155428.571 -105926.247 155333.333 -105878.628 155142.857 -105831.009 155047.619 -105783.39 155000 -105735.771 154952.381 -105640.533 154952.381 -105545.295 155000 -105450.057 155047.619 -105402.438 155142.857 -105354.819 155380.952 -105354.819 155523.809 -105402.438 M 155857.143 -105354.819 156095.238 -106354.819 156285.714 -105640.533 156476.19 -106354.819 156714.286 -105354.819 M 156857.143 -106450.057 157619.047 -106450.057 M 157857.143 -106354.819 157857.143 -105354.819 158238.095 -105354.819 158333.333 -105402.438 158380.952 -105450.057 158428.571 -105545.295 158428.571 -105688.152 158380.952 -105783.39 158333.333 -105831.009 158238.095 -105878.628 157857.143 -105878.628 M 159285.714 -105688.152 159285.714 -106354.819 M 158857.143 -105688.152 158857.143 -106211.961 158904.762 -106307.2 159000 -106354.819 159142.857 -106354.819 159238.095 -106307.2 159285.714 -106259.58 M 159714.286 -106307.2 159809.524 -106354.819 160000 -106354.819 160095.238 -106307.2 160142.857 -106211.961 160142.857 -106164.342 160095.238 -106069.104 160000 -106021.485 159857.143 -106021.485 159761.905 -105973.866 159714.286 -105878.628 159714.286 -105831.009 159761.905 -105735.771 159857.143 -105688.152 160000 -105688.152 160095.238 -105735.771 M 160571.429 -106354.819 160571.429 -105354.819 M 161000 -106354.819 161000 -105831.009 160952.381 -105735.771 160857.143 -105688.152 160714.286 -105688.152 160619.048 -105735.771 160571.429 -105783.39 M 156666.667 -102157.2 156809.524 -102204.819 157047.619 -102204.819 157142.857 -102157.2 157190.476 -102109.58 157238.095 -102014.342 157238.095 -101919.104 157190.476 -101823.866 157142.857 -101776.247 157047.619 -101728.628 156857.143 -101681.009 156761.905 -101633.39 156714.286 -101585.771 156666.667 -101490.533 156666.667 -101395.295 156714.286 -101300.057 156761.905 -101252.438 156857.143 -101204.819 157095.238 -101204.819 157238.095 -101252.438 M 157571.429 -101204.819 157809.524 -102204.819 158000 -101490.533 158190.476 -102204.819 158428.572 -101204.819 M 159238.095 -101204.819 159047.619 -101204.819 158952.381 -101252.438 158904.762 -101300.057 158809.524 -101442.914 158761.905 -101633.39 158761.905 -102014.342 158809.524 -102109.58 158857.143 -102157.2 158952.381 -102204.819 159142.857 -102204.819 159238.095 -102157.2 159285.714 -102109.58 159333.333 -102014.342 159333.333 -101776.247 159285.714 -101681.009 159238.095 -101633.39 159142.857 -101585.771 158952.381 -101585.771 158857.143 -101633.39 158809.524 -101681.009 158761.905 -101776.247 M 147784.819 -68916.666 147784.819 -69488.094 M 147784.819 -69202.38 146784.819 -69202.38 146927.676 -69297.618 147022.914 -69392.856 147070.533 -69488.094 M 146784.819 -68297.618 146784.819 -68202.38 146832.438 -68107.142 146880.057 -68059.523 146975.295 -68011.904 147165.771 -67964.285 147403.866 -67964.285 147594.342 -68011.904 147689.58 -68059.523 147737.2 -68107.142 147784.819 -68202.38 147784.819 -68297.618 147737.2 -68392.856 147689.58 -68440.475 147594.342 -68488.094 147403.866 -68535.713 147165.771 -68535.713 146975.295 -68488.094 146880.057 -68440.475 146832.438 -68392.856 146784.819 -68297.618 M 146784.819 -67345.237 146784.819 -67249.999 146832.438 -67154.761 146880.057 -67107.142 146975.295 -67059.523 147165.771 -67011.904 147403.866 -67011.904 147594.342 -67059.523 147689.58 -67107.142 147737.2 -67154.761 147784.819 -67249.999 147784.819 -67345.237 147737.2 -67440.475 147689.58 -67488.094 147594.342 -67535.713 147403.866 -67583.332 147165.771 -67583.332 146975.295 -67535.713 146880.057 -67488.094 146832.438 -67440.475 146784.819 -67345.237 M 147784.819 -66011.904 147308.628 -66345.237 M 147784.819 -66583.332 146784.819 -66583.332 146784.819 -66202.38 146832.438 -66107.142 146880.057 -66059.523 146975.295 -66011.904 147118.152 -66011.904 147213.39 -66059.523 147261.009 -66107.142 147308.628 -66202.38 147308.628 -66583.332" fill="none" stroke-width="150"/><path d="M 145863.855 -67883.332 145482.902 -68149.999 M 145863.855 -68340.475 145063.855 -68340.475 145063.855 -68035.713 145101.95 -67959.523 145140.045 -67921.428 145216.236 -67883.332 145330.521 -67883.332 145406.712 -67921.428 145444.807 -67959.523 145482.902 -68035.713 145482.902 -68340.475 M 145330.521 -67197.618 145863.855 -67197.618 M 145025.76 -67388.094 145597.188 -67578.571 145597.188 -67083.332" fill="none" stroke-width="120"/><path d="M 169452.381 -118307.2 169595.238 -118354.819 169833.333 -118354.819 169928.571 -118307.2 169976.19 -118259.58 170023.809 -118164.342 170023.809 -118069.104 169976.19 -117973.866 169928.571 -117926.247 169833.333 -117878.628 169642.857 -117831.009 169547.619 -117783.39 169500 -117735.771 169452.381 -117640.533 169452.381 -117545.295 169500 -117450.057 169547.619 -117402.438 169642.857 -117354.819 169880.952 -117354.819 170023.809 -117402.438 M 170357.143 -117354.819 170595.238 -118354.819 170785.714 -117640.533 170976.19 -118354.819 171214.286 -117354.819 M 171357.143 -118450.057 172119.047 -118450.057 M 172357.143 -118354.819 172357.143 -117354.819 172738.095 -117354.819 172833.333 -117402.438 172880.952 -117450.057 172928.571 -117545.295 172928.571 -117688.152 172880.952 -117783.39 172833.333 -117831.009 172738.095 -117878.628 172357.143 -117878.628 M 173785.714 -117688.152 173785.714 -118354.819 M 173357.143 -117688.152 173357.143 -118211.961 173404.762 -118307.2 173500 -118354.819 173642.857 -118354.819 173738.095 -118307.2 173785.714 -118259.58 M 174214.286 -118307.2 174309.524 -118354.819 174500 -118354.819 174595.238 -118307.2 174642.857 -118211.961 174642.857 -118164.342 174595.238 -118069.104 174500 -118021.485 174357.143 -118021.485 174261.905 -117973.866 174214.286 -117878.628 174214.286 -117831.009 174261.905 -117735.771 174357.143 -117688.152 174500 -117688.152 174595.238 -117735.771 M 175071.429 -118354.819 175071.429 -117354.819 M 175500 -118354.819 175500 -117831.009 175452.381 -117735.771 175357.143 -117688.152 175214.286 -117688.152 175119.048 -117735.771 175071.429 -117783.39 M 170690.476 -114157.2 170833.333 -114204.819 171071.428 -114204.819 171166.666 -114157.2 171214.285 -114109.58 171261.904 -114014.342 171261.904 -113919.104 171214.285 -113823.866 171166.666 -113776.247 171071.428 -113728.628 170880.952 -113681.009 170785.714 -113633.39 170738.095 -113585.771 170690.476 -113490.533 170690.476 -113395.295 170738.095 -113300.057 170785.714 -113252.438 170880.952 -113204.819 171119.047 -113204.819 171261.904 -113252.438 M 171595.238 -113204.819 171833.333 -114204.819 172023.809 -113490.533 172214.285 -114204.819 172452.381 -113204.819 M 173357.142 -114204.819 172785.714 -114204.819 M 173071.428 -114204.819 173071.428 -113204.819 172976.19 -113347.676 172880.952 -113442.914 172785.714 -113490.533 M 173738.095 -113300.057 173785.714 -113252.438 173880.952 -113204.819 174119.047 -113204.819 174214.285 -113252.438 174261.904 -113300.057 174309.523 -113395.295 174309.523 -113490.533 174261.904 -113633.39 173690.476 -114204.819 174309.523 -114204.819" fill="none" stroke-width="150"/><path d="M 140500 -98750 146500 -98750 146500 -104750 140500 -104750 140500 -98750 M 145250 -101750 A 1750 1750 0 0 0 141750 -101750 1750 1750 0 0 0 145250 -101750 M 204050 -68300 204050 -59700 M 204050 -68300 208450 -68300 M 208450 -59700 204050 -59700 M 208450 -64000 212450 -64000 M 208450 -68300 208450 -59700 M 212450 -64000 212450 -66000 208450 -66000 M 169500 -98750 175500 -98750 175500 -104750 169500 -104750 169500 -98750 M 174250 -101750 A 1750 1750 0 0 0 170750 -101750 1750 1750 0 0 0 174250 -101750 M 185925 -90200 189125 -90200 M 185925 -91800 185925 -90200 M 189125 -90200 189125 -91800 185925 -91800 M 140550 -137000 146550 -137000 146550 -143000 140550 -143000 140550 -137000 M 145300 -140000 A 1750 1750 0 0 0 141800 -140000 1750 1750 0 0 0 145300 -140000 M 197900 -123250 203900 -123250 203900 -129250 197900 -129250 197900 -123250 M 202650 -126250 A 1750 1750 0 0 0 199150 -126250 1750 1750 0 0 0 202650 -126250 M 198050 -137000 204050 -137000 204050 -143000 198050 -143000 198050 -137000 M 202800 -140000 A 1750 1750 0 0 0 199300 -140000 1750 1750 0 0 0 202800 -140000 M 184100 -98750 190100 -98750 190100 -104750 184100 -104750 184100 -98750 M 188850 -101750 A 1750 1750 0 0 0 185350 -101750 1750 1750 0 0 0 188850 -101750 M 155150 -123250 161150 -123250 161150 -129250 155150 -129250 155150 -123250 M 159900 -126250 A 1750 1750 0 0 0 156400 -126250 1750 1750 0 0 0 159900 -126250 M 143500 -61920.785 145500 -61920.785 M 150600 -58120.785 A 6100 6100 0 0 0 138400 -58120.785 6100 6100 0 0 0 150600 -58120.785 M 145500 -58120.785 A 1000 1000 0 0 0 143500 -58120.785 1000 1000 0 0 0 145500 -58120.785 M 185937.5 -86950 189137.5 -86950 M 185937.5 -88550 185937.5 -86950 M 189137.5 -86950 189137.5 -88550 185937.5 -88550 M 201500 -42750 201500 -47750 204000 -47750 M 203375 -42750 201500 -42750 M 204000 -43375 203375 -42750 M 204000 -47750 204000 -43375 M 140550 -110750 146550 -110750 146550 -116750 140550 -116750 140550 -110750 M 145300 -113750 A 1750 1750 0 0 0 141800 -113750 1750 1750 0 0 0 145300 -113750 M 201950 -50150 203550 -50150 M 201950 -53350 201950 -50150 M 203550 -50150 203550 -53350 201950 -53350 M 184150 -123250 190150 -123250 190150 -129250 184150 -129250 184150 -123250 M 188900 -126250 A 1750 1750 0 0 0 185400 -126250 1750 1750 0 0 0 188900 -126250 M 155150 -137000 161150 -137000 161150 -143000 155150 -143000 155150 -137000 M 159900 -140000 A 1750 1750 0 0 0 156400 -140000 1750 1750 0 0 0 159900 -140000 M 169500 -123250 175500 -123250 175500 -129250 169500 -129250 169500 -123250 M 174250 -126250 A 1750 1750 0 0 0 170750 -126250 1750 1750 0 0 0 174250 -126250 M 197900 -110750 203900 -110750 203900 -116750 197900 -116750 197900 -110750 M 202650 -113750 A 1750 1750 0 0 0 199150 -113750 1750 1750 0 0 0 202650 -113750 M 197850 -98750 203850 -98750 203850 -104750 197850 -104750 197850 -98750 M 202600 -101750 A 1750 1750 0 0 0 199100 -101750 1750 1750 0 0 0 202600 -101750 M 204250 -78050 198250 -78050 198250 -84050 204250 -84050 204250 -78050 M 203000 -81050 A 1750 1750 0 0 0 199500 -81050 1750 1750 0 0 0 203000 -81050 M 184250 -137000 190250 -137000 190250 -143000 184250 -143000 184250 -137000 M 189000 -140000 A 1750 1750 0 0 0 185500 -140000 1750 1750 0 0 0 189000 -140000 M 184150 -110750 190150 -110750 190150 -116750 184150 -116750 184150 -110750 M 188900 -113750 A 1750 1750 0 0 0 185400 -113750 1750 1750 0 0 0 188900 -113750 M 140470 -82070 176030 -82070 M 140470 -87420 140470 -82070 M 141470 -88420 140470 -87420 M 176030 -82070 176030 -88420 141470 -88420 M 155050 -110750 161050 -110750 161050 -116750 155050 -116750 155050 -110750 M 159800 -113750 A 1750 1750 0 0 0 156300 -113750 1750 1750 0 0 0 159800 -113750 M 186750 -81050 188550 -81050 M 186750 -82450 186750 -81050 M 187450 -81400 187950 -81750 M 187450 -81750 187200 -81750 M 187450 -82100 187450 -81400 M 187950 -81750 187450 -82100 M 187950 -81750 188150 -81750 M 187950 -82100 187950 -81400 M 188550 -81050 188550 -82450 186750 -82450 M 140550 -123250 146550 -123250 146550 -129250 140550 -129250 140550 -123250 M 145300 -126250 A 1750 1750 0 0 0 141800 -126250 1750 1750 0 0 0 145300 -126250 M 185937.5 -83700 189137.5 -83700 M 185937.5 -85300 185937.5 -83700 M 189137.5 -83700 189137.5 -85300 185937.5 -85300 M 169550 -137000 175550 -137000 175550 -143000 169550 -143000 169550 -137000 M 174300 -140000 A 1750 1750 0 0 0 170800 -140000 1750 1750 0 0 0 174300 -140000" fill="none" stroke-width="100"/><path d="M 160190 -42250 186190 -42250 M 160190 -68250 160190 -42250 M 166190 -66250 180190 -66250 M 166190 -68250 160190 -68250 M 166190 -68250 166190 -66250 M 180190 -66250 180190 -68250 M 186190 -42250 186190 -68250 180190 -68250" fill="none" stroke-width="127"/><path d="M 169290 -41750 A 100 100 0 0 0 169090 -41750 100 100 0 0 0 169290 -41750" fill="none" stroke-width="200"/><path d="M 155000 -98750 161000 -98750 161000 -104750 155000 -104750 155000 -98750 M 159750 -101750 A 1750 1750 0 0 0 156250 -101750 1750 1750 0 0 0 159750 -101750 M 144700 -66150 146300 -66150 M 144700 -69350 144700 -66150 M 146300 -66150 146300 -69350 144700 -69350 M 169500 -110750 175500 -110750 175500 -116750 169500 -116750 169500 -110750 M 174250 -113750 A 1750 1750 0 0 0 170750 -113750 1750 1750 0 0 0 174250 -113750" fill="none" stroke-width="100"/></g></svg>