<svg version="1.1" xmlns="http://www.w3.org/2000/svg" xmlns:xlink="http://www.w3.org/1999/xlink" stroke-linecap="round" stroke-linejoin="round" stroke-width="0" fill-rule="evenodd" width="67.06mm" height="46.961mm" viewBox="140940 -89855 67060 46961" id="hQnhnwAg8bmzctV1ABa7"><defs><rect x="-1750" y="-1100" width="3500" height="2200" rx="1100" ry="1100" id="hQnhnwAg8bmzctV1ABa7_pad-10"/><rect x="-1250" y="-750" width="2500" height="1500" id="hQnhnwAg8bmzctV1ABa7_pad-11"/><rect x="-1250" y="-750" width="2500" height="1500" rx="750" ry="750" id="hQnhnwAg8bmzctV1ABa7_pad-12"/><rect x="-1000" y="-1000" width="2000" height="2000" id="hQnhnwAg8bmzctV1ABa7_pad-13"/><circle cx="0" cy="0" r="1000" id="hQnhnwAg8bmzctV1ABa7_pad-14"/><g id="hQnhnwAg8bmzctV1ABa7_pad-15"><polygon points="550,-550 550,550 -550,550 -550,-550"/><circle cx="550" cy="-550" r="250"/><circle cx="550" cy="550" r="250"/><circle cx="-550" cy="550" r="250"/><circle cx="-550" cy="-550" r="250"/><polygon points="800,-550 800,550 300,550 300,-550"/><polygon points="550,300 -550,300 -550,800 550,800"/><polygon points="-300,550 -300,-550 -800,-550 -800,550"/><polygon points="-550,-800 550,-800 550,-300 -550,-300"/></g><circle cx="0" cy="0" r="800" id="hQnhnwAg8bmzctV1ABa7_pad-16"/><g id="hQnhnwAg8bmzctV1ABa7_pad-17"><polygon points="-754,-754 754,-754 754,754 -754,754"/><circle cx="-754" cy="-754" r="102"/><circle cx="754" cy="-754" r="102"/><circle cx="754" cy="754" r="102"/><circle cx="-754" cy="754" r="102"/><polygon points="-754,-856 754,-856 754,-652 -754,-652"/><polygon points="856,-754 856,754 652,754 652,-754"/><polygon points="754,652 -754,652 -754,856 754,856"/><polygon points="-652,754 -652,-754 -856,-754 -856,754"/></g><circle cx="0" cy="0" r="856" id="hQnhnwAg8bmzctV1ABa7_pad-18"/><rect x="-1300" y="-1800" width="2600" height="3600" id="hQnhnwAg8bmzctV1ABa7_pad-19"/><g id="hQnhnwAg8bmzctV1ABa7_pad-20"><polygon points="-550,550 -550,-550 550,-550 550,550"/><circle cx="-550" cy="550" r="250"/><circle cx="-550" cy="-550" r="250"/><circle cx="550" cy="-550" r="250"/><circle cx="550" cy="550" r="250"/><polygon points="-300,550 -300,-550 -800,-550 -800,550"/><polygon points="-550,-800 550,-800 550,-300 -550,-300"/><polygon points="800,-550 800,550 300,550 300,-550"/><polygon points="550,300 -550,300 -550,800 550,800"/></g></defs><g transform="translate(0,-132749) scale(1,-1)" fill="currentColor" stroke="currentColor"><use xlink:href="#hQnhnwAg8bmzctV1ABa7_pad-10" x="206250" y="-68100"/><use xlink:href="#hQnhnwAg8bmzctV1ABa7_pad-10" x="206250" y="-59900"/><use xlink:href="#hQnhnwAg8bmzctV1ABa7_pad-11" x="206250" y="-66000"/><use xlink:href="#hQnhnwAg8bmzctV1ABa7_pad-12" x="206250" y="-64000"/><use xlink:href="#hQnhnwAg8bmzctV1ABa7_pad-12" x="206250" y="-62000"/><use xlink:href="#hQnhnwAg8bmzctV1ABa7_pad-13" x="144500" y="-60620.785"/><use xlink:href="#hQnhnwAg8bmzctV1ABa7_pad-14" x="144500" y="-55620.785"/><use xlink:href="#hQnhnwAg8bmzctV1ABa7_pad-15" x="141740" y="-89055"/><use xlink:href="#hQnhnwAg8bmzctV1ABa7_pad-16" x="144280" y="-89055"/><use xlink:href="#hQnhnwAg8bmzctV1ABa7_pad-16" x="146820" y="-89055"/><use xlink:href="#hQnhnwAg8bmzctV1ABa7_pad-16" x="149360" y="-89055"/><use xlink:href="#hQnhnwAg8bmzctV1ABa7_pad-16" x="151900" y="-89055"/><use xlink:href="#hQnhnwAg8bmzctV1ABa7_pad-16" x="154440" y="-89055"/><use xlink:href="#hQnhnwAg8bmzctV1ABa7_pad-16" x="156980" y="-89055"/><use xlink:href="#hQnhnwAg8bmzctV1ABa7_pad-16" x="159520" y="-89055"/><use xlink:href="#hQnhnwAg8bmzctV1ABa7_pad-16" x="162060" y="-89055"/><use xlink:href="#hQnhnwAg8bmzctV1ABa7_pad-16" x="164600" y="-89055"/><use xlink:href="#hQnhnwAg8bmzctV1ABa7_pad-16" x="167140" y="-89055"/><use xlink:href="#hQnhnwAg8bmzctV1ABa7_pad-16" x="169680" y="-89055"/><use xlink:href="#hQnhnwAg8bmzctV1ABa7_pad-16" x="172220" y="-89055"/><use xlink:href="#hQnhnwAg8bmzctV1ABa7_pad-16" x="174760" y="-89055"/><use xlink:href="#hQnhnwAg8bmzctV1ABa7_pad-16" x="174760" y="-81435"/><use xlink:href="#hQnhnwAg8bmzctV1ABa7_pad-16" x="172220" y="-81435"/><use xlink:href="#hQnhnwAg8bmzctV1ABa7_pad-16" x="169680" y="-81435"/><use xlink:href="#hQnhnwAg8bmzctV1ABa7_pad-16" x="167140" y="-81435"/><use xlink:href="#hQnhnwAg8bmzctV1ABa7_pad-16" x="164600" y="-81435"/><use xlink:href="#hQnhnwAg8bmzctV1ABa7_pad-16" x="162060" y="-81435"/><use xlink:href="#hQnhnwAg8bmzctV1ABa7_pad-16" x="159520" y="-81435"/><use xlink:href="#hQnhnwAg8bmzctV1ABa7_pad-16" x="156980" y="-81435"/><use xlink:href="#hQnhnwAg8bmzctV1ABa7_pad-16" x="154440" y="-81435"/><use xlink:href="#hQnhnwAg8bmzctV1ABa7_pad-16" x="151900" y="-81435"/><use xlink:href="#hQnhnwAg8bmzctV1ABa7_pad-16" x="149360" y="-81435"/><use xlink:href="#hQnhnwAg8bmzctV1ABa7_pad-16" x="146820" y="-81435"/><use xlink:href="#hQnhnwAg8bmzctV1ABa7_pad-16" x="144280" y="-81435"/><use xlink:href="#hQnhnwAg8bmzctV1ABa7_pad-16" x="141740" y="-81435"/><use xlink:href="#hQnhnwAg8bmzctV1ABa7_pad-17" x="169380" y="-43750"/><use xlink:href="#hQnhnwAg8bmzctV1ABa7_pad-18" x="171920" y="-43750"/><use xlink:href="#hQnhnwAg8bmzctV1ABa7_pad-18" x="174460" y="-43750"/><use xlink:href="#hQnhnwAg8bmzctV1ABa7_pad-18" x="177000" y="-43750"/><use xlink:href="#hQnhnwAg8bmzctV1ABa7_pad-19" x="187800" y="-59550"/><use xlink:href="#hQnhnwAg8bmzctV1ABa7_pad-19" x="158500" y="-59550"/><use xlink:href="#hQnhnwAg8bmzctV1ABa7_pad-20" x="195750" y="-44500"/><use xlink:href="#hQnhnwAg8bmzctV1ABa7_pad-16" x="195750" y="-47000"/></g></svg>