<svg version="1.1" xmlns="http://www.w3.org/2000/svg" xmlns:xlink="http://www.w3.org/1999/xlink" stroke-linecap="round" stroke-linejoin="round" stroke-width="0" fill-rule="evenodd" width="72.749mm" height="107.999mm" viewBox="135750.5 -147249.5 72749 107999" id="RG9uCk5x4nMpwqyaB3wh"><defs><rect x="-1750" y="-1100" width="3500" height="2200" rx="1100" ry="1100" id="RG9uCk5x4nMpwqyaB3wh_pad-10"/><rect x="-1250" y="-750" width="2500" height="1500" id="RG9uCk5x4nMpwqyaB3wh_pad-11"/><rect x="-1250" y="-750" width="2500" height="1500" rx="750" ry="750" id="RG9uCk5x4nMpwqyaB3wh_pad-12"/><rect x="-1000" y="-1000" width="2000" height="2000" id="RG9uCk5x4nMpwqyaB3wh_pad-13"/><circle cx="0" cy="0" r="1000" id="RG9uCk5x4nMpwqyaB3wh_pad-14"/><g id="RG9uCk5x4nMpwqyaB3wh_pad-15"><polygon points="550,-550 550,550 -550,550 -550,-550"/><circle cx="550" cy="-550" r="250"/><circle cx="550" cy="550" r="250"/><circle cx="-550" cy="550" r="250"/><circle cx="-550" cy="-550" r="250"/><polygon points="800,-550 800,550 300,550 300,-550"/><polygon points="550,300 -550,300 -550,800 550,800"/><polygon points="-300,550 -300,-550 -800,-550 -800,550"/><polygon points="-550,-800 550,-800 550,-300 -550,-300"/></g><circle cx="0" cy="0" r="800" id="RG9uCk5x4nMpwqyaB3wh_pad-16"/><rect x="-754" y="-754" width="1508" height="1508" id="RG9uCk5x4nMpwqyaB3wh_pad-17"/><circle cx="0" cy="0" r="754" id="RG9uCk5x4nMpwqyaB3wh_pad-18"/><rect x="-1300" y="-1800" width="2600" height="3600" id="RG9uCk5x4nMpwqyaB3wh_pad-19"/><g id="RG9uCk5x4nMpwqyaB3wh_pad-20"><polygon points="-550,550 -550,-550 550,-550 550,550"/><circle cx="-550" cy="550" r="250"/><circle cx="-550" cy="-550" r="250"/><circle cx="550" cy="-550" r="250"/><circle cx="550" cy="550" r="250"/><polygon points="-300,550 -300,-550 -800,-550 -800,550"/><polygon points="-550,-800 550,-800 550,-300 -550,-300"/><polygon points="800,-550 800,550 300,550 300,-550"/><polygon points="550,300 -550,300 -550,800 550,800"/></g><circle cx="0" cy="0" r="350" id="RG9uCk5x4nMpwqyaB3wh_pad-21"/></defs><g transform="translate(0,-186500) scale(1,-1)" fill="currentColor" stroke="currentColor"><use xlink:href="#RG9uCk5x4nMpwqyaB3wh_pad-10" x="206250" y="-68100"/><use xlink:href="#RG9uCk5x4nMpwqyaB3wh_pad-10" x="206250" y="-59900"/><use xlink:href="#RG9uCk5x4nMpwqyaB3wh_pad-11" x="206250" y="-66000"/><use xlink:href="#RG9uCk5x4nMpwqyaB3wh_pad-12" x="206250" y="-64000"/><use xlink:href="#RG9uCk5x4nMpwqyaB3wh_pad-12" x="206250" y="-62000"/><use xlink:href="#RG9uCk5x4nMpwqyaB3wh_pad-13" x="144500" y="-60620.785"/><use xlink:href="#RG9uCk5x4nMpwqyaB3wh_pad-14" x="144500" y="-55620.785"/><use xlink:href="#RG9uCk5x4nMpwqyaB3wh_pad-15" x="141740" y="-89055"/><use xlink:href="#RG9uCk5x4nMpwqyaB3wh_pad-16" x="144280" y="-89055"/><use xlink:href="#RG9uCk5x4nMpwqyaB3wh_pad-16" x="146820" y="-89055"/><use xlink:href="#RG9uCk5x4nMpwqyaB3wh_pad-16" x="149360" y="-89055"/><use xlink:href="#RG9uCk5x4nMpwqyaB3wh_pad-16" x="151900" y="-89055"/><use xlink:href="#RG9uCk5x4nMpwqyaB3wh_pad-16" x="154440" y="-89055"/><use xlink:href="#RG9uCk5x4nMpwqyaB3wh_pad-16" x="156980" y="-89055"/><use xlink:href="#RG9uCk5x4nMpwqyaB3wh_pad-16" x="159520" y="-89055"/><use xlink:href="#RG9uCk5x4nMpwqyaB3wh_pad-16" x="162060" y="-89055"/><use xlink:href="#RG9uCk5x4nMpwqyaB3wh_pad-16" x="164600" y="-89055"/><use xlink:href="#RG9uCk5x4nMpwqyaB3wh_pad-16" x="167140" y="-89055"/><use xlink:href="#RG9uCk5x4nMpwqyaB3wh_pad-16" x="169680" y="-89055"/><use xlink:href="#RG9uCk5x4nMpwqyaB3wh_pad-16" x="172220" y="-89055"/><use xlink:href="#RG9uCk5x4nMpwqyaB3wh_pad-16" x="174760" y="-89055"/><use xlink:href="#RG9uCk5x4nMpwqyaB3wh_pad-16" x="174760" y="-81435"/><use xlink:href="#RG9uCk5x4nMpwqyaB3wh_pad-16" x="172220" y="-81435"/><use xlink:href="#RG9uCk5x4nMpwqyaB3wh_pad-16" x="169680" y="-81435"/><use xlink:href="#RG9uCk5x4nMpwqyaB3wh_pad-16" x="167140" y="-81435"/><use xlink:href="#RG9uCk5x4nMpwqyaB3wh_pad-16" x="164600" y="-81435"/><use xlink:href="#RG9uCk5x4nMpwqyaB3wh_pad-16" x="162060" y="-81435"/><use xlink:href="#RG9uCk5x4nMpwqyaB3wh_pad-16" x="159520" y="-81435"/><use xlink:href="#RG9uCk5x4nMpwqyaB3wh_pad-16" x="156980" y="-81435"/><use xlink:href="#RG9uCk5x4nMpwqyaB3wh_pad-16" x="154440" y="-81435"/><use xlink:href="#RG9uCk5x4nMpwqyaB3wh_pad-16" x="151900" y="-81435"/><use xlink:href="#RG9uCk5x4nMpwqyaB3wh_pad-16" x="149360" y="-81435"/><use xlink:href="#RG9uCk5x4nMpwqyaB3wh_pad-16" x="146820" y="-81435"/><use xlink:href="#RG9uCk5x4nMpwqyaB3wh_pad-16" x="144280" y="-81435"/><use xlink:href="#RG9uCk5x4nMpwqyaB3wh_pad-16" x="141740" y="-81435"/><use xlink:href="#RG9uCk5x4nMpwqyaB3wh_pad-17" x="169380" y="-43750"/><use xlink:href="#RG9uCk5x4nMpwqyaB3wh_pad-18" x="171920" y="-43750"/><use xlink:href="#RG9uCk5x4nMpwqyaB3wh_pad-18" x="174460" y="-43750"/><use xlink:href="#RG9uCk5x4nMpwqyaB3wh_pad-18" x="177000" y="-43750"/><use xlink:href="#RG9uCk5x4nMpwqyaB3wh_pad-19" x="187800" y="-59550"/><use xlink:href="#RG9uCk5x4nMpwqyaB3wh_pad-19" x="158500" y="-59550"/><use xlink:href="#RG9uCk5x4nMpwqyaB3wh_pad-20" x="195750" y="-44500"/><use xlink:href="#RG9uCk5x4nMpwqyaB3wh_pad-16" x="195750" y="-47000"/><use xlink:href="#RG9uCk5x4nMpwqyaB3wh_pad-21" x="203500" y="-80750"/><use xlink:href="#RG9uCk5x4nMpwqyaB3wh_pad-21" x="203500" y="-82550"/><use xlink:href="#RG9uCk5x4nMpwqyaB3wh_pad-21" x="153000" y="-77250"/><use xlink:href="#RG9uCk5x4nMpwqyaB3wh_pad-21" x="185250" y="-80000"/><use xlink:href="#RG9uCk5x4nMpwqyaB3wh_pad-21" x="199000" y="-82550"/><use xlink:href="#RG9uCk5x4nMpwqyaB3wh_pad-21" x="199000" y="-80500"/><use xlink:href="#RG9uCk5x4nMpwqyaB3wh_pad-21" x="182500" y="-106250"/><use xlink:href="#RG9uCk5x4nMpwqyaB3wh_pad-21" x="148000" y="-106250"/><use xlink:href="#RG9uCk5x4nMpwqyaB3wh_pad-21" x="153500" y="-106500"/><use xlink:href="#RG9uCk5x4nMpwqyaB3wh_pad-21" x="162500" y="-106250"/><use xlink:href="#RG9uCk5x4nMpwqyaB3wh_pad-21" x="196250" y="-106250"/><use xlink:href="#RG9uCk5x4nMpwqyaB3wh_pad-21" x="191500" y="-106250"/><use xlink:href="#RG9uCk5x4nMpwqyaB3wh_pad-21" x="168000" y="-106250"/><use xlink:href="#RG9uCk5x4nMpwqyaB3wh_pad-21" x="177000" y="-106250"/><use xlink:href="#RG9uCk5x4nMpwqyaB3wh_pad-21" x="196500" y="-118250"/><use xlink:href="#RG9uCk5x4nMpwqyaB3wh_pad-21" x="167750" y="-118250"/><use xlink:href="#RG9uCk5x4nMpwqyaB3wh_pad-21" x="148000" y="-118250"/><use xlink:href="#RG9uCk5x4nMpwqyaB3wh_pad-21" x="177000" y="-118250"/><use xlink:href="#RG9uCk5x4nMpwqyaB3wh_pad-21" x="153500" y="-118250"/><use xlink:href="#RG9uCk5x4nMpwqyaB3wh_pad-21" x="191750" y="-118250"/><use xlink:href="#RG9uCk5x4nMpwqyaB3wh_pad-21" x="162750" y="-118250"/><use xlink:href="#RG9uCk5x4nMpwqyaB3wh_pad-21" x="182500" y="-118250"/><use xlink:href="#RG9uCk5x4nMpwqyaB3wh_pad-21" x="182500" y="-131000"/><use xlink:href="#RG9uCk5x4nMpwqyaB3wh_pad-21" x="148000" y="-131000"/><use xlink:href="#RG9uCk5x4nMpwqyaB3wh_pad-21" x="191750" y="-131000"/><use xlink:href="#RG9uCk5x4nMpwqyaB3wh_pad-21" x="196250" y="-131000"/><use xlink:href="#RG9uCk5x4nMpwqyaB3wh_pad-21" x="177250" y="-131000"/><use xlink:href="#RG9uCk5x4nMpwqyaB3wh_pad-21" x="153750" y="-131000"/><use xlink:href="#RG9uCk5x4nMpwqyaB3wh_pad-21" x="162750" y="-131000"/><use xlink:href="#RG9uCk5x4nMpwqyaB3wh_pad-21" x="168000" y="-131000"/><use xlink:href="#RG9uCk5x4nMpwqyaB3wh_pad-21" x="153500" y="-144500"/><use xlink:href="#RG9uCk5x4nMpwqyaB3wh_pad-21" x="148250" y="-144500"/><path d="M 194250 -66000 206250 -66000 M 187800 -59550 194250 -66000 M 158500 -59550 149429.215 -59550 145500 -55620.785 M 158500 -54690 163970 -49220 M 158500 -59550 158500 -54690 M 203500 -80750 203500 -82550" fill="none" stroke-width="500"/><path d="M 182500 -77250 185250 -80000 M 153000 -77250 182500 -77250 M 199000 -80500 199000 -82550 M 191500 -106250 196250 -106250 M 179750 -106250 180000 -106250 M 148000 -106250 148250 -106500 153500 -106500 M 162500 -106250 168000 -106250 M 174760 -89055 179750 -94045 179750 -106250 M 177000 -106250 179750 -106250 M 180000 -106250 182500 -106250 M 172220 -81435 173371 -82586 M 173371 -107879 165250 -116000 165250 -118250 M 162750 -118250 165250 -118250 167750 -118250 M 173371 -82586 173371 -107879 M 191750 -118250 196500 -118250 M 148000 -118250 153500 -118250 M 177000 -118250 182500 -118250 M 191750 -131000 196250 -131000 M 165500 -131000 168000 -131000 M 159250 -122250 159250 -95735.76 M 177250 -131000 182500 -131000 M 165989 -85126 169680 -81435 M 159547 -95735.76 165989 -89293.76 M 165500 -131000 165500 -128500 M 148000 -131000 153750 -131000 M 165989 -89293.76 165989 -85126 M 162750 -131000 165500 -131000 M 165500 -128500 159250 -122250 M 159250 -95735.76 159547 -95735.76 M 145608.88 -93898.88 151223.88 -93898.88 M 145608.88 -136108.88 145608.88 -93898.88 M 151250 -144500 153500 -144500 M 160671 -87904 167140 -81435 M 148250 -144500 151250 -144500 M 156503.24 -87904 160671 -87904 M 151250 -141750 145608.88 -136108.88 M 151250 -144500 151250 -141750 M 151223.88 -93898.88 155829 -89293.76 155829 -88578.24 156503.24 -87904 M 157121 -64399 159851 -64399 M 177060 -47190 177000 -47130 M 144280 -77240 157121 -64399 M 159851 -64399 177060 -47190 M 144280 -81435 144280 -77240 M 177000 -47130 177000 -43750 M 174520 -47980 174460 -47920 M 141740 -81435 141740 -77240 M 174460 -47920 174460 -43750 M 156230 -62750 159750 -62750 M 141740 -77240 156230 -62750 M 159750 -62750 174520 -47980" fill="none" stroke-width="300"/><path d="M 203502.562 -39250.605 203870.277 -39265.814 203875.906 -39266.177 203959.956 -39273.53 203964.429 -39274.004 204287.028 -39314.216 204293.169 -39315.14 204371.766 -39328.999 204375.594 -39329.737 204699.008 -39397.549 204705.622 -39399.128 204774.576 -39417.604 204777.787 -39418.512 205103.169 -39515.383 205110.157 -39517.692 205164.056 -39537.31 205166.678 -39538.299 205496.425 -39666.967 205503.729 -39670.089 205534.837 -39684.595 205536.641 -39685.458 205874.902 -39850.823 205883.883 -39855.683 206230.07 -40061.966 206238.638 -40067.564 206566.593 -40301.719 206574.668 -40308.005 206882.155 -40568.433 206889.695 -40575.374 207174.625 -40860.304 207181.566 -40867.844 207441.989 -41175.325 207448.284 -41183.412 207682.431 -41511.355 207688.037 -41519.935 207894.309 -41866.105 207899.186 -41875.119 208064.467 -42213.206 208065.45 -42215.262 208079.902 -42246.255 208083.036 -42253.584 208211.691 -42583.3 208212.696 -42585.964 208232.299 -42639.822 208234.622 -42646.851 208331.475 -42972.173 208332.405 -42975.462 208350.867 -43044.364 208352.453 -43051.01 208420.25 -43374.35 208421.005 -43378.265 208434.854 -43456.807 208435.786 -43463.001 208475.99 -43785.538 208476.47 -43790.069 208483.819 -43874.067 208484.185 -43879.749 208499.394 -44247.437 208499.5 -44252.562 208499.5 -58997.837 208479.815 -59064.876 208427.011 -59110.631 208357.853 -59120.575 208294.297 -59091.55 208271.815 -59065.036 208271.734 -59065.096 208270.947 -59064.014 208269.776 -59062.632 208268.871 -59061.155 208120.798 -58857.35 208120.794 -58857.345 207942.654 -58679.205 207942.649 -58679.201 207738.848 -58531.132 207738.847 -58531.131 207738.845 -58531.13 207668.747 -58495.413 207514.383 -58416.76 207274.785 -58338.91 207025.962 -58299.5 205474.038 -58299.5 205349.626 -58319.205 205225.214 -58338.91 204985.616 -58416.76 204761.151 -58531.132 204557.35 -58679.201 204557.345 -58679.205 204379.205 -58857.345 204379.201 -58857.35 204231.132 -59061.151 204116.76 -59285.616 204038.91 -59525.214 203999.5 -59774.038 203999.5 -60025.961 204038.91 -60274.785 204116.76 -60514.383 204195.413 -60668.747 204230.155 -60736.932 204231.132 -60738.848 204379.201 -60942.649 204379.205 -60942.654 204557.349 -61120.798 204644.752 -61184.299 204687.418 -61239.628 204693.397 -61309.242 204682.352 -61340.911 204591.118 -61519.967 204530.29 -61707.173 204499.5 -61901.577 204499.5 -62098.422 204530.29 -62292.826 204591.117 -62480.029 204680.476 -62655.405 204796.172 -62814.646 204796.174 -62814.648 204893.845 -62912.319 204927.33 -62973.642 204922.346 -63043.334 204893.845 -63087.681 204796.174 -63185.351 204796.174 -63185.352 204796.172 -63185.354 204746.485 -63253.741 204680.476 -63344.594 204591.117 -63519.97 204530.29 -63707.173 204499.5 -63901.577 204499.5 -64098.422 204530.29 -64292.826 204591.117 -64480.029 204680.472 -64655.397 204680.476 -64655.405 204706.781 -64691.611 204706.783 -64691.613 204730.263 -64757.419 204714.438 -64825.473 204680.777 -64863.765 204642.452 -64892.455 204556.206 -65007.664 204556.202 -65007.671 204505.908 -65142.517 204504.126 -65150.062 204501.853 -65149.525 204479.571 -65203.312 204422.177 -65243.157 204383.024 -65249.5 194612.229 -65249.5 194545.19 -65229.815 194524.548 -65213.181 189636.818 -60325.45 189603.333 -60264.127 189600.499 -60237.769 189600.499 -57702.129 189600.498 -57702.123 189600.497 -57702.116 189594.091 -57642.517 189543.884 -57507.906 189543.797 -57507.671 189543.793 -57507.664 189457.547 -57392.455 189457.544 -57392.452 189342.335 -57306.206 189342.328 -57306.202 189207.482 -57255.908 189207.483 -57255.908 189147.883 -57249.501 189147.881 -57249.5 189147.873 -57249.5 189147.864 -57249.5 186452.129 -57249.5 186452.123 -57249.501 186392.516 -57255.908 186257.671 -57306.202 186257.664 -57306.206 186142.455 -57392.452 186142.452 -57392.455 186056.206 -57507.664 186056.202 -57507.671 186005.908 -57642.517 185999.501 -57702.116 185999.501 -57702.123 185999.5 -57702.135 185999.5 -61397.87 185999.501 -61397.876 186005.908 -61457.483 186056.202 -61592.328 186056.206 -61592.335 186142.452 -61707.544 186142.455 -61707.547 186257.664 -61793.793 186257.671 -61793.797 186392.517 -61844.091 186392.516 -61844.091 186399.444 -61844.835 186452.127 -61850.5 188987.769 -61850.499 189054.808 -61870.184 189075.45 -61886.818 193667.048 -66478.415 193667.049 -66478.416 193771.584 -66582.951 193771.585 -66582.952 193894.498 -66665.08 193894.511 -66665.087 194031.082 -66721.656 194031.087 -66721.658 194031.091 -66721.658 194031.092 -66721.659 194176.079 -66750.5 194176.082 -66750.5 204383.023 -66750.5 204385.219 -66751.144 204387.436 -66750.579 204418.58 -66760.94 204450.062 -66770.185 204451.559 -66771.913 204453.732 -66772.636 204474.338 -66798.201 204495.817 -66822.989 204496.59 -66825.809 204497.579 -66827.035 204506.311 -66861.232 204506.667 -66864.54 204494.269 -66933.301 204471.061 -66965.488 204379.205 -67057.345 204379.201 -67057.35 204231.132 -67261.151 204116.76 -67485.616 204038.91 -67725.214 203999.5 -67974.038 203999.5 -68225.961 204038.91 -68474.785 204116.76 -68714.383 204195.413 -68868.747 204230.155 -68936.932 204231.132 -68938.848 204379.201 -69142.649 204379.205 -69142.654 204557.345 -69320.794 204557.35 -69320.798 204735.117 -69449.952 204761.155 -69468.87 204904.184 -69541.747 204985.616 -69583.239 204985.618 -69583.239 204985.621 -69583.241 205225.215 -69661.09 205474.038 -69700.5 205474.039 -69700.5 207025.961 -69700.5 207025.962 -69700.5 207274.785 -69661.09 207514.379 -69583.241 207738.845 -69468.87 207942.656 -69320.793 208120.793 -69142.656 208268.87 -68938.845 208268.872 -68938.839 208269.771 -68937.375 208270.26 -68936.932 208271.734 -68934.904 208272.159 -68935.213 208321.581 -68890.498 208390.51 -68879.074 208454.674 -68906.729 208493.7 -68964.683 208499.5 -69002.162 208499.5 -142247.437 208499.394 -142252.562 208484.185 -142620.249 208483.819 -142625.93 208483.819 -142625.931 208476.47 -142709.929 208475.99 -142714.46 208435.786 -143036.997 208434.854 -143043.191 208421.005 -143121.733 208420.25 -143125.648 208352.453 -143448.988 208350.867 -143455.634 208332.405 -143524.536 208331.475 -143527.825 208234.622 -143853.147 208232.299 -143860.176 208212.696 -143914.034 208211.691 -143916.698 208083.036 -144246.414 208079.903 -144253.741 208079.902 -144253.743 208065.471 -144284.691 208064.489 -144286.747 207899.182 -144624.889 207894.304 -144633.903 207688.037 -144980.064 207682.431 -144988.644 207448.284 -145316.587 207441.989 -145324.674 207181.566 -145632.155 207174.625 -145639.695 206889.695 -145924.625 206882.155 -145931.566 206574.674 -146191.989 206566.587 -146198.284 206238.644 -146432.431 206230.064 -146438.037 205883.903 -146644.304 205874.889 -146649.182 205536.747 -146814.489 205534.691 -146815.471 205503.743 -146829.902 205496.414 -146833.036 205166.698 -146961.691 205164.034 -146962.696 205110.176 -146982.299 205103.147 -146984.622 204777.825 -147081.475 204774.536 -147082.405 204705.634 -147100.867 204698.988 -147102.453 204375.648 -147170.25 204371.733 -147171.005 204293.191 -147184.854 204286.997 -147185.786 203964.46 -147225.99 203959.929 -147226.47 203875.931 -147233.819 203870.249 -147234.185 203502.563 -147249.394 203497.438 -147249.5 140752.562 -147249.5 140747.437 -147249.394 140379.749 -147234.185 140374.067 -147233.819 140290.069 -147226.47 140285.538 -147225.99 139963.001 -147185.786 139956.807 -147184.854 139878.265 -147171.005 139874.35 -147170.25 139551.01 -147102.453 139544.364 -147100.867 139475.462 -147082.405 139472.173 -147081.475 139146.851 -146984.622 139139.822 -146982.299 139085.964 -146962.696 139083.3 -146961.691 138753.584 -146833.036 138746.255 -146829.902 138715.262 -146815.45 138713.206 -146814.467 138375.119 -146649.186 138366.105 -146644.309 138019.935 -146438.037 138011.355 -146432.431 137683.412 -146198.284 137675.325 -146191.989 137367.844 -145931.566 137360.304 -145924.625 137075.374 -145639.695 137068.433 -145632.155 136943.445 -145484.582 136808.005 -145324.668 136801.715 -145316.587 136756.817 -145253.704 136567.564 -144988.638 136561.962 -144980.064 136355.683 -144633.883 136350.817 -144624.889 136185.458 -144286.641 136184.595 -144284.837 136170.089 -144253.729 136166.962 -144246.414 136108.714 -144097.137 136038.299 -143916.679 136037.302 -143914.034 136017.692 -143860.157 136015.383 -143853.169 135918.512 -143527.787 135917.604 -143524.576 135899.128 -143455.622 135897.549 -143449.008 135829.737 -143125.594 135828.999 -143121.766 135815.14 -143043.169 135814.216 -143037.028 135774.004 -142714.429 135773.53 -142709.956 135766.177 -142625.906 135765.814 -142620.277 135750.606 -142252.562 135750.5 -142247.438 135750.5 -81332.648 140439.5 -81332.648 140439.5 -81537.351 140471.522 -81739.534 140534.781 -81934.223 140580.505 -82023.959 140627.585 -82116.359 140627.715 -82116.613 140748.028 -82282.213 140892.786 -82426.971 141013.226 -82514.474 141058.39 -82547.287 141157.747 -82597.912 141240.776 -82640.218 141240.778 -82640.218 141240.781 -82640.22 141345.137 -82674.127 141435.465 -82703.477 141536.557 -82719.488 141637.648 -82735.5 141637.649 -82735.5 141842.351 -82735.5 141842.352 -82735.5 142044.534 -82703.477 142239.219 -82640.22 142421.61 -82547.287 142533.179 -82466.228 142587.213 -82426.971 142587.215 -82426.968 142587.219 -82426.966 142731.966 -82282.219 142731.968 -82282.215 142731.971 -82282.213 142852.284 -82116.614 142852.286 -82116.611 142852.287 -82116.61 142899.516 -82023.917 142947.489 -81973.123 143015.31 -81956.328 143081.445 -81978.865 143120.485 -82023.919 143167.715 -82116.614 143288.028 -82282.213 143432.786 -82426.971 143553.226 -82514.474 143598.39 -82547.287 143697.747 -82597.912 143780.776 -82640.218 143780.778 -82640.218 143780.781 -82640.22 143885.137 -82674.127 143975.465 -82703.477 144076.557 -82719.488 144177.648 -82735.5 144177.649 -82735.5 144382.351 -82735.5 144382.352 -82735.5 144584.534 -82703.477 144779.219 -82640.22 144961.61 -82547.287 145073.179 -82466.228 145127.213 -82426.971 145127.215 -82426.968 145127.219 -82426.966 145271.966 -82282.219 145271.968 -82282.215 145271.971 -82282.213 145392.284 -82116.614 145392.286 -82116.611 145392.287 -82116.61 145439.516 -82023.917 145487.489 -81973.123 145555.31 -81956.328 145621.445 -81978.865 145660.485 -82023.919 145707.715 -82116.614 145828.028 -82282.213 145972.786 -82426.971 146093.226 -82514.474 146138.39 -82547.287 146237.747 -82597.912 146320.776 -82640.218 146320.778 -82640.218 146320.781 -82640.22 146425.137 -82674.127 146515.465 -82703.477 146616.557 -82719.488 146717.648 -82735.5 146717.649 -82735.5 146922.351 -82735.5 146922.352 -82735.5 147124.534 -82703.477 147319.219 -82640.22 147501.61 -82547.287 147613.179 -82466.228 147667.213 -82426.971 147667.215 -82426.968 147667.219 -82426.966 147811.966 -82282.219 147811.968 -82282.215 147811.971 -82282.213 147932.284 -82116.614 147932.286 -82116.611 147932.287 -82116.61 147979.516 -82023.917 148027.489 -81973.123 148095.31 -81956.328 148161.445 -81978.865 148200.485 -82023.919 148247.715 -82116.614 148368.028 -82282.213 148512.786 -82426.971 148633.226 -82514.474 148678.39 -82547.287 148777.747 -82597.912 148860.776 -82640.218 148860.778 -82640.218 148860.781 -82640.22 148965.137 -82674.127 149055.465 -82703.477 149156.557 -82719.488 149257.648 -82735.5 149257.649 -82735.5 149462.351 -82735.5 149462.352 -82735.5 149664.534 -82703.477 149859.219 -82640.22 150041.61 -82547.287 150153.179 -82466.228 150207.213 -82426.971 150207.215 -82426.968 150207.219 -82426.966 150351.966 -82282.219 150351.968 -82282.215 150351.971 -82282.213 150472.284 -82116.614 150472.286 -82116.611 150472.287 -82116.61 150519.516 -82023.917 150567.489 -81973.123 150635.31 -81956.328 150701.445 -81978.865 150740.485 -82023.919 150787.715 -82116.614 150908.028 -82282.213 151052.786 -82426.971 151173.226 -82514.474 151218.39 -82547.287 151317.747 -82597.912 151400.776 -82640.218 151400.778 -82640.218 151400.781 -82640.22 151505.137 -82674.127 151595.465 -82703.477 151696.557 -82719.488 151797.648 -82735.5 151797.649 -82735.5 152002.351 -82735.5 152002.352 -82735.5 152204.534 -82703.477 152399.219 -82640.22 152581.61 -82547.287 152693.179 -82466.228 152747.213 -82426.971 152747.215 -82426.968 152747.219 -82426.966 152891.966 -82282.219 152891.968 -82282.215 152891.971 -82282.213 153012.284 -82116.614 153012.286 -82116.611 153012.287 -82116.61 153059.516 -82023.917 153107.489 -81973.123 153175.31 -81956.328 153241.445 -81978.865 153280.485 -82023.919 153327.715 -82116.614 153448.028 -82282.213 153592.786 -82426.971 153713.226 -82514.474 153758.39 -82547.287 153857.747 -82597.912 153940.776 -82640.218 153940.778 -82640.218 153940.781 -82640.22 154045.137 -82674.127 154135.465 -82703.477 154236.557 -82719.488 154337.648 -82735.5 154337.649 -82735.5 154542.351 -82735.5 154542.352 -82735.5 154744.534 -82703.477 154939.219 -82640.22 155121.61 -82547.287 155233.179 -82466.228 155287.213 -82426.971 155287.215 -82426.968 155287.219 -82426.966 155431.966 -82282.219 155431.968 -82282.215 155431.971 -82282.213 155520.093 -82160.921 155552.287 -82116.61 155599.795 -82023.369 155647.769 -81972.573 155715.59 -81955.778 155781.725 -81978.315 155820.765 -82023.369 155868.141 -82116.35 155868.147 -82116.359 155900.523 -82160.921 155900.524 -82160.922 156580 -81481.446 156580 -81487.661 156607.259 -81589.394 156659.92 -81680.606 156734.394 -81755.08 156825.606 -81807.741 156927.339 -81835 156933.553 -81835 156254.076 -82514.474 156298.65 -82546.859 156480.968 -82639.755 156675.582 -82702.99 156877.683 -82735 157082.317 -82735 157284.417 -82702.99 157479.031 -82639.755 157661.349 -82546.859 157705.921 -82514.474 157026.447 -81835 157032.661 -81835 157134.394 -81807.741 157225.606 -81755.08 157300.08 -81680.606 157352.741 -81589.394 157380 -81487.661 157380 -81481.448 158059.474 -82160.922 158059.474 -82160.921 158091.861 -82116.347 158091.861 -82116.346 158139.234 -82023.371 158187.208 -81972.575 158255.028 -81955.779 158321.164 -81978.316 158360.203 -82023.369 158407.713 -82116.611 158528.028 -82282.213 158672.786 -82426.971 158793.226 -82514.474 158838.39 -82547.287 158937.747 -82597.912 159020.776 -82640.218 159020.778 -82640.218 159020.781 -82640.22 159125.137 -82674.127 159215.465 -82703.477 159316.557 -82719.488 159417.648 -82735.5 159417.649 -82735.5 159622.351 -82735.5 159622.352 -82735.5 159824.534 -82703.477 160019.219 -82640.22 160201.61 -82547.287 160313.179 -82466.228 160367.213 -82426.971 160367.215 -82426.968 160367.219 -82426.966 160511.966 -82282.219 160511.968 -82282.215 160511.971 -82282.213 160632.284 -82116.614 160632.286 -82116.611 160632.287 -82116.61 160679.516 -82023.917 160727.489 -81973.123 160795.31 -81956.328 160861.445 -81978.865 160900.485 -82023.919 160947.715 -82116.614 161068.028 -82282.213 161212.786 -82426.971 161333.226 -82514.474 161378.39 -82547.287 161477.747 -82597.912 161560.776 -82640.218 161560.778 -82640.218 161560.781 -82640.22 161665.137 -82674.127 161755.465 -82703.477 161856.557 -82719.488 161957.648 -82735.5 161957.649 -82735.5 162162.351 -82735.5 162162.352 -82735.5 162364.534 -82703.477 162559.219 -82640.22 162741.61 -82547.287 162853.179 -82466.228 162907.213 -82426.971 162907.215 -82426.968 162907.219 -82426.966 163051.966 -82282.219 163051.968 -82282.215 163051.971 -82282.213 163172.284 -82116.614 163172.286 -82116.611 163172.287 -82116.61 163219.516 -82023.917 163267.489 -81973.123 163335.31 -81956.328 163401.445 -81978.865 163440.485 -82023.919 163487.715 -82116.614 163608.028 -82282.213 163752.786 -82426.971 163873.226 -82514.474 163918.39 -82547.287 164017.747 -82597.912 164100.776 -82640.218 164100.778 -82640.218 164100.781 -82640.22 164205.137 -82674.127 164295.465 -82703.477 164396.557 -82719.488 164497.648 -82735.5 164497.649 -82735.5 164620.191 -82735.5 164687.23 -82755.185 164732.985 -82807.989 164742.929 -82877.147 164713.904 -82940.703 164707.872 -82947.181 160437.873 -87217.181 160376.55 -87250.666 160350.192 -87253.5 156439.169 -87253.5 156313.501 -87278.497 156313.495 -87278.499 156195.11 -87327.535 156088.571 -87398.722 156088.564 -87398.728 155441.478 -88045.814 155380.155 -88079.299 155310.463 -88074.315 155280.912 -88058.451 155121.613 -87942.715 155121.612 -87942.714 155121.61 -87942.713 155061.898 -87912.288 154939.223 -87849.781 154744.534 -87786.522 154569.995 -87758.878 154542.352 -87754.5 154337.648 -87754.5 154313.329 -87758.351 154135.465 -87786.522 153940.776 -87849.781 153758.386 -87942.715 153592.786 -88063.028 153448.028 -88207.786 153327.715 -88373.386 153280.485 -88466.08 153232.51 -88516.876 153164.689 -88533.671 153098.554 -88511.134 153059.515 -88466.08 153053.861 -88454.983 153012.287 -88373.39 152960.021 -88301.451 152891.971 -88207.786 152747.213 -88063.028 152581.613 -87942.715 152581.612 -87942.714 152581.61 -87942.713 152521.898 -87912.288 152399.223 -87849.781 152204.534 -87786.522 152029.995 -87758.878 152002.352 -87754.5 151797.648 -87754.5 151773.329 -87758.351 151595.465 -87786.522 151400.776 -87849.781 151218.386 -87942.715 151052.786 -88063.028 150908.028 -88207.786 150787.715 -88373.386 150740.485 -88466.08 150692.51 -88516.876 150624.689 -88533.671 150558.554 -88511.134 150519.515 -88466.08 150513.861 -88454.983 150472.287 -88373.39 150420.021 -88301.451 150351.971 -88207.786 150207.213 -88063.028 150041.613 -87942.715 150041.612 -87942.714 150041.61 -87942.713 149981.898 -87912.288 149859.223 -87849.781 149664.534 -87786.522 149489.995 -87758.878 149462.352 -87754.5 149257.648 -87754.5 149233.329 -87758.351 149055.465 -87786.522 148860.776 -87849.781 148678.386 -87942.715 148512.786 -88063.028 148368.028 -88207.786 148247.715 -88373.386 148200.485 -88466.08 148152.51 -88516.876 148084.689 -88533.671 148018.554 -88511.134 147979.515 -88466.08 147973.861 -88454.983 147932.287 -88373.39 147880.021 -88301.451 147811.971 -88207.786 147667.213 -88063.028 147501.613 -87942.715 147501.612 -87942.714 147501.61 -87942.713 147441.898 -87912.288 147319.223 -87849.781 147124.534 -87786.522 146949.995 -87758.878 146922.352 -87754.5 146717.648 -87754.5 146693.329 -87758.351 146515.465 -87786.522 146320.776 -87849.781 146138.386 -87942.715 145972.786 -88063.028 145828.028 -88207.786 145707.715 -88373.386 145660.485 -88466.08 145612.51 -88516.876 145544.689 -88533.671 145478.554 -88511.134 145439.515 -88466.08 145433.861 -88454.983 145392.287 -88373.39 145340.021 -88301.451 145271.971 -88207.786 145127.213 -88063.028 144961.613 -87942.715 144961.612 -87942.714 144961.61 -87942.713 144901.898 -87912.288 144779.223 -87849.781 144584.534 -87786.522 144409.995 -87758.878 144382.352 -87754.5 144177.648 -87754.5 144153.329 -87758.351 143975.465 -87786.522 143780.776 -87849.781 143598.386 -87942.715 143432.786 -88063.028 143288.032 -88207.782 143288.028 -88207.787 143219.978 -88301.451 143164.648 -88344.117 143095.035 -88350.096 143033.24 -88317.49 143001.954 -88267.57 142982.144 -88207.787 142974.814 -88185.666 142882.712 -88036.344 142758.656 -87912.288 142609.334 -87820.186 142442.797 -87765.001 142442.795 -87765 142340.01 -87754.5 141139.998 -87754.5 141139.981 -87754.501 141037.203 -87765 141037.2 -87765.001 140870.668 -87820.185 140870.663 -87820.187 140721.342 -87912.289 140597.289 -88036.342 140505.187 -88185.663 140505.186 -88185.666 140450.001 -88352.203 140450.001 -88352.204 140450 -88352.204 140439.5 -88454.983 140439.5 -89655.001 140439.501 -89655.018 140450 -89757.796 140450.001 -89757.799 140466.818 -89808.548 140505.186 -89924.334 140597.288 -90073.656 140721.344 -90197.712 140870.666 -90289.814 141037.203 -90344.999 141139.991 -90355.5 142340.008 -90355.499 142442.797 -90344.999 142609.334 -90289.814 142758.656 -90197.712 142882.712 -90073.656 142974.814 -89924.334 143001.955 -89842.427 143041.726 -89784.984 143106.242 -89758.161 143175.018 -89770.476 143219.977 -89808.547 143288.03 -89902.213 143288.034 -89902.219 143432.786 -90046.971 143553.226 -90134.474 143598.39 -90167.287 143697.747 -90217.912 143780.776 -90260.218 143780.778 -90260.218 143780.781 -90260.22 143871.856 -90289.812 143975.465 -90323.477 144076.557 -90339.488 144177.648 -90355.5 144177.649 -90355.5 144382.351 -90355.5 144382.352 -90355.5 144584.534 -90323.477 144779.219 -90260.22 144961.61 -90167.287 145090.482 -90073.657 145127.213 -90046.971 145127.215 -90046.968 145127.219 -90046.966 145271.966 -89902.219 145271.968 -89902.215 145271.971 -89902.213 145392.284 -89736.614 145392.286 -89736.611 145392.287 -89736.61 145439.516 -89643.917 145487.489 -89593.123 145555.31 -89576.328 145621.445 -89598.865 145660.483 -89643.917 145666.14 -89655.018 145707.715 -89736.614 145828.028 -89902.213 145972.786 -90046.971 146093.226 -90134.474 146138.39 -90167.287 146237.747 -90217.912 146320.776 -90260.218 146320.778 -90260.218 146320.781 -90260.22 146411.856 -90289.812 146515.465 -90323.477 146616.557 -90339.488 146717.648 -90355.5 146717.649 -90355.5 146922.351 -90355.5 146922.352 -90355.5 147124.534 -90323.477 147319.219 -90260.22 147501.61 -90167.287 147630.482 -90073.657 147667.213 -90046.971 147667.215 -90046.968 147667.219 -90046.966 147811.966 -89902.219 147811.968 -89902.215 147811.971 -89902.213 147932.284 -89736.614 147932.286 -89736.611 147932.287 -89736.61 147979.516 -89643.917 148027.489 -89593.123 148095.31 -89576.328 148161.445 -89598.865 148200.483 -89643.917 148206.14 -89655.018 148247.715 -89736.614 148368.028 -89902.213 148512.786 -90046.971 148633.226 -90134.474 148678.39 -90167.287 148777.747 -90217.912 148860.776 -90260.218 148860.778 -90260.218 148860.781 -90260.22 148951.856 -90289.812 149055.465 -90323.477 149156.557 -90339.488 149257.648 -90355.5 149257.649 -90355.5 149462.351 -90355.5 149462.352 -90355.5 149664.534 -90323.477 149859.219 -90260.22 150041.61 -90167.287 150170.482 -90073.657 150207.213 -90046.971 150207.215 -90046.968 150207.219 -90046.966 150351.966 -89902.219 150351.968 -89902.215 150351.971 -89902.213 150472.284 -89736.614 150472.286 -89736.611 150472.287 -89736.61 150519.516 -89643.917 150567.489 -89593.123 150635.31 -89576.328 150701.445 -89598.865 150740.483 -89643.917 150746.14 -89655.018 150787.715 -89736.614 150908.028 -89902.213 151052.786 -90046.971 151173.226 -90134.474 151218.39 -90167.287 151317.747 -90217.912 151400.776 -90260.218 151400.778 -90260.218 151400.781 -90260.22 151491.856 -90289.812 151595.465 -90323.477 151696.557 -90339.488 151797.648 -90355.5 151797.649 -90355.5 152002.351 -90355.5 152002.352 -90355.5 152204.534 -90323.477 152399.219 -90260.22 152581.61 -90167.287 152710.482 -90073.657 152747.213 -90046.971 152747.215 -90046.968 152747.219 -90046.966 152891.966 -89902.219 152891.968 -89902.215 152891.971 -89902.213 153012.284 -89736.614 153012.286 -89736.611 153012.287 -89736.61 153059.516 -89643.917 153107.489 -89593.123 153175.31 -89576.328 153241.445 -89598.865 153280.483 -89643.917 153286.14 -89655.018 153327.715 -89736.614 153448.028 -89902.213 153592.786 -90046.971 153758.385 -90167.284 153758.387 -90167.285 153758.39 -90167.287 153789.912 -90183.348 153840.708 -90231.322 153857.503 -90299.143 153834.966 -90365.278 153821.298 -90381.514 150990.753 -93212.061 150929.43 -93245.546 150903.072 -93248.38 145544.809 -93248.38 145419.141 -93273.377 145419.135 -93273.379 145300.755 -93322.413 145300.746 -93322.418 145194.211 -93393.603 145194.207 -93393.606 145103.606 -93484.207 145103.603 -93484.211 145032.418 -93590.746 145032.413 -93590.755 144983.379 -93709.135 144983.377 -93709.141 144958.38 -93834.808 144958.38 -93834.811 144958.38 -136172.949 144958.38 -136172.951 144958.379 -136172.951 144983.377 -136298.618 144983.379 -136298.624 145032.414 -136417.005 145103.606 -136523.553 145103.607 -136523.554 150563.181 -141983.127 150596.666 -142044.45 150599.5 -142070.808 150599.5 -143725.5 150579.815 -143792.539 150527.011 -143838.294 150475.5 -143849.5 148844.932 -143849.5 148777.893 -143829.815 148776.041 -143828.602 148652.86 -143746.295 148498.082 -143682.184 148498.074 -143682.182 148333.771 -143649.5 148333.767 -143649.5 148166.233 -143649.5 148166.228 -143649.5 148001.925 -143682.182 148001.917 -143682.184 147847.139 -143746.295 147707.837 -143839.373 147589.373 -143957.837 147496.295 -144097.139 147432.184 -144251.917 147432.182 -144251.925 147399.5 -144416.228 147399.5 -144583.771 147432.182 -144748.074 147432.184 -144748.082 147496.295 -144902.86 147589.373 -145042.162 147707.837 -145160.626 147723.959 -145171.398 147847.137 -145253.703 148001.918 -145317.816 148166.228 -145350.499 148166.232 -145350.5 148166.233 -145350.5 148333.768 -145350.5 148333.769 -145350.499 148498.082 -145317.816 148652.863 -145253.703 148776.041 -145171.398 148842.719 -145150.52 148844.932 -145150.5 151185.931 -145150.5 151314.069 -145150.5 152905.068 -145150.5 152972.107 -145170.185 152973.959 -145171.398 153097.137 -145253.703 153251.918 -145317.816 153416.228 -145350.499 153416.232 -145350.5 153416.233 -145350.5 153583.768 -145350.5 153583.769 -145350.499 153748.082 -145317.816 153902.863 -145253.703 154042.162 -145160.626 154160.626 -145042.162 154253.703 -144902.863 154317.816 -144748.082 154350.5 -144583.767 154350.5 -144416.233 154317.816 -144251.918 154253.703 -144097.137 154222.537 -144050.494 154160.626 -143957.837 154042.162 -143839.373 153902.86 -143746.295 153748.082 -143682.184 153748.074 -143682.182 153583.771 -143649.5 153583.767 -143649.5 153416.233 -143649.5 153416.228 -143649.5 153251.925 -143682.182 153251.917 -143682.184 153097.139 -143746.295 152973.959 -143828.602 152907.281 -143849.48 152905.068 -143849.5 152024.5 -143849.5 151957.461 -143829.815 151911.706 -143777.011 151900.5 -143725.5 151900.5 -141685.928 151875.502 -141560.261 151875.501 -141560.26 151875.501 -141560.256 151826.465 -141441.873 151826.464 -141441.87 151755.277 -141335.331 151755.271 -141335.324 146295.699 -135875.752 146262.214 -135814.429 146259.38 -135788.071 146259.38 -130916.228 147149.5 -130916.228 147149.5 -131083.771 147182.182 -131248.074 147182.184 -131248.082 147246.295 -131402.86 147339.373 -131542.162 147457.837 -131660.626 147473.959 -131671.398 147597.137 -131753.703 147751.918 -131817.816 147916.228 -131850.499 147916.232 -131850.5 147916.233 -131850.5 148083.768 -131850.5 148083.769 -131850.499 148248.082 -131817.816 148402.863 -131753.703 148526.041 -131671.398 148592.719 -131650.52 148594.932 -131650.5 153155.068 -131650.5 153222.107 -131670.185 153223.959 -131671.398 153347.137 -131753.703 153501.918 -131817.816 153666.228 -131850.499 153666.232 -131850.5 153666.233 -131850.5 153833.768 -131850.5 153833.769 -131850.499 153998.082 -131817.816 154152.863 -131753.703 154292.162 -131660.626 154410.626 -131542.162 154503.703 -131402.863 154567.816 -131248.082 154600.5 -131083.767 154600.5 -130916.233 154567.816 -130751.918 154503.703 -130597.137 154472.537 -130550.494 154410.626 -130457.837 154292.162 -130339.373 154152.86 -130246.295 153998.082 -130182.184 153998.074 -130182.182 153833.771 -130149.5 153833.767 -130149.5 153666.233 -130149.5 153666.228 -130149.5 153501.925 -130182.182 153501.917 -130182.184 153347.139 -130246.295 153223.959 -130328.602 153157.281 -130349.48 153155.068 -130349.5 148594.932 -130349.5 148527.893 -130329.815 148526.041 -130328.602 148402.86 -130246.295 148248.082 -130182.184 148248.074 -130182.182 148083.771 -130149.5 148083.767 -130149.5 147916.233 -130149.5 147916.228 -130149.5 147751.925 -130182.182 147751.917 -130182.184 147597.139 -130246.295 147457.837 -130339.373 147339.373 -130457.837 147246.295 -130597.139 147182.184 -130751.917 147182.182 -130751.925 147149.5 -130916.228 146259.38 -130916.228 146259.38 -118166.228 147149.5 -118166.228 147149.5 -118333.771 147182.182 -118498.074 147182.184 -118498.082 147246.295 -118652.86 147339.373 -118792.162 147457.837 -118910.626 147473.959 -118921.398 147597.137 -119003.703 147751.918 -119067.816 147916.228 -119100.499 147916.232 -119100.5 147916.233 -119100.5 148083.768 -119100.5 148083.769 -119100.499 148248.082 -119067.816 148402.863 -119003.703 148526.041 -118921.398 148592.719 -118900.52 148594.932 -118900.5 152905.068 -118900.5 152972.107 -118920.185 152973.959 -118921.398 153097.137 -119003.703 153251.918 -119067.816 153416.228 -119100.499 153416.232 -119100.5 153416.233 -119100.5 153583.768 -119100.5 153583.769 -119100.499 153748.082 -119067.816 153902.863 -119003.703 154042.162 -118910.626 154160.626 -118792.162 154253.703 -118652.863 154317.816 -118498.082 154350.5 -118333.767 154350.5 -118166.233 154317.816 -118001.918 154253.703 -117847.137 154222.537 -117800.494 154160.626 -117707.837 154042.162 -117589.373 153902.86 -117496.295 153748.082 -117432.184 153748.074 -117432.182 153583.771 -117399.5 153583.767 -117399.5 153416.233 -117399.5 153416.228 -117399.5 153251.925 -117432.182 153251.917 -117432.184 153097.139 -117496.295 152973.959 -117578.602 152907.281 -117599.48 152905.068 -117599.5 148594.932 -117599.5 148527.893 -117579.815 148526.041 -117578.602 148402.86 -117496.295 148248.082 -117432.184 148248.074 -117432.182 148083.771 -117399.5 148083.767 -117399.5 147916.233 -117399.5 147916.228 -117399.5 147751.925 -117432.182 147751.917 -117432.184 147597.139 -117496.295 147457.837 -117589.373 147339.373 -117707.837 147246.295 -117847.139 147182.184 -118001.917 147182.182 -118001.925 147149.5 -118166.228 146259.38 -118166.228 146259.38 -106166.228 147149.5 -106166.228 147149.5 -106333.771 147182.182 -106498.074 147182.184 -106498.082 147246.295 -106652.86 147339.373 -106792.162 147457.837 -106910.626 147473.959 -106921.398 147597.137 -107003.703 147751.918 -107067.816 147916.228 -107100.499 147916.232 -107100.5 147916.233 -107100.5 147975.233 -107100.5 148022.685 -107109.939 148060.251 -107125.499 148060.256 -107125.501 148060.26 -107125.501 148060.261 -107125.502 148185.928 -107150.5 148185.931 -107150.5 152905.068 -107150.5 152972.107 -107170.185 152973.959 -107171.398 153097.137 -107253.703 153251.918 -107317.816 153416.228 -107350.499 153416.232 -107350.5 153416.233 -107350.5 153583.768 -107350.5 153583.769 -107350.499 153748.082 -107317.816 153902.863 -107253.703 154042.162 -107160.626 154160.626 -107042.162 154253.703 -106902.863 154317.816 -106748.082 154350.5 -106583.767 154350.5 -106416.233 154317.816 -106251.918 154253.703 -106097.137 154190.084 -106001.925 154160.626 -105957.837 154042.162 -105839.373 153902.86 -105746.295 153748.082 -105682.184 153748.074 -105682.182 153583.771 -105649.5 153583.767 -105649.5 153416.233 -105649.5 153416.228 -105649.5 153251.925 -105682.182 153251.917 -105682.184 153097.139 -105746.295 152973.959 -105828.602 152907.281 -105849.48 152905.068 -105849.5 148821.561 -105849.5 148754.522 -105829.815 148718.459 -105794.391 148660.626 -105707.837 148542.162 -105589.373 148402.86 -105496.295 148248.082 -105432.184 148248.074 -105432.182 148083.771 -105399.5 148083.767 -105399.5 147916.233 -105399.5 147916.228 -105399.5 147751.925 -105432.182 147751.917 -105432.184 147597.139 -105496.295 147457.837 -105589.373 147339.373 -105707.837 147246.295 -105847.139 147182.184 -106001.917 147182.182 -106001.925 147149.5 -106166.228 146259.38 -106166.228 146259.38 -94673.38 146279.065 -94606.341 146331.869 -94560.586 146383.38 -94549.38 151287.951 -94549.38 151372.495 -94532.562 151413.624 -94524.381 151532.007 -94475.345 151638.549 -94404.157 155978.522 -90064.182 156039.843 -90030.699 156109.535 -90035.683 156139.086 -90051.547 156298.39 -90167.287 156397.747 -90217.912 156480.776 -90260.218 156480.778 -90260.218 156480.781 -90260.22 156571.856 -90289.812 156675.465 -90323.477 156776.557 -90339.488 156877.648 -90355.5 156877.649 -90355.5 157082.351 -90355.5 157082.352 -90355.5 157284.534 -90323.477 157479.219 -90260.22 157661.61 -90167.287 157790.482 -90073.657 157827.213 -90046.971 157827.215 -90046.968 157827.219 -90046.966 157971.966 -89902.219 157971.968 -89902.215 157971.971 -89902.213 158076.894 -89757.797 158092.287 -89736.61 158139.795 -89643.369 158187.769 -89592.573 158255.59 -89575.778 158321.725 -89598.315 158360.765 -89643.369 158408.141 -89736.35 158408.147 -89736.359 158440.523 -89780.921 158440.524 -89780.922 159120 -89101.446 159120 -89107.661 159147.259 -89209.394 159199.92 -89300.606 159274.394 -89375.08 159365.606 -89427.741 159467.339 -89455 159473.553 -89455 158794.076 -90134.474 158838.65 -90166.859 159020.968 -90259.755 159215.582 -90322.99 159417.683 -90355 159622.317 -90355 159824.417 -90322.99 160019.031 -90259.755 160201.349 -90166.859 160245.921 -90134.474 159566.447 -89455 159572.661 -89455 159674.394 -89427.741 159765.606 -89375.08 159840.08 -89300.606 159892.741 -89209.394 159920 -89107.661 159920 -89101.447 160599.474 -89780.921 160631.861 -89736.347 160631.861 -89736.346 160679.234 -89643.371 160727.208 -89592.575 160795.028 -89575.779 160861.164 -89598.316 160900.203 -89643.369 160947.713 -89736.611 161068.028 -89902.213 161212.786 -90046.971 161333.226 -90134.474 161378.39 -90167.287 161477.747 -90217.912 161560.776 -90260.218 161560.778 -90260.218 161560.781 -90260.22 161651.856 -90289.812 161755.465 -90323.477 161856.557 -90339.488 161957.648 -90355.5 161957.649 -90355.5 162162.351 -90355.5 162162.352 -90355.5 162364.534 -90323.477 162559.219 -90260.22 162741.61 -90167.287 162870.482 -90073.657 162907.213 -90046.971 162907.215 -90046.968 162907.219 -90046.966 163051.966 -89902.219 163051.968 -89902.215 163051.971 -89902.213 163172.284 -89736.614 163172.286 -89736.611 163172.287 -89736.61 163219.516 -89643.917 163267.489 -89593.123 163335.31 -89576.328 163401.445 -89598.865 163440.483 -89643.917 163446.14 -89655.018 163487.715 -89736.614 163608.028 -89902.213 163752.786 -90046.971 163918.385 -90167.284 163918.387 -90167.285 163918.39 -90167.287 163949.912 -90183.348 164000.708 -90231.322 164017.503 -90299.143 163994.966 -90365.278 163981.298 -90381.514 159313.873 -95048.941 159252.55 -95082.426 159226.192 -95085.26 159185.929 -95085.26 159060.261 -95110.257 159060.255 -95110.259 158941.875 -95159.293 158941.866 -95159.298 158835.331 -95230.483 158835.327 -95230.486 158744.726 -95321.087 158744.723 -95321.091 158673.538 -95427.626 158673.533 -95427.635 158624.499 -95546.015 158624.497 -95546.021 158599.5 -95671.688 158599.5 -95671.691 158599.5 -122314.069 158599.5 -122314.071 158599.499 -122314.071 158624.497 -122439.738 158624.499 -122439.744 158673.534 -122558.125 158744.726 -122664.673 158744.727 -122664.674 164813.181 -128733.127 164846.666 -128794.45 164849.5 -128820.808 164849.5 -130225.5 164829.815 -130292.539 164777.011 -130338.294 164725.5 -130349.5 163344.932 -130349.5 163277.893 -130329.815 163276.041 -130328.602 163152.86 -130246.295 162998.082 -130182.184 162998.074 -130182.182 162833.771 -130149.5 162833.767 -130149.5 162666.233 -130149.5 162666.228 -130149.5 162501.925 -130182.182 162501.917 -130182.184 162347.139 -130246.295 162207.837 -130339.373 162089.373 -130457.837 161996.295 -130597.139 161932.184 -130751.917 161932.182 -130751.925 161899.5 -130916.228 161899.5 -131083.771 161932.182 -131248.074 161932.184 -131248.082 161996.295 -131402.86 162089.373 -131542.162 162207.837 -131660.626 162223.959 -131671.398 162347.137 -131753.703 162501.918 -131817.816 162666.228 -131850.499 162666.232 -131850.5 162666.233 -131850.5 162833.768 -131850.5 162833.769 -131850.499 162998.082 -131817.816 163152.863 -131753.703 163276.041 -131671.398 163342.719 -131650.52 163344.932 -131650.5 165435.931 -131650.5 165564.069 -131650.5 167405.068 -131650.5 167472.107 -131670.185 167473.959 -131671.398 167597.137 -131753.703 167751.918 -131817.816 167916.228 -131850.499 167916.232 -131850.5 167916.233 -131850.5 168083.768 -131850.5 168083.769 -131850.499 168248.082 -131817.816 168402.863 -131753.703 168542.162 -131660.626 168660.626 -131542.162 168753.703 -131402.863 168817.816 -131248.082 168850.5 -131083.767 168850.5 -130916.233 168850.499 -130916.228 176399.5 -130916.228 176399.5 -131083.771 176432.182 -131248.074 176432.184 -131248.082 176496.295 -131402.86 176589.373 -131542.162 176707.837 -131660.626 176723.959 -131671.398 176847.137 -131753.703 177001.918 -131817.816 177166.228 -131850.499 177166.232 -131850.5 177166.233 -131850.5 177333.768 -131850.5 177333.769 -131850.499 177498.082 -131817.816 177652.863 -131753.703 177776.041 -131671.398 177842.719 -131650.52 177844.932 -131650.5 181905.068 -131650.5 181972.107 -131670.185 181973.959 -131671.398 182097.137 -131753.703 182251.918 -131817.816 182416.228 -131850.499 182416.232 -131850.5 182416.233 -131850.5 182583.768 -131850.5 182583.769 -131850.499 182748.082 -131817.816 182902.863 -131753.703 183042.162 -131660.626 183160.626 -131542.162 183253.703 -131402.863 183317.816 -131248.082 183350.5 -131083.767 183350.5 -130916.233 183350.499 -130916.228 190899.5 -130916.228 190899.5 -131083.771 190932.182 -131248.074 190932.184 -131248.082 190996.295 -131402.86 191089.373 -131542.162 191207.837 -131660.626 191223.959 -131671.398 191347.137 -131753.703 191501.918 -131817.816 191666.228 -131850.499 191666.232 -131850.5 191666.233 -131850.5 191833.768 -131850.5 191833.769 -131850.499 191998.082 -131817.816 192152.863 -131753.703 192276.041 -131671.398 192342.719 -131650.52 192344.932 -131650.5 195655.068 -131650.5 195722.107 -131670.185 195723.959 -131671.398 195847.137 -131753.703 196001.918 -131817.816 196166.228 -131850.499 196166.232 -131850.5 196166.233 -131850.5 196333.768 -131850.5 196333.769 -131850.499 196498.082 -131817.816 196652.863 -131753.703 196792.162 -131660.626 196910.626 -131542.162 197003.703 -131402.863 197067.816 -131248.082 197100.5 -131083.767 197100.5 -130916.233 197067.816 -130751.918 197003.703 -130597.137 196972.537 -130550.494 196910.626 -130457.837 196792.162 -130339.373 196652.86 -130246.295 196498.082 -130182.184 196498.074 -130182.182 196333.771 -130149.5 196333.767 -130149.5 196166.233 -130149.5 196166.228 -130149.5 196001.925 -130182.182 196001.917 -130182.184 195847.139 -130246.295 195723.959 -130328.602 195657.281 -130349.48 195655.068 -130349.5 192344.932 -130349.5 192277.893 -130329.815 192276.041 -130328.602 192152.86 -130246.295 191998.082 -130182.184 191998.074 -130182.182 191833.771 -130149.5 191833.767 -130149.5 191666.233 -130149.5 191666.228 -130149.5 191501.925 -130182.182 191501.917 -130182.184 191347.139 -130246.295 191207.837 -130339.373 191089.373 -130457.837 190996.295 -130597.139 190932.184 -130751.917 190932.182 -130751.925 190899.5 -130916.228 183350.499 -130916.228 183317.816 -130751.918 183253.703 -130597.137 183222.537 -130550.494 183160.626 -130457.837 183042.162 -130339.373 182902.86 -130246.295 182748.082 -130182.184 182748.074 -130182.182 182583.771 -130149.5 182583.767 -130149.5 182416.233 -130149.5 182416.228 -130149.5 182251.925 -130182.182 182251.917 -130182.184 182097.139 -130246.295 181973.959 -130328.602 181907.281 -130349.48 181905.068 -130349.5 177844.932 -130349.5 177777.893 -130329.815 177776.041 -130328.602 177652.86 -130246.295 177498.082 -130182.184 177498.074 -130182.182 177333.771 -130149.5 177333.767 -130149.5 177166.233 -130149.5 177166.228 -130149.5 177001.925 -130182.182 177001.917 -130182.184 176847.139 -130246.295 176707.837 -130339.373 176589.373 -130457.837 176496.295 -130597.139 176432.184 -130751.917 176432.182 -130751.925 176399.5 -130916.228 168850.499 -130916.228 168817.816 -130751.918 168753.703 -130597.137 168722.537 -130550.494 168660.626 -130457.837 168542.162 -130339.373 168402.86 -130246.295 168248.082 -130182.184 168248.074 -130182.182 168083.771 -130149.5 168083.767 -130149.5 167916.233 -130149.5 167916.228 -130149.5 167751.925 -130182.182 167751.917 -130182.184 167597.139 -130246.295 167473.959 -130328.602 167407.281 -130349.48 167405.068 -130349.5 166274.5 -130349.5 166207.461 -130329.815 166161.706 -130277.011 166150.5 -130225.5 166150.5 -128435.928 166125.502 -128310.261 166125.501 -128310.26 166125.501 -128310.256 166076.465 -128191.873 166005.277 -128085.331 166005.275 -128085.329 166005.273 -128085.326 159936.819 -122016.872 159903.334 -121955.549 159900.5 -121929.191 159900.5 -106166.228 161649.5 -106166.228 161649.5 -106333.771 161682.182 -106498.074 161682.184 -106498.082 161746.295 -106652.86 161839.373 -106792.162 161957.837 -106910.626 161973.959 -106921.398 162097.137 -107003.703 162251.918 -107067.816 162416.228 -107100.499 162416.232 -107100.5 162416.233 -107100.5 162583.768 -107100.5 162583.769 -107100.499 162748.082 -107067.816 162902.863 -107003.703 163026.041 -106921.398 163092.719 -106900.52 163094.932 -106900.5 167405.068 -106900.5 167472.107 -106920.185 167473.959 -106921.398 167597.137 -107003.703 167751.918 -107067.816 167916.228 -107100.499 167916.232 -107100.5 167916.233 -107100.5 168083.768 -107100.5 168083.769 -107100.499 168248.082 -107067.816 168402.863 -107003.703 168542.162 -106910.626 168660.626 -106792.162 168753.703 -106652.863 168817.816 -106498.082 168850.5 -106333.767 168850.5 -106166.233 168817.816 -106001.918 168753.703 -105847.137 168686.324 -105746.297 168660.626 -105707.837 168542.162 -105589.373 168402.86 -105496.295 168248.082 -105432.184 168248.074 -105432.182 168083.771 -105399.5 168083.767 -105399.5 167916.233 -105399.5 167916.228 -105399.5 167751.925 -105432.182 167751.917 -105432.184 167597.139 -105496.295 167473.959 -105578.602 167407.281 -105599.48 167405.068 -105599.5 163094.932 -105599.5 163027.893 -105579.815 163026.041 -105578.602 162902.86 -105496.295 162748.082 -105432.184 162748.074 -105432.182 162583.771 -105399.5 162583.767 -105399.5 162416.233 -105399.5 162416.228 -105399.5 162251.925 -105432.182 162251.917 -105432.184 162097.139 -105496.295 161957.837 -105589.373 161839.373 -105707.837 161746.295 -105847.139 161682.184 -106001.917 161682.182 -106001.925 161649.5 -106166.228 159900.5 -106166.228 159900.5 -96348.187 159920.185 -96281.148 159955.611 -96245.084 159961.669 -96241.037 166138.522 -90064.182 166199.843 -90030.699 166269.535 -90035.683 166299.086 -90051.547 166458.39 -90167.287 166557.747 -90217.912 166640.776 -90260.218 166640.778 -90260.218 166640.781 -90260.22 166731.856 -90289.812 166835.465 -90323.477 166936.557 -90339.488 167037.648 -90355.5 167037.649 -90355.5 167242.351 -90355.5 167242.352 -90355.5 167444.534 -90323.477 167639.219 -90260.22 167821.61 -90167.287 167950.482 -90073.657 167987.213 -90046.971 167987.215 -90046.968 167987.219 -90046.966 168131.966 -89902.219 168131.968 -89902.215 168131.971 -89902.213 168252.284 -89736.614 168252.286 -89736.611 168252.287 -89736.61 168299.516 -89643.917 168347.489 -89593.123 168415.31 -89576.328 168481.445 -89598.865 168520.483 -89643.917 168526.14 -89655.018 168567.715 -89736.614 168688.028 -89902.213 168832.786 -90046.971 168953.226 -90134.474 168998.39 -90167.287 169097.747 -90217.912 169180.776 -90260.218 169180.778 -90260.218 169180.781 -90260.22 169271.856 -90289.812 169375.465 -90323.477 169476.557 -90339.488 169577.648 -90355.5 169577.649 -90355.5 169782.351 -90355.5 169782.352 -90355.5 169984.534 -90323.477 170179.219 -90260.22 170361.61 -90167.287 170490.482 -90073.657 170527.213 -90046.971 170527.215 -90046.968 170527.219 -90046.966 170671.966 -89902.219 170671.968 -89902.215 170671.971 -89902.213 170792.284 -89736.614 170792.286 -89736.611 170792.287 -89736.61 170839.516 -89643.917 170887.489 -89593.123 170955.31 -89576.328 171021.445 -89598.865 171060.483 -89643.917 171066.14 -89655.018 171107.715 -89736.614 171228.028 -89902.213 171372.786 -90046.971 171493.226 -90134.474 171538.39 -90167.287 171637.747 -90217.912 171720.776 -90260.218 171720.778 -90260.218 171720.781 -90260.22 171811.856 -90289.812 171915.465 -90323.477 172016.557 -90339.488 172117.648 -90355.5 172117.649 -90355.5 172322.351 -90355.5 172322.352 -90355.5 172524.534 -90323.477 172524.539 -90323.475 172524.541 -90323.475 172558.18 -90312.545 172628.021 -90310.548 172687.854 -90346.628 172718.684 -90409.328 172720.5 -90430.475 172720.5 -107558.191 172700.815 -107625.23 172684.181 -107645.872 164744.727 -115585.325 164744.726 -115585.326 164673.534 -115691.874 164624.499 -115810.255 164624.497 -115810.261 164599.5 -115935.928 164599.5 -117475.5 164579.815 -117542.539 164527.011 -117588.294 164475.5 -117599.5 163344.932 -117599.5 163277.893 -117579.815 163276.041 -117578.602 163152.86 -117496.295 162998.082 -117432.184 162998.074 -117432.182 162833.771 -117399.5 162833.767 -117399.5 162666.233 -117399.5 162666.228 -117399.5 162501.925 -117432.182 162501.917 -117432.184 162347.139 -117496.295 162207.837 -117589.373 162089.373 -117707.837 161996.295 -117847.139 161932.184 -118001.917 161932.182 -118001.925 161899.5 -118166.228 161899.5 -118333.771 161932.182 -118498.074 161932.184 -118498.082 161996.295 -118652.86 162089.373 -118792.162 162207.837 -118910.626 162223.959 -118921.398 162347.137 -119003.703 162501.918 -119067.816 162666.228 -119100.499 162666.232 -119100.5 162666.233 -119100.5 162833.768 -119100.5 162833.769 -119100.499 162998.082 -119067.816 163152.863 -119003.703 163276.041 -118921.398 163342.719 -118900.52 163344.932 -118900.5 165185.931 -118900.5 167155.068 -118900.5 167222.107 -118920.185 167223.959 -118921.398 167347.137 -119003.703 167501.918 -119067.816 167666.228 -119100.499 167666.232 -119100.5 167666.233 -119100.5 167833.768 -119100.5 167833.769 -119100.499 167998.082 -119067.816 168152.863 -119003.703 168292.162 -118910.626 168410.626 -118792.162 168503.703 -118652.863 168567.816 -118498.082 168600.5 -118333.767 168600.5 -118166.233 168600.499 -118166.228 176149.5 -118166.228 176149.5 -118333.771 176182.182 -118498.074 176182.184 -118498.082 176246.295 -118652.86 176339.373 -118792.162 176457.837 -118910.626 176473.959 -118921.398 176597.137 -119003.703 176751.918 -119067.816 176916.228 -119100.499 176916.232 -119100.5 176916.233 -119100.5 177083.768 -119100.5 177083.769 -119100.499 177248.082 -119067.816 177402.863 -119003.703 177526.041 -118921.398 177592.719 -118900.52 177594.932 -118900.5 181905.068 -118900.5 181972.107 -118920.185 181973.959 -118921.398 182097.137 -119003.703 182251.918 -119067.816 182416.228 -119100.499 182416.232 -119100.5 182416.233 -119100.5 182583.768 -119100.5 182583.769 -119100.499 182748.082 -119067.816 182902.863 -119003.703 183042.162 -118910.626 183160.626 -118792.162 183253.703 -118652.863 183317.816 -118498.082 183350.5 -118333.767 183350.5 -118166.233 183350.499 -118166.228 190899.5 -118166.228 190899.5 -118333.771 190932.182 -118498.074 190932.184 -118498.082 190996.295 -118652.86 191089.373 -118792.162 191207.837 -118910.626 191223.959 -118921.398 191347.137 -119003.703 191501.918 -119067.816 191666.228 -119100.499 191666.232 -119100.5 191666.233 -119100.5 191833.768 -119100.5 191833.769 -119100.499 191998.082 -119067.816 192152.863 -119003.703 192276.041 -118921.398 192342.719 -118900.52 192344.932 -118900.5 195905.068 -118900.5 195972.107 -118920.185 195973.959 -118921.398 196097.137 -119003.703 196251.918 -119067.816 196416.228 -119100.499 196416.232 -119100.5 196416.233 -119100.5 196583.768 -119100.5 196583.769 -119100.499 196748.082 -119067.816 196902.863 -119003.703 197042.162 -118910.626 197160.626 -118792.162 197253.703 -118652.863 197317.816 -118498.082 197350.5 -118333.767 197350.5 -118166.233 197317.816 -118001.918 197253.703 -117847.137 197222.537 -117800.494 197160.626 -117707.837 197042.162 -117589.373 196902.86 -117496.295 196748.082 -117432.184 196748.074 -117432.182 196583.771 -117399.5 196583.767 -117399.5 196416.233 -117399.5 196416.228 -117399.5 196251.925 -117432.182 196251.917 -117432.184 196097.139 -117496.295 195973.959 -117578.602 195907.281 -117599.48 195905.068 -117599.5 192344.932 -117599.5 192277.893 -117579.815 192276.041 -117578.602 192152.86 -117496.295 191998.082 -117432.184 191998.074 -117432.182 191833.771 -117399.5 191833.767 -117399.5 191666.233 -117399.5 191666.228 -117399.5 191501.925 -117432.182 191501.917 -117432.184 191347.139 -117496.295 191207.837 -117589.373 191089.373 -117707.837 190996.295 -117847.139 190932.184 -118001.917 190932.182 -118001.925 190899.5 -118166.228 183350.499 -118166.228 183317.816 -118001.918 183253.703 -117847.137 183222.537 -117800.494 183160.626 -117707.837 183042.162 -117589.373 182902.86 -117496.295 182748.082 -117432.184 182748.074 -117432.182 182583.771 -117399.5 182583.767 -117399.5 182416.233 -117399.5 182416.228 -117399.5 182251.925 -117432.182 182251.917 -117432.184 182097.139 -117496.295 181973.959 -117578.602 181907.281 -117599.48 181905.068 -117599.5 177594.932 -117599.5 177527.893 -117579.815 177526.041 -117578.602 177402.86 -117496.295 177248.082 -117432.184 177248.074 -117432.182 177083.771 -117399.5 177083.767 -117399.5 176916.233 -117399.5 176916.228 -117399.5 176751.925 -117432.182 176751.917 -117432.184 176597.139 -117496.295 176457.837 -117589.373 176339.373 -117707.837 176246.295 -117847.139 176182.184 -118001.917 176182.182 -118001.925 176149.5 -118166.228 168600.499 -118166.228 168567.816 -118001.918 168503.703 -117847.137 168472.537 -117800.494 168410.626 -117707.837 168292.162 -117589.373 168152.86 -117496.295 167998.082 -117432.184 167998.074 -117432.182 167833.771 -117399.5 167833.767 -117399.5 167666.233 -117399.5 167666.228 -117399.5 167501.925 -117432.182 167501.917 -117432.184 167347.139 -117496.295 167223.959 -117578.602 167157.281 -117599.48 167155.068 -117599.5 166024.5 -117599.5 165957.461 -117579.815 165911.706 -117527.011 165900.5 -117475.5 165900.5 -116320.808 165920.185 -116253.769 165936.819 -116233.127 173876.271 -108293.675 173876.276 -108293.67 173947.465 -108187.127 173996.501 -108068.744 174021.5 -107943.069 174021.5 -90340.65 174041.185 -90273.611 174093.989 -90227.856 174163.147 -90217.912 174201.795 -90230.165 174260.776 -90260.218 174260.778 -90260.218 174260.781 -90260.22 174351.856 -90289.812 174455.465 -90323.477 174556.557 -90339.488 174657.648 -90355.5 174657.649 -90355.5 174862.351 -90355.5 174862.352 -90355.5 175040.112 -90327.345 175109.405 -90336.299 175147.191 -90362.137 179063.181 -94278.127 179096.666 -94339.45 179099.5 -94365.808 179099.5 -105475.5 179079.815 -105542.539 179027.011 -105588.294 178975.5 -105599.5 177594.932 -105599.5 177527.893 -105579.815 177526.041 -105578.602 177402.86 -105496.295 177248.082 -105432.184 177248.074 -105432.182 177083.771 -105399.5 177083.767 -105399.5 176916.233 -105399.5 176916.228 -105399.5 176751.925 -105432.182 176751.917 -105432.184 176597.139 -105496.295 176457.837 -105589.373 176339.373 -105707.837 176246.295 -105847.139 176182.184 -106001.917 176182.182 -106001.925 176149.5 -106166.228 176149.5 -106333.771 176182.182 -106498.074 176182.184 -106498.082 176246.295 -106652.86 176339.373 -106792.162 176457.837 -106910.626 176473.959 -106921.398 176597.137 -107003.703 176751.918 -107067.816 176916.228 -107100.499 176916.232 -107100.5 176916.233 -107100.5 177083.768 -107100.5 177083.769 -107100.499 177248.082 -107067.816 177402.863 -107003.703 177526.041 -106921.398 177592.719 -106900.52 177594.932 -106900.5 179685.931 -106900.5 179814.069 -106900.5 179935.931 -106900.5 181905.068 -106900.5 181972.107 -106920.185 181973.959 -106921.398 182097.137 -107003.703 182251.918 -107067.816 182416.228 -107100.499 182416.232 -107100.5 182416.233 -107100.5 182583.768 -107100.5 182583.769 -107100.499 182748.082 -107067.816 182902.863 -107003.703 183042.162 -106910.626 183160.626 -106792.162 183253.703 -106652.863 183317.816 -106498.082 183350.5 -106333.767 183350.5 -106166.233 183350.499 -106166.228 190649.5 -106166.228 190649.5 -106333.771 190682.182 -106498.074 190682.184 -106498.082 190746.295 -106652.86 190839.373 -106792.162 190957.837 -106910.626 190973.959 -106921.398 191097.137 -107003.703 191251.918 -107067.816 191416.228 -107100.499 191416.232 -107100.5 191416.233 -107100.5 191583.768 -107100.5 191583.769 -107100.499 191748.082 -107067.816 191902.863 -107003.703 192026.041 -106921.398 192092.719 -106900.52 192094.932 -106900.5 195655.068 -106900.5 195722.107 -106920.185 195723.959 -106921.398 195847.137 -107003.703 196001.918 -107067.816 196166.228 -107100.499 196166.232 -107100.5 196166.233 -107100.5 196333.768 -107100.5 196333.769 -107100.499 196498.082 -107067.816 196652.863 -107003.703 196792.162 -106910.626 196910.626 -106792.162 197003.703 -106652.863 197067.816 -106498.082 197100.5 -106333.767 197100.5 -106166.233 197067.816 -106001.918 197003.703 -105847.137 196936.324 -105746.297 196910.626 -105707.837 196792.162 -105589.373 196652.86 -105496.295 196498.082 -105432.184 196498.074 -105432.182 196333.771 -105399.5 196333.767 -105399.5 196166.233 -105399.5 196166.228 -105399.5 196001.925 -105432.182 196001.917 -105432.184 195847.139 -105496.295 195723.959 -105578.602 195657.281 -105599.48 195655.068 -105599.5 192094.932 -105599.5 192027.893 -105579.815 192026.041 -105578.602 191902.86 -105496.295 191748.082 -105432.184 191748.074 -105432.182 191583.771 -105399.5 191583.767 -105399.5 191416.233 -105399.5 191416.228 -105399.5 191251.925 -105432.182 191251.917 -105432.184 191097.139 -105496.295 190957.837 -105589.373 190839.373 -105707.837 190746.295 -105847.139 190682.184 -106001.917 190682.182 -106001.925 190649.5 -106166.228 183350.499 -106166.228 183317.816 -106001.918 183253.703 -105847.137 183186.324 -105746.297 183160.626 -105707.837 183042.162 -105589.373 182902.86 -105496.295 182748.082 -105432.184 182748.074 -105432.182 182583.771 -105399.5 182583.767 -105399.5 182416.233 -105399.5 182416.228 -105399.5 182251.925 -105432.182 182251.917 -105432.184 182097.139 -105496.295 181973.959 -105578.602 181907.281 -105599.48 181905.068 -105599.5 180524.5 -105599.5 180457.461 -105579.815 180411.706 -105527.011 180400.5 -105475.5 180400.5 -93980.928 180375.502 -93855.261 180375.501 -93855.26 180375.501 -93855.256 180326.465 -93736.873 180317.198 -93723.004 180307.933 -93709.137 180255.275 -93630.328 180255.272 -93630.325 176067.137 -89442.191 176033.652 -89380.868 176032.345 -89335.112 176060.5 -89157.351 176060.5 -88952.648 176028.477 -88750.465 175965.218 -88555.776 175913.865 -88454.991 175872.287 -88373.39 175820.021 -88301.451 175751.971 -88207.786 175607.213 -88063.028 175441.613 -87942.715 175441.612 -87942.714 175441.61 -87942.713 175381.898 -87912.288 175259.223 -87849.781 175064.534 -87786.522 174889.995 -87758.878 174862.352 -87754.5 174657.648 -87754.5 174633.329 -87758.351 174455.465 -87786.522 174260.773 -87849.782 174201.794 -87879.834 174133.125 -87892.73 174068.384 -87866.453 174028.128 -87809.346 174021.5 -87769.349 174021.5 -82720.65 174041.185 -82653.611 174093.989 -82607.856 174163.147 -82597.912 174201.795 -82610.165 174260.776 -82640.218 174260.778 -82640.218 174260.781 -82640.22 174365.137 -82674.127 174455.465 -82703.477 174556.557 -82719.488 174657.648 -82735.5 174657.649 -82735.5 174862.351 -82735.5 174862.352 -82735.5 175064.534 -82703.477 175259.219 -82640.22 175441.61 -82547.287 175553.179 -82466.228 175607.213 -82426.971 175607.215 -82426.968 175607.219 -82426.966 175751.966 -82282.219 175751.968 -82282.215 175751.971 -82282.213 175804.732 -82209.59 175872.287 -82116.61 175965.22 -81934.219 176028.477 -81739.534 176060.5 -81537.352 176060.5 -81332.648 176052.257 -81280.606 176028.477 -81130.465 175965.218 -80935.776 175921.767 -80850.5 175872.287 -80753.39 175840.092 -80709.077 175751.971 -80587.786 175607.213 -80443.028 175441.613 -80322.715 175441.612 -80322.714 175441.61 -80322.713 175361.542 -80281.916 175259.223 -80229.781 175064.534 -80166.522 174889.995 -80138.878 174862.352 -80134.5 174657.648 -80134.5 174633.329 -80138.351 174455.465 -80166.522 174260.776 -80229.781 174078.386 -80322.715 173912.786 -80443.028 173768.028 -80587.786 173647.715 -80753.386 173600.485 -80846.08 173552.51 -80896.876 173484.689 -80913.671 173418.554 -80891.134 173379.515 -80846.08 173365.114 -80817.817 173332.287 -80753.39 173300.092 -80709.077 173211.971 -80587.786 173067.213 -80443.028 172901.613 -80322.715 172901.612 -80322.714 172901.61 -80322.713 172821.542 -80281.916 172719.223 -80229.781 172524.534 -80166.522 172349.995 -80138.878 172322.352 -80134.5 172117.648 -80134.5 172093.329 -80138.351 171915.465 -80166.522 171720.776 -80229.781 171538.386 -80322.715 171372.786 -80443.028 171228.028 -80587.786 171107.715 -80753.386 171060.485 -80846.08 171012.51 -80896.876 170944.689 -80913.671 170878.554 -80891.134 170839.515 -80846.08 170825.114 -80817.817 170792.287 -80753.39 170760.092 -80709.077 170671.971 -80587.786 170527.213 -80443.028 170361.613 -80322.715 170361.612 -80322.714 170361.61 -80322.713 170281.542 -80281.916 170179.223 -80229.781 169984.534 -80166.522 169809.995 -80138.878 169782.352 -80134.5 169577.648 -80134.5 169553.329 -80138.351 169375.465 -80166.522 169180.776 -80229.781 168998.386 -80322.715 168832.786 -80443.028 168688.028 -80587.786 168567.715 -80753.386 168520.485 -80846.08 168472.51 -80896.876 168404.689 -80913.671 168338.554 -80891.134 168299.515 -80846.08 168285.114 -80817.817 168252.287 -80753.39 168220.092 -80709.077 168131.971 -80587.786 167987.213 -80443.028 167821.613 -80322.715 167821.612 -80322.714 167821.61 -80322.713 167741.542 -80281.916 167639.223 -80229.781 167444.534 -80166.522 167269.995 -80138.878 167242.352 -80134.5 167037.648 -80134.5 167013.329 -80138.351 166835.465 -80166.522 166640.776 -80229.781 166458.386 -80322.715 166292.786 -80443.028 166148.028 -80587.786 166027.715 -80753.386 165980.485 -80846.08 165932.51 -80896.876 165864.689 -80913.671 165798.554 -80891.134 165759.515 -80846.08 165745.114 -80817.817 165712.287 -80753.39 165680.092 -80709.077 165591.971 -80587.786 165447.213 -80443.028 165281.613 -80322.715 165281.612 -80322.714 165281.61 -80322.713 165201.542 -80281.916 165099.223 -80229.781 164904.534 -80166.522 164729.995 -80138.878 164702.352 -80134.5 164497.648 -80134.5 164473.329 -80138.351 164295.465 -80166.522 164100.776 -80229.781 163918.386 -80322.715 163752.786 -80443.028 163608.028 -80587.786 163487.715 -80753.386 163440.485 -80846.08 163392.51 -80896.876 163324.689 -80913.671 163258.554 -80891.134 163219.515 -80846.08 163205.114 -80817.817 163172.287 -80753.39 163140.092 -80709.077 163051.971 -80587.786 162907.213 -80443.028 162741.613 -80322.715 162741.612 -80322.714 162741.61 -80322.713 162661.542 -80281.916 162559.223 -80229.781 162364.534 -80166.522 162189.995 -80138.878 162162.352 -80134.5 161957.648 -80134.5 161933.329 -80138.351 161755.465 -80166.522 161560.776 -80229.781 161378.386 -80322.715 161212.786 -80443.028 161068.028 -80587.786 160947.715 -80753.386 160900.485 -80846.08 160852.51 -80896.876 160784.689 -80913.671 160718.554 -80891.134 160679.515 -80846.08 160665.114 -80817.817 160632.287 -80753.39 160600.092 -80709.077 160511.971 -80587.786 160367.213 -80443.028 160201.613 -80322.715 160201.612 -80322.714 160201.61 -80322.713 160121.542 -80281.916 160019.223 -80229.781 159824.534 -80166.522 159649.995 -80138.878 159622.352 -80134.5 159417.648 -80134.5 159393.329 -80138.351 159215.465 -80166.522 159020.776 -80229.781 158838.386 -80322.715 158672.786 -80443.028 158528.028 -80587.786 158407.713 -80753.388 158360.203 -80846.63 158312.228 -80897.426 158244.407 -80914.22 158178.272 -80891.682 158139.234 -80846.628 158091.861 -80753.652 158059.474 -80709.077 158059.474 -80709.076 157380 -81388.551 157380 -81382.339 157352.741 -81280.606 157300.08 -81189.394 157225.606 -81114.92 157134.394 -81062.259 157032.661 -81035 157026.446 -81035 157705.922 -80355.524 157705.921 -80355.523 157661.359 -80323.147 157661.35 -80323.141 157479.031 -80230.244 157284.417 -80167.009 157082.317 -80135 156877.683 -80135 156675.582 -80167.009 156480.968 -80230.244 156298.644 -80323.143 156254.077 -80355.523 156254.077 -80355.524 156933.554 -81035 156927.339 -81035 156825.606 -81062.259 156734.394 -81114.92 156659.92 -81189.394 156607.259 -81280.606 156580 -81382.339 156580 -81388.553 155900.524 -80709.077 155900.523 -80709.077 155868.143 -80753.644 155820.765 -80846.63 155772.79 -80897.426 155704.969 -80914.221 155638.834 -80891.683 155599.795 -80846.63 155585.114 -80817.817 155552.287 -80753.39 155552.285 -80753.387 155552.284 -80753.385 155431.971 -80587.786 155287.213 -80443.028 155121.613 -80322.715 155121.612 -80322.714 155121.61 -80322.713 155041.542 -80281.916 154939.223 -80229.781 154744.534 -80166.522 154569.995 -80138.878 154542.352 -80134.5 154337.648 -80134.5 154313.329 -80138.351 154135.465 -80166.522 153940.776 -80229.781 153758.386 -80322.715 153592.786 -80443.028 153448.028 -80587.786 153327.715 -80753.386 153280.485 -80846.08 153232.51 -80896.876 153164.689 -80913.671 153098.554 -80891.134 153059.515 -80846.08 153045.114 -80817.817 153012.287 -80753.39 152980.092 -80709.077 152891.971 -80587.786 152747.213 -80443.028 152581.613 -80322.715 152581.612 -80322.714 152581.61 -80322.713 152501.542 -80281.916 152399.223 -80229.781 152204.534 -80166.522 152029.995 -80138.878 152002.352 -80134.5 151797.648 -80134.5 151773.329 -80138.351 151595.465 -80166.522 151400.776 -80229.781 151218.386 -80322.715 151052.786 -80443.028 150908.028 -80587.786 150787.715 -80753.386 150740.485 -80846.08 150692.51 -80896.876 150624.689 -80913.671 150558.554 -80891.134 150519.515 -80846.08 150505.114 -80817.817 150472.287 -80753.39 150440.092 -80709.077 150351.971 -80587.786 150207.213 -80443.028 150041.613 -80322.715 150041.612 -80322.714 150041.61 -80322.713 149961.542 -80281.916 149859.223 -80229.781 149664.534 -80166.522 149489.995 -80138.878 149462.352 -80134.5 149257.648 -80134.5 149233.329 -80138.351 149055.465 -80166.522 148860.776 -80229.781 148678.386 -80322.715 148512.786 -80443.028 148368.028 -80587.786 148247.715 -80753.386 148200.485 -80846.08 148152.51 -80896.876 148084.689 -80913.671 148018.554 -80891.134 147979.515 -80846.08 147965.114 -80817.817 147932.287 -80753.39 147900.092 -80709.077 147811.971 -80587.786 147667.213 -80443.028 147501.613 -80322.715 147501.612 -80322.714 147501.61 -80322.713 147421.542 -80281.916 147319.223 -80229.781 147124.534 -80166.522 146949.995 -80138.878 146922.352 -80134.5 146717.648 -80134.5 146693.329 -80138.351 146515.465 -80166.522 146320.776 -80229.781 146138.386 -80322.715 145972.786 -80443.028 145828.028 -80587.786 145707.715 -80753.386 145660.485 -80846.08 145612.51 -80896.876 145544.689 -80913.671 145478.554 -80891.134 145439.515 -80846.08 145425.114 -80817.817 145392.287 -80753.39 145360.092 -80709.077 145271.971 -80587.786 145127.217 -80443.032 145127.212 -80443.028 144981.615 -80337.246 144938.949 -80281.916 144930.5 -80236.928 144930.5 -77560.808 144950.185 -77493.769 144966.819 -77473.127 145273.718 -77166.228 152149.5 -77166.228 152149.5 -77333.771 152182.182 -77498.074 152182.184 -77498.082 152246.295 -77652.86 152339.373 -77792.162 152457.837 -77910.626 152473.959 -77921.398 152597.137 -78003.703 152751.918 -78067.816 152916.228 -78100.499 152916.232 -78100.5 152916.233 -78100.5 153083.768 -78100.5 153083.769 -78100.499 153248.082 -78067.816 153402.863 -78003.703 153526.041 -77921.398 153592.719 -77900.52 153594.932 -77900.5 182179.192 -77900.5 182246.231 -77920.185 182266.873 -77936.819 184369.345 -80039.291 184402.83 -80100.614 184403.281 -80102.781 184432.182 -80248.074 184432.184 -80248.082 184496.295 -80402.86 184589.373 -80542.162 184707.837 -80660.626 184780.348 -80709.076 184847.137 -80753.703 185001.918 -80817.816 185144.012 -80846.08 185166.228 -80850.499 185166.232 -80850.5 185166.233 -80850.5 185333.768 -80850.5 185333.769 -80850.499 185498.082 -80817.816 185652.863 -80753.703 185792.162 -80660.626 185910.626 -80542.162 185994.773 -80416.228 198149.5 -80416.228 198149.5 -80583.771 198182.182 -80748.074 198182.184 -80748.082 198246.295 -80902.86 198328.602 -81026.04 198349.48 -81092.717 198349.5 -81094.931 198349.5 -81955.068 198329.815 -82022.107 198328.602 -82023.959 198246.295 -82147.139 198182.184 -82301.917 198182.182 -82301.925 198149.5 -82466.228 198149.5 -82633.771 198182.182 -82798.074 198182.184 -82798.082 198246.295 -82952.86 198339.373 -83092.162 198457.837 -83210.626 198550.494 -83272.537 198597.137 -83303.703 198751.918 -83367.816 198916.228 -83400.499 198916.232 -83400.5 198916.233 -83400.5 199083.768 -83400.5 199083.769 -83400.499 199248.082 -83367.816 199402.863 -83303.703 199542.162 -83210.626 199660.626 -83092.162 199753.703 -82952.863 199817.816 -82798.082 199850.5 -82633.767 199850.5 -82466.233 199817.816 -82301.918 199753.703 -82147.137 199671.398 -82023.959 199650.52 -81957.281 199650.5 -81955.068 199650.5 -81094.931 199670.185 -81027.892 199671.398 -81026.04 199753.703 -80902.863 199817.816 -80748.082 199850.5 -80583.767 199850.5 -80416.233 199817.816 -80251.918 199753.703 -80097.137 199715.051 -80039.291 199660.626 -79957.837 199542.162 -79839.373 199402.86 -79746.295 199248.082 -79682.184 199248.074 -79682.182 199083.771 -79649.5 199083.767 -79649.5 198916.233 -79649.5 198916.228 -79649.5 198751.925 -79682.182 198751.917 -79682.184 198597.139 -79746.295 198457.837 -79839.373 198339.373 -79957.837 198246.295 -80097.139 198182.184 -80251.917 198182.182 -80251.925 198149.5 -80416.228 185994.773 -80416.228 186003.703 -80402.863 186067.816 -80248.082 186100.5 -80083.767 186100.5 -79916.233 186067.816 -79751.918 186003.703 -79597.137 185972.537 -79550.494 185910.626 -79457.837 185792.162 -79339.373 185652.86 -79246.295 185498.082 -79182.184 185498.074 -79182.182 185352.781 -79153.281 185290.87 -79120.896 185289.291 -79119.345 182914.674 -76744.727 182914.673 -76744.726 182914.669 -76744.723 182808.127 -76673.535 182689.744 -76624.499 182689.738 -76624.497 182564.071 -76599.5 182564.069 -76599.5 153594.932 -76599.5 153527.893 -76579.815 153526.041 -76578.602 153402.86 -76496.295 153248.082 -76432.184 153248.074 -76432.182 153083.771 -76399.5 153083.767 -76399.5 152916.233 -76399.5 152916.228 -76399.5 152751.925 -76432.182 152751.917 -76432.184 152597.139 -76496.295 152457.837 -76589.373 152339.373 -76707.837 152246.295 -76847.139 152182.184 -77001.917 152182.182 -77001.925 152149.5 -77166.228 145273.718 -77166.228 157354.127 -65085.819 157415.45 -65052.334 157441.808 -65049.5 159915.071 -65049.5 159999.615 -65032.682 160040.744 -65024.501 160159.127 -64975.465 160265.669 -64904.277 177470.338 -47699.606 177470.349 -47699.597 177565.273 -47604.673 177565.277 -47604.669 177636.465 -47498.127 177685.501 -47379.744 177710.499 -47254.069 177710.499 -47125.931 177695.925 -47052.661 177685.503 -47000.264 177685.5 -47000.255 177685.395 -47000.001 177659.935 -46938.534 177650.5 -46891.092 177650.5 -44891.211 177670.185 -44824.172 177701.613 -44790.894 177817.252 -44706.879 177956.879 -44567.252 177956.881 -44567.248 177956.884 -44567.246 178008.728 -44495.887 178072.944 -44407.501 178162.591 -44231.561 178223.61 -44043.763 178239.488 -43943.514 178246.383 -43899.983 194449.5 -43899.983 194449.5 -45100.001 194449.501 -45100.018 194460 -45202.796 194460.001 -45202.799 194515.185 -45369.331 194515.186 -45369.334 194607.288 -45518.656 194731.344 -45642.712 194880.666 -45734.814 194942.44 -45755.284 194999.884 -45795.055 195026.707 -45859.571 195027.053 -45882.719 195024.077 -45920.524 195703.554 -46600 195697.339 -46600 195595.606 -46627.259 195504.394 -46679.92 195429.92 -46754.394 195377.259 -46845.606 195350 -46947.339 195350 -46953.553 194670.524 -46274.077 194670.523 -46274.077 194638.143 -46318.644 194545.244 -46500.968 194482.009 -46695.582 194450 -46897.682 194450 -47102.317 194482.009 -47304.417 194545.244 -47499.031 194638.141 -47681.35 194638.147 -47681.359 194670.523 -47725.921 194670.524 -47725.922 195350 -47046.446 195350 -47052.661 195377.259 -47154.394 195429.92 -47245.606 195504.394 -47320.08 195595.606 -47372.741 195697.339 -47400 195703.553 -47400 195024.076 -48079.474 195068.65 -48111.859 195250.968 -48204.755 195445.582 -48267.99 195647.683 -48300 195852.317 -48300 196054.417 -48267.99 196249.031 -48204.755 196431.349 -48111.859 196475.921 -48079.474 195796.447 -47400 195802.661 -47400 195904.394 -47372.741 195995.606 -47320.08 196070.08 -47245.606 196122.741 -47154.394 196150 -47052.661 196150 -47046.447 196829.474 -47725.921 196861.859 -47681.349 196954.755 -47499.031 197017.99 -47304.417 197050 -47102.317 197050 -46897.682 197017.99 -46695.582 196954.755 -46500.968 196861.859 -46318.65 196829.474 -46274.077 196829.474 -46274.076 196150 -46953.551 196150 -46947.339 196122.741 -46845.606 196070.08 -46754.394 195995.606 -46679.92 195904.394 -46627.259 195802.661 -46600 195796.446 -46600 196475.921 -45920.525 196472.946 -45882.719 196487.31 -45814.341 196536.361 -45764.584 196557.555 -45755.285 196619.334 -45734.814 196768.656 -45642.712 196892.712 -45518.656 196984.814 -45369.334 197039.999 -45202.797 197050.5 -45100.009 197050.499 -43899.992 197039.999 -43797.203 196984.814 -43630.666 196892.712 -43481.344 196768.656 -43357.288 196649.958 -43284.075 196619.336 -43265.187 196619.331 -43265.185 196610.935 -43262.403 196452.797 -43210.001 196452.795 -43210 196350.01 -43199.5 195149.998 -43199.5 195149.981 -43199.501 195047.203 -43210 195047.2 -43210.001 194880.668 -43265.185 194880.663 -43265.187 194731.342 -43357.289 194607.289 -43481.342 194515.187 -43630.663 194515.186 -43630.666 194460.001 -43797.203 194460.001 -43797.204 194460 -43797.204 194449.5 -43899.983 178246.383 -43899.983 178249.954 -43877.436 178249.954 -43877.435 178254.5 -43848.735 178254.5 -43651.263 178223.61 -43456.236 178191.46 -43357.289 178162.591 -43268.439 178072.944 -43092.499 178037.972 -43044.364 177956.884 -42932.753 177817.246 -42793.115 177657.504 -42677.058 177657.503 -42677.057 177657.501 -42677.056 177481.561 -42587.409 177468.915 -42583.3 177293.763 -42526.389 177098.736 -42495.5 177098.731 -42495.5 176901.269 -42495.5 176901.264 -42495.5 176706.236 -42526.389 176518.441 -42587.408 176342.495 -42677.058 176182.753 -42793.115 176043.115 -42932.753 175927.058 -43092.495 175927.056 -43092.499 175846.805 -43250 175840.485 -43262.403 175792.51 -43313.199 175724.689 -43329.994 175658.554 -43307.456 175619.515 -43262.403 175532.944 -43092.499 175497.972 -43044.364 175416.884 -42932.753 175277.246 -42793.115 175117.504 -42677.058 175117.503 -42677.057 175117.501 -42677.056 174941.561 -42587.409 174928.915 -42583.3 174753.763 -42526.389 174558.736 -42495.5 174558.731 -42495.5 174361.269 -42495.5 174361.264 -42495.5 174166.236 -42526.389 173978.441 -42587.408 173802.495 -42677.058 173642.753 -42793.115 173503.115 -42932.753 173387.058 -43092.495 173387.056 -43092.499 173306.805 -43250 173300.485 -43262.403 173252.51 -43313.199 173184.689 -43329.994 173118.554 -43307.456 173079.515 -43262.403 172992.944 -43092.499 172957.972 -43044.364 172876.884 -42932.753 172737.246 -42793.115 172577.504 -42677.058 172577.503 -42677.057 172577.501 -42677.056 172401.561 -42587.409 172388.915 -42583.3 172213.763 -42526.389 172018.736 -42495.5 172018.731 -42495.5 171821.269 -42495.5 171821.264 -42495.5 171626.236 -42526.389 171438.441 -42587.408 171262.495 -42677.058 171102.753 -42793.115 170963.115 -42932.753 170858.318 -43076.997 170802.989 -43119.663 170733.375 -43125.642 170671.58 -43093.037 170637.223 -43032.198 170634 -43004.112 170634 -42948.172 170633.999 -42948.155 170627.598 -42888.627 170627.596 -42888.62 170577.354 -42753.913 170577.35 -42753.906 170491.19 -42638.812 170491.187 -42638.809 170376.093 -42552.649 170376.086 -42552.645 170241.379 -42502.403 170241.372 -42502.401 170181.844 -42496 169630 -42496 169630 -43316.988 169572.993 -43284.075 169445.826 -43250 169314.174 -43250 169187.007 -43284.075 169130 -43316.988 169130 -42496 168578.155 -42496 168518.627 -42502.401 168518.62 -42502.403 168383.913 -42552.645 168383.906 -42552.649 168268.812 -42638.809 168268.809 -42638.812 168182.649 -42753.906 168182.645 -42753.913 168132.403 -42888.62 168132.401 -42888.627 168126 -42948.155 168126 -43500 168946.988 -43500 168914.075 -43557.007 168880 -43684.174 168880 -43815.826 168914.075 -43942.993 168946.988 -44000 168126 -44000 168126 -44551.844 168132.401 -44611.372 168132.403 -44611.379 168182.645 -44746.086 168182.649 -44746.093 168268.809 -44861.187 168268.812 -44861.19 168383.906 -44947.35 168383.913 -44947.354 168518.62 -44997.596 168518.627 -44997.598 168578.155 -45003.999 168578.172 -45004 169130 -45004 169130 -44183.012 169187.007 -44215.925 169314.174 -44250 169445.826 -44250 169572.993 -44215.925 169630 -44183.012 169630 -45004 170181.828 -45004 170181.844 -45003.999 170241.372 -44997.598 170241.379 -44997.596 170376.086 -44947.354 170376.093 -44947.35 170491.187 -44861.19 170491.19 -44861.187 170577.35 -44746.093 170577.354 -44746.086 170627.596 -44611.379 170627.598 -44611.372 170633.999 -44551.844 170634 -44551.827 170634 -44495.887 170653.685 -44428.848 170706.489 -44383.093 170775.647 -44373.149 170839.203 -44402.174 170858.314 -44422.997 170911.272 -44495.887 170963.121 -44567.252 171102.753 -44706.884 171252.234 -44815.486 171262.499 -44822.944 171438.439 -44912.591 171545.417 -44947.35 171626.236 -44973.61 171821.264 -45004.5 171821.269 -45004.5 172018.736 -45004.5 172213.763 -44973.61 172401.561 -44912.591 172577.501 -44822.944 172683.288 -44746.086 172737.246 -44706.884 172737.248 -44706.881 172737.252 -44706.879 172876.879 -44567.252 172876.881 -44567.248 172876.884 -44567.246 172992.941 -44407.505 172992.942 -44407.504 172992.944 -44407.501 173079.517 -44237.593 173127.49 -44186.8 173195.311 -44170.005 173261.446 -44192.542 173300.482 -44237.593 173369.553 -44373.149 173387.058 -44407.505 173503.115 -44567.246 173642.751 -44706.882 173696.712 -44746.086 173758.385 -44790.893 173801.051 -44846.221 173809.5 -44891.211 173809.5 -47719.192 173789.815 -47786.231 173773.181 -47806.873 160511.681 -61068.373 160450.358 -61101.858 160380.666 -61096.874 160324.733 -61055.002 160300.316 -60989.538 160300 -60980.692 160300 -59800 158750 -59800 158750 -61850 159430.692 -61850 159451.937 -61856.238 159474.026 -61857.818 159484.809 -61865.89 159497.731 -61869.685 159512.23 -61886.418 159529.959 -61899.69 159534.666 -61912.31 159543.486 -61922.489 159546.637 -61944.406 159554.376 -61965.154 159551.513 -61978.314 159553.43 -61991.647 159544.23 -62011.79 159539.524 -62033.427 159526.255 -62051.152 159524.405 -62055.203 159518.373 -62061.681 159516.873 -62063.181 159455.55 -62096.666 159429.192 -62099.5 156165.929 -62099.5 156040.261 -62124.497 156040.251 -62124.5 155991.22 -62144.81 155921.881 -62173.53 155921.863 -62173.54 155815.332 -62244.721 155815.325 -62244.727 141234.726 -76825.326 141163.534 -76931.874 141114.499 -77050.255 141114.497 -77050.261 141089.5 -77175.928 141089.5 -80236.928 141069.815 -80303.967 141038.385 -80337.246 140892.787 -80443.028 140892.782 -80443.032 140748.028 -80587.786 140627.715 -80753.386 140534.781 -80935.776 140471.522 -81130.465 140439.5 -81332.648 135750.5 -81332.648 135750.5 -59572.92 142999.5 -59572.92 142999.5 -61668.655 142999.501 -61668.661 143005.908 -61728.268 143056.202 -61863.113 143056.206 -61863.12 143142.452 -61978.329 143142.455 -61978.332 143257.664 -62064.578 143257.671 -62064.582 143392.517 -62114.876 143392.516 -62114.876 143399.444 -62115.62 143452.127 -62121.285 145547.872 -62121.284 145607.483 -62114.876 145742.331 -62064.581 145857.546 -61978.331 145943.796 -61863.116 145994.091 -61728.268 146000.5 -61668.658 146000.5 -61397.844 156700 -61397.844 156706.401 -61457.372 156706.403 -61457.379 156756.645 -61592.086 156756.649 -61592.093 156842.809 -61707.187 156842.812 -61707.19 156957.906 -61793.35 156957.913 -61793.354 157092.62 -61843.596 157092.627 -61843.598 157152.155 -61849.999 157152.172 -61850 158250 -61850 158250 -59800 156700 -59800 156700 -61397.844 146000.5 -61397.844 146000.499 -59572.913 145994.091 -59513.302 145943.796 -59378.454 145943.795 -59378.453 145943.793 -59378.449 145857.547 -59263.24 145857.544 -59263.237 145742.335 -59176.991 145742.328 -59176.987 145607.482 -59126.693 145607.483 -59126.693 145547.883 -59120.286 145547.881 -59120.285 145547.873 -59120.285 145547.864 -59120.285 143452.129 -59120.285 143452.123 -59120.286 143392.516 -59126.693 143257.671 -59176.987 143257.664 -59176.991 143142.455 -59263.237 143142.452 -59263.24 143056.206 -59378.449 143056.202 -59378.456 143005.908 -59513.302 142999.501 -59572.901 142999.501 -59572.908 142999.5 -59572.92 135750.5 -59572.92 135750.5 -57702.155 156700 -57702.155 156700 -59300 158250 -59300 158750 -59300 160300 -59300 160300 -57702.172 160299.999 -57702.155 160293.598 -57642.627 160293.596 -57642.62 160243.354 -57507.913 160243.35 -57507.906 160157.19 -57392.812 160157.187 -57392.809 160042.093 -57306.649 160042.086 -57306.645 159907.379 -57256.403 159907.372 -57256.401 159847.844 -57250 158750 -57250 158750 -59300 158250 -59300 158250 -57250 157152.155 -57250 157092.627 -57256.401 157092.62 -57256.403 156957.913 -57306.645 156957.906 -57306.649 156842.812 -57392.809 156842.809 -57392.812 156756.649 -57507.906 156756.645 -57507.913 156706.403 -57642.62 156706.401 -57642.627 156700 -57702.155 135750.5 -57702.155 135750.5 -55502.732 143000 -55502.732 143000 -55738.837 143036.934 -55972.032 143109.897 -56196.587 143217.087 -56406.959 143277.338 -56489.889 143277.34 -56489.89 144017.037 -55750.193 144034.075 -55813.778 144099.901 -55927.792 144192.993 -56020.884 144307.007 -56086.71 144370.59 -56103.747 143630.893 -56843.443 143713.828 -56903.699 143924.197 -57010.887 144148.752 -57083.85 144148.751 -57083.85 144381.948 -57120.785 144618.052 -57120.785 144851.247 -57083.85 145075.802 -57010.887 145286.163 -56903.703 145286.169 -56903.699 145369.104 -56843.443 145369.105 -56843.443 144629.408 -56103.747 144692.993 -56086.71 144807.007 -56020.884 144900.099 -55927.792 144965.925 -55813.778 144982.962 -55750.194 145722.658 -56489.89 145722.658 -56489.889 145782.914 -56406.954 145782.918 -56406.948 145890.102 -56196.587 145963.065 -55972.032 146000 -55738.837 146000 -55502.732 145963.065 -55269.537 145890.102 -55044.982 145782.914 -54834.613 145722.658 -54751.679 145722.658 -54751.678 144982.962 -55491.375 144965.925 -55427.792 144900.099 -55313.778 144807.007 -55220.686 144692.993 -55154.86 144629.409 -55137.822 145369.105 -54398.125 145369.104 -54398.123 145286.174 -54337.872 145075.802 -54230.682 144851.247 -54157.719 144851.248 -54157.719 144618.052 -54120.785 144381.948 -54120.785 144148.752 -54157.719 143924.197 -54230.682 143713.83 -54337.869 143630.894 -54398.125 144370.591 -55137.822 144307.007 -55154.86 144192.993 -55220.686 144099.901 -55313.778 144034.075 -55427.792 144017.037 -55491.376 143277.34 -54751.679 143217.084 -54834.615 143109.897 -55044.982 143036.934 -55269.537 143000 -55502.732 135750.5 -55502.732 135750.5 -44252.561 135750.606 -44247.437 135752.434 -44203.245 135765.815 -43879.716 135766.177 -43874.098 135773.531 -43790.031 135774.003 -43785.582 135814.218 -43462.959 135815.138 -43456.842 135829.003 -43378.21 135829.732 -43374.428 135897.553 -43050.974 135899.123 -43044.394 135917.614 -42975.385 135918.5 -42972.251 136015.389 -42646.81 136017.685 -42639.862 136037.331 -42585.886 136038.276 -42583.38 136166.976 -42253.551 136170.079 -42246.292 136184.634 -42215.08 136185.415 -42213.445 136350.823 -41875.097 136355.69 -41866.105 136561.973 -41519.918 136567.556 -41511.372 136801.728 -41183.394 136807.996 -41175.342 137068.443 -40867.832 137075.362 -40860.316 137360.316 -40575.362 137367.832 -40568.443 137675.342 -40307.996 137683.394 -40301.728 138011.372 -40067.556 138019.918 -40061.973 138366.116 -39855.683 138375.097 -39850.823 138713.445 -39685.415 138715.08 -39684.634 138746.292 -39670.079 138753.551 -39666.976 139083.38 -39538.276 139085.886 -39537.331 139139.862 -39517.685 139146.81 -39515.389 139472.251 -39418.5 139475.385 -39417.614 139544.394 -39399.123 139550.974 -39397.553 139874.428 -39329.732 139878.21 -39329.003 139956.842 -39315.138 139962.959 -39314.218 140285.582 -39274.003 140290.031 -39273.531 140374.098 -39266.177 140379.716 -39265.815 140747.437 -39250.605 140752.561 -39250.5 203497.439 -39250.5 203502.562 -39250.605"/></g></svg>