<svg version="1.1" xmlns="http://www.w3.org/2000/svg" xmlns:xlink="http://www.w3.org/1999/xlink" stroke-linecap="round" stroke-linejoin="round" stroke-width="0" fill-rule="evenodd" width="71.900181mm" height="102.500181mm" viewBox="136709.819 -143160 71900.181 102500.181" id="EXnCZQ2-97QPCqX28NAT"><g transform="translate(0,-183819.81900000002) scale(1,-1)" fill="currentColor" stroke="currentColor"><path d="M 199941.101 -89367.219 199607.768 -88891.028 M 199369.673 -89367.219 199369.673 -88367.219 199750.625 -88367.219 199845.863 -88414.838 199893.482 -88462.457 199941.101 -88557.695 199941.101 -88700.552 199893.482 -88795.79 199845.863 -88843.409 199750.625 -88891.028 199369.673 -88891.028 M 200369.673 -88843.409 200703.006 -88843.409 M 200845.863 -89367.219 200369.673 -89367.219 200369.673 -88367.219 200845.863 -88367.219 M 201226.816 -89319.6 201369.673 -89367.219 201607.768 -89367.219 201703.006 -89319.6 201750.625 -89271.98 201798.244 -89176.742 201798.244 -89081.504 201750.625 -88986.266 201703.006 -88938.647 201607.768 -88891.028 201417.292 -88843.409 201322.054 -88795.79 201274.435 -88748.171 201226.816 -88652.933 201226.816 -88557.695 201274.435 -88462.457 201322.054 -88414.838 201417.292 -88367.219 201655.387 -88367.219 201798.244 -88414.838 M 202226.816 -88843.409 202560.149 -88843.409 M 202703.006 -89367.219 202226.816 -89367.219 202226.816 -88367.219 202703.006 -88367.219 M 202988.721 -88367.219 203560.149 -88367.219 M 203274.435 -89367.219 203274.435 -88367.219" fill="none" stroke-width="200"/><path d="M 158025.061 -95397.771 157834.585 -95254.914 157739.347 -95112.057 157644.109 -94826.342 157644.109 -94683.485 157739.347 -94397.771 157834.585 -94254.914 158025.061 -94112.057 158406.014 -94112.057 158596.49 -94254.914 158691.728 -94397.771 158786.966 -94683.485 158786.966 -94826.342 158691.728 -95112.057 158596.49 -95254.914 158406.014 -95397.771 158025.061 -95397.771 157834.585 -95540.628 157739.347 -95683.485 157644.109 -95969.2 157644.109 -96540.628 157739.347 -96826.342 157834.585 -96969.2 158025.061 -97112.057 158406.014 -97112.057 158596.49 -96969.2 158691.728 -96826.342 158786.966 -96540.628 158786.966 -95969.2 158691.728 -95683.485 158596.49 -95540.628 158406.014 -95397.771 M 157394.109 -118897.771 157489.347 -118754.914 157679.823 -118612.057 158156.014 -118612.057 158346.49 -118754.914 158441.728 -118897.771 158536.966 -119183.485 158536.966 -119469.2 158441.728 -119897.771 157298.871 -121612.057 158536.966 -121612.057 M 140144.109 -50469.2 140429.823 -50612.057 140906.014 -50612.057 141096.49 -50469.2 141191.728 -50326.342 141286.966 -50040.628 141286.966 -49754.914 141191.728 -49469.2 141096.49 -49326.342 140906.014 -49183.485 140525.061 -49040.628 140334.585 -48897.771 140239.347 -48754.914 140144.109 -48469.2 140144.109 -48183.485 140239.347 -47897.771 140334.585 -47754.914 140525.061 -47612.057 141001.252 -47612.057 141286.966 -47754.914 M 142144.109 -50612.057 142144.109 -47612.057 M 144144.109 -47754.914 143953.633 -47612.057 143667.919 -47612.057 143382.204 -47754.914 143191.728 -48040.628 143096.49 -48326.342 143001.252 -48897.771 143001.252 -49326.342 143096.49 -49897.771 143191.728 -50183.485 143382.204 -50469.2 143667.919 -50612.057 143858.395 -50612.057 144144.109 -50469.2 144239.347 -50326.342 144239.347 -49326.342 143858.395 -49326.342 M 145096.49 -50612.057 145096.49 -47612.057 146239.347 -50612.057 146239.347 -47612.057 M 147096.49 -49754.914 148048.871 -49754.914 M 146906.014 -50612.057 147572.68 -47612.057 148239.347 -50612.057 M 149858.395 -50612.057 148906.014 -50612.057 148906.014 -47612.057 M 172048.871 -118612.057 173286.966 -118612.057 172620.299 -119754.914 172906.014 -119754.914 173096.49 -119897.771 173191.728 -120040.628 173286.966 -120326.342 173286.966 -121040.628 173191.728 -121326.342 173096.49 -121469.2 172906.014 -121612.057 172334.585 -121612.057 172144.109 -121469.2 172048.871 -121326.342" fill="none" stroke-width="400"/><path d="M 188394.736 -108208.8 186109.021 -108208.8 M 187251.878 -108923.085 187394.736 -109065.942 187251.878 -109208.8 187109.021 -109065.942 187251.878 -108923.085 187251.878 -109208.8 M 187251.878 -107208.8 187394.736 -107351.657 187251.878 -107494.514 187109.021 -107351.657 187251.878 -107208.8 187251.878 -107494.514" fill="none" stroke-width="600"/><path d="M 173096.49 -106362.057 172715.537 -106362.057 172525.061 -106504.914 172429.823 -106647.771 172239.347 -107076.342 172144.109 -107647.771 172144.109 -108790.628 172239.347 -109076.342 172334.585 -109219.2 172525.061 -109362.057 172906.014 -109362.057 173096.49 -109219.2 173191.728 -109076.342 173286.966 -108790.628 173286.966 -108076.342 173191.728 -107790.628 173096.49 -107647.771 172906.014 -107504.914 172525.061 -107504.914 172334.585 -107647.771 172239.347 -107790.628 172144.109 -108076.342 M 158120.299 -132862.057 158310.776 -132862.057 158501.252 -133004.914 158596.49 -133147.771 158691.728 -133433.485 158786.966 -134004.914 158786.966 -134719.2 158691.728 -135290.628 158596.49 -135576.342 158501.252 -135719.2 158310.776 -135862.057 158120.299 -135862.057 157929.823 -135719.2 157834.585 -135576.342 157739.347 -135290.628 157644.109 -134719.2 157644.109 -134004.914 157739.347 -133433.485 157834.585 -133147.771 157929.823 -133004.914 158120.299 -132862.057" fill="none" stroke-width="400"/><path d="M 186109.021 -120458.8 188394.736 -120458.8 M 187251.878 -121601.657 187251.878 -119315.942" fill="none" stroke-width="600"/><path d="M 144036.966 -121862.057 142894.109 -121862.057 M 143465.537 -121862.057 143465.537 -118862.057 143275.061 -119290.628 143084.585 -119576.342 142894.109 -119719.2 M 205234.438 -46379.7 205234.438 -45998.747 205329.676 -45808.271 205520.152 -45617.795 205901.104 -45522.557 206567.771 -45522.557 206948.723 -45617.795 207139.2 -45808.271 207234.438 -45998.747 207234.438 -46379.7 207139.2 -46570.176 206948.723 -46760.652 206567.771 -46855.89 205901.104 -46855.89 205520.152 -46760.652 205329.676 -46570.176 205234.438 -46379.7 M 207234.438 -44665.414 205234.438 -44665.414 207234.438 -43522.557 205234.438 -43522.557" fill="none" stroke-width="400"/><path d="M 199859.021 -134530.228 202144.736 -134530.228 M 202144.736 -135387.371 199859.021 -135387.371" fill="none" stroke-width="600"/><path d="M 197984.438 -68879.7 197984.438 -68498.747 198079.676 -68308.271 198270.152 -68117.795 198651.104 -68022.557 199317.771 -68022.557 199698.723 -68117.795 199889.2 -68308.271 199984.438 -68498.747 199984.438 -68879.7 199889.2 -69070.176 199698.723 -69260.652 199317.771 -69355.89 198651.104 -69355.89 198270.152 -69260.652 198079.676 -69070.176 197984.438 -68879.7 M 198936.819 -66498.747 198936.819 -67165.414 M 199984.438 -67165.414 197984.438 -67165.414 197984.438 -66213.033 M 198936.819 -64784.461 198936.819 -65451.128 M 199984.438 -65451.128 197984.438 -65451.128 197984.438 -64498.747 M 197889.2 -62308.271 200460.628 -64022.556 M 197984.438 -61260.652 197984.438 -60879.699 198079.676 -60689.223 198270.152 -60498.747 198651.104 -60403.509 199317.771 -60403.509 199698.723 -60498.747 199889.2 -60689.223 199984.438 -60879.699 199984.438 -61260.652 199889.2 -61451.128 199698.723 -61641.604 199317.771 -61736.842 198651.104 -61736.842 198270.152 -61641.604 198079.676 -61451.128 197984.438 -61260.652 M 199984.438 -59546.366 197984.438 -59546.366 199984.438 -58403.509 197984.438 -58403.509 M 173036.966 -133362.057 173036.966 -135362.057 M 172370.299 -133362.057 172370.299 -134933.485 172275.061 -135219.2 172084.585 -135362.057 M 173417.918 -133362.057 172179.823 -133362.057 171989.347 -133504.914 171894.109 -133790.628 M 143584.585 -134469.2 143584.585 -134612.057 143489.347 -134897.771 143394.109 -135040.628" fill="none" stroke-width="400"/><path d="M 187073.307 -135565.942 186930.45 -135708.8 186501.878 -135851.657 186216.164 -135851.657 185787.593 -135708.8 185501.878 -135423.085 185359.021 -135137.371 185216.164 -134565.942 185216.164 -134137.371 185359.021 -133565.942 185501.878 -133280.228 185787.593 -132994.514 186216.164 -132851.657 186501.878 -132851.657 186930.45 -132994.514 187073.307 -133137.371 M 188359.021 -134280.228 189359.021 -134280.228 M 189787.593 -135851.657 188359.021 -135851.657 188359.021 -132851.657 189787.593 -132851.657" fill="none" stroke-width="600"/><path d="M 201298.871 -97754.914 201394.109 -97612.057 201584.585 -97183.485 201679.823 -96897.771 201775.061 -96469.2 201870.299 -95754.914 201870.299 -95183.485 201775.061 -94469.2 201679.823 -94040.628 201584.585 -93754.914 201394.109 -93326.342 201298.871 -93183.485 M 187060.776 -97754.914 186965.537 -97612.057 186775.061 -97183.485 186679.823 -96897.771 186584.585 -96469.2 186489.347 -95754.914 186489.347 -95183.485 186584.585 -94469.2 186679.823 -94040.628 186775.061 -93754.914 186965.537 -93326.342 187060.776 -93183.485 M 143596.49 -107362.057 143596.49 -109362.057 M 143120.299 -106219.2 142644.109 -108362.057 143882.204 -108362.057 M 172334.585 -97362.057 172715.537 -97362.057 172906.014 -97219.2 173001.252 -97076.342 173191.728 -96647.771 173286.966 -96076.342 173286.966 -94933.485 173191.728 -94647.771 173096.49 -94504.914 172906.014 -94362.057 172525.061 -94362.057 172334.585 -94504.914 172239.347 -94647.771 172144.109 -94933.485 172144.109 -95647.771 172239.347 -95933.485 172334.585 -96076.342 172525.061 -96219.2 172906.014 -96219.2 173096.49 -96076.342 173191.728 -95933.485 173286.966 -95647.771" fill="none" stroke-width="400"/><path d="M 200787.593 -107101.657 200787.593 -107815.942 M 200073.307 -107530.228 200787.593 -107815.942 201501.878 -107530.228 M 200359.021 -108387.371 200787.593 -107815.942 201216.164 -108387.371 M 199859.021 -120708.8 202144.736 -120708.8" fill="none" stroke-width="600"/><path d="M 142798.871 -94112.057 144132.204 -94112.057 143275.061 -97112.057 M 158941.728 -106612.057 157989.347 -106612.057 157894.109 -108040.628 157989.347 -107897.771 158179.823 -107754.914 158656.014 -107754.914 158846.49 -107897.771 158941.728 -108040.628 159036.966 -108326.342 159036.966 -109040.628 158941.728 -109326.342 158846.49 -109469.2 158656.014 -109612.057 158179.823 -109612.057 157989.347 -109469.2 157894.109 -109326.342" fill="none" stroke-width="400"/><path d="M 187358.333 -89509.58 187310.714 -89557.2 187167.857 -89604.819 187072.619 -89604.819 186929.762 -89557.2 186834.524 -89461.961 186786.905 -89366.723 186739.286 -89176.247 186739.286 -89033.39 186786.905 -88842.914 186834.524 -88747.676 186929.762 -88652.438 187072.619 -88604.819 187167.857 -88604.819 187310.714 -88652.438 187358.333 -88700.057 M 187739.286 -88700.057 187786.905 -88652.438 187882.143 -88604.819 188120.238 -88604.819 188215.476 -88652.438 188263.095 -88700.057 188310.714 -88795.295 188310.714 -88890.533 188263.095 -89033.39 187691.667 -89604.819 188310.714 -89604.819 M 137261.009 -59001.737 137308.628 -58858.88 137356.247 -58811.261 137451.485 -58763.642 137594.342 -58763.642 137689.58 -58811.261 137737.2 -58858.88 137784.819 -58954.118 137784.819 -59335.07 136784.819 -59335.07 136784.819 -59001.737 136832.438 -58906.499 136880.057 -58858.88 136975.295 -58811.261 137070.533 -58811.261 137165.771 -58858.88 137213.39 -58906.499 137261.009 -59001.737 137261.009 -59335.07 M 136784.819 -58430.308 136784.819 -57763.642 137784.819 -58430.308 137784.819 -57763.642 M 137784.819 -56858.88 137784.819 -57430.308 M 137784.819 -57144.594 136784.819 -57144.594 136927.676 -57239.832 137022.914 -57335.07 137070.533 -57430.308 M 187370.833 -90034.819 187037.5 -89558.628 M 186799.405 -90034.819 186799.405 -89034.819 187180.357 -89034.819 187275.595 -89082.438 187323.214 -89130.057 187370.833 -89225.295 187370.833 -89368.152 187323.214 -89463.39 187275.595 -89511.009 187180.357 -89558.628 186799.405 -89558.628 M 187751.786 -89130.057 187799.405 -89082.438 187894.643 -89034.819 188132.738 -89034.819 188227.976 -89082.438 188275.595 -89130.057 188323.214 -89225.295 188323.214 -89320.533 188275.595 -89463.39 187704.167 -90034.819 188323.214 -90034.819 M 200954.819 -45988.094 199954.819 -45988.094 199954.819 -45749.999 200002.438 -45607.142 200097.676 -45511.904 200192.914 -45464.285 200383.39 -45416.666 200526.247 -45416.666 200716.723 -45464.285 200811.961 -45511.904 200907.2 -45607.142 200954.819 -45749.999 200954.819 -45988.094 M 200050.057 -45035.713 200002.438 -44988.094 199954.819 -44892.856 199954.819 -44654.761 200002.438 -44559.523 200050.057 -44511.904 200145.295 -44464.285 200240.533 -44464.285 200383.39 -44511.904 200954.819 -45083.332 200954.819 -44464.285 M 201454.819 -51916.666 200978.628 -52249.999 M 201454.819 -52488.094 200454.819 -52488.094 200454.819 -52107.142 200502.438 -52011.904 200550.057 -51964.285 200645.295 -51916.666 200788.152 -51916.666 200883.39 -51964.285 200931.009 -52011.904 200978.628 -52107.142 200978.628 -52488.094 M 200454.819 -51583.332 200454.819 -50964.285 200835.771 -51297.618 200835.771 -51154.761 200883.39 -51059.523 200931.009 -51011.904 201026.247 -50964.285 201264.342 -50964.285 201359.58 -51011.904 201407.2 -51059.523 201454.819 -51154.761 201454.819 -51440.475 201407.2 -51535.713 201359.58 -51583.332 M 205707.2 -82383.332 205754.819 -82240.475 205754.819 -82002.38 205707.2 -81907.142 205659.58 -81859.523 205564.342 -81811.904 205469.104 -81811.904 205373.866 -81859.523 205326.247 -81907.142 205278.628 -82002.38 205231.009 -82192.856 205183.39 -82288.094 205135.771 -82335.713 205040.533 -82383.332 204945.295 -82383.332 204850.057 -82335.713 204802.438 -82288.094 204754.819 -82192.856 204754.819 -81954.761 204802.438 -81811.904 M 204754.819 -81478.57 205754.819 -81240.475 205040.533 -81049.999 205754.819 -80859.523 204754.819 -80621.428 M 205754.819 -79716.666 205754.819 -80288.094 M 205754.819 -80002.38 204754.819 -80002.38 204897.676 -80097.618 204992.914 -80192.856 205040.533 -80288.094 M 138864.819 -86006.904 139674.342 -86006.904 139769.58 -85959.285 139817.2 -85911.666 139864.819 -85816.428 139864.819 -85625.952 139817.2 -85530.714 139769.58 -85483.095 139674.342 -85435.476 138864.819 -85435.476 M 139864.819 -84435.476 139864.819 -85006.904 M 139864.819 -84721.19 138864.819 -84721.19 139007.676 -84816.428 139102.914 -84911.666 139150.533 -85006.904 M 186911.905 -84054.819 186911.905 -83054.819 187150 -83054.819 187292.857 -83102.438 187388.095 -83197.676 187435.714 -83292.914 187483.333 -83483.39 187483.333 -83626.247 187435.714 -83816.723 187388.095 -83911.961 187292.857 -84007.2 187150 -84054.819 186911.905 -84054.819 M 188435.714 -84054.819 187864.286 -84054.819 M 188150 -84054.819 188150 -83054.819 188054.762 -83197.676 187959.524 -83292.914 187864.286 -83340.533 M 187370.833 -86784.819 187037.5 -86308.628 M 186799.405 -86784.819 186799.405 -85784.819 187180.357 -85784.819 187275.595 -85832.438 187323.214 -85880.057 187370.833 -85975.295 187370.833 -86118.152 187323.214 -86213.39 187275.595 -86261.009 187180.357 -86308.628 186799.405 -86308.628 M 188323.214 -86784.819 187751.786 -86784.819 M 188037.5 -86784.819 188037.5 -85784.819 187942.262 -85927.676 187847.024 -86022.914 187751.786 -86070.533 M 162903.095 -40734.819 162903.095 -41544.342 162950.714 -41639.58 162998.333 -41687.2 163093.571 -41734.819 163284.047 -41734.819 163379.285 -41687.2 163426.904 -41639.58 163474.523 -41544.342 163474.523 -40734.819 M 163903.095 -40830.057 163950.714 -40782.438 164045.952 -40734.819 164284.047 -40734.819 164379.285 -40782.438 164426.904 -40830.057 164474.523 -40925.295 164474.523 -41020.533 164426.904 -41163.39 163855.476 -41734.819 164474.523 -41734.819 M 144124.819 -67916.666 143648.628 -68249.999 M 144124.819 -68488.094 143124.819 -68488.094 143124.819 -68107.142 143172.438 -68011.904 143220.057 -67964.285 143315.295 -67916.666 143458.152 -67916.666 143553.39 -67964.285 143601.009 -68011.904 143648.628 -68107.142 143648.628 -68488.094 M 143458.152 -67059.523 144124.819 -67059.523 M 143077.2 -67297.618 143791.485 -67535.713 143791.485 -66916.666" fill="none" stroke-width="150"/><path d="M 140400 -98650 140400 -98750 M 140400 -98650 146600 -98650 M 140400 -100250 140400 -103250 M 140400 -104850 140400 -104750 M 140400 -104850 146600 -104850 M 146600 -98750 146600 -98650 M 146600 -100250 146600 -103250 M 146600 -104850 146600 -104750 M 203950 -68300 203950 -59700 M 208550 -62000 208550 -59700 M 208550 -68300 208550 -66100 M 169400 -98650 169400 -98750 M 169400 -98650 175600 -98650 M 169400 -100250 169400 -103250 M 169400 -104850 169400 -104750 M 169400 -104850 175600 -104850 M 175600 -98750 175600 -98650 M 175600 -100250 175600 -103250 M 175600 -104850 175600 -104750 M 186813.748 -90090 188236.252 -90090 M 186813.748 -91910 188236.252 -91910 M 140450 -136900 140450 -137000 M 140450 -136900 146650 -136900 M 140450 -138500 140450 -141500 M 140450 -143100 140450 -143000 M 140450 -143100 146650 -143100 M 146650 -137000 146650 -136900 M 146650 -138500 146650 -141500 M 146650 -143100 146650 -143000 M 197800 -123150 197800 -123250 M 197800 -123150 204000 -123150 M 197800 -124750 197800 -127750 M 197800 -129350 197800 -129250 M 197800 -129350 204000 -129350 M 204000 -123250 204000 -123150 M 204000 -124750 204000 -127750 M 204000 -129350 204000 -129250 M 197950 -136900 197950 -137000 M 197950 -136900 204150 -136900 M 197950 -138500 197950 -141500 M 197950 -143100 197950 -143000 M 197950 -143100 204150 -143100 M 204150 -137000 204150 -136900 M 204150 -138500 204150 -141500 M 204150 -143100 204150 -143000 M 184000 -98650 184000 -98750 M 184000 -98650 190200 -98650 M 184000 -100250 184000 -103250 M 184000 -104850 184000 -104750 M 184000 -104850 190200 -104850 M 190200 -98750 190200 -98650 M 190200 -100250 190200 -103250 M 190200 -104850 190200 -104750 M 155050 -123150 155050 -123250 M 155050 -123150 161250 -123150 M 155050 -124750 155050 -127750 M 155050 -129350 155050 -129250 M 155050 -129350 161250 -129350 M 161250 -123250 161250 -123150 M 161250 -124750 161250 -127750 M 161250 -129350 161250 -129250 M 145999.999 -64520.785 A 6573.4311436 6573.4311436 0 0 0 143000 -64520.785 M 150730 -58120.785 A 6230 6230 0 0 0 138270 -58120.785 6230 6230 0 0 0 150730 -58120.785 M 188264.564 -86840 186810.436 -86840 M 188264.564 -88660 186810.436 -88660 M 201165 -41890 201165 -47750 M 204335 -41890 201165 -41890 M 204335 -47750 204335 -41890 M 140450 -110650 140450 -110750 M 140450 -110650 146650 -110650 M 140450 -112250 140450 -115250 M 140450 -116850 140450 -116750 M 140450 -116850 146650 -116850 M 146650 -110750 146650 -110650 M 146650 -112250 146650 -115250 M 146650 -116850 146650 -116750 M 201840 -51022.936 201840 -52477.064 M 203660 -51022.936 203660 -52477.064 M 184050 -123150 184050 -123250 M 184050 -123150 190250 -123150 M 184050 -124750 184050 -127750 M 184050 -129350 184050 -129250 M 184050 -129350 190250 -129350 M 190250 -123250 190250 -123150 M 190250 -124750 190250 -127750 M 190250 -129350 190250 -129250 M 155050 -136900 155050 -137000 M 155050 -136900 161250 -136900 M 155050 -138500 155050 -141500 M 155050 -143100 155050 -143000 M 155050 -143100 161250 -143100 M 161250 -137000 161250 -136900 M 161250 -138500 161250 -141500 M 161250 -143100 161250 -143000 M 169400 -123150 169400 -123250 M 169400 -123150 175600 -123150 M 169400 -124750 169400 -127750 M 169400 -129350 169400 -129250 M 169400 -129350 175600 -129350 M 175600 -123250 175600 -123150 M 175600 -124750 175600 -127750 M 175600 -129350 175600 -129250 M 197800 -110650 197800 -110750 M 197800 -110650 204000 -110650 M 197800 -112250 197800 -115250 M 197800 -116850 197800 -116750 M 197800 -116850 204000 -116850 M 204000 -110750 204000 -110650 M 204000 -112250 204000 -115250 M 204000 -116850 204000 -116750 M 197750 -98650 197750 -98750 M 197750 -98650 203950 -98650 M 197750 -100250 197750 -103250 M 197750 -104850 197750 -104750 M 197750 -104850 203950 -104850 M 203950 -98750 203950 -98650 M 203950 -100250 203950 -103250 M 203950 -104850 203950 -104750 M 198150 -77950 198150 -84150 M 198150 -77950 198250 -77950 M 198150 -84150 198250 -84150 M 202750 -77950 199750 -77950 M 202750 -84150 199750 -84150 M 204250 -84150 204350 -84150 M 204350 -77950 204250 -77950 M 204350 -77950 204350 -84150 M 184150 -136900 184150 -137000 M 184150 -136900 190350 -136900 M 184150 -138500 184150 -141500 M 184150 -143100 184150 -143000 M 184150 -143100 190350 -143100 M 190350 -137000 190350 -136900 M 190350 -138500 190350 -141500 M 190350 -143100 190350 -143000 M 184050 -110650 184050 -110750 M 184050 -110650 190250 -110650 M 184050 -112250 184050 -115250 M 184050 -116850 184050 -116750 M 184050 -116850 190250 -116850 M 190250 -110750 190250 -110650 M 190250 -112250 190250 -115250 M 190250 -116850 190250 -116750 M 140410 -82595 140410 -84245 M 140410 -86245 140410 -87895 176090 -87895 M 176090 -82595 140410 -82595 M 176090 -87895 176090 -82595 M 140410 -84245 A 1000 1000 0 0 0 140410 -86245 M 154950 -110650 154950 -110750 M 154950 -110650 161150 -110650 M 154950 -112250 154950 -115250 M 154950 -116850 154950 -116750 M 154950 -116850 161150 -116850 M 161150 -110750 161150 -110650 M 161150 -112250 161150 -115250 M 161150 -116850 161150 -116750 M 189260 -80900 186600 -80900 M 189260 -82600 186600 -82600 M 189260 -82600 189260 -80900 M 140450 -123150 140450 -123250 M 140450 -123150 146650 -123150 M 140450 -124750 140450 -127750 M 140450 -129350 140450 -129250 M 140450 -129350 146650 -129350 M 146650 -123250 146650 -123150 M 146650 -124750 146650 -127750 M 146650 -129350 146650 -129250 M 188264.564 -83590 186810.436 -83590 M 188264.564 -85410 186810.436 -85410 M 169450 -136900 169450 -137000 M 169450 -136900 175650 -136900 M 169450 -138500 169450 -141500 M 169450 -143100 169450 -143000 M 169450 -143100 175650 -143100 M 175650 -137000 175650 -136900 M 175650 -138500 175650 -141500 M 175650 -143100 175650 -143000" fill="none" stroke-width="120"/><path d="M 160190 -42250 186190 -42250 M 160190 -68250 160190 -42250 M 166190 -66250 166190 -68250 160190 -68250 M 180190 -66250 166190 -66250 M 180190 -68250 180190 -66250 M 186190 -42250 186190 -68250 180190 -68250" fill="none" stroke-width="127"/><path d="M 169290 -41750 A 100 100 0 0 0 169090 -41750 100 100 0 0 0 169290 -41750" fill="none" stroke-width="200"/><path d="M 154900 -98650 154900 -98750 M 154900 -98650 161100 -98650 M 154900 -100250 154900 -103250 M 154900 -104850 154900 -104750 M 154900 -104850 161100 -104850 M 161100 -98750 161100 -98650 M 161100 -100250 161100 -103250 M 161100 -104850 161100 -104750 M 144590 -68477.064 144590 -67022.936 M 146410 -68477.064 146410 -67022.936 M 169400 -110650 169400 -110750 M 169400 -110650 175600 -110650 M 169400 -112250 169400 -115250 M 169400 -116850 169400 -116750 M 169400 -116850 175600 -116850 M 175600 -110750 175600 -110650 M 175600 -112250 175600 -115250 M 175600 -116850 175600 -116750" fill="none" stroke-width="120"/></g></svg>