<svg version="1.1" xmlns="http://www.w3.org/2000/svg" xmlns:xlink="http://www.w3.org/1999/xlink" stroke-linecap="round" stroke-linejoin="round" stroke-width="0" fill-rule="evenodd" width="39.89mm" height="25.074775000000002mm" viewBox="158540 -67960 39890 25074.775" id="HE-pCXajzqKKe1b_T5TP"><g transform="translate(0,-110845.225) scale(1,-1)" fill="currentColor" stroke="currentColor"><path d="M 188060.714 -54181.009 187917.857 -54228.628 187870.238 -54276.247 187822.619 -54371.485 187822.619 -54514.342 187870.238 -54609.58 187917.857 -54657.2 188013.095 -54704.819 188394.047 -54704.819 188394.047 -53704.819 188060.714 -53704.819 187965.476 -53752.438 187917.857 -53800.057 187870.238 -53895.295 187870.238 -53990.533 187917.857 -54085.771 187965.476 -54133.39 188060.714 -54181.009 188394.047 -54181.009 M 187536.904 -53704.819 186965.476 -53704.819 M 187251.19 -54704.819 187251.19 -53704.819 M 186108.333 -54704.819 186679.761 -54704.819 M 186394.047 -54704.819 186394.047 -53704.819 186489.285 -53847.676 186584.523 -53942.914 186679.761 -53990.533 M 192359.58 -45583.333 192407.2 -45535.714 192454.819 -45392.857 192454.819 -45297.619 192407.2 -45154.762 192311.961 -45059.524 192216.723 -45011.905 192026.247 -44964.286 191883.39 -44964.286 191692.914 -45011.905 191597.676 -45059.524 191502.438 -45154.762 191454.819 -45297.619 191454.819 -45392.857 191502.438 -45535.714 191550.057 -45583.333 M 192454.819 -46535.714 192454.819 -45964.286 M 192454.819 -46250 191454.819 -46250 191597.676 -46154.762 191692.914 -46059.524 191740.533 -45964.286" fill="none" stroke-width="150"/><path d="M 158600 -55700 158600 -57250 M 158600 -63400 158600 -61850 M 161800 -51200 161800 -55700 158600 -55700 M 161800 -63400 158600 -63400 M 161800 -67900 161800 -63400 M 161800 -67900 182700 -67900 184500 -66100 M 184500 -51200 161800 -51200 M 184500 -51200 184500 -55700 187700 -55700 M 184500 -63400 187700 -63400 M 184500 -66100 184500 -63400 M 185150 -65550 187150 -65550 M 186150 -64550 186150 -66550 M 187700 -55700 187700 -57250 M 187700 -63400 187700 -61850 M 193170 -45750 198330 -45750 M 193170 -45790 198330 -45790 M 193171 -45830 198329 -45830 M 193173 -45870 198327 -45870 M 193175 -45910 198325 -45910 M 193178 -45950 198322 -45950 M 193181 -45990 194710 -45990 M 193185 -46030 194710 -46030 M 193190 -46070 194710 -46070 M 193195 -46110 194710 -46110 M 193201 -46150 194710 -46150 M 193207 -46190 194710 -46190 M 193214 -46230 194710 -46230 M 193222 -46270 194710 -46270 M 193231 -46310 194710 -46310 M 193240 -46350 194710 -46350 M 193249 -46390 194710 -46390 M 193260 -46430 194710 -46430 M 193271 -46470 194710 -46470 M 193283 -46510 194710 -46510 M 193295 -46550 194710 -46550 M 193308 -46590 194710 -46590 M 193322 -46630 194710 -46630 M 193337 -46670 194710 -46670 M 193352 -46710 194710 -46710 M 193368 -46750 194710 -46750 M 193385 -46790 194710 -46790 M 193403 -46830 194710 -46830 M 193421 -46870 194710 -46870 M 193441 -46910 194710 -46910 M 193461 -46950 194710 -46950 M 193482 -46990 194710 -46990 M 193504 -47030 194710 -47030 M 193527 -47070 194710 -47070 M 193551 -47110 194710 -47110 M 193575 -47150 194710 -47150 M 193601 -47190 194710 -47190 M 193628 -47230 194710 -47230 M 193656 -47270 194710 -47270 M 193685 -47310 194710 -47310 M 193715 -47350 194710 -47350 M 193747 -47390 194710 -47390 M 193780 -47430 194710 -47430 M 193814 -47470 194710 -47470 M 193849 -47510 194710 -47510 M 193886 -47550 194710 -47550 M 193925 -47590 194710 -47590 M 193965 -47630 194710 -47630 M 194007 -47670 194710 -47670 M 194025 -43195.225 194525 -43195.225 M 194051 -47710 194710 -47710 M 194098 -47750 194710 -47750 M 194146 -47790 194710 -47790 M 194197 -47830 194710 -47830 M 194251 -47870 194710 -47870 M 194275 -42945.225 194275 -43445.225 M 194307 -47910 194710 -47910 M 194367 -47950 194710 -47950 M 194431 -47990 194710 -47990 M 194499 -48030 194710 -48030 M 194573 -48070 196927 -48070 M 194652 -48110 196848 -48110 M 194739 -48150 196761 -48150 M 194836 -48190 196664 -48190 M 194945 -48230 196555 -48230 M 195073 -48270 196427 -48270 M 195233 -48310 196267 -48310 M 195467 -48350 196033 -48350 M 196790 -45990 198319 -45990 M 196790 -46030 198315 -46030 M 196790 -46070 198310 -46070 M 196790 -46110 198305 -46110 M 196790 -46150 198299 -46150 M 196790 -46190 198293 -46190 M 196790 -46230 198286 -46230 M 196790 -46270 198278 -46270 M 196790 -46310 198269 -46310 M 196790 -46350 198260 -46350 M 196790 -46390 198251 -46390 M 196790 -46430 198240 -46430 M 196790 -46470 198229 -46470 M 196790 -46510 198217 -46510 M 196790 -46550 198205 -46550 M 196790 -46590 198192 -46590 M 196790 -46630 198178 -46630 M 196790 -46670 198163 -46670 M 196790 -46710 198148 -46710 M 196790 -46750 198132 -46750 M 196790 -46790 198115 -46790 M 196790 -46830 198097 -46830 M 196790 -46870 198079 -46870 M 196790 -46910 198059 -46910 M 196790 -46950 198039 -46950 M 196790 -46990 198018 -46990 M 196790 -47030 197996 -47030 M 196790 -47070 197973 -47070 M 196790 -47110 197949 -47110 M 196790 -47150 197925 -47150 M 196790 -47190 197899 -47190 M 196790 -47230 197872 -47230 M 196790 -47270 197844 -47270 M 196790 -47310 197815 -47310 M 196790 -47350 197785 -47350 M 196790 -47390 197753 -47390 M 196790 -47430 197720 -47430 M 196790 -47470 197686 -47470 M 196790 -47510 197651 -47510 M 196790 -47550 197614 -47550 M 196790 -47590 197575 -47590 M 196790 -47630 197535 -47630 M 196790 -47670 197493 -47670 M 196790 -47710 197449 -47710 M 196790 -47750 197402 -47750 M 196790 -47790 197354 -47790 M 196790 -47830 197303 -47830 M 196790 -47870 197249 -47870 M 196790 -47910 197193 -47910 M 196790 -47950 197133 -47950 M 196790 -47990 197069 -47990 M 196790 -48030 197001 -48030 M 198370 -45750 A 2620 2620 0 0 0 193130 -45750 2620 2620 0 0 0 198370 -45750" fill="none" stroke-width="120"/></g></svg>