%TF.GenerationSoftware,KiCad,Pcbnew,9.0.5*%
%TF.CreationDate,2026-02-03T12:12:50+01:00*%
%TF.ProjectId,Seminarski,53656d69-6e61-4727-936b-692e6b696361,rev?*%
%TF.SameCoordinates,Original*%
%TF.FileFunction,Soldermask,Bot*%
%TF.FilePolarity,Negative*%
%FSLAX46Y46*%
G04 Gerber Fmt 4.6, Leading zero omitted, Abs format (unit mm)*
G04 Created by KiCad (PCBNEW 9.0.5) date 2026-02-03 12:12:50*
%MOMM*%
%LPD*%
G01*
G04 APERTURE LIST*
G04 Aperture macros list*
%AMRoundRect*
0 Rectangle with rounded corners*
0 $1 Rounding radius*
0 $2 $3 $4 $5 $6 $7 $8 $9 X,Y pos of 4 corners*
0 Add a 4 corners polygon primitive as box body*
4,1,4,$2,$3,$4,$5,$6,$7,$8,$9,$2,$3,0*
0 Add four circle primitives for the rounded corners*
1,1,$1+$1,$2,$3*
1,1,$1+$1,$4,$5*
1,1,$1+$1,$6,$7*
1,1,$1+$1,$8,$9*
0 Add four rect primitives between the rounded corners*
20,1,$1+$1,$2,$3,$4,$5,0*
20,1,$1+$1,$4,$5,$6,$7,0*
20,1,$1+$1,$6,$7,$8,$9,0*
20,1,$1+$1,$8,$9,$2,$3,0*%
G04 Aperture macros list end*
%ADD10O,3.500000X2.200000*%
%ADD11R,2.500000X1.500000*%
%ADD12O,2.500000X1.500000*%
%ADD13R,2.000000X2.000000*%
%ADD14C,2.000000*%
%ADD15RoundRect,0.250000X0.550000X-0.550000X0.550000X0.550000X-0.550000X0.550000X-0.550000X-0.550000X0*%
%ADD16C,1.600000*%
%ADD17RoundRect,0.102000X-0.754000X-0.754000X0.754000X-0.754000X0.754000X0.754000X-0.754000X0.754000X0*%
%ADD18C,1.712000*%
%ADD19R,2.600000X3.600000*%
%ADD20RoundRect,0.250000X-0.550000X0.550000X-0.550000X-0.550000X0.550000X-0.550000X0.550000X0.550000X0*%
G04 APERTURE END LIST*
D10*
%TO.C,SW22*%
X206250000Y-68100000D03*
X206250000Y-59900000D03*
D11*
X206250000Y-66000000D03*
D12*
X206250000Y-64000000D03*
X206250000Y-62000000D03*
%TD*%
D13*
%TO.C,BZ1*%
X144500000Y-60620785D03*
D14*
X144500000Y-55620785D03*
%TD*%
D15*
%TO.C,U1*%
X141740000Y-89055000D03*
D16*
X144280000Y-89055000D03*
X146820000Y-89055000D03*
X149360000Y-89055000D03*
X151900000Y-89055000D03*
X154440000Y-89055000D03*
X156980000Y-89055000D03*
X159520000Y-89055000D03*
X162060000Y-89055000D03*
X164600000Y-89055000D03*
X167140000Y-89055000D03*
X169680000Y-89055000D03*
X172220000Y-89055000D03*
X174760000Y-89055000D03*
X174760000Y-81435000D03*
X172220000Y-81435000D03*
X169680000Y-81435000D03*
X167140000Y-81435000D03*
X164600000Y-81435000D03*
X162060000Y-81435000D03*
X159520000Y-81435000D03*
X156980000Y-81435000D03*
X154440000Y-81435000D03*
X151900000Y-81435000D03*
X149360000Y-81435000D03*
X146820000Y-81435000D03*
X144280000Y-81435000D03*
X141740000Y-81435000D03*
%TD*%
D17*
%TO.C,U2*%
X169380000Y-43750000D03*
D18*
X171920000Y-43750000D03*
X174460000Y-43750000D03*
X177000000Y-43750000D03*
%TD*%
D19*
%TO.C,BT1*%
X187800000Y-59550000D03*
X158500000Y-59550000D03*
%TD*%
D20*
%TO.C,C1*%
X195750000Y-44500000D03*
D16*
X195750000Y-47000000D03*
%TD*%
M02*
