M48
; DRILL file {KiCad 9.0.5} date 2026-01-24T15:16:35+0100
; FORMAT={-:-/ absolute / metric / decimal}
; #@! TF.CreationDate,2026-01-24T15:16:35+01:00
; #@! TF.GenerationSoftware,Kicad,Pcbnew,9.0.5
; #@! TF.FileFunction,MixedPlating,1,2
FMAT,2
METRIC
; #@! TA.AperFunction,Plated,PTH,ViaDrill
T1C0.300
; #@! TA.AperFunction,Plated,PTH,ComponentDrill
T2C0.800
; #@! TA.AperFunction,Plated,PTH,ComponentDrill
T3C0.900
; #@! TA.AperFunction,Plated,PTH,ComponentDrill
T4C1.000
; #@! TA.AperFunction,Plated,PTH,ComponentDrill
T5C1.500
%
G90
G05
T1
X148.0Y-106.25
X148.0Y-118.25
X148.0Y-131.0
X148.25Y-144.5
X153.0Y-77.25
X153.5Y-106.5
X153.5Y-118.25
X153.5Y-144.5
X153.75Y-131.0
X162.5Y-106.25
X162.75Y-118.25
X162.75Y-131.0
X167.75Y-118.25
X168.0Y-106.25
X168.0Y-131.0
X177.0Y-106.25
X177.0Y-118.25
X177.25Y-131.0
X182.5Y-106.25
X182.5Y-118.25
X182.5Y-131.0
X185.25Y-80.0
X191.5Y-106.25
X191.75Y-118.25
X191.75Y-131.0
X196.25Y-106.25
X196.25Y-131.0
X196.5Y-118.25
X199.0Y-80.5
X199.0Y-82.55
X203.5Y-80.75
X203.5Y-82.55
T2
X141.74Y-81.435
X141.74Y-89.055
X144.28Y-81.435
X144.28Y-89.055
X146.82Y-81.435
X146.82Y-89.055
X149.36Y-81.435
X149.36Y-89.055
X151.9Y-81.435
X151.9Y-89.055
X154.44Y-81.435
X154.44Y-89.055
X156.98Y-81.435
X156.98Y-89.055
X159.52Y-81.435
X159.52Y-89.055
X162.06Y-81.435
X162.06Y-89.055
X164.6Y-81.435
X164.6Y-89.055
X167.14Y-81.435
X167.14Y-89.055
X169.68Y-81.435
X169.68Y-89.055
X172.22Y-81.435
X172.22Y-89.055
X174.76Y-81.435
X174.76Y-89.055
X195.75Y-44.5
X195.75Y-47.0
T3
X206.25Y-62.0
X206.25Y-64.0
X206.25Y-66.0
T4
X144.5Y-55.621
X144.5Y-60.621
X169.38Y-43.75
X171.92Y-43.75
X174.46Y-43.75
X177.0Y-43.75
T5
X206.25Y-59.9
X206.25Y-68.1
M30
