%TF.GenerationSoftware,KiCad,Pcbnew,9.0.5*%
%TF.CreationDate,2026-02-03T12:12:50+01:00*%
%TF.ProjectId,Seminarski,53656d69-6e61-4727-936b-692e6b696361,rev?*%
%TF.SameCoordinates,Original*%
%TF.FileFunction,AssemblyDrawing,Top*%
%FSLAX46Y46*%
G04 Gerber Fmt 4.6, Leading zero omitted, Abs format (unit mm)*
G04 Created by KiCad (PCBNEW 9.0.5) date 2026-02-03 12:12:50*
%MOMM*%
%LPD*%
G01*
G04 APERTURE LIST*
%ADD10C,0.150000*%
%ADD11C,0.100000*%
%ADD12C,0.120000*%
%ADD13C,0.127000*%
%ADD14C,0.200000*%
G04 APERTURE END LIST*
D10*
X140452381Y-106307200D02*
X140595238Y-106354819D01*
X140595238Y-106354819D02*
X140833333Y-106354819D01*
X140833333Y-106354819D02*
X140928571Y-106307200D01*
X140928571Y-106307200D02*
X140976190Y-106259580D01*
X140976190Y-106259580D02*
X141023809Y-106164342D01*
X141023809Y-106164342D02*
X141023809Y-106069104D01*
X141023809Y-106069104D02*
X140976190Y-105973866D01*
X140976190Y-105973866D02*
X140928571Y-105926247D01*
X140928571Y-105926247D02*
X140833333Y-105878628D01*
X140833333Y-105878628D02*
X140642857Y-105831009D01*
X140642857Y-105831009D02*
X140547619Y-105783390D01*
X140547619Y-105783390D02*
X140500000Y-105735771D01*
X140500000Y-105735771D02*
X140452381Y-105640533D01*
X140452381Y-105640533D02*
X140452381Y-105545295D01*
X140452381Y-105545295D02*
X140500000Y-105450057D01*
X140500000Y-105450057D02*
X140547619Y-105402438D01*
X140547619Y-105402438D02*
X140642857Y-105354819D01*
X140642857Y-105354819D02*
X140880952Y-105354819D01*
X140880952Y-105354819D02*
X141023809Y-105402438D01*
X141357143Y-105354819D02*
X141595238Y-106354819D01*
X141595238Y-106354819D02*
X141785714Y-105640533D01*
X141785714Y-105640533D02*
X141976190Y-106354819D01*
X141976190Y-106354819D02*
X142214286Y-105354819D01*
X142357143Y-106450057D02*
X143119047Y-106450057D01*
X143357143Y-106354819D02*
X143357143Y-105354819D01*
X143357143Y-105354819D02*
X143738095Y-105354819D01*
X143738095Y-105354819D02*
X143833333Y-105402438D01*
X143833333Y-105402438D02*
X143880952Y-105450057D01*
X143880952Y-105450057D02*
X143928571Y-105545295D01*
X143928571Y-105545295D02*
X143928571Y-105688152D01*
X143928571Y-105688152D02*
X143880952Y-105783390D01*
X143880952Y-105783390D02*
X143833333Y-105831009D01*
X143833333Y-105831009D02*
X143738095Y-105878628D01*
X143738095Y-105878628D02*
X143357143Y-105878628D01*
X144785714Y-105688152D02*
X144785714Y-106354819D01*
X144357143Y-105688152D02*
X144357143Y-106211961D01*
X144357143Y-106211961D02*
X144404762Y-106307200D01*
X144404762Y-106307200D02*
X144500000Y-106354819D01*
X144500000Y-106354819D02*
X144642857Y-106354819D01*
X144642857Y-106354819D02*
X144738095Y-106307200D01*
X144738095Y-106307200D02*
X144785714Y-106259580D01*
X145214286Y-106307200D02*
X145309524Y-106354819D01*
X145309524Y-106354819D02*
X145500000Y-106354819D01*
X145500000Y-106354819D02*
X145595238Y-106307200D01*
X145595238Y-106307200D02*
X145642857Y-106211961D01*
X145642857Y-106211961D02*
X145642857Y-106164342D01*
X145642857Y-106164342D02*
X145595238Y-106069104D01*
X145595238Y-106069104D02*
X145500000Y-106021485D01*
X145500000Y-106021485D02*
X145357143Y-106021485D01*
X145357143Y-106021485D02*
X145261905Y-105973866D01*
X145261905Y-105973866D02*
X145214286Y-105878628D01*
X145214286Y-105878628D02*
X145214286Y-105831009D01*
X145214286Y-105831009D02*
X145261905Y-105735771D01*
X145261905Y-105735771D02*
X145357143Y-105688152D01*
X145357143Y-105688152D02*
X145500000Y-105688152D01*
X145500000Y-105688152D02*
X145595238Y-105735771D01*
X146071429Y-106354819D02*
X146071429Y-105354819D01*
X146500000Y-106354819D02*
X146500000Y-105831009D01*
X146500000Y-105831009D02*
X146452381Y-105735771D01*
X146452381Y-105735771D02*
X146357143Y-105688152D01*
X146357143Y-105688152D02*
X146214286Y-105688152D01*
X146214286Y-105688152D02*
X146119048Y-105735771D01*
X146119048Y-105735771D02*
X146071429Y-105783390D01*
X142166667Y-102157200D02*
X142309524Y-102204819D01*
X142309524Y-102204819D02*
X142547619Y-102204819D01*
X142547619Y-102204819D02*
X142642857Y-102157200D01*
X142642857Y-102157200D02*
X142690476Y-102109580D01*
X142690476Y-102109580D02*
X142738095Y-102014342D01*
X142738095Y-102014342D02*
X142738095Y-101919104D01*
X142738095Y-101919104D02*
X142690476Y-101823866D01*
X142690476Y-101823866D02*
X142642857Y-101776247D01*
X142642857Y-101776247D02*
X142547619Y-101728628D01*
X142547619Y-101728628D02*
X142357143Y-101681009D01*
X142357143Y-101681009D02*
X142261905Y-101633390D01*
X142261905Y-101633390D02*
X142214286Y-101585771D01*
X142214286Y-101585771D02*
X142166667Y-101490533D01*
X142166667Y-101490533D02*
X142166667Y-101395295D01*
X142166667Y-101395295D02*
X142214286Y-101300057D01*
X142214286Y-101300057D02*
X142261905Y-101252438D01*
X142261905Y-101252438D02*
X142357143Y-101204819D01*
X142357143Y-101204819D02*
X142595238Y-101204819D01*
X142595238Y-101204819D02*
X142738095Y-101252438D01*
X143071429Y-101204819D02*
X143309524Y-102204819D01*
X143309524Y-102204819D02*
X143500000Y-101490533D01*
X143500000Y-101490533D02*
X143690476Y-102204819D01*
X143690476Y-102204819D02*
X143928572Y-101204819D01*
X144261905Y-101300057D02*
X144309524Y-101252438D01*
X144309524Y-101252438D02*
X144404762Y-101204819D01*
X144404762Y-101204819D02*
X144642857Y-101204819D01*
X144642857Y-101204819D02*
X144738095Y-101252438D01*
X144738095Y-101252438D02*
X144785714Y-101300057D01*
X144785714Y-101300057D02*
X144833333Y-101395295D01*
X144833333Y-101395295D02*
X144833333Y-101490533D01*
X144833333Y-101490533D02*
X144785714Y-101633390D01*
X144785714Y-101633390D02*
X144214286Y-102204819D01*
X144214286Y-102204819D02*
X144833333Y-102204819D01*
X214357200Y-69204761D02*
X214404819Y-69061904D01*
X214404819Y-69061904D02*
X214404819Y-68823809D01*
X214404819Y-68823809D02*
X214357200Y-68728571D01*
X214357200Y-68728571D02*
X214309580Y-68680952D01*
X214309580Y-68680952D02*
X214214342Y-68633333D01*
X214214342Y-68633333D02*
X214119104Y-68633333D01*
X214119104Y-68633333D02*
X214023866Y-68680952D01*
X214023866Y-68680952D02*
X213976247Y-68728571D01*
X213976247Y-68728571D02*
X213928628Y-68823809D01*
X213928628Y-68823809D02*
X213881009Y-69014285D01*
X213881009Y-69014285D02*
X213833390Y-69109523D01*
X213833390Y-69109523D02*
X213785771Y-69157142D01*
X213785771Y-69157142D02*
X213690533Y-69204761D01*
X213690533Y-69204761D02*
X213595295Y-69204761D01*
X213595295Y-69204761D02*
X213500057Y-69157142D01*
X213500057Y-69157142D02*
X213452438Y-69109523D01*
X213452438Y-69109523D02*
X213404819Y-69014285D01*
X213404819Y-69014285D02*
X213404819Y-68776190D01*
X213404819Y-68776190D02*
X213452438Y-68633333D01*
X213404819Y-68299999D02*
X214404819Y-68061904D01*
X214404819Y-68061904D02*
X213690533Y-67871428D01*
X213690533Y-67871428D02*
X214404819Y-67680952D01*
X214404819Y-67680952D02*
X213404819Y-67442857D01*
X214500057Y-67300000D02*
X214500057Y-66538095D01*
X214357200Y-66347618D02*
X214404819Y-66204761D01*
X214404819Y-66204761D02*
X214404819Y-65966666D01*
X214404819Y-65966666D02*
X214357200Y-65871428D01*
X214357200Y-65871428D02*
X214309580Y-65823809D01*
X214309580Y-65823809D02*
X214214342Y-65776190D01*
X214214342Y-65776190D02*
X214119104Y-65776190D01*
X214119104Y-65776190D02*
X214023866Y-65823809D01*
X214023866Y-65823809D02*
X213976247Y-65871428D01*
X213976247Y-65871428D02*
X213928628Y-65966666D01*
X213928628Y-65966666D02*
X213881009Y-66157142D01*
X213881009Y-66157142D02*
X213833390Y-66252380D01*
X213833390Y-66252380D02*
X213785771Y-66299999D01*
X213785771Y-66299999D02*
X213690533Y-66347618D01*
X213690533Y-66347618D02*
X213595295Y-66347618D01*
X213595295Y-66347618D02*
X213500057Y-66299999D01*
X213500057Y-66299999D02*
X213452438Y-66252380D01*
X213452438Y-66252380D02*
X213404819Y-66157142D01*
X213404819Y-66157142D02*
X213404819Y-65919047D01*
X213404819Y-65919047D02*
X213452438Y-65776190D01*
X214404819Y-65347618D02*
X213404819Y-65347618D01*
X213404819Y-65347618D02*
X213404819Y-64966666D01*
X213404819Y-64966666D02*
X213452438Y-64871428D01*
X213452438Y-64871428D02*
X213500057Y-64823809D01*
X213500057Y-64823809D02*
X213595295Y-64776190D01*
X213595295Y-64776190D02*
X213738152Y-64776190D01*
X213738152Y-64776190D02*
X213833390Y-64823809D01*
X213833390Y-64823809D02*
X213881009Y-64871428D01*
X213881009Y-64871428D02*
X213928628Y-64966666D01*
X213928628Y-64966666D02*
X213928628Y-65347618D01*
X214404819Y-64347618D02*
X213404819Y-64347618D01*
X213404819Y-64347618D02*
X213404819Y-64109523D01*
X213404819Y-64109523D02*
X213452438Y-63966666D01*
X213452438Y-63966666D02*
X213547676Y-63871428D01*
X213547676Y-63871428D02*
X213642914Y-63823809D01*
X213642914Y-63823809D02*
X213833390Y-63776190D01*
X213833390Y-63776190D02*
X213976247Y-63776190D01*
X213976247Y-63776190D02*
X214166723Y-63823809D01*
X214166723Y-63823809D02*
X214261961Y-63871428D01*
X214261961Y-63871428D02*
X214357200Y-63966666D01*
X214357200Y-63966666D02*
X214404819Y-64109523D01*
X214404819Y-64109523D02*
X214404819Y-64347618D01*
X213404819Y-63490475D02*
X213404819Y-62919047D01*
X214404819Y-63204761D02*
X213404819Y-63204761D01*
X214500057Y-62823809D02*
X214500057Y-62061904D01*
X213404819Y-61919046D02*
X213404819Y-61299999D01*
X213404819Y-61299999D02*
X213785771Y-61633332D01*
X213785771Y-61633332D02*
X213785771Y-61490475D01*
X213785771Y-61490475D02*
X213833390Y-61395237D01*
X213833390Y-61395237D02*
X213881009Y-61347618D01*
X213881009Y-61347618D02*
X213976247Y-61299999D01*
X213976247Y-61299999D02*
X214214342Y-61299999D01*
X214214342Y-61299999D02*
X214309580Y-61347618D01*
X214309580Y-61347618D02*
X214357200Y-61395237D01*
X214357200Y-61395237D02*
X214404819Y-61490475D01*
X214404819Y-61490475D02*
X214404819Y-61776189D01*
X214404819Y-61776189D02*
X214357200Y-61871427D01*
X214357200Y-61871427D02*
X214309580Y-61919046D01*
X214404819Y-60347618D02*
X214404819Y-60919046D01*
X214404819Y-60633332D02*
X213404819Y-60633332D01*
X213404819Y-60633332D02*
X213547676Y-60728570D01*
X213547676Y-60728570D02*
X213642914Y-60823808D01*
X213642914Y-60823808D02*
X213690533Y-60919046D01*
X213500057Y-59966665D02*
X213452438Y-59919046D01*
X213452438Y-59919046D02*
X213404819Y-59823808D01*
X213404819Y-59823808D02*
X213404819Y-59585713D01*
X213404819Y-59585713D02*
X213452438Y-59490475D01*
X213452438Y-59490475D02*
X213500057Y-59442856D01*
X213500057Y-59442856D02*
X213595295Y-59395237D01*
X213595295Y-59395237D02*
X213690533Y-59395237D01*
X213690533Y-59395237D02*
X213833390Y-59442856D01*
X213833390Y-59442856D02*
X214404819Y-60014284D01*
X214404819Y-60014284D02*
X214404819Y-59395237D01*
D11*
X208152300Y-64604760D02*
X208176109Y-64533332D01*
X208176109Y-64533332D02*
X208176109Y-64414284D01*
X208176109Y-64414284D02*
X208152300Y-64366665D01*
X208152300Y-64366665D02*
X208128490Y-64342856D01*
X208128490Y-64342856D02*
X208080871Y-64319046D01*
X208080871Y-64319046D02*
X208033252Y-64319046D01*
X208033252Y-64319046D02*
X207985633Y-64342856D01*
X207985633Y-64342856D02*
X207961823Y-64366665D01*
X207961823Y-64366665D02*
X207938014Y-64414284D01*
X207938014Y-64414284D02*
X207914204Y-64509522D01*
X207914204Y-64509522D02*
X207890395Y-64557141D01*
X207890395Y-64557141D02*
X207866585Y-64580951D01*
X207866585Y-64580951D02*
X207818966Y-64604760D01*
X207818966Y-64604760D02*
X207771347Y-64604760D01*
X207771347Y-64604760D02*
X207723728Y-64580951D01*
X207723728Y-64580951D02*
X207699919Y-64557141D01*
X207699919Y-64557141D02*
X207676109Y-64509522D01*
X207676109Y-64509522D02*
X207676109Y-64390475D01*
X207676109Y-64390475D02*
X207699919Y-64319046D01*
X207676109Y-64152380D02*
X208176109Y-64033332D01*
X208176109Y-64033332D02*
X207818966Y-63938094D01*
X207818966Y-63938094D02*
X208176109Y-63842856D01*
X208176109Y-63842856D02*
X207676109Y-63723809D01*
X207723728Y-63557141D02*
X207699919Y-63533332D01*
X207699919Y-63533332D02*
X207676109Y-63485713D01*
X207676109Y-63485713D02*
X207676109Y-63366665D01*
X207676109Y-63366665D02*
X207699919Y-63319046D01*
X207699919Y-63319046D02*
X207723728Y-63295237D01*
X207723728Y-63295237D02*
X207771347Y-63271427D01*
X207771347Y-63271427D02*
X207818966Y-63271427D01*
X207818966Y-63271427D02*
X207890395Y-63295237D01*
X207890395Y-63295237D02*
X208176109Y-63580951D01*
X208176109Y-63580951D02*
X208176109Y-63271427D01*
X207723728Y-63080951D02*
X207699919Y-63057142D01*
X207699919Y-63057142D02*
X207676109Y-63009523D01*
X207676109Y-63009523D02*
X207676109Y-62890475D01*
X207676109Y-62890475D02*
X207699919Y-62842856D01*
X207699919Y-62842856D02*
X207723728Y-62819047D01*
X207723728Y-62819047D02*
X207771347Y-62795237D01*
X207771347Y-62795237D02*
X207818966Y-62795237D01*
X207818966Y-62795237D02*
X207890395Y-62819047D01*
X207890395Y-62819047D02*
X208176109Y-63104761D01*
X208176109Y-63104761D02*
X208176109Y-62795237D01*
D10*
X169452381Y-106307200D02*
X169595238Y-106354819D01*
X169595238Y-106354819D02*
X169833333Y-106354819D01*
X169833333Y-106354819D02*
X169928571Y-106307200D01*
X169928571Y-106307200D02*
X169976190Y-106259580D01*
X169976190Y-106259580D02*
X170023809Y-106164342D01*
X170023809Y-106164342D02*
X170023809Y-106069104D01*
X170023809Y-106069104D02*
X169976190Y-105973866D01*
X169976190Y-105973866D02*
X169928571Y-105926247D01*
X169928571Y-105926247D02*
X169833333Y-105878628D01*
X169833333Y-105878628D02*
X169642857Y-105831009D01*
X169642857Y-105831009D02*
X169547619Y-105783390D01*
X169547619Y-105783390D02*
X169500000Y-105735771D01*
X169500000Y-105735771D02*
X169452381Y-105640533D01*
X169452381Y-105640533D02*
X169452381Y-105545295D01*
X169452381Y-105545295D02*
X169500000Y-105450057D01*
X169500000Y-105450057D02*
X169547619Y-105402438D01*
X169547619Y-105402438D02*
X169642857Y-105354819D01*
X169642857Y-105354819D02*
X169880952Y-105354819D01*
X169880952Y-105354819D02*
X170023809Y-105402438D01*
X170357143Y-105354819D02*
X170595238Y-106354819D01*
X170595238Y-106354819D02*
X170785714Y-105640533D01*
X170785714Y-105640533D02*
X170976190Y-106354819D01*
X170976190Y-106354819D02*
X171214286Y-105354819D01*
X171357143Y-106450057D02*
X172119047Y-106450057D01*
X172357143Y-106354819D02*
X172357143Y-105354819D01*
X172357143Y-105354819D02*
X172738095Y-105354819D01*
X172738095Y-105354819D02*
X172833333Y-105402438D01*
X172833333Y-105402438D02*
X172880952Y-105450057D01*
X172880952Y-105450057D02*
X172928571Y-105545295D01*
X172928571Y-105545295D02*
X172928571Y-105688152D01*
X172928571Y-105688152D02*
X172880952Y-105783390D01*
X172880952Y-105783390D02*
X172833333Y-105831009D01*
X172833333Y-105831009D02*
X172738095Y-105878628D01*
X172738095Y-105878628D02*
X172357143Y-105878628D01*
X173785714Y-105688152D02*
X173785714Y-106354819D01*
X173357143Y-105688152D02*
X173357143Y-106211961D01*
X173357143Y-106211961D02*
X173404762Y-106307200D01*
X173404762Y-106307200D02*
X173500000Y-106354819D01*
X173500000Y-106354819D02*
X173642857Y-106354819D01*
X173642857Y-106354819D02*
X173738095Y-106307200D01*
X173738095Y-106307200D02*
X173785714Y-106259580D01*
X174214286Y-106307200D02*
X174309524Y-106354819D01*
X174309524Y-106354819D02*
X174500000Y-106354819D01*
X174500000Y-106354819D02*
X174595238Y-106307200D01*
X174595238Y-106307200D02*
X174642857Y-106211961D01*
X174642857Y-106211961D02*
X174642857Y-106164342D01*
X174642857Y-106164342D02*
X174595238Y-106069104D01*
X174595238Y-106069104D02*
X174500000Y-106021485D01*
X174500000Y-106021485D02*
X174357143Y-106021485D01*
X174357143Y-106021485D02*
X174261905Y-105973866D01*
X174261905Y-105973866D02*
X174214286Y-105878628D01*
X174214286Y-105878628D02*
X174214286Y-105831009D01*
X174214286Y-105831009D02*
X174261905Y-105735771D01*
X174261905Y-105735771D02*
X174357143Y-105688152D01*
X174357143Y-105688152D02*
X174500000Y-105688152D01*
X174500000Y-105688152D02*
X174595238Y-105735771D01*
X175071429Y-106354819D02*
X175071429Y-105354819D01*
X175500000Y-106354819D02*
X175500000Y-105831009D01*
X175500000Y-105831009D02*
X175452381Y-105735771D01*
X175452381Y-105735771D02*
X175357143Y-105688152D01*
X175357143Y-105688152D02*
X175214286Y-105688152D01*
X175214286Y-105688152D02*
X175119048Y-105735771D01*
X175119048Y-105735771D02*
X175071429Y-105783390D01*
X170690476Y-102157200D02*
X170833333Y-102204819D01*
X170833333Y-102204819D02*
X171071428Y-102204819D01*
X171071428Y-102204819D02*
X171166666Y-102157200D01*
X171166666Y-102157200D02*
X171214285Y-102109580D01*
X171214285Y-102109580D02*
X171261904Y-102014342D01*
X171261904Y-102014342D02*
X171261904Y-101919104D01*
X171261904Y-101919104D02*
X171214285Y-101823866D01*
X171214285Y-101823866D02*
X171166666Y-101776247D01*
X171166666Y-101776247D02*
X171071428Y-101728628D01*
X171071428Y-101728628D02*
X170880952Y-101681009D01*
X170880952Y-101681009D02*
X170785714Y-101633390D01*
X170785714Y-101633390D02*
X170738095Y-101585771D01*
X170738095Y-101585771D02*
X170690476Y-101490533D01*
X170690476Y-101490533D02*
X170690476Y-101395295D01*
X170690476Y-101395295D02*
X170738095Y-101300057D01*
X170738095Y-101300057D02*
X170785714Y-101252438D01*
X170785714Y-101252438D02*
X170880952Y-101204819D01*
X170880952Y-101204819D02*
X171119047Y-101204819D01*
X171119047Y-101204819D02*
X171261904Y-101252438D01*
X171595238Y-101204819D02*
X171833333Y-102204819D01*
X171833333Y-102204819D02*
X172023809Y-101490533D01*
X172023809Y-101490533D02*
X172214285Y-102204819D01*
X172214285Y-102204819D02*
X172452381Y-101204819D01*
X173357142Y-102204819D02*
X172785714Y-102204819D01*
X173071428Y-102204819D02*
X173071428Y-101204819D01*
X173071428Y-101204819D02*
X172976190Y-101347676D01*
X172976190Y-101347676D02*
X172880952Y-101442914D01*
X172880952Y-101442914D02*
X172785714Y-101490533D01*
X173690476Y-101204819D02*
X174309523Y-101204819D01*
X174309523Y-101204819D02*
X173976190Y-101585771D01*
X173976190Y-101585771D02*
X174119047Y-101585771D01*
X174119047Y-101585771D02*
X174214285Y-101633390D01*
X174214285Y-101633390D02*
X174261904Y-101681009D01*
X174261904Y-101681009D02*
X174309523Y-101776247D01*
X174309523Y-101776247D02*
X174309523Y-102014342D01*
X174309523Y-102014342D02*
X174261904Y-102109580D01*
X174261904Y-102109580D02*
X174214285Y-102157200D01*
X174214285Y-102157200D02*
X174119047Y-102204819D01*
X174119047Y-102204819D02*
X173833333Y-102204819D01*
X173833333Y-102204819D02*
X173738095Y-102157200D01*
X173738095Y-102157200D02*
X173690476Y-102109580D01*
X185977380Y-93304819D02*
X185405952Y-93304819D01*
X185691666Y-93304819D02*
X185691666Y-92304819D01*
X185691666Y-92304819D02*
X185596428Y-92447676D01*
X185596428Y-92447676D02*
X185501190Y-92542914D01*
X185501190Y-92542914D02*
X185405952Y-92590533D01*
X186596428Y-92304819D02*
X186691666Y-92304819D01*
X186691666Y-92304819D02*
X186786904Y-92352438D01*
X186786904Y-92352438D02*
X186834523Y-92400057D01*
X186834523Y-92400057D02*
X186882142Y-92495295D01*
X186882142Y-92495295D02*
X186929761Y-92685771D01*
X186929761Y-92685771D02*
X186929761Y-92923866D01*
X186929761Y-92923866D02*
X186882142Y-93114342D01*
X186882142Y-93114342D02*
X186834523Y-93209580D01*
X186834523Y-93209580D02*
X186786904Y-93257200D01*
X186786904Y-93257200D02*
X186691666Y-93304819D01*
X186691666Y-93304819D02*
X186596428Y-93304819D01*
X186596428Y-93304819D02*
X186501190Y-93257200D01*
X186501190Y-93257200D02*
X186453571Y-93209580D01*
X186453571Y-93209580D02*
X186405952Y-93114342D01*
X186405952Y-93114342D02*
X186358333Y-92923866D01*
X186358333Y-92923866D02*
X186358333Y-92685771D01*
X186358333Y-92685771D02*
X186405952Y-92495295D01*
X186405952Y-92495295D02*
X186453571Y-92400057D01*
X186453571Y-92400057D02*
X186501190Y-92352438D01*
X186501190Y-92352438D02*
X186596428Y-92304819D01*
X187548809Y-92304819D02*
X187644047Y-92304819D01*
X187644047Y-92304819D02*
X187739285Y-92352438D01*
X187739285Y-92352438D02*
X187786904Y-92400057D01*
X187786904Y-92400057D02*
X187834523Y-92495295D01*
X187834523Y-92495295D02*
X187882142Y-92685771D01*
X187882142Y-92685771D02*
X187882142Y-92923866D01*
X187882142Y-92923866D02*
X187834523Y-93114342D01*
X187834523Y-93114342D02*
X187786904Y-93209580D01*
X187786904Y-93209580D02*
X187739285Y-93257200D01*
X187739285Y-93257200D02*
X187644047Y-93304819D01*
X187644047Y-93304819D02*
X187548809Y-93304819D01*
X187548809Y-93304819D02*
X187453571Y-93257200D01*
X187453571Y-93257200D02*
X187405952Y-93209580D01*
X187405952Y-93209580D02*
X187358333Y-93114342D01*
X187358333Y-93114342D02*
X187310714Y-92923866D01*
X187310714Y-92923866D02*
X187310714Y-92685771D01*
X187310714Y-92685771D02*
X187358333Y-92495295D01*
X187358333Y-92495295D02*
X187405952Y-92400057D01*
X187405952Y-92400057D02*
X187453571Y-92352438D01*
X187453571Y-92352438D02*
X187548809Y-92304819D01*
X188310714Y-92638152D02*
X188310714Y-93304819D01*
X188310714Y-92733390D02*
X188358333Y-92685771D01*
X188358333Y-92685771D02*
X188453571Y-92638152D01*
X188453571Y-92638152D02*
X188596428Y-92638152D01*
X188596428Y-92638152D02*
X188691666Y-92685771D01*
X188691666Y-92685771D02*
X188739285Y-92781009D01*
X188739285Y-92781009D02*
X188739285Y-93304819D01*
X189548809Y-92781009D02*
X189215476Y-92781009D01*
X189215476Y-93304819D02*
X189215476Y-92304819D01*
X189215476Y-92304819D02*
X189691666Y-92304819D01*
D12*
X187391667Y-91287664D02*
X187353571Y-91325760D01*
X187353571Y-91325760D02*
X187239286Y-91363855D01*
X187239286Y-91363855D02*
X187163095Y-91363855D01*
X187163095Y-91363855D02*
X187048809Y-91325760D01*
X187048809Y-91325760D02*
X186972619Y-91249569D01*
X186972619Y-91249569D02*
X186934524Y-91173379D01*
X186934524Y-91173379D02*
X186896428Y-91020998D01*
X186896428Y-91020998D02*
X186896428Y-90906712D01*
X186896428Y-90906712D02*
X186934524Y-90754331D01*
X186934524Y-90754331D02*
X186972619Y-90678140D01*
X186972619Y-90678140D02*
X187048809Y-90601950D01*
X187048809Y-90601950D02*
X187163095Y-90563855D01*
X187163095Y-90563855D02*
X187239286Y-90563855D01*
X187239286Y-90563855D02*
X187353571Y-90601950D01*
X187353571Y-90601950D02*
X187391667Y-90640045D01*
X187696428Y-90640045D02*
X187734524Y-90601950D01*
X187734524Y-90601950D02*
X187810714Y-90563855D01*
X187810714Y-90563855D02*
X188001190Y-90563855D01*
X188001190Y-90563855D02*
X188077381Y-90601950D01*
X188077381Y-90601950D02*
X188115476Y-90640045D01*
X188115476Y-90640045D02*
X188153571Y-90716236D01*
X188153571Y-90716236D02*
X188153571Y-90792426D01*
X188153571Y-90792426D02*
X188115476Y-90906712D01*
X188115476Y-90906712D02*
X187658333Y-91363855D01*
X187658333Y-91363855D02*
X188153571Y-91363855D01*
D10*
X140502381Y-144557200D02*
X140645238Y-144604819D01*
X140645238Y-144604819D02*
X140883333Y-144604819D01*
X140883333Y-144604819D02*
X140978571Y-144557200D01*
X140978571Y-144557200D02*
X141026190Y-144509580D01*
X141026190Y-144509580D02*
X141073809Y-144414342D01*
X141073809Y-144414342D02*
X141073809Y-144319104D01*
X141073809Y-144319104D02*
X141026190Y-144223866D01*
X141026190Y-144223866D02*
X140978571Y-144176247D01*
X140978571Y-144176247D02*
X140883333Y-144128628D01*
X140883333Y-144128628D02*
X140692857Y-144081009D01*
X140692857Y-144081009D02*
X140597619Y-144033390D01*
X140597619Y-144033390D02*
X140550000Y-143985771D01*
X140550000Y-143985771D02*
X140502381Y-143890533D01*
X140502381Y-143890533D02*
X140502381Y-143795295D01*
X140502381Y-143795295D02*
X140550000Y-143700057D01*
X140550000Y-143700057D02*
X140597619Y-143652438D01*
X140597619Y-143652438D02*
X140692857Y-143604819D01*
X140692857Y-143604819D02*
X140930952Y-143604819D01*
X140930952Y-143604819D02*
X141073809Y-143652438D01*
X141407143Y-143604819D02*
X141645238Y-144604819D01*
X141645238Y-144604819D02*
X141835714Y-143890533D01*
X141835714Y-143890533D02*
X142026190Y-144604819D01*
X142026190Y-144604819D02*
X142264286Y-143604819D01*
X142407143Y-144700057D02*
X143169047Y-144700057D01*
X143407143Y-144604819D02*
X143407143Y-143604819D01*
X143407143Y-143604819D02*
X143788095Y-143604819D01*
X143788095Y-143604819D02*
X143883333Y-143652438D01*
X143883333Y-143652438D02*
X143930952Y-143700057D01*
X143930952Y-143700057D02*
X143978571Y-143795295D01*
X143978571Y-143795295D02*
X143978571Y-143938152D01*
X143978571Y-143938152D02*
X143930952Y-144033390D01*
X143930952Y-144033390D02*
X143883333Y-144081009D01*
X143883333Y-144081009D02*
X143788095Y-144128628D01*
X143788095Y-144128628D02*
X143407143Y-144128628D01*
X144835714Y-143938152D02*
X144835714Y-144604819D01*
X144407143Y-143938152D02*
X144407143Y-144461961D01*
X144407143Y-144461961D02*
X144454762Y-144557200D01*
X144454762Y-144557200D02*
X144550000Y-144604819D01*
X144550000Y-144604819D02*
X144692857Y-144604819D01*
X144692857Y-144604819D02*
X144788095Y-144557200D01*
X144788095Y-144557200D02*
X144835714Y-144509580D01*
X145264286Y-144557200D02*
X145359524Y-144604819D01*
X145359524Y-144604819D02*
X145550000Y-144604819D01*
X145550000Y-144604819D02*
X145645238Y-144557200D01*
X145645238Y-144557200D02*
X145692857Y-144461961D01*
X145692857Y-144461961D02*
X145692857Y-144414342D01*
X145692857Y-144414342D02*
X145645238Y-144319104D01*
X145645238Y-144319104D02*
X145550000Y-144271485D01*
X145550000Y-144271485D02*
X145407143Y-144271485D01*
X145407143Y-144271485D02*
X145311905Y-144223866D01*
X145311905Y-144223866D02*
X145264286Y-144128628D01*
X145264286Y-144128628D02*
X145264286Y-144081009D01*
X145264286Y-144081009D02*
X145311905Y-143985771D01*
X145311905Y-143985771D02*
X145407143Y-143938152D01*
X145407143Y-143938152D02*
X145550000Y-143938152D01*
X145550000Y-143938152D02*
X145645238Y-143985771D01*
X146121429Y-144604819D02*
X146121429Y-143604819D01*
X146550000Y-144604819D02*
X146550000Y-144081009D01*
X146550000Y-144081009D02*
X146502381Y-143985771D01*
X146502381Y-143985771D02*
X146407143Y-143938152D01*
X146407143Y-143938152D02*
X146264286Y-143938152D01*
X146264286Y-143938152D02*
X146169048Y-143985771D01*
X146169048Y-143985771D02*
X146121429Y-144033390D01*
X142216667Y-140407200D02*
X142359524Y-140454819D01*
X142359524Y-140454819D02*
X142597619Y-140454819D01*
X142597619Y-140454819D02*
X142692857Y-140407200D01*
X142692857Y-140407200D02*
X142740476Y-140359580D01*
X142740476Y-140359580D02*
X142788095Y-140264342D01*
X142788095Y-140264342D02*
X142788095Y-140169104D01*
X142788095Y-140169104D02*
X142740476Y-140073866D01*
X142740476Y-140073866D02*
X142692857Y-140026247D01*
X142692857Y-140026247D02*
X142597619Y-139978628D01*
X142597619Y-139978628D02*
X142407143Y-139931009D01*
X142407143Y-139931009D02*
X142311905Y-139883390D01*
X142311905Y-139883390D02*
X142264286Y-139835771D01*
X142264286Y-139835771D02*
X142216667Y-139740533D01*
X142216667Y-139740533D02*
X142216667Y-139645295D01*
X142216667Y-139645295D02*
X142264286Y-139550057D01*
X142264286Y-139550057D02*
X142311905Y-139502438D01*
X142311905Y-139502438D02*
X142407143Y-139454819D01*
X142407143Y-139454819D02*
X142645238Y-139454819D01*
X142645238Y-139454819D02*
X142788095Y-139502438D01*
X143121429Y-139454819D02*
X143359524Y-140454819D01*
X143359524Y-140454819D02*
X143550000Y-139740533D01*
X143550000Y-139740533D02*
X143740476Y-140454819D01*
X143740476Y-140454819D02*
X143978572Y-139454819D01*
X144835714Y-139454819D02*
X144359524Y-139454819D01*
X144359524Y-139454819D02*
X144311905Y-139931009D01*
X144311905Y-139931009D02*
X144359524Y-139883390D01*
X144359524Y-139883390D02*
X144454762Y-139835771D01*
X144454762Y-139835771D02*
X144692857Y-139835771D01*
X144692857Y-139835771D02*
X144788095Y-139883390D01*
X144788095Y-139883390D02*
X144835714Y-139931009D01*
X144835714Y-139931009D02*
X144883333Y-140026247D01*
X144883333Y-140026247D02*
X144883333Y-140264342D01*
X144883333Y-140264342D02*
X144835714Y-140359580D01*
X144835714Y-140359580D02*
X144788095Y-140407200D01*
X144788095Y-140407200D02*
X144692857Y-140454819D01*
X144692857Y-140454819D02*
X144454762Y-140454819D01*
X144454762Y-140454819D02*
X144359524Y-140407200D01*
X144359524Y-140407200D02*
X144311905Y-140359580D01*
X197852381Y-130807200D02*
X197995238Y-130854819D01*
X197995238Y-130854819D02*
X198233333Y-130854819D01*
X198233333Y-130854819D02*
X198328571Y-130807200D01*
X198328571Y-130807200D02*
X198376190Y-130759580D01*
X198376190Y-130759580D02*
X198423809Y-130664342D01*
X198423809Y-130664342D02*
X198423809Y-130569104D01*
X198423809Y-130569104D02*
X198376190Y-130473866D01*
X198376190Y-130473866D02*
X198328571Y-130426247D01*
X198328571Y-130426247D02*
X198233333Y-130378628D01*
X198233333Y-130378628D02*
X198042857Y-130331009D01*
X198042857Y-130331009D02*
X197947619Y-130283390D01*
X197947619Y-130283390D02*
X197900000Y-130235771D01*
X197900000Y-130235771D02*
X197852381Y-130140533D01*
X197852381Y-130140533D02*
X197852381Y-130045295D01*
X197852381Y-130045295D02*
X197900000Y-129950057D01*
X197900000Y-129950057D02*
X197947619Y-129902438D01*
X197947619Y-129902438D02*
X198042857Y-129854819D01*
X198042857Y-129854819D02*
X198280952Y-129854819D01*
X198280952Y-129854819D02*
X198423809Y-129902438D01*
X198757143Y-129854819D02*
X198995238Y-130854819D01*
X198995238Y-130854819D02*
X199185714Y-130140533D01*
X199185714Y-130140533D02*
X199376190Y-130854819D01*
X199376190Y-130854819D02*
X199614286Y-129854819D01*
X199757143Y-130950057D02*
X200519047Y-130950057D01*
X200757143Y-130854819D02*
X200757143Y-129854819D01*
X200757143Y-129854819D02*
X201138095Y-129854819D01*
X201138095Y-129854819D02*
X201233333Y-129902438D01*
X201233333Y-129902438D02*
X201280952Y-129950057D01*
X201280952Y-129950057D02*
X201328571Y-130045295D01*
X201328571Y-130045295D02*
X201328571Y-130188152D01*
X201328571Y-130188152D02*
X201280952Y-130283390D01*
X201280952Y-130283390D02*
X201233333Y-130331009D01*
X201233333Y-130331009D02*
X201138095Y-130378628D01*
X201138095Y-130378628D02*
X200757143Y-130378628D01*
X202185714Y-130188152D02*
X202185714Y-130854819D01*
X201757143Y-130188152D02*
X201757143Y-130711961D01*
X201757143Y-130711961D02*
X201804762Y-130807200D01*
X201804762Y-130807200D02*
X201900000Y-130854819D01*
X201900000Y-130854819D02*
X202042857Y-130854819D01*
X202042857Y-130854819D02*
X202138095Y-130807200D01*
X202138095Y-130807200D02*
X202185714Y-130759580D01*
X202614286Y-130807200D02*
X202709524Y-130854819D01*
X202709524Y-130854819D02*
X202900000Y-130854819D01*
X202900000Y-130854819D02*
X202995238Y-130807200D01*
X202995238Y-130807200D02*
X203042857Y-130711961D01*
X203042857Y-130711961D02*
X203042857Y-130664342D01*
X203042857Y-130664342D02*
X202995238Y-130569104D01*
X202995238Y-130569104D02*
X202900000Y-130521485D01*
X202900000Y-130521485D02*
X202757143Y-130521485D01*
X202757143Y-130521485D02*
X202661905Y-130473866D01*
X202661905Y-130473866D02*
X202614286Y-130378628D01*
X202614286Y-130378628D02*
X202614286Y-130331009D01*
X202614286Y-130331009D02*
X202661905Y-130235771D01*
X202661905Y-130235771D02*
X202757143Y-130188152D01*
X202757143Y-130188152D02*
X202900000Y-130188152D01*
X202900000Y-130188152D02*
X202995238Y-130235771D01*
X203471429Y-130854819D02*
X203471429Y-129854819D01*
X203900000Y-130854819D02*
X203900000Y-130331009D01*
X203900000Y-130331009D02*
X203852381Y-130235771D01*
X203852381Y-130235771D02*
X203757143Y-130188152D01*
X203757143Y-130188152D02*
X203614286Y-130188152D01*
X203614286Y-130188152D02*
X203519048Y-130235771D01*
X203519048Y-130235771D02*
X203471429Y-130283390D01*
X199090476Y-126657200D02*
X199233333Y-126704819D01*
X199233333Y-126704819D02*
X199471428Y-126704819D01*
X199471428Y-126704819D02*
X199566666Y-126657200D01*
X199566666Y-126657200D02*
X199614285Y-126609580D01*
X199614285Y-126609580D02*
X199661904Y-126514342D01*
X199661904Y-126514342D02*
X199661904Y-126419104D01*
X199661904Y-126419104D02*
X199614285Y-126323866D01*
X199614285Y-126323866D02*
X199566666Y-126276247D01*
X199566666Y-126276247D02*
X199471428Y-126228628D01*
X199471428Y-126228628D02*
X199280952Y-126181009D01*
X199280952Y-126181009D02*
X199185714Y-126133390D01*
X199185714Y-126133390D02*
X199138095Y-126085771D01*
X199138095Y-126085771D02*
X199090476Y-125990533D01*
X199090476Y-125990533D02*
X199090476Y-125895295D01*
X199090476Y-125895295D02*
X199138095Y-125800057D01*
X199138095Y-125800057D02*
X199185714Y-125752438D01*
X199185714Y-125752438D02*
X199280952Y-125704819D01*
X199280952Y-125704819D02*
X199519047Y-125704819D01*
X199519047Y-125704819D02*
X199661904Y-125752438D01*
X199995238Y-125704819D02*
X200233333Y-126704819D01*
X200233333Y-126704819D02*
X200423809Y-125990533D01*
X200423809Y-125990533D02*
X200614285Y-126704819D01*
X200614285Y-126704819D02*
X200852381Y-125704819D01*
X201185714Y-125800057D02*
X201233333Y-125752438D01*
X201233333Y-125752438D02*
X201328571Y-125704819D01*
X201328571Y-125704819D02*
X201566666Y-125704819D01*
X201566666Y-125704819D02*
X201661904Y-125752438D01*
X201661904Y-125752438D02*
X201709523Y-125800057D01*
X201709523Y-125800057D02*
X201757142Y-125895295D01*
X201757142Y-125895295D02*
X201757142Y-125990533D01*
X201757142Y-125990533D02*
X201709523Y-126133390D01*
X201709523Y-126133390D02*
X201138095Y-126704819D01*
X201138095Y-126704819D02*
X201757142Y-126704819D01*
X202376190Y-125704819D02*
X202471428Y-125704819D01*
X202471428Y-125704819D02*
X202566666Y-125752438D01*
X202566666Y-125752438D02*
X202614285Y-125800057D01*
X202614285Y-125800057D02*
X202661904Y-125895295D01*
X202661904Y-125895295D02*
X202709523Y-126085771D01*
X202709523Y-126085771D02*
X202709523Y-126323866D01*
X202709523Y-126323866D02*
X202661904Y-126514342D01*
X202661904Y-126514342D02*
X202614285Y-126609580D01*
X202614285Y-126609580D02*
X202566666Y-126657200D01*
X202566666Y-126657200D02*
X202471428Y-126704819D01*
X202471428Y-126704819D02*
X202376190Y-126704819D01*
X202376190Y-126704819D02*
X202280952Y-126657200D01*
X202280952Y-126657200D02*
X202233333Y-126609580D01*
X202233333Y-126609580D02*
X202185714Y-126514342D01*
X202185714Y-126514342D02*
X202138095Y-126323866D01*
X202138095Y-126323866D02*
X202138095Y-126085771D01*
X202138095Y-126085771D02*
X202185714Y-125895295D01*
X202185714Y-125895295D02*
X202233333Y-125800057D01*
X202233333Y-125800057D02*
X202280952Y-125752438D01*
X202280952Y-125752438D02*
X202376190Y-125704819D01*
X198002381Y-144557200D02*
X198145238Y-144604819D01*
X198145238Y-144604819D02*
X198383333Y-144604819D01*
X198383333Y-144604819D02*
X198478571Y-144557200D01*
X198478571Y-144557200D02*
X198526190Y-144509580D01*
X198526190Y-144509580D02*
X198573809Y-144414342D01*
X198573809Y-144414342D02*
X198573809Y-144319104D01*
X198573809Y-144319104D02*
X198526190Y-144223866D01*
X198526190Y-144223866D02*
X198478571Y-144176247D01*
X198478571Y-144176247D02*
X198383333Y-144128628D01*
X198383333Y-144128628D02*
X198192857Y-144081009D01*
X198192857Y-144081009D02*
X198097619Y-144033390D01*
X198097619Y-144033390D02*
X198050000Y-143985771D01*
X198050000Y-143985771D02*
X198002381Y-143890533D01*
X198002381Y-143890533D02*
X198002381Y-143795295D01*
X198002381Y-143795295D02*
X198050000Y-143700057D01*
X198050000Y-143700057D02*
X198097619Y-143652438D01*
X198097619Y-143652438D02*
X198192857Y-143604819D01*
X198192857Y-143604819D02*
X198430952Y-143604819D01*
X198430952Y-143604819D02*
X198573809Y-143652438D01*
X198907143Y-143604819D02*
X199145238Y-144604819D01*
X199145238Y-144604819D02*
X199335714Y-143890533D01*
X199335714Y-143890533D02*
X199526190Y-144604819D01*
X199526190Y-144604819D02*
X199764286Y-143604819D01*
X199907143Y-144700057D02*
X200669047Y-144700057D01*
X200907143Y-144604819D02*
X200907143Y-143604819D01*
X200907143Y-143604819D02*
X201288095Y-143604819D01*
X201288095Y-143604819D02*
X201383333Y-143652438D01*
X201383333Y-143652438D02*
X201430952Y-143700057D01*
X201430952Y-143700057D02*
X201478571Y-143795295D01*
X201478571Y-143795295D02*
X201478571Y-143938152D01*
X201478571Y-143938152D02*
X201430952Y-144033390D01*
X201430952Y-144033390D02*
X201383333Y-144081009D01*
X201383333Y-144081009D02*
X201288095Y-144128628D01*
X201288095Y-144128628D02*
X200907143Y-144128628D01*
X202335714Y-143938152D02*
X202335714Y-144604819D01*
X201907143Y-143938152D02*
X201907143Y-144461961D01*
X201907143Y-144461961D02*
X201954762Y-144557200D01*
X201954762Y-144557200D02*
X202050000Y-144604819D01*
X202050000Y-144604819D02*
X202192857Y-144604819D01*
X202192857Y-144604819D02*
X202288095Y-144557200D01*
X202288095Y-144557200D02*
X202335714Y-144509580D01*
X202764286Y-144557200D02*
X202859524Y-144604819D01*
X202859524Y-144604819D02*
X203050000Y-144604819D01*
X203050000Y-144604819D02*
X203145238Y-144557200D01*
X203145238Y-144557200D02*
X203192857Y-144461961D01*
X203192857Y-144461961D02*
X203192857Y-144414342D01*
X203192857Y-144414342D02*
X203145238Y-144319104D01*
X203145238Y-144319104D02*
X203050000Y-144271485D01*
X203050000Y-144271485D02*
X202907143Y-144271485D01*
X202907143Y-144271485D02*
X202811905Y-144223866D01*
X202811905Y-144223866D02*
X202764286Y-144128628D01*
X202764286Y-144128628D02*
X202764286Y-144081009D01*
X202764286Y-144081009D02*
X202811905Y-143985771D01*
X202811905Y-143985771D02*
X202907143Y-143938152D01*
X202907143Y-143938152D02*
X203050000Y-143938152D01*
X203050000Y-143938152D02*
X203145238Y-143985771D01*
X203621429Y-144604819D02*
X203621429Y-143604819D01*
X204050000Y-144604819D02*
X204050000Y-144081009D01*
X204050000Y-144081009D02*
X204002381Y-143985771D01*
X204002381Y-143985771D02*
X203907143Y-143938152D01*
X203907143Y-143938152D02*
X203764286Y-143938152D01*
X203764286Y-143938152D02*
X203669048Y-143985771D01*
X203669048Y-143985771D02*
X203621429Y-144033390D01*
X199240476Y-140407200D02*
X199383333Y-140454819D01*
X199383333Y-140454819D02*
X199621428Y-140454819D01*
X199621428Y-140454819D02*
X199716666Y-140407200D01*
X199716666Y-140407200D02*
X199764285Y-140359580D01*
X199764285Y-140359580D02*
X199811904Y-140264342D01*
X199811904Y-140264342D02*
X199811904Y-140169104D01*
X199811904Y-140169104D02*
X199764285Y-140073866D01*
X199764285Y-140073866D02*
X199716666Y-140026247D01*
X199716666Y-140026247D02*
X199621428Y-139978628D01*
X199621428Y-139978628D02*
X199430952Y-139931009D01*
X199430952Y-139931009D02*
X199335714Y-139883390D01*
X199335714Y-139883390D02*
X199288095Y-139835771D01*
X199288095Y-139835771D02*
X199240476Y-139740533D01*
X199240476Y-139740533D02*
X199240476Y-139645295D01*
X199240476Y-139645295D02*
X199288095Y-139550057D01*
X199288095Y-139550057D02*
X199335714Y-139502438D01*
X199335714Y-139502438D02*
X199430952Y-139454819D01*
X199430952Y-139454819D02*
X199669047Y-139454819D01*
X199669047Y-139454819D02*
X199811904Y-139502438D01*
X200145238Y-139454819D02*
X200383333Y-140454819D01*
X200383333Y-140454819D02*
X200573809Y-139740533D01*
X200573809Y-139740533D02*
X200764285Y-140454819D01*
X200764285Y-140454819D02*
X201002381Y-139454819D01*
X201335714Y-139550057D02*
X201383333Y-139502438D01*
X201383333Y-139502438D02*
X201478571Y-139454819D01*
X201478571Y-139454819D02*
X201716666Y-139454819D01*
X201716666Y-139454819D02*
X201811904Y-139502438D01*
X201811904Y-139502438D02*
X201859523Y-139550057D01*
X201859523Y-139550057D02*
X201907142Y-139645295D01*
X201907142Y-139645295D02*
X201907142Y-139740533D01*
X201907142Y-139740533D02*
X201859523Y-139883390D01*
X201859523Y-139883390D02*
X201288095Y-140454819D01*
X201288095Y-140454819D02*
X201907142Y-140454819D01*
X202859523Y-140454819D02*
X202288095Y-140454819D01*
X202573809Y-140454819D02*
X202573809Y-139454819D01*
X202573809Y-139454819D02*
X202478571Y-139597676D01*
X202478571Y-139597676D02*
X202383333Y-139692914D01*
X202383333Y-139692914D02*
X202288095Y-139740533D01*
X184052381Y-106307200D02*
X184195238Y-106354819D01*
X184195238Y-106354819D02*
X184433333Y-106354819D01*
X184433333Y-106354819D02*
X184528571Y-106307200D01*
X184528571Y-106307200D02*
X184576190Y-106259580D01*
X184576190Y-106259580D02*
X184623809Y-106164342D01*
X184623809Y-106164342D02*
X184623809Y-106069104D01*
X184623809Y-106069104D02*
X184576190Y-105973866D01*
X184576190Y-105973866D02*
X184528571Y-105926247D01*
X184528571Y-105926247D02*
X184433333Y-105878628D01*
X184433333Y-105878628D02*
X184242857Y-105831009D01*
X184242857Y-105831009D02*
X184147619Y-105783390D01*
X184147619Y-105783390D02*
X184100000Y-105735771D01*
X184100000Y-105735771D02*
X184052381Y-105640533D01*
X184052381Y-105640533D02*
X184052381Y-105545295D01*
X184052381Y-105545295D02*
X184100000Y-105450057D01*
X184100000Y-105450057D02*
X184147619Y-105402438D01*
X184147619Y-105402438D02*
X184242857Y-105354819D01*
X184242857Y-105354819D02*
X184480952Y-105354819D01*
X184480952Y-105354819D02*
X184623809Y-105402438D01*
X184957143Y-105354819D02*
X185195238Y-106354819D01*
X185195238Y-106354819D02*
X185385714Y-105640533D01*
X185385714Y-105640533D02*
X185576190Y-106354819D01*
X185576190Y-106354819D02*
X185814286Y-105354819D01*
X185957143Y-106450057D02*
X186719047Y-106450057D01*
X186957143Y-106354819D02*
X186957143Y-105354819D01*
X186957143Y-105354819D02*
X187338095Y-105354819D01*
X187338095Y-105354819D02*
X187433333Y-105402438D01*
X187433333Y-105402438D02*
X187480952Y-105450057D01*
X187480952Y-105450057D02*
X187528571Y-105545295D01*
X187528571Y-105545295D02*
X187528571Y-105688152D01*
X187528571Y-105688152D02*
X187480952Y-105783390D01*
X187480952Y-105783390D02*
X187433333Y-105831009D01*
X187433333Y-105831009D02*
X187338095Y-105878628D01*
X187338095Y-105878628D02*
X186957143Y-105878628D01*
X188385714Y-105688152D02*
X188385714Y-106354819D01*
X187957143Y-105688152D02*
X187957143Y-106211961D01*
X187957143Y-106211961D02*
X188004762Y-106307200D01*
X188004762Y-106307200D02*
X188100000Y-106354819D01*
X188100000Y-106354819D02*
X188242857Y-106354819D01*
X188242857Y-106354819D02*
X188338095Y-106307200D01*
X188338095Y-106307200D02*
X188385714Y-106259580D01*
X188814286Y-106307200D02*
X188909524Y-106354819D01*
X188909524Y-106354819D02*
X189100000Y-106354819D01*
X189100000Y-106354819D02*
X189195238Y-106307200D01*
X189195238Y-106307200D02*
X189242857Y-106211961D01*
X189242857Y-106211961D02*
X189242857Y-106164342D01*
X189242857Y-106164342D02*
X189195238Y-106069104D01*
X189195238Y-106069104D02*
X189100000Y-106021485D01*
X189100000Y-106021485D02*
X188957143Y-106021485D01*
X188957143Y-106021485D02*
X188861905Y-105973866D01*
X188861905Y-105973866D02*
X188814286Y-105878628D01*
X188814286Y-105878628D02*
X188814286Y-105831009D01*
X188814286Y-105831009D02*
X188861905Y-105735771D01*
X188861905Y-105735771D02*
X188957143Y-105688152D01*
X188957143Y-105688152D02*
X189100000Y-105688152D01*
X189100000Y-105688152D02*
X189195238Y-105735771D01*
X189671429Y-106354819D02*
X189671429Y-105354819D01*
X190100000Y-106354819D02*
X190100000Y-105831009D01*
X190100000Y-105831009D02*
X190052381Y-105735771D01*
X190052381Y-105735771D02*
X189957143Y-105688152D01*
X189957143Y-105688152D02*
X189814286Y-105688152D01*
X189814286Y-105688152D02*
X189719048Y-105735771D01*
X189719048Y-105735771D02*
X189671429Y-105783390D01*
X185290476Y-102157200D02*
X185433333Y-102204819D01*
X185433333Y-102204819D02*
X185671428Y-102204819D01*
X185671428Y-102204819D02*
X185766666Y-102157200D01*
X185766666Y-102157200D02*
X185814285Y-102109580D01*
X185814285Y-102109580D02*
X185861904Y-102014342D01*
X185861904Y-102014342D02*
X185861904Y-101919104D01*
X185861904Y-101919104D02*
X185814285Y-101823866D01*
X185814285Y-101823866D02*
X185766666Y-101776247D01*
X185766666Y-101776247D02*
X185671428Y-101728628D01*
X185671428Y-101728628D02*
X185480952Y-101681009D01*
X185480952Y-101681009D02*
X185385714Y-101633390D01*
X185385714Y-101633390D02*
X185338095Y-101585771D01*
X185338095Y-101585771D02*
X185290476Y-101490533D01*
X185290476Y-101490533D02*
X185290476Y-101395295D01*
X185290476Y-101395295D02*
X185338095Y-101300057D01*
X185338095Y-101300057D02*
X185385714Y-101252438D01*
X185385714Y-101252438D02*
X185480952Y-101204819D01*
X185480952Y-101204819D02*
X185719047Y-101204819D01*
X185719047Y-101204819D02*
X185861904Y-101252438D01*
X186195238Y-101204819D02*
X186433333Y-102204819D01*
X186433333Y-102204819D02*
X186623809Y-101490533D01*
X186623809Y-101490533D02*
X186814285Y-102204819D01*
X186814285Y-102204819D02*
X187052381Y-101204819D01*
X187957142Y-102204819D02*
X187385714Y-102204819D01*
X187671428Y-102204819D02*
X187671428Y-101204819D01*
X187671428Y-101204819D02*
X187576190Y-101347676D01*
X187576190Y-101347676D02*
X187480952Y-101442914D01*
X187480952Y-101442914D02*
X187385714Y-101490533D01*
X188814285Y-101538152D02*
X188814285Y-102204819D01*
X188576190Y-101157200D02*
X188338095Y-101871485D01*
X188338095Y-101871485D02*
X188957142Y-101871485D01*
X155102381Y-130807200D02*
X155245238Y-130854819D01*
X155245238Y-130854819D02*
X155483333Y-130854819D01*
X155483333Y-130854819D02*
X155578571Y-130807200D01*
X155578571Y-130807200D02*
X155626190Y-130759580D01*
X155626190Y-130759580D02*
X155673809Y-130664342D01*
X155673809Y-130664342D02*
X155673809Y-130569104D01*
X155673809Y-130569104D02*
X155626190Y-130473866D01*
X155626190Y-130473866D02*
X155578571Y-130426247D01*
X155578571Y-130426247D02*
X155483333Y-130378628D01*
X155483333Y-130378628D02*
X155292857Y-130331009D01*
X155292857Y-130331009D02*
X155197619Y-130283390D01*
X155197619Y-130283390D02*
X155150000Y-130235771D01*
X155150000Y-130235771D02*
X155102381Y-130140533D01*
X155102381Y-130140533D02*
X155102381Y-130045295D01*
X155102381Y-130045295D02*
X155150000Y-129950057D01*
X155150000Y-129950057D02*
X155197619Y-129902438D01*
X155197619Y-129902438D02*
X155292857Y-129854819D01*
X155292857Y-129854819D02*
X155530952Y-129854819D01*
X155530952Y-129854819D02*
X155673809Y-129902438D01*
X156007143Y-129854819D02*
X156245238Y-130854819D01*
X156245238Y-130854819D02*
X156435714Y-130140533D01*
X156435714Y-130140533D02*
X156626190Y-130854819D01*
X156626190Y-130854819D02*
X156864286Y-129854819D01*
X157007143Y-130950057D02*
X157769047Y-130950057D01*
X158007143Y-130854819D02*
X158007143Y-129854819D01*
X158007143Y-129854819D02*
X158388095Y-129854819D01*
X158388095Y-129854819D02*
X158483333Y-129902438D01*
X158483333Y-129902438D02*
X158530952Y-129950057D01*
X158530952Y-129950057D02*
X158578571Y-130045295D01*
X158578571Y-130045295D02*
X158578571Y-130188152D01*
X158578571Y-130188152D02*
X158530952Y-130283390D01*
X158530952Y-130283390D02*
X158483333Y-130331009D01*
X158483333Y-130331009D02*
X158388095Y-130378628D01*
X158388095Y-130378628D02*
X158007143Y-130378628D01*
X159435714Y-130188152D02*
X159435714Y-130854819D01*
X159007143Y-130188152D02*
X159007143Y-130711961D01*
X159007143Y-130711961D02*
X159054762Y-130807200D01*
X159054762Y-130807200D02*
X159150000Y-130854819D01*
X159150000Y-130854819D02*
X159292857Y-130854819D01*
X159292857Y-130854819D02*
X159388095Y-130807200D01*
X159388095Y-130807200D02*
X159435714Y-130759580D01*
X159864286Y-130807200D02*
X159959524Y-130854819D01*
X159959524Y-130854819D02*
X160150000Y-130854819D01*
X160150000Y-130854819D02*
X160245238Y-130807200D01*
X160245238Y-130807200D02*
X160292857Y-130711961D01*
X160292857Y-130711961D02*
X160292857Y-130664342D01*
X160292857Y-130664342D02*
X160245238Y-130569104D01*
X160245238Y-130569104D02*
X160150000Y-130521485D01*
X160150000Y-130521485D02*
X160007143Y-130521485D01*
X160007143Y-130521485D02*
X159911905Y-130473866D01*
X159911905Y-130473866D02*
X159864286Y-130378628D01*
X159864286Y-130378628D02*
X159864286Y-130331009D01*
X159864286Y-130331009D02*
X159911905Y-130235771D01*
X159911905Y-130235771D02*
X160007143Y-130188152D01*
X160007143Y-130188152D02*
X160150000Y-130188152D01*
X160150000Y-130188152D02*
X160245238Y-130235771D01*
X160721429Y-130854819D02*
X160721429Y-129854819D01*
X161150000Y-130854819D02*
X161150000Y-130331009D01*
X161150000Y-130331009D02*
X161102381Y-130235771D01*
X161102381Y-130235771D02*
X161007143Y-130188152D01*
X161007143Y-130188152D02*
X160864286Y-130188152D01*
X160864286Y-130188152D02*
X160769048Y-130235771D01*
X160769048Y-130235771D02*
X160721429Y-130283390D01*
X156816667Y-126657200D02*
X156959524Y-126704819D01*
X156959524Y-126704819D02*
X157197619Y-126704819D01*
X157197619Y-126704819D02*
X157292857Y-126657200D01*
X157292857Y-126657200D02*
X157340476Y-126609580D01*
X157340476Y-126609580D02*
X157388095Y-126514342D01*
X157388095Y-126514342D02*
X157388095Y-126419104D01*
X157388095Y-126419104D02*
X157340476Y-126323866D01*
X157340476Y-126323866D02*
X157292857Y-126276247D01*
X157292857Y-126276247D02*
X157197619Y-126228628D01*
X157197619Y-126228628D02*
X157007143Y-126181009D01*
X157007143Y-126181009D02*
X156911905Y-126133390D01*
X156911905Y-126133390D02*
X156864286Y-126085771D01*
X156864286Y-126085771D02*
X156816667Y-125990533D01*
X156816667Y-125990533D02*
X156816667Y-125895295D01*
X156816667Y-125895295D02*
X156864286Y-125800057D01*
X156864286Y-125800057D02*
X156911905Y-125752438D01*
X156911905Y-125752438D02*
X157007143Y-125704819D01*
X157007143Y-125704819D02*
X157245238Y-125704819D01*
X157245238Y-125704819D02*
X157388095Y-125752438D01*
X157721429Y-125704819D02*
X157959524Y-126704819D01*
X157959524Y-126704819D02*
X158150000Y-125990533D01*
X158150000Y-125990533D02*
X158340476Y-126704819D01*
X158340476Y-126704819D02*
X158578572Y-125704819D01*
X159102381Y-126133390D02*
X159007143Y-126085771D01*
X159007143Y-126085771D02*
X158959524Y-126038152D01*
X158959524Y-126038152D02*
X158911905Y-125942914D01*
X158911905Y-125942914D02*
X158911905Y-125895295D01*
X158911905Y-125895295D02*
X158959524Y-125800057D01*
X158959524Y-125800057D02*
X159007143Y-125752438D01*
X159007143Y-125752438D02*
X159102381Y-125704819D01*
X159102381Y-125704819D02*
X159292857Y-125704819D01*
X159292857Y-125704819D02*
X159388095Y-125752438D01*
X159388095Y-125752438D02*
X159435714Y-125800057D01*
X159435714Y-125800057D02*
X159483333Y-125895295D01*
X159483333Y-125895295D02*
X159483333Y-125942914D01*
X159483333Y-125942914D02*
X159435714Y-126038152D01*
X159435714Y-126038152D02*
X159388095Y-126085771D01*
X159388095Y-126085771D02*
X159292857Y-126133390D01*
X159292857Y-126133390D02*
X159102381Y-126133390D01*
X159102381Y-126133390D02*
X159007143Y-126181009D01*
X159007143Y-126181009D02*
X158959524Y-126228628D01*
X158959524Y-126228628D02*
X158911905Y-126323866D01*
X158911905Y-126323866D02*
X158911905Y-126514342D01*
X158911905Y-126514342D02*
X158959524Y-126609580D01*
X158959524Y-126609580D02*
X159007143Y-126657200D01*
X159007143Y-126657200D02*
X159102381Y-126704819D01*
X159102381Y-126704819D02*
X159292857Y-126704819D01*
X159292857Y-126704819D02*
X159388095Y-126657200D01*
X159388095Y-126657200D02*
X159435714Y-126609580D01*
X159435714Y-126609580D02*
X159483333Y-126514342D01*
X159483333Y-126514342D02*
X159483333Y-126323866D01*
X159483333Y-126323866D02*
X159435714Y-126228628D01*
X159435714Y-126228628D02*
X159388095Y-126181009D01*
X159388095Y-126181009D02*
X159292857Y-126133390D01*
X151741009Y-60049356D02*
X151788628Y-59906499D01*
X151788628Y-59906499D02*
X151836247Y-59858880D01*
X151836247Y-59858880D02*
X151931485Y-59811261D01*
X151931485Y-59811261D02*
X152074342Y-59811261D01*
X152074342Y-59811261D02*
X152169580Y-59858880D01*
X152169580Y-59858880D02*
X152217200Y-59906499D01*
X152217200Y-59906499D02*
X152264819Y-60001737D01*
X152264819Y-60001737D02*
X152264819Y-60382689D01*
X152264819Y-60382689D02*
X151264819Y-60382689D01*
X151264819Y-60382689D02*
X151264819Y-60049356D01*
X151264819Y-60049356D02*
X151312438Y-59954118D01*
X151312438Y-59954118D02*
X151360057Y-59906499D01*
X151360057Y-59906499D02*
X151455295Y-59858880D01*
X151455295Y-59858880D02*
X151550533Y-59858880D01*
X151550533Y-59858880D02*
X151645771Y-59906499D01*
X151645771Y-59906499D02*
X151693390Y-59954118D01*
X151693390Y-59954118D02*
X151741009Y-60049356D01*
X151741009Y-60049356D02*
X151741009Y-60382689D01*
X151598152Y-58954118D02*
X152264819Y-58954118D01*
X151598152Y-59382689D02*
X152121961Y-59382689D01*
X152121961Y-59382689D02*
X152217200Y-59335070D01*
X152217200Y-59335070D02*
X152264819Y-59239832D01*
X152264819Y-59239832D02*
X152264819Y-59096975D01*
X152264819Y-59096975D02*
X152217200Y-59001737D01*
X152217200Y-59001737D02*
X152169580Y-58954118D01*
X151598152Y-58573165D02*
X151598152Y-58049356D01*
X151598152Y-58049356D02*
X152264819Y-58573165D01*
X152264819Y-58573165D02*
X152264819Y-58049356D01*
X151598152Y-57763641D02*
X151598152Y-57239832D01*
X151598152Y-57239832D02*
X152264819Y-57763641D01*
X152264819Y-57763641D02*
X152264819Y-57239832D01*
X152217200Y-56477927D02*
X152264819Y-56573165D01*
X152264819Y-56573165D02*
X152264819Y-56763641D01*
X152264819Y-56763641D02*
X152217200Y-56858879D01*
X152217200Y-56858879D02*
X152121961Y-56906498D01*
X152121961Y-56906498D02*
X151741009Y-56906498D01*
X151741009Y-56906498D02*
X151645771Y-56858879D01*
X151645771Y-56858879D02*
X151598152Y-56763641D01*
X151598152Y-56763641D02*
X151598152Y-56573165D01*
X151598152Y-56573165D02*
X151645771Y-56477927D01*
X151645771Y-56477927D02*
X151741009Y-56430308D01*
X151741009Y-56430308D02*
X151836247Y-56430308D01*
X151836247Y-56430308D02*
X151931485Y-56906498D01*
X152264819Y-56001736D02*
X151598152Y-56001736D01*
X151788628Y-56001736D02*
X151693390Y-55954117D01*
X151693390Y-55954117D02*
X151645771Y-55906498D01*
X151645771Y-55906498D02*
X151598152Y-55811260D01*
X151598152Y-55811260D02*
X151598152Y-55716022D01*
X142001009Y-59001737D02*
X142048628Y-58858880D01*
X142048628Y-58858880D02*
X142096247Y-58811261D01*
X142096247Y-58811261D02*
X142191485Y-58763642D01*
X142191485Y-58763642D02*
X142334342Y-58763642D01*
X142334342Y-58763642D02*
X142429580Y-58811261D01*
X142429580Y-58811261D02*
X142477200Y-58858880D01*
X142477200Y-58858880D02*
X142524819Y-58954118D01*
X142524819Y-58954118D02*
X142524819Y-59335070D01*
X142524819Y-59335070D02*
X141524819Y-59335070D01*
X141524819Y-59335070D02*
X141524819Y-59001737D01*
X141524819Y-59001737D02*
X141572438Y-58906499D01*
X141572438Y-58906499D02*
X141620057Y-58858880D01*
X141620057Y-58858880D02*
X141715295Y-58811261D01*
X141715295Y-58811261D02*
X141810533Y-58811261D01*
X141810533Y-58811261D02*
X141905771Y-58858880D01*
X141905771Y-58858880D02*
X141953390Y-58906499D01*
X141953390Y-58906499D02*
X142001009Y-59001737D01*
X142001009Y-59001737D02*
X142001009Y-59335070D01*
X141524819Y-58430308D02*
X141524819Y-57763642D01*
X141524819Y-57763642D02*
X142524819Y-58430308D01*
X142524819Y-58430308D02*
X142524819Y-57763642D01*
X142524819Y-56858880D02*
X142524819Y-57430308D01*
X142524819Y-57144594D02*
X141524819Y-57144594D01*
X141524819Y-57144594D02*
X141667676Y-57239832D01*
X141667676Y-57239832D02*
X141762914Y-57335070D01*
X141762914Y-57335070D02*
X141810533Y-57430308D01*
X185751786Y-85374819D02*
X186370833Y-85374819D01*
X186370833Y-85374819D02*
X186037500Y-85755771D01*
X186037500Y-85755771D02*
X186180357Y-85755771D01*
X186180357Y-85755771D02*
X186275595Y-85803390D01*
X186275595Y-85803390D02*
X186323214Y-85851009D01*
X186323214Y-85851009D02*
X186370833Y-85946247D01*
X186370833Y-85946247D02*
X186370833Y-86184342D01*
X186370833Y-86184342D02*
X186323214Y-86279580D01*
X186323214Y-86279580D02*
X186275595Y-86327200D01*
X186275595Y-86327200D02*
X186180357Y-86374819D01*
X186180357Y-86374819D02*
X185894643Y-86374819D01*
X185894643Y-86374819D02*
X185799405Y-86327200D01*
X185799405Y-86327200D02*
X185751786Y-86279580D01*
X186989881Y-85374819D02*
X187085119Y-85374819D01*
X187085119Y-85374819D02*
X187180357Y-85422438D01*
X187180357Y-85422438D02*
X187227976Y-85470057D01*
X187227976Y-85470057D02*
X187275595Y-85565295D01*
X187275595Y-85565295D02*
X187323214Y-85755771D01*
X187323214Y-85755771D02*
X187323214Y-85993866D01*
X187323214Y-85993866D02*
X187275595Y-86184342D01*
X187275595Y-86184342D02*
X187227976Y-86279580D01*
X187227976Y-86279580D02*
X187180357Y-86327200D01*
X187180357Y-86327200D02*
X187085119Y-86374819D01*
X187085119Y-86374819D02*
X186989881Y-86374819D01*
X186989881Y-86374819D02*
X186894643Y-86327200D01*
X186894643Y-86327200D02*
X186847024Y-86279580D01*
X186847024Y-86279580D02*
X186799405Y-86184342D01*
X186799405Y-86184342D02*
X186751786Y-85993866D01*
X186751786Y-85993866D02*
X186751786Y-85755771D01*
X186751786Y-85755771D02*
X186799405Y-85565295D01*
X186799405Y-85565295D02*
X186847024Y-85470057D01*
X186847024Y-85470057D02*
X186894643Y-85422438D01*
X186894643Y-85422438D02*
X186989881Y-85374819D01*
X187942262Y-85374819D02*
X188037500Y-85374819D01*
X188037500Y-85374819D02*
X188132738Y-85422438D01*
X188132738Y-85422438D02*
X188180357Y-85470057D01*
X188180357Y-85470057D02*
X188227976Y-85565295D01*
X188227976Y-85565295D02*
X188275595Y-85755771D01*
X188275595Y-85755771D02*
X188275595Y-85993866D01*
X188275595Y-85993866D02*
X188227976Y-86184342D01*
X188227976Y-86184342D02*
X188180357Y-86279580D01*
X188180357Y-86279580D02*
X188132738Y-86327200D01*
X188132738Y-86327200D02*
X188037500Y-86374819D01*
X188037500Y-86374819D02*
X187942262Y-86374819D01*
X187942262Y-86374819D02*
X187847024Y-86327200D01*
X187847024Y-86327200D02*
X187799405Y-86279580D01*
X187799405Y-86279580D02*
X187751786Y-86184342D01*
X187751786Y-86184342D02*
X187704167Y-85993866D01*
X187704167Y-85993866D02*
X187704167Y-85755771D01*
X187704167Y-85755771D02*
X187751786Y-85565295D01*
X187751786Y-85565295D02*
X187799405Y-85470057D01*
X187799405Y-85470057D02*
X187847024Y-85422438D01*
X187847024Y-85422438D02*
X187942262Y-85374819D01*
X189275595Y-86374819D02*
X188942262Y-85898628D01*
X188704167Y-86374819D02*
X188704167Y-85374819D01*
X188704167Y-85374819D02*
X189085119Y-85374819D01*
X189085119Y-85374819D02*
X189180357Y-85422438D01*
X189180357Y-85422438D02*
X189227976Y-85470057D01*
X189227976Y-85470057D02*
X189275595Y-85565295D01*
X189275595Y-85565295D02*
X189275595Y-85708152D01*
X189275595Y-85708152D02*
X189227976Y-85803390D01*
X189227976Y-85803390D02*
X189180357Y-85851009D01*
X189180357Y-85851009D02*
X189085119Y-85898628D01*
X189085119Y-85898628D02*
X188704167Y-85898628D01*
D12*
X187404167Y-88113855D02*
X187137500Y-87732902D01*
X186947024Y-88113855D02*
X186947024Y-87313855D01*
X186947024Y-87313855D02*
X187251786Y-87313855D01*
X187251786Y-87313855D02*
X187327976Y-87351950D01*
X187327976Y-87351950D02*
X187366071Y-87390045D01*
X187366071Y-87390045D02*
X187404167Y-87466236D01*
X187404167Y-87466236D02*
X187404167Y-87580521D01*
X187404167Y-87580521D02*
X187366071Y-87656712D01*
X187366071Y-87656712D02*
X187327976Y-87694807D01*
X187327976Y-87694807D02*
X187251786Y-87732902D01*
X187251786Y-87732902D02*
X186947024Y-87732902D01*
X187708928Y-87390045D02*
X187747024Y-87351950D01*
X187747024Y-87351950D02*
X187823214Y-87313855D01*
X187823214Y-87313855D02*
X188013690Y-87313855D01*
X188013690Y-87313855D02*
X188089881Y-87351950D01*
X188089881Y-87351950D02*
X188127976Y-87390045D01*
X188127976Y-87390045D02*
X188166071Y-87466236D01*
X188166071Y-87466236D02*
X188166071Y-87542426D01*
X188166071Y-87542426D02*
X188127976Y-87656712D01*
X188127976Y-87656712D02*
X187670833Y-88113855D01*
X187670833Y-88113855D02*
X188166071Y-88113855D01*
D10*
X204502438Y-46666666D02*
X204454819Y-46761904D01*
X204454819Y-46761904D02*
X204454819Y-46904761D01*
X204454819Y-46904761D02*
X204502438Y-47047618D01*
X204502438Y-47047618D02*
X204597676Y-47142856D01*
X204597676Y-47142856D02*
X204692914Y-47190475D01*
X204692914Y-47190475D02*
X204883390Y-47238094D01*
X204883390Y-47238094D02*
X205026247Y-47238094D01*
X205026247Y-47238094D02*
X205216723Y-47190475D01*
X205216723Y-47190475D02*
X205311961Y-47142856D01*
X205311961Y-47142856D02*
X205407200Y-47047618D01*
X205407200Y-47047618D02*
X205454819Y-46904761D01*
X205454819Y-46904761D02*
X205454819Y-46809523D01*
X205454819Y-46809523D02*
X205407200Y-46666666D01*
X205407200Y-46666666D02*
X205359580Y-46619047D01*
X205359580Y-46619047D02*
X205026247Y-46619047D01*
X205026247Y-46619047D02*
X205026247Y-46809523D01*
X205454819Y-45619047D02*
X204978628Y-45952380D01*
X205454819Y-46190475D02*
X204454819Y-46190475D01*
X204454819Y-46190475D02*
X204454819Y-45809523D01*
X204454819Y-45809523D02*
X204502438Y-45714285D01*
X204502438Y-45714285D02*
X204550057Y-45666666D01*
X204550057Y-45666666D02*
X204645295Y-45619047D01*
X204645295Y-45619047D02*
X204788152Y-45619047D01*
X204788152Y-45619047D02*
X204883390Y-45666666D01*
X204883390Y-45666666D02*
X204931009Y-45714285D01*
X204931009Y-45714285D02*
X204978628Y-45809523D01*
X204978628Y-45809523D02*
X204978628Y-46190475D01*
X204931009Y-45190475D02*
X204931009Y-44857142D01*
X205454819Y-44714285D02*
X205454819Y-45190475D01*
X205454819Y-45190475D02*
X204454819Y-45190475D01*
X204454819Y-45190475D02*
X204454819Y-44714285D01*
X204931009Y-44285713D02*
X204931009Y-43952380D01*
X205454819Y-43809523D02*
X205454819Y-44285713D01*
X205454819Y-44285713D02*
X204454819Y-44285713D01*
X204454819Y-44285713D02*
X204454819Y-43809523D01*
X205454819Y-43380951D02*
X204454819Y-43380951D01*
X204454819Y-43380951D02*
X205454819Y-42809523D01*
X205454819Y-42809523D02*
X204454819Y-42809523D01*
X203204819Y-45988094D02*
X202204819Y-45988094D01*
X202204819Y-45988094D02*
X202204819Y-45749999D01*
X202204819Y-45749999D02*
X202252438Y-45607142D01*
X202252438Y-45607142D02*
X202347676Y-45511904D01*
X202347676Y-45511904D02*
X202442914Y-45464285D01*
X202442914Y-45464285D02*
X202633390Y-45416666D01*
X202633390Y-45416666D02*
X202776247Y-45416666D01*
X202776247Y-45416666D02*
X202966723Y-45464285D01*
X202966723Y-45464285D02*
X203061961Y-45511904D01*
X203061961Y-45511904D02*
X203157200Y-45607142D01*
X203157200Y-45607142D02*
X203204819Y-45749999D01*
X203204819Y-45749999D02*
X203204819Y-45988094D01*
X202300057Y-45035713D02*
X202252438Y-44988094D01*
X202252438Y-44988094D02*
X202204819Y-44892856D01*
X202204819Y-44892856D02*
X202204819Y-44654761D01*
X202204819Y-44654761D02*
X202252438Y-44559523D01*
X202252438Y-44559523D02*
X202300057Y-44511904D01*
X202300057Y-44511904D02*
X202395295Y-44464285D01*
X202395295Y-44464285D02*
X202490533Y-44464285D01*
X202490533Y-44464285D02*
X202633390Y-44511904D01*
X202633390Y-44511904D02*
X203204819Y-45083332D01*
X203204819Y-45083332D02*
X203204819Y-44464285D01*
X140502381Y-118307200D02*
X140645238Y-118354819D01*
X140645238Y-118354819D02*
X140883333Y-118354819D01*
X140883333Y-118354819D02*
X140978571Y-118307200D01*
X140978571Y-118307200D02*
X141026190Y-118259580D01*
X141026190Y-118259580D02*
X141073809Y-118164342D01*
X141073809Y-118164342D02*
X141073809Y-118069104D01*
X141073809Y-118069104D02*
X141026190Y-117973866D01*
X141026190Y-117973866D02*
X140978571Y-117926247D01*
X140978571Y-117926247D02*
X140883333Y-117878628D01*
X140883333Y-117878628D02*
X140692857Y-117831009D01*
X140692857Y-117831009D02*
X140597619Y-117783390D01*
X140597619Y-117783390D02*
X140550000Y-117735771D01*
X140550000Y-117735771D02*
X140502381Y-117640533D01*
X140502381Y-117640533D02*
X140502381Y-117545295D01*
X140502381Y-117545295D02*
X140550000Y-117450057D01*
X140550000Y-117450057D02*
X140597619Y-117402438D01*
X140597619Y-117402438D02*
X140692857Y-117354819D01*
X140692857Y-117354819D02*
X140930952Y-117354819D01*
X140930952Y-117354819D02*
X141073809Y-117402438D01*
X141407143Y-117354819D02*
X141645238Y-118354819D01*
X141645238Y-118354819D02*
X141835714Y-117640533D01*
X141835714Y-117640533D02*
X142026190Y-118354819D01*
X142026190Y-118354819D02*
X142264286Y-117354819D01*
X142407143Y-118450057D02*
X143169047Y-118450057D01*
X143407143Y-118354819D02*
X143407143Y-117354819D01*
X143407143Y-117354819D02*
X143788095Y-117354819D01*
X143788095Y-117354819D02*
X143883333Y-117402438D01*
X143883333Y-117402438D02*
X143930952Y-117450057D01*
X143930952Y-117450057D02*
X143978571Y-117545295D01*
X143978571Y-117545295D02*
X143978571Y-117688152D01*
X143978571Y-117688152D02*
X143930952Y-117783390D01*
X143930952Y-117783390D02*
X143883333Y-117831009D01*
X143883333Y-117831009D02*
X143788095Y-117878628D01*
X143788095Y-117878628D02*
X143407143Y-117878628D01*
X144835714Y-117688152D02*
X144835714Y-118354819D01*
X144407143Y-117688152D02*
X144407143Y-118211961D01*
X144407143Y-118211961D02*
X144454762Y-118307200D01*
X144454762Y-118307200D02*
X144550000Y-118354819D01*
X144550000Y-118354819D02*
X144692857Y-118354819D01*
X144692857Y-118354819D02*
X144788095Y-118307200D01*
X144788095Y-118307200D02*
X144835714Y-118259580D01*
X145264286Y-118307200D02*
X145359524Y-118354819D01*
X145359524Y-118354819D02*
X145550000Y-118354819D01*
X145550000Y-118354819D02*
X145645238Y-118307200D01*
X145645238Y-118307200D02*
X145692857Y-118211961D01*
X145692857Y-118211961D02*
X145692857Y-118164342D01*
X145692857Y-118164342D02*
X145645238Y-118069104D01*
X145645238Y-118069104D02*
X145550000Y-118021485D01*
X145550000Y-118021485D02*
X145407143Y-118021485D01*
X145407143Y-118021485D02*
X145311905Y-117973866D01*
X145311905Y-117973866D02*
X145264286Y-117878628D01*
X145264286Y-117878628D02*
X145264286Y-117831009D01*
X145264286Y-117831009D02*
X145311905Y-117735771D01*
X145311905Y-117735771D02*
X145407143Y-117688152D01*
X145407143Y-117688152D02*
X145550000Y-117688152D01*
X145550000Y-117688152D02*
X145645238Y-117735771D01*
X146121429Y-118354819D02*
X146121429Y-117354819D01*
X146550000Y-118354819D02*
X146550000Y-117831009D01*
X146550000Y-117831009D02*
X146502381Y-117735771D01*
X146502381Y-117735771D02*
X146407143Y-117688152D01*
X146407143Y-117688152D02*
X146264286Y-117688152D01*
X146264286Y-117688152D02*
X146169048Y-117735771D01*
X146169048Y-117735771D02*
X146121429Y-117783390D01*
X142216667Y-114157200D02*
X142359524Y-114204819D01*
X142359524Y-114204819D02*
X142597619Y-114204819D01*
X142597619Y-114204819D02*
X142692857Y-114157200D01*
X142692857Y-114157200D02*
X142740476Y-114109580D01*
X142740476Y-114109580D02*
X142788095Y-114014342D01*
X142788095Y-114014342D02*
X142788095Y-113919104D01*
X142788095Y-113919104D02*
X142740476Y-113823866D01*
X142740476Y-113823866D02*
X142692857Y-113776247D01*
X142692857Y-113776247D02*
X142597619Y-113728628D01*
X142597619Y-113728628D02*
X142407143Y-113681009D01*
X142407143Y-113681009D02*
X142311905Y-113633390D01*
X142311905Y-113633390D02*
X142264286Y-113585771D01*
X142264286Y-113585771D02*
X142216667Y-113490533D01*
X142216667Y-113490533D02*
X142216667Y-113395295D01*
X142216667Y-113395295D02*
X142264286Y-113300057D01*
X142264286Y-113300057D02*
X142311905Y-113252438D01*
X142311905Y-113252438D02*
X142407143Y-113204819D01*
X142407143Y-113204819D02*
X142645238Y-113204819D01*
X142645238Y-113204819D02*
X142788095Y-113252438D01*
X143121429Y-113204819D02*
X143359524Y-114204819D01*
X143359524Y-114204819D02*
X143550000Y-113490533D01*
X143550000Y-113490533D02*
X143740476Y-114204819D01*
X143740476Y-114204819D02*
X143978572Y-113204819D01*
X144264286Y-113204819D02*
X144883333Y-113204819D01*
X144883333Y-113204819D02*
X144550000Y-113585771D01*
X144550000Y-113585771D02*
X144692857Y-113585771D01*
X144692857Y-113585771D02*
X144788095Y-113633390D01*
X144788095Y-113633390D02*
X144835714Y-113681009D01*
X144835714Y-113681009D02*
X144883333Y-113776247D01*
X144883333Y-113776247D02*
X144883333Y-114014342D01*
X144883333Y-114014342D02*
X144835714Y-114109580D01*
X144835714Y-114109580D02*
X144788095Y-114157200D01*
X144788095Y-114157200D02*
X144692857Y-114204819D01*
X144692857Y-114204819D02*
X144407143Y-114204819D01*
X144407143Y-114204819D02*
X144311905Y-114157200D01*
X144311905Y-114157200D02*
X144264286Y-114109580D01*
X204454819Y-53535713D02*
X204454819Y-52916666D01*
X204454819Y-52916666D02*
X204835771Y-53249999D01*
X204835771Y-53249999D02*
X204835771Y-53107142D01*
X204835771Y-53107142D02*
X204883390Y-53011904D01*
X204883390Y-53011904D02*
X204931009Y-52964285D01*
X204931009Y-52964285D02*
X205026247Y-52916666D01*
X205026247Y-52916666D02*
X205264342Y-52916666D01*
X205264342Y-52916666D02*
X205359580Y-52964285D01*
X205359580Y-52964285D02*
X205407200Y-53011904D01*
X205407200Y-53011904D02*
X205454819Y-53107142D01*
X205454819Y-53107142D02*
X205454819Y-53392856D01*
X205454819Y-53392856D02*
X205407200Y-53488094D01*
X205407200Y-53488094D02*
X205359580Y-53535713D01*
X204454819Y-52583332D02*
X204454819Y-51964285D01*
X204454819Y-51964285D02*
X204835771Y-52297618D01*
X204835771Y-52297618D02*
X204835771Y-52154761D01*
X204835771Y-52154761D02*
X204883390Y-52059523D01*
X204883390Y-52059523D02*
X204931009Y-52011904D01*
X204931009Y-52011904D02*
X205026247Y-51964285D01*
X205026247Y-51964285D02*
X205264342Y-51964285D01*
X205264342Y-51964285D02*
X205359580Y-52011904D01*
X205359580Y-52011904D02*
X205407200Y-52059523D01*
X205407200Y-52059523D02*
X205454819Y-52154761D01*
X205454819Y-52154761D02*
X205454819Y-52440475D01*
X205454819Y-52440475D02*
X205407200Y-52535713D01*
X205407200Y-52535713D02*
X205359580Y-52583332D01*
X204454819Y-51345237D02*
X204454819Y-51249999D01*
X204454819Y-51249999D02*
X204502438Y-51154761D01*
X204502438Y-51154761D02*
X204550057Y-51107142D01*
X204550057Y-51107142D02*
X204645295Y-51059523D01*
X204645295Y-51059523D02*
X204835771Y-51011904D01*
X204835771Y-51011904D02*
X205073866Y-51011904D01*
X205073866Y-51011904D02*
X205264342Y-51059523D01*
X205264342Y-51059523D02*
X205359580Y-51107142D01*
X205359580Y-51107142D02*
X205407200Y-51154761D01*
X205407200Y-51154761D02*
X205454819Y-51249999D01*
X205454819Y-51249999D02*
X205454819Y-51345237D01*
X205454819Y-51345237D02*
X205407200Y-51440475D01*
X205407200Y-51440475D02*
X205359580Y-51488094D01*
X205359580Y-51488094D02*
X205264342Y-51535713D01*
X205264342Y-51535713D02*
X205073866Y-51583332D01*
X205073866Y-51583332D02*
X204835771Y-51583332D01*
X204835771Y-51583332D02*
X204645295Y-51535713D01*
X204645295Y-51535713D02*
X204550057Y-51488094D01*
X204550057Y-51488094D02*
X204502438Y-51440475D01*
X204502438Y-51440475D02*
X204454819Y-51345237D01*
X205454819Y-50011904D02*
X204978628Y-50345237D01*
X205454819Y-50583332D02*
X204454819Y-50583332D01*
X204454819Y-50583332D02*
X204454819Y-50202380D01*
X204454819Y-50202380D02*
X204502438Y-50107142D01*
X204502438Y-50107142D02*
X204550057Y-50059523D01*
X204550057Y-50059523D02*
X204645295Y-50011904D01*
X204645295Y-50011904D02*
X204788152Y-50011904D01*
X204788152Y-50011904D02*
X204883390Y-50059523D01*
X204883390Y-50059523D02*
X204931009Y-50107142D01*
X204931009Y-50107142D02*
X204978628Y-50202380D01*
X204978628Y-50202380D02*
X204978628Y-50583332D01*
D12*
X203113855Y-51883332D02*
X202732902Y-52149999D01*
X203113855Y-52340475D02*
X202313855Y-52340475D01*
X202313855Y-52340475D02*
X202313855Y-52035713D01*
X202313855Y-52035713D02*
X202351950Y-51959523D01*
X202351950Y-51959523D02*
X202390045Y-51921428D01*
X202390045Y-51921428D02*
X202466236Y-51883332D01*
X202466236Y-51883332D02*
X202580521Y-51883332D01*
X202580521Y-51883332D02*
X202656712Y-51921428D01*
X202656712Y-51921428D02*
X202694807Y-51959523D01*
X202694807Y-51959523D02*
X202732902Y-52035713D01*
X202732902Y-52035713D02*
X202732902Y-52340475D01*
X202313855Y-51616666D02*
X202313855Y-51121428D01*
X202313855Y-51121428D02*
X202618617Y-51388094D01*
X202618617Y-51388094D02*
X202618617Y-51273809D01*
X202618617Y-51273809D02*
X202656712Y-51197618D01*
X202656712Y-51197618D02*
X202694807Y-51159523D01*
X202694807Y-51159523D02*
X202770998Y-51121428D01*
X202770998Y-51121428D02*
X202961474Y-51121428D01*
X202961474Y-51121428D02*
X203037664Y-51159523D01*
X203037664Y-51159523D02*
X203075760Y-51197618D01*
X203075760Y-51197618D02*
X203113855Y-51273809D01*
X203113855Y-51273809D02*
X203113855Y-51502380D01*
X203113855Y-51502380D02*
X203075760Y-51578571D01*
X203075760Y-51578571D02*
X203037664Y-51616666D01*
D10*
X184102381Y-130807200D02*
X184245238Y-130854819D01*
X184245238Y-130854819D02*
X184483333Y-130854819D01*
X184483333Y-130854819D02*
X184578571Y-130807200D01*
X184578571Y-130807200D02*
X184626190Y-130759580D01*
X184626190Y-130759580D02*
X184673809Y-130664342D01*
X184673809Y-130664342D02*
X184673809Y-130569104D01*
X184673809Y-130569104D02*
X184626190Y-130473866D01*
X184626190Y-130473866D02*
X184578571Y-130426247D01*
X184578571Y-130426247D02*
X184483333Y-130378628D01*
X184483333Y-130378628D02*
X184292857Y-130331009D01*
X184292857Y-130331009D02*
X184197619Y-130283390D01*
X184197619Y-130283390D02*
X184150000Y-130235771D01*
X184150000Y-130235771D02*
X184102381Y-130140533D01*
X184102381Y-130140533D02*
X184102381Y-130045295D01*
X184102381Y-130045295D02*
X184150000Y-129950057D01*
X184150000Y-129950057D02*
X184197619Y-129902438D01*
X184197619Y-129902438D02*
X184292857Y-129854819D01*
X184292857Y-129854819D02*
X184530952Y-129854819D01*
X184530952Y-129854819D02*
X184673809Y-129902438D01*
X185007143Y-129854819D02*
X185245238Y-130854819D01*
X185245238Y-130854819D02*
X185435714Y-130140533D01*
X185435714Y-130140533D02*
X185626190Y-130854819D01*
X185626190Y-130854819D02*
X185864286Y-129854819D01*
X186007143Y-130950057D02*
X186769047Y-130950057D01*
X187007143Y-130854819D02*
X187007143Y-129854819D01*
X187007143Y-129854819D02*
X187388095Y-129854819D01*
X187388095Y-129854819D02*
X187483333Y-129902438D01*
X187483333Y-129902438D02*
X187530952Y-129950057D01*
X187530952Y-129950057D02*
X187578571Y-130045295D01*
X187578571Y-130045295D02*
X187578571Y-130188152D01*
X187578571Y-130188152D02*
X187530952Y-130283390D01*
X187530952Y-130283390D02*
X187483333Y-130331009D01*
X187483333Y-130331009D02*
X187388095Y-130378628D01*
X187388095Y-130378628D02*
X187007143Y-130378628D01*
X188435714Y-130188152D02*
X188435714Y-130854819D01*
X188007143Y-130188152D02*
X188007143Y-130711961D01*
X188007143Y-130711961D02*
X188054762Y-130807200D01*
X188054762Y-130807200D02*
X188150000Y-130854819D01*
X188150000Y-130854819D02*
X188292857Y-130854819D01*
X188292857Y-130854819D02*
X188388095Y-130807200D01*
X188388095Y-130807200D02*
X188435714Y-130759580D01*
X188864286Y-130807200D02*
X188959524Y-130854819D01*
X188959524Y-130854819D02*
X189150000Y-130854819D01*
X189150000Y-130854819D02*
X189245238Y-130807200D01*
X189245238Y-130807200D02*
X189292857Y-130711961D01*
X189292857Y-130711961D02*
X189292857Y-130664342D01*
X189292857Y-130664342D02*
X189245238Y-130569104D01*
X189245238Y-130569104D02*
X189150000Y-130521485D01*
X189150000Y-130521485D02*
X189007143Y-130521485D01*
X189007143Y-130521485D02*
X188911905Y-130473866D01*
X188911905Y-130473866D02*
X188864286Y-130378628D01*
X188864286Y-130378628D02*
X188864286Y-130331009D01*
X188864286Y-130331009D02*
X188911905Y-130235771D01*
X188911905Y-130235771D02*
X189007143Y-130188152D01*
X189007143Y-130188152D02*
X189150000Y-130188152D01*
X189150000Y-130188152D02*
X189245238Y-130235771D01*
X189721429Y-130854819D02*
X189721429Y-129854819D01*
X190150000Y-130854819D02*
X190150000Y-130331009D01*
X190150000Y-130331009D02*
X190102381Y-130235771D01*
X190102381Y-130235771D02*
X190007143Y-130188152D01*
X190007143Y-130188152D02*
X189864286Y-130188152D01*
X189864286Y-130188152D02*
X189769048Y-130235771D01*
X189769048Y-130235771D02*
X189721429Y-130283390D01*
X185340476Y-126657200D02*
X185483333Y-126704819D01*
X185483333Y-126704819D02*
X185721428Y-126704819D01*
X185721428Y-126704819D02*
X185816666Y-126657200D01*
X185816666Y-126657200D02*
X185864285Y-126609580D01*
X185864285Y-126609580D02*
X185911904Y-126514342D01*
X185911904Y-126514342D02*
X185911904Y-126419104D01*
X185911904Y-126419104D02*
X185864285Y-126323866D01*
X185864285Y-126323866D02*
X185816666Y-126276247D01*
X185816666Y-126276247D02*
X185721428Y-126228628D01*
X185721428Y-126228628D02*
X185530952Y-126181009D01*
X185530952Y-126181009D02*
X185435714Y-126133390D01*
X185435714Y-126133390D02*
X185388095Y-126085771D01*
X185388095Y-126085771D02*
X185340476Y-125990533D01*
X185340476Y-125990533D02*
X185340476Y-125895295D01*
X185340476Y-125895295D02*
X185388095Y-125800057D01*
X185388095Y-125800057D02*
X185435714Y-125752438D01*
X185435714Y-125752438D02*
X185530952Y-125704819D01*
X185530952Y-125704819D02*
X185769047Y-125704819D01*
X185769047Y-125704819D02*
X185911904Y-125752438D01*
X186245238Y-125704819D02*
X186483333Y-126704819D01*
X186483333Y-126704819D02*
X186673809Y-125990533D01*
X186673809Y-125990533D02*
X186864285Y-126704819D01*
X186864285Y-126704819D02*
X187102381Y-125704819D01*
X188007142Y-126704819D02*
X187435714Y-126704819D01*
X187721428Y-126704819D02*
X187721428Y-125704819D01*
X187721428Y-125704819D02*
X187626190Y-125847676D01*
X187626190Y-125847676D02*
X187530952Y-125942914D01*
X187530952Y-125942914D02*
X187435714Y-125990533D01*
X188864285Y-125704819D02*
X188673809Y-125704819D01*
X188673809Y-125704819D02*
X188578571Y-125752438D01*
X188578571Y-125752438D02*
X188530952Y-125800057D01*
X188530952Y-125800057D02*
X188435714Y-125942914D01*
X188435714Y-125942914D02*
X188388095Y-126133390D01*
X188388095Y-126133390D02*
X188388095Y-126514342D01*
X188388095Y-126514342D02*
X188435714Y-126609580D01*
X188435714Y-126609580D02*
X188483333Y-126657200D01*
X188483333Y-126657200D02*
X188578571Y-126704819D01*
X188578571Y-126704819D02*
X188769047Y-126704819D01*
X188769047Y-126704819D02*
X188864285Y-126657200D01*
X188864285Y-126657200D02*
X188911904Y-126609580D01*
X188911904Y-126609580D02*
X188959523Y-126514342D01*
X188959523Y-126514342D02*
X188959523Y-126276247D01*
X188959523Y-126276247D02*
X188911904Y-126181009D01*
X188911904Y-126181009D02*
X188864285Y-126133390D01*
X188864285Y-126133390D02*
X188769047Y-126085771D01*
X188769047Y-126085771D02*
X188578571Y-126085771D01*
X188578571Y-126085771D02*
X188483333Y-126133390D01*
X188483333Y-126133390D02*
X188435714Y-126181009D01*
X188435714Y-126181009D02*
X188388095Y-126276247D01*
X155102381Y-144557200D02*
X155245238Y-144604819D01*
X155245238Y-144604819D02*
X155483333Y-144604819D01*
X155483333Y-144604819D02*
X155578571Y-144557200D01*
X155578571Y-144557200D02*
X155626190Y-144509580D01*
X155626190Y-144509580D02*
X155673809Y-144414342D01*
X155673809Y-144414342D02*
X155673809Y-144319104D01*
X155673809Y-144319104D02*
X155626190Y-144223866D01*
X155626190Y-144223866D02*
X155578571Y-144176247D01*
X155578571Y-144176247D02*
X155483333Y-144128628D01*
X155483333Y-144128628D02*
X155292857Y-144081009D01*
X155292857Y-144081009D02*
X155197619Y-144033390D01*
X155197619Y-144033390D02*
X155150000Y-143985771D01*
X155150000Y-143985771D02*
X155102381Y-143890533D01*
X155102381Y-143890533D02*
X155102381Y-143795295D01*
X155102381Y-143795295D02*
X155150000Y-143700057D01*
X155150000Y-143700057D02*
X155197619Y-143652438D01*
X155197619Y-143652438D02*
X155292857Y-143604819D01*
X155292857Y-143604819D02*
X155530952Y-143604819D01*
X155530952Y-143604819D02*
X155673809Y-143652438D01*
X156007143Y-143604819D02*
X156245238Y-144604819D01*
X156245238Y-144604819D02*
X156435714Y-143890533D01*
X156435714Y-143890533D02*
X156626190Y-144604819D01*
X156626190Y-144604819D02*
X156864286Y-143604819D01*
X157007143Y-144700057D02*
X157769047Y-144700057D01*
X158007143Y-144604819D02*
X158007143Y-143604819D01*
X158007143Y-143604819D02*
X158388095Y-143604819D01*
X158388095Y-143604819D02*
X158483333Y-143652438D01*
X158483333Y-143652438D02*
X158530952Y-143700057D01*
X158530952Y-143700057D02*
X158578571Y-143795295D01*
X158578571Y-143795295D02*
X158578571Y-143938152D01*
X158578571Y-143938152D02*
X158530952Y-144033390D01*
X158530952Y-144033390D02*
X158483333Y-144081009D01*
X158483333Y-144081009D02*
X158388095Y-144128628D01*
X158388095Y-144128628D02*
X158007143Y-144128628D01*
X159435714Y-143938152D02*
X159435714Y-144604819D01*
X159007143Y-143938152D02*
X159007143Y-144461961D01*
X159007143Y-144461961D02*
X159054762Y-144557200D01*
X159054762Y-144557200D02*
X159150000Y-144604819D01*
X159150000Y-144604819D02*
X159292857Y-144604819D01*
X159292857Y-144604819D02*
X159388095Y-144557200D01*
X159388095Y-144557200D02*
X159435714Y-144509580D01*
X159864286Y-144557200D02*
X159959524Y-144604819D01*
X159959524Y-144604819D02*
X160150000Y-144604819D01*
X160150000Y-144604819D02*
X160245238Y-144557200D01*
X160245238Y-144557200D02*
X160292857Y-144461961D01*
X160292857Y-144461961D02*
X160292857Y-144414342D01*
X160292857Y-144414342D02*
X160245238Y-144319104D01*
X160245238Y-144319104D02*
X160150000Y-144271485D01*
X160150000Y-144271485D02*
X160007143Y-144271485D01*
X160007143Y-144271485D02*
X159911905Y-144223866D01*
X159911905Y-144223866D02*
X159864286Y-144128628D01*
X159864286Y-144128628D02*
X159864286Y-144081009D01*
X159864286Y-144081009D02*
X159911905Y-143985771D01*
X159911905Y-143985771D02*
X160007143Y-143938152D01*
X160007143Y-143938152D02*
X160150000Y-143938152D01*
X160150000Y-143938152D02*
X160245238Y-143985771D01*
X160721429Y-144604819D02*
X160721429Y-143604819D01*
X161150000Y-144604819D02*
X161150000Y-144081009D01*
X161150000Y-144081009D02*
X161102381Y-143985771D01*
X161102381Y-143985771D02*
X161007143Y-143938152D01*
X161007143Y-143938152D02*
X160864286Y-143938152D01*
X160864286Y-143938152D02*
X160769048Y-143985771D01*
X160769048Y-143985771D02*
X160721429Y-144033390D01*
X156816667Y-140407200D02*
X156959524Y-140454819D01*
X156959524Y-140454819D02*
X157197619Y-140454819D01*
X157197619Y-140454819D02*
X157292857Y-140407200D01*
X157292857Y-140407200D02*
X157340476Y-140359580D01*
X157340476Y-140359580D02*
X157388095Y-140264342D01*
X157388095Y-140264342D02*
X157388095Y-140169104D01*
X157388095Y-140169104D02*
X157340476Y-140073866D01*
X157340476Y-140073866D02*
X157292857Y-140026247D01*
X157292857Y-140026247D02*
X157197619Y-139978628D01*
X157197619Y-139978628D02*
X157007143Y-139931009D01*
X157007143Y-139931009D02*
X156911905Y-139883390D01*
X156911905Y-139883390D02*
X156864286Y-139835771D01*
X156864286Y-139835771D02*
X156816667Y-139740533D01*
X156816667Y-139740533D02*
X156816667Y-139645295D01*
X156816667Y-139645295D02*
X156864286Y-139550057D01*
X156864286Y-139550057D02*
X156911905Y-139502438D01*
X156911905Y-139502438D02*
X157007143Y-139454819D01*
X157007143Y-139454819D02*
X157245238Y-139454819D01*
X157245238Y-139454819D02*
X157388095Y-139502438D01*
X157721429Y-139454819D02*
X157959524Y-140454819D01*
X157959524Y-140454819D02*
X158150000Y-139740533D01*
X158150000Y-139740533D02*
X158340476Y-140454819D01*
X158340476Y-140454819D02*
X158578572Y-139454819D01*
X159007143Y-140454819D02*
X159197619Y-140454819D01*
X159197619Y-140454819D02*
X159292857Y-140407200D01*
X159292857Y-140407200D02*
X159340476Y-140359580D01*
X159340476Y-140359580D02*
X159435714Y-140216723D01*
X159435714Y-140216723D02*
X159483333Y-140026247D01*
X159483333Y-140026247D02*
X159483333Y-139645295D01*
X159483333Y-139645295D02*
X159435714Y-139550057D01*
X159435714Y-139550057D02*
X159388095Y-139502438D01*
X159388095Y-139502438D02*
X159292857Y-139454819D01*
X159292857Y-139454819D02*
X159102381Y-139454819D01*
X159102381Y-139454819D02*
X159007143Y-139502438D01*
X159007143Y-139502438D02*
X158959524Y-139550057D01*
X158959524Y-139550057D02*
X158911905Y-139645295D01*
X158911905Y-139645295D02*
X158911905Y-139883390D01*
X158911905Y-139883390D02*
X158959524Y-139978628D01*
X158959524Y-139978628D02*
X159007143Y-140026247D01*
X159007143Y-140026247D02*
X159102381Y-140073866D01*
X159102381Y-140073866D02*
X159292857Y-140073866D01*
X159292857Y-140073866D02*
X159388095Y-140026247D01*
X159388095Y-140026247D02*
X159435714Y-139978628D01*
X159435714Y-139978628D02*
X159483333Y-139883390D01*
X169452381Y-130807200D02*
X169595238Y-130854819D01*
X169595238Y-130854819D02*
X169833333Y-130854819D01*
X169833333Y-130854819D02*
X169928571Y-130807200D01*
X169928571Y-130807200D02*
X169976190Y-130759580D01*
X169976190Y-130759580D02*
X170023809Y-130664342D01*
X170023809Y-130664342D02*
X170023809Y-130569104D01*
X170023809Y-130569104D02*
X169976190Y-130473866D01*
X169976190Y-130473866D02*
X169928571Y-130426247D01*
X169928571Y-130426247D02*
X169833333Y-130378628D01*
X169833333Y-130378628D02*
X169642857Y-130331009D01*
X169642857Y-130331009D02*
X169547619Y-130283390D01*
X169547619Y-130283390D02*
X169500000Y-130235771D01*
X169500000Y-130235771D02*
X169452381Y-130140533D01*
X169452381Y-130140533D02*
X169452381Y-130045295D01*
X169452381Y-130045295D02*
X169500000Y-129950057D01*
X169500000Y-129950057D02*
X169547619Y-129902438D01*
X169547619Y-129902438D02*
X169642857Y-129854819D01*
X169642857Y-129854819D02*
X169880952Y-129854819D01*
X169880952Y-129854819D02*
X170023809Y-129902438D01*
X170357143Y-129854819D02*
X170595238Y-130854819D01*
X170595238Y-130854819D02*
X170785714Y-130140533D01*
X170785714Y-130140533D02*
X170976190Y-130854819D01*
X170976190Y-130854819D02*
X171214286Y-129854819D01*
X171357143Y-130950057D02*
X172119047Y-130950057D01*
X172357143Y-130854819D02*
X172357143Y-129854819D01*
X172357143Y-129854819D02*
X172738095Y-129854819D01*
X172738095Y-129854819D02*
X172833333Y-129902438D01*
X172833333Y-129902438D02*
X172880952Y-129950057D01*
X172880952Y-129950057D02*
X172928571Y-130045295D01*
X172928571Y-130045295D02*
X172928571Y-130188152D01*
X172928571Y-130188152D02*
X172880952Y-130283390D01*
X172880952Y-130283390D02*
X172833333Y-130331009D01*
X172833333Y-130331009D02*
X172738095Y-130378628D01*
X172738095Y-130378628D02*
X172357143Y-130378628D01*
X173785714Y-130188152D02*
X173785714Y-130854819D01*
X173357143Y-130188152D02*
X173357143Y-130711961D01*
X173357143Y-130711961D02*
X173404762Y-130807200D01*
X173404762Y-130807200D02*
X173500000Y-130854819D01*
X173500000Y-130854819D02*
X173642857Y-130854819D01*
X173642857Y-130854819D02*
X173738095Y-130807200D01*
X173738095Y-130807200D02*
X173785714Y-130759580D01*
X174214286Y-130807200D02*
X174309524Y-130854819D01*
X174309524Y-130854819D02*
X174500000Y-130854819D01*
X174500000Y-130854819D02*
X174595238Y-130807200D01*
X174595238Y-130807200D02*
X174642857Y-130711961D01*
X174642857Y-130711961D02*
X174642857Y-130664342D01*
X174642857Y-130664342D02*
X174595238Y-130569104D01*
X174595238Y-130569104D02*
X174500000Y-130521485D01*
X174500000Y-130521485D02*
X174357143Y-130521485D01*
X174357143Y-130521485D02*
X174261905Y-130473866D01*
X174261905Y-130473866D02*
X174214286Y-130378628D01*
X174214286Y-130378628D02*
X174214286Y-130331009D01*
X174214286Y-130331009D02*
X174261905Y-130235771D01*
X174261905Y-130235771D02*
X174357143Y-130188152D01*
X174357143Y-130188152D02*
X174500000Y-130188152D01*
X174500000Y-130188152D02*
X174595238Y-130235771D01*
X175071429Y-130854819D02*
X175071429Y-129854819D01*
X175500000Y-130854819D02*
X175500000Y-130331009D01*
X175500000Y-130331009D02*
X175452381Y-130235771D01*
X175452381Y-130235771D02*
X175357143Y-130188152D01*
X175357143Y-130188152D02*
X175214286Y-130188152D01*
X175214286Y-130188152D02*
X175119048Y-130235771D01*
X175119048Y-130235771D02*
X175071429Y-130283390D01*
X170690476Y-126657200D02*
X170833333Y-126704819D01*
X170833333Y-126704819D02*
X171071428Y-126704819D01*
X171071428Y-126704819D02*
X171166666Y-126657200D01*
X171166666Y-126657200D02*
X171214285Y-126609580D01*
X171214285Y-126609580D02*
X171261904Y-126514342D01*
X171261904Y-126514342D02*
X171261904Y-126419104D01*
X171261904Y-126419104D02*
X171214285Y-126323866D01*
X171214285Y-126323866D02*
X171166666Y-126276247D01*
X171166666Y-126276247D02*
X171071428Y-126228628D01*
X171071428Y-126228628D02*
X170880952Y-126181009D01*
X170880952Y-126181009D02*
X170785714Y-126133390D01*
X170785714Y-126133390D02*
X170738095Y-126085771D01*
X170738095Y-126085771D02*
X170690476Y-125990533D01*
X170690476Y-125990533D02*
X170690476Y-125895295D01*
X170690476Y-125895295D02*
X170738095Y-125800057D01*
X170738095Y-125800057D02*
X170785714Y-125752438D01*
X170785714Y-125752438D02*
X170880952Y-125704819D01*
X170880952Y-125704819D02*
X171119047Y-125704819D01*
X171119047Y-125704819D02*
X171261904Y-125752438D01*
X171595238Y-125704819D02*
X171833333Y-126704819D01*
X171833333Y-126704819D02*
X172023809Y-125990533D01*
X172023809Y-125990533D02*
X172214285Y-126704819D01*
X172214285Y-126704819D02*
X172452381Y-125704819D01*
X173357142Y-126704819D02*
X172785714Y-126704819D01*
X173071428Y-126704819D02*
X173071428Y-125704819D01*
X173071428Y-125704819D02*
X172976190Y-125847676D01*
X172976190Y-125847676D02*
X172880952Y-125942914D01*
X172880952Y-125942914D02*
X172785714Y-125990533D01*
X174309523Y-126704819D02*
X173738095Y-126704819D01*
X174023809Y-126704819D02*
X174023809Y-125704819D01*
X174023809Y-125704819D02*
X173928571Y-125847676D01*
X173928571Y-125847676D02*
X173833333Y-125942914D01*
X173833333Y-125942914D02*
X173738095Y-125990533D01*
X197852381Y-118307200D02*
X197995238Y-118354819D01*
X197995238Y-118354819D02*
X198233333Y-118354819D01*
X198233333Y-118354819D02*
X198328571Y-118307200D01*
X198328571Y-118307200D02*
X198376190Y-118259580D01*
X198376190Y-118259580D02*
X198423809Y-118164342D01*
X198423809Y-118164342D02*
X198423809Y-118069104D01*
X198423809Y-118069104D02*
X198376190Y-117973866D01*
X198376190Y-117973866D02*
X198328571Y-117926247D01*
X198328571Y-117926247D02*
X198233333Y-117878628D01*
X198233333Y-117878628D02*
X198042857Y-117831009D01*
X198042857Y-117831009D02*
X197947619Y-117783390D01*
X197947619Y-117783390D02*
X197900000Y-117735771D01*
X197900000Y-117735771D02*
X197852381Y-117640533D01*
X197852381Y-117640533D02*
X197852381Y-117545295D01*
X197852381Y-117545295D02*
X197900000Y-117450057D01*
X197900000Y-117450057D02*
X197947619Y-117402438D01*
X197947619Y-117402438D02*
X198042857Y-117354819D01*
X198042857Y-117354819D02*
X198280952Y-117354819D01*
X198280952Y-117354819D02*
X198423809Y-117402438D01*
X198757143Y-117354819D02*
X198995238Y-118354819D01*
X198995238Y-118354819D02*
X199185714Y-117640533D01*
X199185714Y-117640533D02*
X199376190Y-118354819D01*
X199376190Y-118354819D02*
X199614286Y-117354819D01*
X199757143Y-118450057D02*
X200519047Y-118450057D01*
X200757143Y-118354819D02*
X200757143Y-117354819D01*
X200757143Y-117354819D02*
X201138095Y-117354819D01*
X201138095Y-117354819D02*
X201233333Y-117402438D01*
X201233333Y-117402438D02*
X201280952Y-117450057D01*
X201280952Y-117450057D02*
X201328571Y-117545295D01*
X201328571Y-117545295D02*
X201328571Y-117688152D01*
X201328571Y-117688152D02*
X201280952Y-117783390D01*
X201280952Y-117783390D02*
X201233333Y-117831009D01*
X201233333Y-117831009D02*
X201138095Y-117878628D01*
X201138095Y-117878628D02*
X200757143Y-117878628D01*
X202185714Y-117688152D02*
X202185714Y-118354819D01*
X201757143Y-117688152D02*
X201757143Y-118211961D01*
X201757143Y-118211961D02*
X201804762Y-118307200D01*
X201804762Y-118307200D02*
X201900000Y-118354819D01*
X201900000Y-118354819D02*
X202042857Y-118354819D01*
X202042857Y-118354819D02*
X202138095Y-118307200D01*
X202138095Y-118307200D02*
X202185714Y-118259580D01*
X202614286Y-118307200D02*
X202709524Y-118354819D01*
X202709524Y-118354819D02*
X202900000Y-118354819D01*
X202900000Y-118354819D02*
X202995238Y-118307200D01*
X202995238Y-118307200D02*
X203042857Y-118211961D01*
X203042857Y-118211961D02*
X203042857Y-118164342D01*
X203042857Y-118164342D02*
X202995238Y-118069104D01*
X202995238Y-118069104D02*
X202900000Y-118021485D01*
X202900000Y-118021485D02*
X202757143Y-118021485D01*
X202757143Y-118021485D02*
X202661905Y-117973866D01*
X202661905Y-117973866D02*
X202614286Y-117878628D01*
X202614286Y-117878628D02*
X202614286Y-117831009D01*
X202614286Y-117831009D02*
X202661905Y-117735771D01*
X202661905Y-117735771D02*
X202757143Y-117688152D01*
X202757143Y-117688152D02*
X202900000Y-117688152D01*
X202900000Y-117688152D02*
X202995238Y-117735771D01*
X203471429Y-118354819D02*
X203471429Y-117354819D01*
X203900000Y-118354819D02*
X203900000Y-117831009D01*
X203900000Y-117831009D02*
X203852381Y-117735771D01*
X203852381Y-117735771D02*
X203757143Y-117688152D01*
X203757143Y-117688152D02*
X203614286Y-117688152D01*
X203614286Y-117688152D02*
X203519048Y-117735771D01*
X203519048Y-117735771D02*
X203471429Y-117783390D01*
X199090476Y-114157200D02*
X199233333Y-114204819D01*
X199233333Y-114204819D02*
X199471428Y-114204819D01*
X199471428Y-114204819D02*
X199566666Y-114157200D01*
X199566666Y-114157200D02*
X199614285Y-114109580D01*
X199614285Y-114109580D02*
X199661904Y-114014342D01*
X199661904Y-114014342D02*
X199661904Y-113919104D01*
X199661904Y-113919104D02*
X199614285Y-113823866D01*
X199614285Y-113823866D02*
X199566666Y-113776247D01*
X199566666Y-113776247D02*
X199471428Y-113728628D01*
X199471428Y-113728628D02*
X199280952Y-113681009D01*
X199280952Y-113681009D02*
X199185714Y-113633390D01*
X199185714Y-113633390D02*
X199138095Y-113585771D01*
X199138095Y-113585771D02*
X199090476Y-113490533D01*
X199090476Y-113490533D02*
X199090476Y-113395295D01*
X199090476Y-113395295D02*
X199138095Y-113300057D01*
X199138095Y-113300057D02*
X199185714Y-113252438D01*
X199185714Y-113252438D02*
X199280952Y-113204819D01*
X199280952Y-113204819D02*
X199519047Y-113204819D01*
X199519047Y-113204819D02*
X199661904Y-113252438D01*
X199995238Y-113204819D02*
X200233333Y-114204819D01*
X200233333Y-114204819D02*
X200423809Y-113490533D01*
X200423809Y-113490533D02*
X200614285Y-114204819D01*
X200614285Y-114204819D02*
X200852381Y-113204819D01*
X201757142Y-114204819D02*
X201185714Y-114204819D01*
X201471428Y-114204819D02*
X201471428Y-113204819D01*
X201471428Y-113204819D02*
X201376190Y-113347676D01*
X201376190Y-113347676D02*
X201280952Y-113442914D01*
X201280952Y-113442914D02*
X201185714Y-113490533D01*
X202233333Y-114204819D02*
X202423809Y-114204819D01*
X202423809Y-114204819D02*
X202519047Y-114157200D01*
X202519047Y-114157200D02*
X202566666Y-114109580D01*
X202566666Y-114109580D02*
X202661904Y-113966723D01*
X202661904Y-113966723D02*
X202709523Y-113776247D01*
X202709523Y-113776247D02*
X202709523Y-113395295D01*
X202709523Y-113395295D02*
X202661904Y-113300057D01*
X202661904Y-113300057D02*
X202614285Y-113252438D01*
X202614285Y-113252438D02*
X202519047Y-113204819D01*
X202519047Y-113204819D02*
X202328571Y-113204819D01*
X202328571Y-113204819D02*
X202233333Y-113252438D01*
X202233333Y-113252438D02*
X202185714Y-113300057D01*
X202185714Y-113300057D02*
X202138095Y-113395295D01*
X202138095Y-113395295D02*
X202138095Y-113633390D01*
X202138095Y-113633390D02*
X202185714Y-113728628D01*
X202185714Y-113728628D02*
X202233333Y-113776247D01*
X202233333Y-113776247D02*
X202328571Y-113823866D01*
X202328571Y-113823866D02*
X202519047Y-113823866D01*
X202519047Y-113823866D02*
X202614285Y-113776247D01*
X202614285Y-113776247D02*
X202661904Y-113728628D01*
X202661904Y-113728628D02*
X202709523Y-113633390D01*
X197802381Y-106307200D02*
X197945238Y-106354819D01*
X197945238Y-106354819D02*
X198183333Y-106354819D01*
X198183333Y-106354819D02*
X198278571Y-106307200D01*
X198278571Y-106307200D02*
X198326190Y-106259580D01*
X198326190Y-106259580D02*
X198373809Y-106164342D01*
X198373809Y-106164342D02*
X198373809Y-106069104D01*
X198373809Y-106069104D02*
X198326190Y-105973866D01*
X198326190Y-105973866D02*
X198278571Y-105926247D01*
X198278571Y-105926247D02*
X198183333Y-105878628D01*
X198183333Y-105878628D02*
X197992857Y-105831009D01*
X197992857Y-105831009D02*
X197897619Y-105783390D01*
X197897619Y-105783390D02*
X197850000Y-105735771D01*
X197850000Y-105735771D02*
X197802381Y-105640533D01*
X197802381Y-105640533D02*
X197802381Y-105545295D01*
X197802381Y-105545295D02*
X197850000Y-105450057D01*
X197850000Y-105450057D02*
X197897619Y-105402438D01*
X197897619Y-105402438D02*
X197992857Y-105354819D01*
X197992857Y-105354819D02*
X198230952Y-105354819D01*
X198230952Y-105354819D02*
X198373809Y-105402438D01*
X198707143Y-105354819D02*
X198945238Y-106354819D01*
X198945238Y-106354819D02*
X199135714Y-105640533D01*
X199135714Y-105640533D02*
X199326190Y-106354819D01*
X199326190Y-106354819D02*
X199564286Y-105354819D01*
X199707143Y-106450057D02*
X200469047Y-106450057D01*
X200707143Y-106354819D02*
X200707143Y-105354819D01*
X200707143Y-105354819D02*
X201088095Y-105354819D01*
X201088095Y-105354819D02*
X201183333Y-105402438D01*
X201183333Y-105402438D02*
X201230952Y-105450057D01*
X201230952Y-105450057D02*
X201278571Y-105545295D01*
X201278571Y-105545295D02*
X201278571Y-105688152D01*
X201278571Y-105688152D02*
X201230952Y-105783390D01*
X201230952Y-105783390D02*
X201183333Y-105831009D01*
X201183333Y-105831009D02*
X201088095Y-105878628D01*
X201088095Y-105878628D02*
X200707143Y-105878628D01*
X202135714Y-105688152D02*
X202135714Y-106354819D01*
X201707143Y-105688152D02*
X201707143Y-106211961D01*
X201707143Y-106211961D02*
X201754762Y-106307200D01*
X201754762Y-106307200D02*
X201850000Y-106354819D01*
X201850000Y-106354819D02*
X201992857Y-106354819D01*
X201992857Y-106354819D02*
X202088095Y-106307200D01*
X202088095Y-106307200D02*
X202135714Y-106259580D01*
X202564286Y-106307200D02*
X202659524Y-106354819D01*
X202659524Y-106354819D02*
X202850000Y-106354819D01*
X202850000Y-106354819D02*
X202945238Y-106307200D01*
X202945238Y-106307200D02*
X202992857Y-106211961D01*
X202992857Y-106211961D02*
X202992857Y-106164342D01*
X202992857Y-106164342D02*
X202945238Y-106069104D01*
X202945238Y-106069104D02*
X202850000Y-106021485D01*
X202850000Y-106021485D02*
X202707143Y-106021485D01*
X202707143Y-106021485D02*
X202611905Y-105973866D01*
X202611905Y-105973866D02*
X202564286Y-105878628D01*
X202564286Y-105878628D02*
X202564286Y-105831009D01*
X202564286Y-105831009D02*
X202611905Y-105735771D01*
X202611905Y-105735771D02*
X202707143Y-105688152D01*
X202707143Y-105688152D02*
X202850000Y-105688152D01*
X202850000Y-105688152D02*
X202945238Y-105735771D01*
X203421429Y-106354819D02*
X203421429Y-105354819D01*
X203850000Y-106354819D02*
X203850000Y-105831009D01*
X203850000Y-105831009D02*
X203802381Y-105735771D01*
X203802381Y-105735771D02*
X203707143Y-105688152D01*
X203707143Y-105688152D02*
X203564286Y-105688152D01*
X203564286Y-105688152D02*
X203469048Y-105735771D01*
X203469048Y-105735771D02*
X203421429Y-105783390D01*
X199040476Y-102157200D02*
X199183333Y-102204819D01*
X199183333Y-102204819D02*
X199421428Y-102204819D01*
X199421428Y-102204819D02*
X199516666Y-102157200D01*
X199516666Y-102157200D02*
X199564285Y-102109580D01*
X199564285Y-102109580D02*
X199611904Y-102014342D01*
X199611904Y-102014342D02*
X199611904Y-101919104D01*
X199611904Y-101919104D02*
X199564285Y-101823866D01*
X199564285Y-101823866D02*
X199516666Y-101776247D01*
X199516666Y-101776247D02*
X199421428Y-101728628D01*
X199421428Y-101728628D02*
X199230952Y-101681009D01*
X199230952Y-101681009D02*
X199135714Y-101633390D01*
X199135714Y-101633390D02*
X199088095Y-101585771D01*
X199088095Y-101585771D02*
X199040476Y-101490533D01*
X199040476Y-101490533D02*
X199040476Y-101395295D01*
X199040476Y-101395295D02*
X199088095Y-101300057D01*
X199088095Y-101300057D02*
X199135714Y-101252438D01*
X199135714Y-101252438D02*
X199230952Y-101204819D01*
X199230952Y-101204819D02*
X199469047Y-101204819D01*
X199469047Y-101204819D02*
X199611904Y-101252438D01*
X199945238Y-101204819D02*
X200183333Y-102204819D01*
X200183333Y-102204819D02*
X200373809Y-101490533D01*
X200373809Y-101490533D02*
X200564285Y-102204819D01*
X200564285Y-102204819D02*
X200802381Y-101204819D01*
X201707142Y-102204819D02*
X201135714Y-102204819D01*
X201421428Y-102204819D02*
X201421428Y-101204819D01*
X201421428Y-101204819D02*
X201326190Y-101347676D01*
X201326190Y-101347676D02*
X201230952Y-101442914D01*
X201230952Y-101442914D02*
X201135714Y-101490533D01*
X202278571Y-101633390D02*
X202183333Y-101585771D01*
X202183333Y-101585771D02*
X202135714Y-101538152D01*
X202135714Y-101538152D02*
X202088095Y-101442914D01*
X202088095Y-101442914D02*
X202088095Y-101395295D01*
X202088095Y-101395295D02*
X202135714Y-101300057D01*
X202135714Y-101300057D02*
X202183333Y-101252438D01*
X202183333Y-101252438D02*
X202278571Y-101204819D01*
X202278571Y-101204819D02*
X202469047Y-101204819D01*
X202469047Y-101204819D02*
X202564285Y-101252438D01*
X202564285Y-101252438D02*
X202611904Y-101300057D01*
X202611904Y-101300057D02*
X202659523Y-101395295D01*
X202659523Y-101395295D02*
X202659523Y-101442914D01*
X202659523Y-101442914D02*
X202611904Y-101538152D01*
X202611904Y-101538152D02*
X202564285Y-101585771D01*
X202564285Y-101585771D02*
X202469047Y-101633390D01*
X202469047Y-101633390D02*
X202278571Y-101633390D01*
X202278571Y-101633390D02*
X202183333Y-101681009D01*
X202183333Y-101681009D02*
X202135714Y-101728628D01*
X202135714Y-101728628D02*
X202088095Y-101823866D01*
X202088095Y-101823866D02*
X202088095Y-102014342D01*
X202088095Y-102014342D02*
X202135714Y-102109580D01*
X202135714Y-102109580D02*
X202183333Y-102157200D01*
X202183333Y-102157200D02*
X202278571Y-102204819D01*
X202278571Y-102204819D02*
X202469047Y-102204819D01*
X202469047Y-102204819D02*
X202564285Y-102157200D01*
X202564285Y-102157200D02*
X202611904Y-102109580D01*
X202611904Y-102109580D02*
X202659523Y-102014342D01*
X202659523Y-102014342D02*
X202659523Y-101823866D01*
X202659523Y-101823866D02*
X202611904Y-101728628D01*
X202611904Y-101728628D02*
X202564285Y-101681009D01*
X202564285Y-101681009D02*
X202469047Y-101633390D01*
X197554819Y-82502381D02*
X197078628Y-82835714D01*
X197554819Y-83073809D02*
X196554819Y-83073809D01*
X196554819Y-83073809D02*
X196554819Y-82692857D01*
X196554819Y-82692857D02*
X196602438Y-82597619D01*
X196602438Y-82597619D02*
X196650057Y-82550000D01*
X196650057Y-82550000D02*
X196745295Y-82502381D01*
X196745295Y-82502381D02*
X196888152Y-82502381D01*
X196888152Y-82502381D02*
X196983390Y-82550000D01*
X196983390Y-82550000D02*
X197031009Y-82597619D01*
X197031009Y-82597619D02*
X197078628Y-82692857D01*
X197078628Y-82692857D02*
X197078628Y-83073809D01*
X197031009Y-82073809D02*
X197031009Y-81740476D01*
X197554819Y-81597619D02*
X197554819Y-82073809D01*
X197554819Y-82073809D02*
X196554819Y-82073809D01*
X196554819Y-82073809D02*
X196554819Y-81597619D01*
X197507200Y-81216666D02*
X197554819Y-81073809D01*
X197554819Y-81073809D02*
X197554819Y-80835714D01*
X197554819Y-80835714D02*
X197507200Y-80740476D01*
X197507200Y-80740476D02*
X197459580Y-80692857D01*
X197459580Y-80692857D02*
X197364342Y-80645238D01*
X197364342Y-80645238D02*
X197269104Y-80645238D01*
X197269104Y-80645238D02*
X197173866Y-80692857D01*
X197173866Y-80692857D02*
X197126247Y-80740476D01*
X197126247Y-80740476D02*
X197078628Y-80835714D01*
X197078628Y-80835714D02*
X197031009Y-81026190D01*
X197031009Y-81026190D02*
X196983390Y-81121428D01*
X196983390Y-81121428D02*
X196935771Y-81169047D01*
X196935771Y-81169047D02*
X196840533Y-81216666D01*
X196840533Y-81216666D02*
X196745295Y-81216666D01*
X196745295Y-81216666D02*
X196650057Y-81169047D01*
X196650057Y-81169047D02*
X196602438Y-81121428D01*
X196602438Y-81121428D02*
X196554819Y-81026190D01*
X196554819Y-81026190D02*
X196554819Y-80788095D01*
X196554819Y-80788095D02*
X196602438Y-80645238D01*
X197031009Y-80216666D02*
X197031009Y-79883333D01*
X197554819Y-79740476D02*
X197554819Y-80216666D01*
X197554819Y-80216666D02*
X196554819Y-80216666D01*
X196554819Y-80216666D02*
X196554819Y-79740476D01*
X196554819Y-79454761D02*
X196554819Y-78883333D01*
X197554819Y-79169047D02*
X196554819Y-79169047D01*
X201657200Y-82383332D02*
X201704819Y-82240475D01*
X201704819Y-82240475D02*
X201704819Y-82002380D01*
X201704819Y-82002380D02*
X201657200Y-81907142D01*
X201657200Y-81907142D02*
X201609580Y-81859523D01*
X201609580Y-81859523D02*
X201514342Y-81811904D01*
X201514342Y-81811904D02*
X201419104Y-81811904D01*
X201419104Y-81811904D02*
X201323866Y-81859523D01*
X201323866Y-81859523D02*
X201276247Y-81907142D01*
X201276247Y-81907142D02*
X201228628Y-82002380D01*
X201228628Y-82002380D02*
X201181009Y-82192856D01*
X201181009Y-82192856D02*
X201133390Y-82288094D01*
X201133390Y-82288094D02*
X201085771Y-82335713D01*
X201085771Y-82335713D02*
X200990533Y-82383332D01*
X200990533Y-82383332D02*
X200895295Y-82383332D01*
X200895295Y-82383332D02*
X200800057Y-82335713D01*
X200800057Y-82335713D02*
X200752438Y-82288094D01*
X200752438Y-82288094D02*
X200704819Y-82192856D01*
X200704819Y-82192856D02*
X200704819Y-81954761D01*
X200704819Y-81954761D02*
X200752438Y-81811904D01*
X200704819Y-81478570D02*
X201704819Y-81240475D01*
X201704819Y-81240475D02*
X200990533Y-81049999D01*
X200990533Y-81049999D02*
X201704819Y-80859523D01*
X201704819Y-80859523D02*
X200704819Y-80621428D01*
X201704819Y-79716666D02*
X201704819Y-80288094D01*
X201704819Y-80002380D02*
X200704819Y-80002380D01*
X200704819Y-80002380D02*
X200847676Y-80097618D01*
X200847676Y-80097618D02*
X200942914Y-80192856D01*
X200942914Y-80192856D02*
X200990533Y-80288094D01*
X184202381Y-144557200D02*
X184345238Y-144604819D01*
X184345238Y-144604819D02*
X184583333Y-144604819D01*
X184583333Y-144604819D02*
X184678571Y-144557200D01*
X184678571Y-144557200D02*
X184726190Y-144509580D01*
X184726190Y-144509580D02*
X184773809Y-144414342D01*
X184773809Y-144414342D02*
X184773809Y-144319104D01*
X184773809Y-144319104D02*
X184726190Y-144223866D01*
X184726190Y-144223866D02*
X184678571Y-144176247D01*
X184678571Y-144176247D02*
X184583333Y-144128628D01*
X184583333Y-144128628D02*
X184392857Y-144081009D01*
X184392857Y-144081009D02*
X184297619Y-144033390D01*
X184297619Y-144033390D02*
X184250000Y-143985771D01*
X184250000Y-143985771D02*
X184202381Y-143890533D01*
X184202381Y-143890533D02*
X184202381Y-143795295D01*
X184202381Y-143795295D02*
X184250000Y-143700057D01*
X184250000Y-143700057D02*
X184297619Y-143652438D01*
X184297619Y-143652438D02*
X184392857Y-143604819D01*
X184392857Y-143604819D02*
X184630952Y-143604819D01*
X184630952Y-143604819D02*
X184773809Y-143652438D01*
X185107143Y-143604819D02*
X185345238Y-144604819D01*
X185345238Y-144604819D02*
X185535714Y-143890533D01*
X185535714Y-143890533D02*
X185726190Y-144604819D01*
X185726190Y-144604819D02*
X185964286Y-143604819D01*
X186107143Y-144700057D02*
X186869047Y-144700057D01*
X187107143Y-144604819D02*
X187107143Y-143604819D01*
X187107143Y-143604819D02*
X187488095Y-143604819D01*
X187488095Y-143604819D02*
X187583333Y-143652438D01*
X187583333Y-143652438D02*
X187630952Y-143700057D01*
X187630952Y-143700057D02*
X187678571Y-143795295D01*
X187678571Y-143795295D02*
X187678571Y-143938152D01*
X187678571Y-143938152D02*
X187630952Y-144033390D01*
X187630952Y-144033390D02*
X187583333Y-144081009D01*
X187583333Y-144081009D02*
X187488095Y-144128628D01*
X187488095Y-144128628D02*
X187107143Y-144128628D01*
X188535714Y-143938152D02*
X188535714Y-144604819D01*
X188107143Y-143938152D02*
X188107143Y-144461961D01*
X188107143Y-144461961D02*
X188154762Y-144557200D01*
X188154762Y-144557200D02*
X188250000Y-144604819D01*
X188250000Y-144604819D02*
X188392857Y-144604819D01*
X188392857Y-144604819D02*
X188488095Y-144557200D01*
X188488095Y-144557200D02*
X188535714Y-144509580D01*
X188964286Y-144557200D02*
X189059524Y-144604819D01*
X189059524Y-144604819D02*
X189250000Y-144604819D01*
X189250000Y-144604819D02*
X189345238Y-144557200D01*
X189345238Y-144557200D02*
X189392857Y-144461961D01*
X189392857Y-144461961D02*
X189392857Y-144414342D01*
X189392857Y-144414342D02*
X189345238Y-144319104D01*
X189345238Y-144319104D02*
X189250000Y-144271485D01*
X189250000Y-144271485D02*
X189107143Y-144271485D01*
X189107143Y-144271485D02*
X189011905Y-144223866D01*
X189011905Y-144223866D02*
X188964286Y-144128628D01*
X188964286Y-144128628D02*
X188964286Y-144081009D01*
X188964286Y-144081009D02*
X189011905Y-143985771D01*
X189011905Y-143985771D02*
X189107143Y-143938152D01*
X189107143Y-143938152D02*
X189250000Y-143938152D01*
X189250000Y-143938152D02*
X189345238Y-143985771D01*
X189821429Y-144604819D02*
X189821429Y-143604819D01*
X190250000Y-144604819D02*
X190250000Y-144081009D01*
X190250000Y-144081009D02*
X190202381Y-143985771D01*
X190202381Y-143985771D02*
X190107143Y-143938152D01*
X190107143Y-143938152D02*
X189964286Y-143938152D01*
X189964286Y-143938152D02*
X189869048Y-143985771D01*
X189869048Y-143985771D02*
X189821429Y-144033390D01*
X185440476Y-140407200D02*
X185583333Y-140454819D01*
X185583333Y-140454819D02*
X185821428Y-140454819D01*
X185821428Y-140454819D02*
X185916666Y-140407200D01*
X185916666Y-140407200D02*
X185964285Y-140359580D01*
X185964285Y-140359580D02*
X186011904Y-140264342D01*
X186011904Y-140264342D02*
X186011904Y-140169104D01*
X186011904Y-140169104D02*
X185964285Y-140073866D01*
X185964285Y-140073866D02*
X185916666Y-140026247D01*
X185916666Y-140026247D02*
X185821428Y-139978628D01*
X185821428Y-139978628D02*
X185630952Y-139931009D01*
X185630952Y-139931009D02*
X185535714Y-139883390D01*
X185535714Y-139883390D02*
X185488095Y-139835771D01*
X185488095Y-139835771D02*
X185440476Y-139740533D01*
X185440476Y-139740533D02*
X185440476Y-139645295D01*
X185440476Y-139645295D02*
X185488095Y-139550057D01*
X185488095Y-139550057D02*
X185535714Y-139502438D01*
X185535714Y-139502438D02*
X185630952Y-139454819D01*
X185630952Y-139454819D02*
X185869047Y-139454819D01*
X185869047Y-139454819D02*
X186011904Y-139502438D01*
X186345238Y-139454819D02*
X186583333Y-140454819D01*
X186583333Y-140454819D02*
X186773809Y-139740533D01*
X186773809Y-139740533D02*
X186964285Y-140454819D01*
X186964285Y-140454819D02*
X187202381Y-139454819D01*
X188107142Y-140454819D02*
X187535714Y-140454819D01*
X187821428Y-140454819D02*
X187821428Y-139454819D01*
X187821428Y-139454819D02*
X187726190Y-139597676D01*
X187726190Y-139597676D02*
X187630952Y-139692914D01*
X187630952Y-139692914D02*
X187535714Y-139740533D01*
X188440476Y-139454819D02*
X189107142Y-139454819D01*
X189107142Y-139454819D02*
X188678571Y-140454819D01*
X184102381Y-118307200D02*
X184245238Y-118354819D01*
X184245238Y-118354819D02*
X184483333Y-118354819D01*
X184483333Y-118354819D02*
X184578571Y-118307200D01*
X184578571Y-118307200D02*
X184626190Y-118259580D01*
X184626190Y-118259580D02*
X184673809Y-118164342D01*
X184673809Y-118164342D02*
X184673809Y-118069104D01*
X184673809Y-118069104D02*
X184626190Y-117973866D01*
X184626190Y-117973866D02*
X184578571Y-117926247D01*
X184578571Y-117926247D02*
X184483333Y-117878628D01*
X184483333Y-117878628D02*
X184292857Y-117831009D01*
X184292857Y-117831009D02*
X184197619Y-117783390D01*
X184197619Y-117783390D02*
X184150000Y-117735771D01*
X184150000Y-117735771D02*
X184102381Y-117640533D01*
X184102381Y-117640533D02*
X184102381Y-117545295D01*
X184102381Y-117545295D02*
X184150000Y-117450057D01*
X184150000Y-117450057D02*
X184197619Y-117402438D01*
X184197619Y-117402438D02*
X184292857Y-117354819D01*
X184292857Y-117354819D02*
X184530952Y-117354819D01*
X184530952Y-117354819D02*
X184673809Y-117402438D01*
X185007143Y-117354819D02*
X185245238Y-118354819D01*
X185245238Y-118354819D02*
X185435714Y-117640533D01*
X185435714Y-117640533D02*
X185626190Y-118354819D01*
X185626190Y-118354819D02*
X185864286Y-117354819D01*
X186007143Y-118450057D02*
X186769047Y-118450057D01*
X187007143Y-118354819D02*
X187007143Y-117354819D01*
X187007143Y-117354819D02*
X187388095Y-117354819D01*
X187388095Y-117354819D02*
X187483333Y-117402438D01*
X187483333Y-117402438D02*
X187530952Y-117450057D01*
X187530952Y-117450057D02*
X187578571Y-117545295D01*
X187578571Y-117545295D02*
X187578571Y-117688152D01*
X187578571Y-117688152D02*
X187530952Y-117783390D01*
X187530952Y-117783390D02*
X187483333Y-117831009D01*
X187483333Y-117831009D02*
X187388095Y-117878628D01*
X187388095Y-117878628D02*
X187007143Y-117878628D01*
X188435714Y-117688152D02*
X188435714Y-118354819D01*
X188007143Y-117688152D02*
X188007143Y-118211961D01*
X188007143Y-118211961D02*
X188054762Y-118307200D01*
X188054762Y-118307200D02*
X188150000Y-118354819D01*
X188150000Y-118354819D02*
X188292857Y-118354819D01*
X188292857Y-118354819D02*
X188388095Y-118307200D01*
X188388095Y-118307200D02*
X188435714Y-118259580D01*
X188864286Y-118307200D02*
X188959524Y-118354819D01*
X188959524Y-118354819D02*
X189150000Y-118354819D01*
X189150000Y-118354819D02*
X189245238Y-118307200D01*
X189245238Y-118307200D02*
X189292857Y-118211961D01*
X189292857Y-118211961D02*
X189292857Y-118164342D01*
X189292857Y-118164342D02*
X189245238Y-118069104D01*
X189245238Y-118069104D02*
X189150000Y-118021485D01*
X189150000Y-118021485D02*
X189007143Y-118021485D01*
X189007143Y-118021485D02*
X188911905Y-117973866D01*
X188911905Y-117973866D02*
X188864286Y-117878628D01*
X188864286Y-117878628D02*
X188864286Y-117831009D01*
X188864286Y-117831009D02*
X188911905Y-117735771D01*
X188911905Y-117735771D02*
X189007143Y-117688152D01*
X189007143Y-117688152D02*
X189150000Y-117688152D01*
X189150000Y-117688152D02*
X189245238Y-117735771D01*
X189721429Y-118354819D02*
X189721429Y-117354819D01*
X190150000Y-118354819D02*
X190150000Y-117831009D01*
X190150000Y-117831009D02*
X190102381Y-117735771D01*
X190102381Y-117735771D02*
X190007143Y-117688152D01*
X190007143Y-117688152D02*
X189864286Y-117688152D01*
X189864286Y-117688152D02*
X189769048Y-117735771D01*
X189769048Y-117735771D02*
X189721429Y-117783390D01*
X185340476Y-114157200D02*
X185483333Y-114204819D01*
X185483333Y-114204819D02*
X185721428Y-114204819D01*
X185721428Y-114204819D02*
X185816666Y-114157200D01*
X185816666Y-114157200D02*
X185864285Y-114109580D01*
X185864285Y-114109580D02*
X185911904Y-114014342D01*
X185911904Y-114014342D02*
X185911904Y-113919104D01*
X185911904Y-113919104D02*
X185864285Y-113823866D01*
X185864285Y-113823866D02*
X185816666Y-113776247D01*
X185816666Y-113776247D02*
X185721428Y-113728628D01*
X185721428Y-113728628D02*
X185530952Y-113681009D01*
X185530952Y-113681009D02*
X185435714Y-113633390D01*
X185435714Y-113633390D02*
X185388095Y-113585771D01*
X185388095Y-113585771D02*
X185340476Y-113490533D01*
X185340476Y-113490533D02*
X185340476Y-113395295D01*
X185340476Y-113395295D02*
X185388095Y-113300057D01*
X185388095Y-113300057D02*
X185435714Y-113252438D01*
X185435714Y-113252438D02*
X185530952Y-113204819D01*
X185530952Y-113204819D02*
X185769047Y-113204819D01*
X185769047Y-113204819D02*
X185911904Y-113252438D01*
X186245238Y-113204819D02*
X186483333Y-114204819D01*
X186483333Y-114204819D02*
X186673809Y-113490533D01*
X186673809Y-113490533D02*
X186864285Y-114204819D01*
X186864285Y-114204819D02*
X187102381Y-113204819D01*
X188007142Y-114204819D02*
X187435714Y-114204819D01*
X187721428Y-114204819D02*
X187721428Y-113204819D01*
X187721428Y-113204819D02*
X187626190Y-113347676D01*
X187626190Y-113347676D02*
X187530952Y-113442914D01*
X187530952Y-113442914D02*
X187435714Y-113490533D01*
X188911904Y-113204819D02*
X188435714Y-113204819D01*
X188435714Y-113204819D02*
X188388095Y-113681009D01*
X188388095Y-113681009D02*
X188435714Y-113633390D01*
X188435714Y-113633390D02*
X188530952Y-113585771D01*
X188530952Y-113585771D02*
X188769047Y-113585771D01*
X188769047Y-113585771D02*
X188864285Y-113633390D01*
X188864285Y-113633390D02*
X188911904Y-113681009D01*
X188911904Y-113681009D02*
X188959523Y-113776247D01*
X188959523Y-113776247D02*
X188959523Y-114014342D01*
X188959523Y-114014342D02*
X188911904Y-114109580D01*
X188911904Y-114109580D02*
X188864285Y-114157200D01*
X188864285Y-114157200D02*
X188769047Y-114204819D01*
X188769047Y-114204819D02*
X188530952Y-114204819D01*
X188530952Y-114204819D02*
X188435714Y-114157200D01*
X188435714Y-114157200D02*
X188388095Y-114109580D01*
X177259104Y-90411666D02*
X177259104Y-89935476D01*
X177544819Y-90506904D02*
X176544819Y-90173571D01*
X176544819Y-90173571D02*
X177544819Y-89840238D01*
X176544819Y-89649761D02*
X176544819Y-89078333D01*
X177544819Y-89364047D02*
X176544819Y-89364047D01*
X177544819Y-88744999D02*
X176878152Y-88744999D01*
X176973390Y-88744999D02*
X176925771Y-88697380D01*
X176925771Y-88697380D02*
X176878152Y-88602142D01*
X176878152Y-88602142D02*
X176878152Y-88459285D01*
X176878152Y-88459285D02*
X176925771Y-88364047D01*
X176925771Y-88364047D02*
X177021009Y-88316428D01*
X177021009Y-88316428D02*
X177544819Y-88316428D01*
X177021009Y-88316428D02*
X176925771Y-88268809D01*
X176925771Y-88268809D02*
X176878152Y-88173571D01*
X176878152Y-88173571D02*
X176878152Y-88030714D01*
X176878152Y-88030714D02*
X176925771Y-87935475D01*
X176925771Y-87935475D02*
X177021009Y-87887856D01*
X177021009Y-87887856D02*
X177544819Y-87887856D01*
X177497200Y-87030714D02*
X177544819Y-87125952D01*
X177544819Y-87125952D02*
X177544819Y-87316428D01*
X177544819Y-87316428D02*
X177497200Y-87411666D01*
X177497200Y-87411666D02*
X177401961Y-87459285D01*
X177401961Y-87459285D02*
X177021009Y-87459285D01*
X177021009Y-87459285D02*
X176925771Y-87411666D01*
X176925771Y-87411666D02*
X176878152Y-87316428D01*
X176878152Y-87316428D02*
X176878152Y-87125952D01*
X176878152Y-87125952D02*
X176925771Y-87030714D01*
X176925771Y-87030714D02*
X177021009Y-86983095D01*
X177021009Y-86983095D02*
X177116247Y-86983095D01*
X177116247Y-86983095D02*
X177211485Y-87459285D01*
X176878152Y-86125952D02*
X177687676Y-86125952D01*
X177687676Y-86125952D02*
X177782914Y-86173571D01*
X177782914Y-86173571D02*
X177830533Y-86221190D01*
X177830533Y-86221190D02*
X177878152Y-86316428D01*
X177878152Y-86316428D02*
X177878152Y-86459285D01*
X177878152Y-86459285D02*
X177830533Y-86554523D01*
X177497200Y-86125952D02*
X177544819Y-86221190D01*
X177544819Y-86221190D02*
X177544819Y-86411666D01*
X177544819Y-86411666D02*
X177497200Y-86506904D01*
X177497200Y-86506904D02*
X177449580Y-86554523D01*
X177449580Y-86554523D02*
X177354342Y-86602142D01*
X177354342Y-86602142D02*
X177068628Y-86602142D01*
X177068628Y-86602142D02*
X176973390Y-86554523D01*
X176973390Y-86554523D02*
X176925771Y-86506904D01*
X176925771Y-86506904D02*
X176878152Y-86411666D01*
X176878152Y-86411666D02*
X176878152Y-86221190D01*
X176878152Y-86221190D02*
X176925771Y-86125952D01*
X177544819Y-85221190D02*
X177021009Y-85221190D01*
X177021009Y-85221190D02*
X176925771Y-85268809D01*
X176925771Y-85268809D02*
X176878152Y-85364047D01*
X176878152Y-85364047D02*
X176878152Y-85554523D01*
X176878152Y-85554523D02*
X176925771Y-85649761D01*
X177497200Y-85221190D02*
X177544819Y-85316428D01*
X177544819Y-85316428D02*
X177544819Y-85554523D01*
X177544819Y-85554523D02*
X177497200Y-85649761D01*
X177497200Y-85649761D02*
X177401961Y-85697380D01*
X177401961Y-85697380D02*
X177306723Y-85697380D01*
X177306723Y-85697380D02*
X177211485Y-85649761D01*
X177211485Y-85649761D02*
X177163866Y-85554523D01*
X177163866Y-85554523D02*
X177163866Y-85316428D01*
X177163866Y-85316428D02*
X177116247Y-85221190D01*
X176544819Y-84840237D02*
X176544819Y-84221190D01*
X176544819Y-84221190D02*
X176925771Y-84554523D01*
X176925771Y-84554523D02*
X176925771Y-84411666D01*
X176925771Y-84411666D02*
X176973390Y-84316428D01*
X176973390Y-84316428D02*
X177021009Y-84268809D01*
X177021009Y-84268809D02*
X177116247Y-84221190D01*
X177116247Y-84221190D02*
X177354342Y-84221190D01*
X177354342Y-84221190D02*
X177449580Y-84268809D01*
X177449580Y-84268809D02*
X177497200Y-84316428D01*
X177497200Y-84316428D02*
X177544819Y-84411666D01*
X177544819Y-84411666D02*
X177544819Y-84697380D01*
X177544819Y-84697380D02*
X177497200Y-84792618D01*
X177497200Y-84792618D02*
X177449580Y-84840237D01*
X176640057Y-83840237D02*
X176592438Y-83792618D01*
X176592438Y-83792618D02*
X176544819Y-83697380D01*
X176544819Y-83697380D02*
X176544819Y-83459285D01*
X176544819Y-83459285D02*
X176592438Y-83364047D01*
X176592438Y-83364047D02*
X176640057Y-83316428D01*
X176640057Y-83316428D02*
X176735295Y-83268809D01*
X176735295Y-83268809D02*
X176830533Y-83268809D01*
X176830533Y-83268809D02*
X176973390Y-83316428D01*
X176973390Y-83316428D02*
X177544819Y-83887856D01*
X177544819Y-83887856D02*
X177544819Y-83268809D01*
X176973390Y-82697380D02*
X176925771Y-82792618D01*
X176925771Y-82792618D02*
X176878152Y-82840237D01*
X176878152Y-82840237D02*
X176782914Y-82887856D01*
X176782914Y-82887856D02*
X176735295Y-82887856D01*
X176735295Y-82887856D02*
X176640057Y-82840237D01*
X176640057Y-82840237D02*
X176592438Y-82792618D01*
X176592438Y-82792618D02*
X176544819Y-82697380D01*
X176544819Y-82697380D02*
X176544819Y-82506904D01*
X176544819Y-82506904D02*
X176592438Y-82411666D01*
X176592438Y-82411666D02*
X176640057Y-82364047D01*
X176640057Y-82364047D02*
X176735295Y-82316428D01*
X176735295Y-82316428D02*
X176782914Y-82316428D01*
X176782914Y-82316428D02*
X176878152Y-82364047D01*
X176878152Y-82364047D02*
X176925771Y-82411666D01*
X176925771Y-82411666D02*
X176973390Y-82506904D01*
X176973390Y-82506904D02*
X176973390Y-82697380D01*
X176973390Y-82697380D02*
X177021009Y-82792618D01*
X177021009Y-82792618D02*
X177068628Y-82840237D01*
X177068628Y-82840237D02*
X177163866Y-82887856D01*
X177163866Y-82887856D02*
X177354342Y-82887856D01*
X177354342Y-82887856D02*
X177449580Y-82840237D01*
X177449580Y-82840237D02*
X177497200Y-82792618D01*
X177497200Y-82792618D02*
X177544819Y-82697380D01*
X177544819Y-82697380D02*
X177544819Y-82506904D01*
X177544819Y-82506904D02*
X177497200Y-82411666D01*
X177497200Y-82411666D02*
X177449580Y-82364047D01*
X177449580Y-82364047D02*
X177354342Y-82316428D01*
X177354342Y-82316428D02*
X177163866Y-82316428D01*
X177163866Y-82316428D02*
X177068628Y-82364047D01*
X177068628Y-82364047D02*
X177021009Y-82411666D01*
X177021009Y-82411666D02*
X176973390Y-82506904D01*
X177163866Y-81887856D02*
X177163866Y-81125952D01*
X177544819Y-80649761D02*
X176544819Y-80649761D01*
X176544819Y-80649761D02*
X176544819Y-80268809D01*
X176544819Y-80268809D02*
X176592438Y-80173571D01*
X176592438Y-80173571D02*
X176640057Y-80125952D01*
X176640057Y-80125952D02*
X176735295Y-80078333D01*
X176735295Y-80078333D02*
X176878152Y-80078333D01*
X176878152Y-80078333D02*
X176973390Y-80125952D01*
X176973390Y-80125952D02*
X177021009Y-80173571D01*
X177021009Y-80173571D02*
X177068628Y-80268809D01*
X177068628Y-80268809D02*
X177068628Y-80649761D01*
X157488095Y-84699819D02*
X157488095Y-85509342D01*
X157488095Y-85509342D02*
X157535714Y-85604580D01*
X157535714Y-85604580D02*
X157583333Y-85652200D01*
X157583333Y-85652200D02*
X157678571Y-85699819D01*
X157678571Y-85699819D02*
X157869047Y-85699819D01*
X157869047Y-85699819D02*
X157964285Y-85652200D01*
X157964285Y-85652200D02*
X158011904Y-85604580D01*
X158011904Y-85604580D02*
X158059523Y-85509342D01*
X158059523Y-85509342D02*
X158059523Y-84699819D01*
X159059523Y-85699819D02*
X158488095Y-85699819D01*
X158773809Y-85699819D02*
X158773809Y-84699819D01*
X158773809Y-84699819D02*
X158678571Y-84842676D01*
X158678571Y-84842676D02*
X158583333Y-84937914D01*
X158583333Y-84937914D02*
X158488095Y-84985533D01*
X155002381Y-118307200D02*
X155145238Y-118354819D01*
X155145238Y-118354819D02*
X155383333Y-118354819D01*
X155383333Y-118354819D02*
X155478571Y-118307200D01*
X155478571Y-118307200D02*
X155526190Y-118259580D01*
X155526190Y-118259580D02*
X155573809Y-118164342D01*
X155573809Y-118164342D02*
X155573809Y-118069104D01*
X155573809Y-118069104D02*
X155526190Y-117973866D01*
X155526190Y-117973866D02*
X155478571Y-117926247D01*
X155478571Y-117926247D02*
X155383333Y-117878628D01*
X155383333Y-117878628D02*
X155192857Y-117831009D01*
X155192857Y-117831009D02*
X155097619Y-117783390D01*
X155097619Y-117783390D02*
X155050000Y-117735771D01*
X155050000Y-117735771D02*
X155002381Y-117640533D01*
X155002381Y-117640533D02*
X155002381Y-117545295D01*
X155002381Y-117545295D02*
X155050000Y-117450057D01*
X155050000Y-117450057D02*
X155097619Y-117402438D01*
X155097619Y-117402438D02*
X155192857Y-117354819D01*
X155192857Y-117354819D02*
X155430952Y-117354819D01*
X155430952Y-117354819D02*
X155573809Y-117402438D01*
X155907143Y-117354819D02*
X156145238Y-118354819D01*
X156145238Y-118354819D02*
X156335714Y-117640533D01*
X156335714Y-117640533D02*
X156526190Y-118354819D01*
X156526190Y-118354819D02*
X156764286Y-117354819D01*
X156907143Y-118450057D02*
X157669047Y-118450057D01*
X157907143Y-118354819D02*
X157907143Y-117354819D01*
X157907143Y-117354819D02*
X158288095Y-117354819D01*
X158288095Y-117354819D02*
X158383333Y-117402438D01*
X158383333Y-117402438D02*
X158430952Y-117450057D01*
X158430952Y-117450057D02*
X158478571Y-117545295D01*
X158478571Y-117545295D02*
X158478571Y-117688152D01*
X158478571Y-117688152D02*
X158430952Y-117783390D01*
X158430952Y-117783390D02*
X158383333Y-117831009D01*
X158383333Y-117831009D02*
X158288095Y-117878628D01*
X158288095Y-117878628D02*
X157907143Y-117878628D01*
X159335714Y-117688152D02*
X159335714Y-118354819D01*
X158907143Y-117688152D02*
X158907143Y-118211961D01*
X158907143Y-118211961D02*
X158954762Y-118307200D01*
X158954762Y-118307200D02*
X159050000Y-118354819D01*
X159050000Y-118354819D02*
X159192857Y-118354819D01*
X159192857Y-118354819D02*
X159288095Y-118307200D01*
X159288095Y-118307200D02*
X159335714Y-118259580D01*
X159764286Y-118307200D02*
X159859524Y-118354819D01*
X159859524Y-118354819D02*
X160050000Y-118354819D01*
X160050000Y-118354819D02*
X160145238Y-118307200D01*
X160145238Y-118307200D02*
X160192857Y-118211961D01*
X160192857Y-118211961D02*
X160192857Y-118164342D01*
X160192857Y-118164342D02*
X160145238Y-118069104D01*
X160145238Y-118069104D02*
X160050000Y-118021485D01*
X160050000Y-118021485D02*
X159907143Y-118021485D01*
X159907143Y-118021485D02*
X159811905Y-117973866D01*
X159811905Y-117973866D02*
X159764286Y-117878628D01*
X159764286Y-117878628D02*
X159764286Y-117831009D01*
X159764286Y-117831009D02*
X159811905Y-117735771D01*
X159811905Y-117735771D02*
X159907143Y-117688152D01*
X159907143Y-117688152D02*
X160050000Y-117688152D01*
X160050000Y-117688152D02*
X160145238Y-117735771D01*
X160621429Y-118354819D02*
X160621429Y-117354819D01*
X161050000Y-118354819D02*
X161050000Y-117831009D01*
X161050000Y-117831009D02*
X161002381Y-117735771D01*
X161002381Y-117735771D02*
X160907143Y-117688152D01*
X160907143Y-117688152D02*
X160764286Y-117688152D01*
X160764286Y-117688152D02*
X160669048Y-117735771D01*
X160669048Y-117735771D02*
X160621429Y-117783390D01*
X156716667Y-114157200D02*
X156859524Y-114204819D01*
X156859524Y-114204819D02*
X157097619Y-114204819D01*
X157097619Y-114204819D02*
X157192857Y-114157200D01*
X157192857Y-114157200D02*
X157240476Y-114109580D01*
X157240476Y-114109580D02*
X157288095Y-114014342D01*
X157288095Y-114014342D02*
X157288095Y-113919104D01*
X157288095Y-113919104D02*
X157240476Y-113823866D01*
X157240476Y-113823866D02*
X157192857Y-113776247D01*
X157192857Y-113776247D02*
X157097619Y-113728628D01*
X157097619Y-113728628D02*
X156907143Y-113681009D01*
X156907143Y-113681009D02*
X156811905Y-113633390D01*
X156811905Y-113633390D02*
X156764286Y-113585771D01*
X156764286Y-113585771D02*
X156716667Y-113490533D01*
X156716667Y-113490533D02*
X156716667Y-113395295D01*
X156716667Y-113395295D02*
X156764286Y-113300057D01*
X156764286Y-113300057D02*
X156811905Y-113252438D01*
X156811905Y-113252438D02*
X156907143Y-113204819D01*
X156907143Y-113204819D02*
X157145238Y-113204819D01*
X157145238Y-113204819D02*
X157288095Y-113252438D01*
X157621429Y-113204819D02*
X157859524Y-114204819D01*
X157859524Y-114204819D02*
X158050000Y-113490533D01*
X158050000Y-113490533D02*
X158240476Y-114204819D01*
X158240476Y-114204819D02*
X158478572Y-113204819D01*
X158764286Y-113204819D02*
X159430952Y-113204819D01*
X159430952Y-113204819D02*
X159002381Y-114204819D01*
X184026190Y-79304819D02*
X184645237Y-79304819D01*
X184645237Y-79304819D02*
X184311904Y-79685771D01*
X184311904Y-79685771D02*
X184454761Y-79685771D01*
X184454761Y-79685771D02*
X184549999Y-79733390D01*
X184549999Y-79733390D02*
X184597618Y-79781009D01*
X184597618Y-79781009D02*
X184645237Y-79876247D01*
X184645237Y-79876247D02*
X184645237Y-80114342D01*
X184645237Y-80114342D02*
X184597618Y-80209580D01*
X184597618Y-80209580D02*
X184549999Y-80257200D01*
X184549999Y-80257200D02*
X184454761Y-80304819D01*
X184454761Y-80304819D02*
X184169047Y-80304819D01*
X184169047Y-80304819D02*
X184073809Y-80257200D01*
X184073809Y-80257200D02*
X184026190Y-80209580D01*
X185073809Y-80209580D02*
X185121428Y-80257200D01*
X185121428Y-80257200D02*
X185073809Y-80304819D01*
X185073809Y-80304819D02*
X185026190Y-80257200D01*
X185026190Y-80257200D02*
X185073809Y-80209580D01*
X185073809Y-80209580D02*
X185073809Y-80304819D01*
X185978570Y-79638152D02*
X185978570Y-80304819D01*
X185740475Y-79257200D02*
X185502380Y-79971485D01*
X185502380Y-79971485D02*
X186121427Y-79971485D01*
X187169047Y-79304819D02*
X187835713Y-79304819D01*
X187835713Y-79304819D02*
X187169047Y-80304819D01*
X187169047Y-80304819D02*
X187835713Y-80304819D01*
X188597618Y-80257200D02*
X188502380Y-80304819D01*
X188502380Y-80304819D02*
X188311904Y-80304819D01*
X188311904Y-80304819D02*
X188216666Y-80257200D01*
X188216666Y-80257200D02*
X188169047Y-80161961D01*
X188169047Y-80161961D02*
X188169047Y-79781009D01*
X188169047Y-79781009D02*
X188216666Y-79685771D01*
X188216666Y-79685771D02*
X188311904Y-79638152D01*
X188311904Y-79638152D02*
X188502380Y-79638152D01*
X188502380Y-79638152D02*
X188597618Y-79685771D01*
X188597618Y-79685771D02*
X188645237Y-79781009D01*
X188645237Y-79781009D02*
X188645237Y-79876247D01*
X188645237Y-79876247D02*
X188169047Y-79971485D01*
X189073809Y-79638152D02*
X189073809Y-80304819D01*
X189073809Y-79733390D02*
X189121428Y-79685771D01*
X189121428Y-79685771D02*
X189216666Y-79638152D01*
X189216666Y-79638152D02*
X189359523Y-79638152D01*
X189359523Y-79638152D02*
X189454761Y-79685771D01*
X189454761Y-79685771D02*
X189502380Y-79781009D01*
X189502380Y-79781009D02*
X189502380Y-80304819D01*
X190359523Y-80257200D02*
X190264285Y-80304819D01*
X190264285Y-80304819D02*
X190073809Y-80304819D01*
X190073809Y-80304819D02*
X189978571Y-80257200D01*
X189978571Y-80257200D02*
X189930952Y-80161961D01*
X189930952Y-80161961D02*
X189930952Y-79781009D01*
X189930952Y-79781009D02*
X189978571Y-79685771D01*
X189978571Y-79685771D02*
X190073809Y-79638152D01*
X190073809Y-79638152D02*
X190264285Y-79638152D01*
X190264285Y-79638152D02*
X190359523Y-79685771D01*
X190359523Y-79685771D02*
X190407142Y-79781009D01*
X190407142Y-79781009D02*
X190407142Y-79876247D01*
X190407142Y-79876247D02*
X189930952Y-79971485D01*
X190835714Y-80304819D02*
X190835714Y-79638152D01*
X190835714Y-79828628D02*
X190883333Y-79733390D01*
X190883333Y-79733390D02*
X190930952Y-79685771D01*
X190930952Y-79685771D02*
X191026190Y-79638152D01*
X191026190Y-79638152D02*
X191121428Y-79638152D01*
X186911905Y-84054819D02*
X186911905Y-83054819D01*
X186911905Y-83054819D02*
X187150000Y-83054819D01*
X187150000Y-83054819D02*
X187292857Y-83102438D01*
X187292857Y-83102438D02*
X187388095Y-83197676D01*
X187388095Y-83197676D02*
X187435714Y-83292914D01*
X187435714Y-83292914D02*
X187483333Y-83483390D01*
X187483333Y-83483390D02*
X187483333Y-83626247D01*
X187483333Y-83626247D02*
X187435714Y-83816723D01*
X187435714Y-83816723D02*
X187388095Y-83911961D01*
X187388095Y-83911961D02*
X187292857Y-84007200D01*
X187292857Y-84007200D02*
X187150000Y-84054819D01*
X187150000Y-84054819D02*
X186911905Y-84054819D01*
X188435714Y-84054819D02*
X187864286Y-84054819D01*
X188150000Y-84054819D02*
X188150000Y-83054819D01*
X188150000Y-83054819D02*
X188054762Y-83197676D01*
X188054762Y-83197676D02*
X187959524Y-83292914D01*
X187959524Y-83292914D02*
X187864286Y-83340533D01*
X140502381Y-130807200D02*
X140645238Y-130854819D01*
X140645238Y-130854819D02*
X140883333Y-130854819D01*
X140883333Y-130854819D02*
X140978571Y-130807200D01*
X140978571Y-130807200D02*
X141026190Y-130759580D01*
X141026190Y-130759580D02*
X141073809Y-130664342D01*
X141073809Y-130664342D02*
X141073809Y-130569104D01*
X141073809Y-130569104D02*
X141026190Y-130473866D01*
X141026190Y-130473866D02*
X140978571Y-130426247D01*
X140978571Y-130426247D02*
X140883333Y-130378628D01*
X140883333Y-130378628D02*
X140692857Y-130331009D01*
X140692857Y-130331009D02*
X140597619Y-130283390D01*
X140597619Y-130283390D02*
X140550000Y-130235771D01*
X140550000Y-130235771D02*
X140502381Y-130140533D01*
X140502381Y-130140533D02*
X140502381Y-130045295D01*
X140502381Y-130045295D02*
X140550000Y-129950057D01*
X140550000Y-129950057D02*
X140597619Y-129902438D01*
X140597619Y-129902438D02*
X140692857Y-129854819D01*
X140692857Y-129854819D02*
X140930952Y-129854819D01*
X140930952Y-129854819D02*
X141073809Y-129902438D01*
X141407143Y-129854819D02*
X141645238Y-130854819D01*
X141645238Y-130854819D02*
X141835714Y-130140533D01*
X141835714Y-130140533D02*
X142026190Y-130854819D01*
X142026190Y-130854819D02*
X142264286Y-129854819D01*
X142407143Y-130950057D02*
X143169047Y-130950057D01*
X143407143Y-130854819D02*
X143407143Y-129854819D01*
X143407143Y-129854819D02*
X143788095Y-129854819D01*
X143788095Y-129854819D02*
X143883333Y-129902438D01*
X143883333Y-129902438D02*
X143930952Y-129950057D01*
X143930952Y-129950057D02*
X143978571Y-130045295D01*
X143978571Y-130045295D02*
X143978571Y-130188152D01*
X143978571Y-130188152D02*
X143930952Y-130283390D01*
X143930952Y-130283390D02*
X143883333Y-130331009D01*
X143883333Y-130331009D02*
X143788095Y-130378628D01*
X143788095Y-130378628D02*
X143407143Y-130378628D01*
X144835714Y-130188152D02*
X144835714Y-130854819D01*
X144407143Y-130188152D02*
X144407143Y-130711961D01*
X144407143Y-130711961D02*
X144454762Y-130807200D01*
X144454762Y-130807200D02*
X144550000Y-130854819D01*
X144550000Y-130854819D02*
X144692857Y-130854819D01*
X144692857Y-130854819D02*
X144788095Y-130807200D01*
X144788095Y-130807200D02*
X144835714Y-130759580D01*
X145264286Y-130807200D02*
X145359524Y-130854819D01*
X145359524Y-130854819D02*
X145550000Y-130854819D01*
X145550000Y-130854819D02*
X145645238Y-130807200D01*
X145645238Y-130807200D02*
X145692857Y-130711961D01*
X145692857Y-130711961D02*
X145692857Y-130664342D01*
X145692857Y-130664342D02*
X145645238Y-130569104D01*
X145645238Y-130569104D02*
X145550000Y-130521485D01*
X145550000Y-130521485D02*
X145407143Y-130521485D01*
X145407143Y-130521485D02*
X145311905Y-130473866D01*
X145311905Y-130473866D02*
X145264286Y-130378628D01*
X145264286Y-130378628D02*
X145264286Y-130331009D01*
X145264286Y-130331009D02*
X145311905Y-130235771D01*
X145311905Y-130235771D02*
X145407143Y-130188152D01*
X145407143Y-130188152D02*
X145550000Y-130188152D01*
X145550000Y-130188152D02*
X145645238Y-130235771D01*
X146121429Y-130854819D02*
X146121429Y-129854819D01*
X146550000Y-130854819D02*
X146550000Y-130331009D01*
X146550000Y-130331009D02*
X146502381Y-130235771D01*
X146502381Y-130235771D02*
X146407143Y-130188152D01*
X146407143Y-130188152D02*
X146264286Y-130188152D01*
X146264286Y-130188152D02*
X146169048Y-130235771D01*
X146169048Y-130235771D02*
X146121429Y-130283390D01*
X142216667Y-126657200D02*
X142359524Y-126704819D01*
X142359524Y-126704819D02*
X142597619Y-126704819D01*
X142597619Y-126704819D02*
X142692857Y-126657200D01*
X142692857Y-126657200D02*
X142740476Y-126609580D01*
X142740476Y-126609580D02*
X142788095Y-126514342D01*
X142788095Y-126514342D02*
X142788095Y-126419104D01*
X142788095Y-126419104D02*
X142740476Y-126323866D01*
X142740476Y-126323866D02*
X142692857Y-126276247D01*
X142692857Y-126276247D02*
X142597619Y-126228628D01*
X142597619Y-126228628D02*
X142407143Y-126181009D01*
X142407143Y-126181009D02*
X142311905Y-126133390D01*
X142311905Y-126133390D02*
X142264286Y-126085771D01*
X142264286Y-126085771D02*
X142216667Y-125990533D01*
X142216667Y-125990533D02*
X142216667Y-125895295D01*
X142216667Y-125895295D02*
X142264286Y-125800057D01*
X142264286Y-125800057D02*
X142311905Y-125752438D01*
X142311905Y-125752438D02*
X142407143Y-125704819D01*
X142407143Y-125704819D02*
X142645238Y-125704819D01*
X142645238Y-125704819D02*
X142788095Y-125752438D01*
X143121429Y-125704819D02*
X143359524Y-126704819D01*
X143359524Y-126704819D02*
X143550000Y-125990533D01*
X143550000Y-125990533D02*
X143740476Y-126704819D01*
X143740476Y-126704819D02*
X143978572Y-125704819D01*
X144788095Y-126038152D02*
X144788095Y-126704819D01*
X144550000Y-125657200D02*
X144311905Y-126371485D01*
X144311905Y-126371485D02*
X144930952Y-126371485D01*
X186942261Y-83124819D02*
X186370833Y-83124819D01*
X186656547Y-83124819D02*
X186656547Y-82124819D01*
X186656547Y-82124819D02*
X186561309Y-82267676D01*
X186561309Y-82267676D02*
X186466071Y-82362914D01*
X186466071Y-82362914D02*
X186370833Y-82410533D01*
X187561309Y-82124819D02*
X187656547Y-82124819D01*
X187656547Y-82124819D02*
X187751785Y-82172438D01*
X187751785Y-82172438D02*
X187799404Y-82220057D01*
X187799404Y-82220057D02*
X187847023Y-82315295D01*
X187847023Y-82315295D02*
X187894642Y-82505771D01*
X187894642Y-82505771D02*
X187894642Y-82743866D01*
X187894642Y-82743866D02*
X187847023Y-82934342D01*
X187847023Y-82934342D02*
X187799404Y-83029580D01*
X187799404Y-83029580D02*
X187751785Y-83077200D01*
X187751785Y-83077200D02*
X187656547Y-83124819D01*
X187656547Y-83124819D02*
X187561309Y-83124819D01*
X187561309Y-83124819D02*
X187466071Y-83077200D01*
X187466071Y-83077200D02*
X187418452Y-83029580D01*
X187418452Y-83029580D02*
X187370833Y-82934342D01*
X187370833Y-82934342D02*
X187323214Y-82743866D01*
X187323214Y-82743866D02*
X187323214Y-82505771D01*
X187323214Y-82505771D02*
X187370833Y-82315295D01*
X187370833Y-82315295D02*
X187418452Y-82220057D01*
X187418452Y-82220057D02*
X187466071Y-82172438D01*
X187466071Y-82172438D02*
X187561309Y-82124819D01*
X188323214Y-83124819D02*
X188323214Y-82124819D01*
X188418452Y-82743866D02*
X188704166Y-83124819D01*
X188704166Y-82458152D02*
X188323214Y-82839104D01*
D12*
X187404167Y-84863855D02*
X187137500Y-84482902D01*
X186947024Y-84863855D02*
X186947024Y-84063855D01*
X186947024Y-84063855D02*
X187251786Y-84063855D01*
X187251786Y-84063855D02*
X187327976Y-84101950D01*
X187327976Y-84101950D02*
X187366071Y-84140045D01*
X187366071Y-84140045D02*
X187404167Y-84216236D01*
X187404167Y-84216236D02*
X187404167Y-84330521D01*
X187404167Y-84330521D02*
X187366071Y-84406712D01*
X187366071Y-84406712D02*
X187327976Y-84444807D01*
X187327976Y-84444807D02*
X187251786Y-84482902D01*
X187251786Y-84482902D02*
X186947024Y-84482902D01*
X188166071Y-84863855D02*
X187708928Y-84863855D01*
X187937500Y-84863855D02*
X187937500Y-84063855D01*
X187937500Y-84063855D02*
X187861309Y-84178140D01*
X187861309Y-84178140D02*
X187785119Y-84254331D01*
X187785119Y-84254331D02*
X187708928Y-84292426D01*
D10*
X169502381Y-144557200D02*
X169645238Y-144604819D01*
X169645238Y-144604819D02*
X169883333Y-144604819D01*
X169883333Y-144604819D02*
X169978571Y-144557200D01*
X169978571Y-144557200D02*
X170026190Y-144509580D01*
X170026190Y-144509580D02*
X170073809Y-144414342D01*
X170073809Y-144414342D02*
X170073809Y-144319104D01*
X170073809Y-144319104D02*
X170026190Y-144223866D01*
X170026190Y-144223866D02*
X169978571Y-144176247D01*
X169978571Y-144176247D02*
X169883333Y-144128628D01*
X169883333Y-144128628D02*
X169692857Y-144081009D01*
X169692857Y-144081009D02*
X169597619Y-144033390D01*
X169597619Y-144033390D02*
X169550000Y-143985771D01*
X169550000Y-143985771D02*
X169502381Y-143890533D01*
X169502381Y-143890533D02*
X169502381Y-143795295D01*
X169502381Y-143795295D02*
X169550000Y-143700057D01*
X169550000Y-143700057D02*
X169597619Y-143652438D01*
X169597619Y-143652438D02*
X169692857Y-143604819D01*
X169692857Y-143604819D02*
X169930952Y-143604819D01*
X169930952Y-143604819D02*
X170073809Y-143652438D01*
X170407143Y-143604819D02*
X170645238Y-144604819D01*
X170645238Y-144604819D02*
X170835714Y-143890533D01*
X170835714Y-143890533D02*
X171026190Y-144604819D01*
X171026190Y-144604819D02*
X171264286Y-143604819D01*
X171407143Y-144700057D02*
X172169047Y-144700057D01*
X172407143Y-144604819D02*
X172407143Y-143604819D01*
X172407143Y-143604819D02*
X172788095Y-143604819D01*
X172788095Y-143604819D02*
X172883333Y-143652438D01*
X172883333Y-143652438D02*
X172930952Y-143700057D01*
X172930952Y-143700057D02*
X172978571Y-143795295D01*
X172978571Y-143795295D02*
X172978571Y-143938152D01*
X172978571Y-143938152D02*
X172930952Y-144033390D01*
X172930952Y-144033390D02*
X172883333Y-144081009D01*
X172883333Y-144081009D02*
X172788095Y-144128628D01*
X172788095Y-144128628D02*
X172407143Y-144128628D01*
X173835714Y-143938152D02*
X173835714Y-144604819D01*
X173407143Y-143938152D02*
X173407143Y-144461961D01*
X173407143Y-144461961D02*
X173454762Y-144557200D01*
X173454762Y-144557200D02*
X173550000Y-144604819D01*
X173550000Y-144604819D02*
X173692857Y-144604819D01*
X173692857Y-144604819D02*
X173788095Y-144557200D01*
X173788095Y-144557200D02*
X173835714Y-144509580D01*
X174264286Y-144557200D02*
X174359524Y-144604819D01*
X174359524Y-144604819D02*
X174550000Y-144604819D01*
X174550000Y-144604819D02*
X174645238Y-144557200D01*
X174645238Y-144557200D02*
X174692857Y-144461961D01*
X174692857Y-144461961D02*
X174692857Y-144414342D01*
X174692857Y-144414342D02*
X174645238Y-144319104D01*
X174645238Y-144319104D02*
X174550000Y-144271485D01*
X174550000Y-144271485D02*
X174407143Y-144271485D01*
X174407143Y-144271485D02*
X174311905Y-144223866D01*
X174311905Y-144223866D02*
X174264286Y-144128628D01*
X174264286Y-144128628D02*
X174264286Y-144081009D01*
X174264286Y-144081009D02*
X174311905Y-143985771D01*
X174311905Y-143985771D02*
X174407143Y-143938152D01*
X174407143Y-143938152D02*
X174550000Y-143938152D01*
X174550000Y-143938152D02*
X174645238Y-143985771D01*
X175121429Y-144604819D02*
X175121429Y-143604819D01*
X175550000Y-144604819D02*
X175550000Y-144081009D01*
X175550000Y-144081009D02*
X175502381Y-143985771D01*
X175502381Y-143985771D02*
X175407143Y-143938152D01*
X175407143Y-143938152D02*
X175264286Y-143938152D01*
X175264286Y-143938152D02*
X175169048Y-143985771D01*
X175169048Y-143985771D02*
X175121429Y-144033390D01*
X170740476Y-140407200D02*
X170883333Y-140454819D01*
X170883333Y-140454819D02*
X171121428Y-140454819D01*
X171121428Y-140454819D02*
X171216666Y-140407200D01*
X171216666Y-140407200D02*
X171264285Y-140359580D01*
X171264285Y-140359580D02*
X171311904Y-140264342D01*
X171311904Y-140264342D02*
X171311904Y-140169104D01*
X171311904Y-140169104D02*
X171264285Y-140073866D01*
X171264285Y-140073866D02*
X171216666Y-140026247D01*
X171216666Y-140026247D02*
X171121428Y-139978628D01*
X171121428Y-139978628D02*
X170930952Y-139931009D01*
X170930952Y-139931009D02*
X170835714Y-139883390D01*
X170835714Y-139883390D02*
X170788095Y-139835771D01*
X170788095Y-139835771D02*
X170740476Y-139740533D01*
X170740476Y-139740533D02*
X170740476Y-139645295D01*
X170740476Y-139645295D02*
X170788095Y-139550057D01*
X170788095Y-139550057D02*
X170835714Y-139502438D01*
X170835714Y-139502438D02*
X170930952Y-139454819D01*
X170930952Y-139454819D02*
X171169047Y-139454819D01*
X171169047Y-139454819D02*
X171311904Y-139502438D01*
X171645238Y-139454819D02*
X171883333Y-140454819D01*
X171883333Y-140454819D02*
X172073809Y-139740533D01*
X172073809Y-139740533D02*
X172264285Y-140454819D01*
X172264285Y-140454819D02*
X172502381Y-139454819D01*
X173407142Y-140454819D02*
X172835714Y-140454819D01*
X173121428Y-140454819D02*
X173121428Y-139454819D01*
X173121428Y-139454819D02*
X173026190Y-139597676D01*
X173026190Y-139597676D02*
X172930952Y-139692914D01*
X172930952Y-139692914D02*
X172835714Y-139740533D01*
X174026190Y-139454819D02*
X174121428Y-139454819D01*
X174121428Y-139454819D02*
X174216666Y-139502438D01*
X174216666Y-139502438D02*
X174264285Y-139550057D01*
X174264285Y-139550057D02*
X174311904Y-139645295D01*
X174311904Y-139645295D02*
X174359523Y-139835771D01*
X174359523Y-139835771D02*
X174359523Y-140073866D01*
X174359523Y-140073866D02*
X174311904Y-140264342D01*
X174311904Y-140264342D02*
X174264285Y-140359580D01*
X174264285Y-140359580D02*
X174216666Y-140407200D01*
X174216666Y-140407200D02*
X174121428Y-140454819D01*
X174121428Y-140454819D02*
X174026190Y-140454819D01*
X174026190Y-140454819D02*
X173930952Y-140407200D01*
X173930952Y-140407200D02*
X173883333Y-140359580D01*
X173883333Y-140359580D02*
X173835714Y-140264342D01*
X173835714Y-140264342D02*
X173788095Y-140073866D01*
X173788095Y-140073866D02*
X173788095Y-139835771D01*
X173788095Y-139835771D02*
X173835714Y-139645295D01*
X173835714Y-139645295D02*
X173883333Y-139550057D01*
X173883333Y-139550057D02*
X173930952Y-139502438D01*
X173930952Y-139502438D02*
X174026190Y-139454819D01*
X167015476Y-69674819D02*
X167015476Y-68674819D01*
X167015476Y-68674819D02*
X167253571Y-68674819D01*
X167253571Y-68674819D02*
X167396428Y-68722438D01*
X167396428Y-68722438D02*
X167491666Y-68817676D01*
X167491666Y-68817676D02*
X167539285Y-68912914D01*
X167539285Y-68912914D02*
X167586904Y-69103390D01*
X167586904Y-69103390D02*
X167586904Y-69246247D01*
X167586904Y-69246247D02*
X167539285Y-69436723D01*
X167539285Y-69436723D02*
X167491666Y-69531961D01*
X167491666Y-69531961D02*
X167396428Y-69627200D01*
X167396428Y-69627200D02*
X167253571Y-69674819D01*
X167253571Y-69674819D02*
X167015476Y-69674819D01*
X168015476Y-69674819D02*
X168015476Y-68674819D01*
X168015476Y-68674819D02*
X168348809Y-69389104D01*
X168348809Y-69389104D02*
X168682142Y-68674819D01*
X168682142Y-68674819D02*
X168682142Y-69674819D01*
X169158333Y-69293866D02*
X169920238Y-69293866D01*
X170586904Y-68674819D02*
X170777380Y-68674819D01*
X170777380Y-68674819D02*
X170872618Y-68722438D01*
X170872618Y-68722438D02*
X170967856Y-68817676D01*
X170967856Y-68817676D02*
X171015475Y-69008152D01*
X171015475Y-69008152D02*
X171015475Y-69341485D01*
X171015475Y-69341485D02*
X170967856Y-69531961D01*
X170967856Y-69531961D02*
X170872618Y-69627200D01*
X170872618Y-69627200D02*
X170777380Y-69674819D01*
X170777380Y-69674819D02*
X170586904Y-69674819D01*
X170586904Y-69674819D02*
X170491666Y-69627200D01*
X170491666Y-69627200D02*
X170396428Y-69531961D01*
X170396428Y-69531961D02*
X170348809Y-69341485D01*
X170348809Y-69341485D02*
X170348809Y-69008152D01*
X170348809Y-69008152D02*
X170396428Y-68817676D01*
X170396428Y-68817676D02*
X170491666Y-68722438D01*
X170491666Y-68722438D02*
X170586904Y-68674819D01*
X171920237Y-69674819D02*
X171444047Y-69674819D01*
X171444047Y-69674819D02*
X171444047Y-68674819D01*
X172253571Y-69151009D02*
X172586904Y-69151009D01*
X172729761Y-69674819D02*
X172253571Y-69674819D01*
X172253571Y-69674819D02*
X172253571Y-68674819D01*
X172253571Y-68674819D02*
X172729761Y-68674819D01*
X173158333Y-69674819D02*
X173158333Y-68674819D01*
X173158333Y-68674819D02*
X173396428Y-68674819D01*
X173396428Y-68674819D02*
X173539285Y-68722438D01*
X173539285Y-68722438D02*
X173634523Y-68817676D01*
X173634523Y-68817676D02*
X173682142Y-68912914D01*
X173682142Y-68912914D02*
X173729761Y-69103390D01*
X173729761Y-69103390D02*
X173729761Y-69246247D01*
X173729761Y-69246247D02*
X173682142Y-69436723D01*
X173682142Y-69436723D02*
X173634523Y-69531961D01*
X173634523Y-69531961D02*
X173539285Y-69627200D01*
X173539285Y-69627200D02*
X173396428Y-69674819D01*
X173396428Y-69674819D02*
X173158333Y-69674819D01*
X174348809Y-68674819D02*
X174444047Y-68674819D01*
X174444047Y-68674819D02*
X174539285Y-68722438D01*
X174539285Y-68722438D02*
X174586904Y-68770057D01*
X174586904Y-68770057D02*
X174634523Y-68865295D01*
X174634523Y-68865295D02*
X174682142Y-69055771D01*
X174682142Y-69055771D02*
X174682142Y-69293866D01*
X174682142Y-69293866D02*
X174634523Y-69484342D01*
X174634523Y-69484342D02*
X174586904Y-69579580D01*
X174586904Y-69579580D02*
X174539285Y-69627200D01*
X174539285Y-69627200D02*
X174444047Y-69674819D01*
X174444047Y-69674819D02*
X174348809Y-69674819D01*
X174348809Y-69674819D02*
X174253571Y-69627200D01*
X174253571Y-69627200D02*
X174205952Y-69579580D01*
X174205952Y-69579580D02*
X174158333Y-69484342D01*
X174158333Y-69484342D02*
X174110714Y-69293866D01*
X174110714Y-69293866D02*
X174110714Y-69055771D01*
X174110714Y-69055771D02*
X174158333Y-68865295D01*
X174158333Y-68865295D02*
X174205952Y-68770057D01*
X174205952Y-68770057D02*
X174253571Y-68722438D01*
X174253571Y-68722438D02*
X174348809Y-68674819D01*
X175158333Y-69674819D02*
X175348809Y-69674819D01*
X175348809Y-69674819D02*
X175444047Y-69627200D01*
X175444047Y-69627200D02*
X175491666Y-69579580D01*
X175491666Y-69579580D02*
X175586904Y-69436723D01*
X175586904Y-69436723D02*
X175634523Y-69246247D01*
X175634523Y-69246247D02*
X175634523Y-68865295D01*
X175634523Y-68865295D02*
X175586904Y-68770057D01*
X175586904Y-68770057D02*
X175539285Y-68722438D01*
X175539285Y-68722438D02*
X175444047Y-68674819D01*
X175444047Y-68674819D02*
X175253571Y-68674819D01*
X175253571Y-68674819D02*
X175158333Y-68722438D01*
X175158333Y-68722438D02*
X175110714Y-68770057D01*
X175110714Y-68770057D02*
X175063095Y-68865295D01*
X175063095Y-68865295D02*
X175063095Y-69103390D01*
X175063095Y-69103390D02*
X175110714Y-69198628D01*
X175110714Y-69198628D02*
X175158333Y-69246247D01*
X175158333Y-69246247D02*
X175253571Y-69293866D01*
X175253571Y-69293866D02*
X175444047Y-69293866D01*
X175444047Y-69293866D02*
X175539285Y-69246247D01*
X175539285Y-69246247D02*
X175586904Y-69198628D01*
X175586904Y-69198628D02*
X175634523Y-69103390D01*
X176491666Y-68674819D02*
X176301190Y-68674819D01*
X176301190Y-68674819D02*
X176205952Y-68722438D01*
X176205952Y-68722438D02*
X176158333Y-68770057D01*
X176158333Y-68770057D02*
X176063095Y-68912914D01*
X176063095Y-68912914D02*
X176015476Y-69103390D01*
X176015476Y-69103390D02*
X176015476Y-69484342D01*
X176015476Y-69484342D02*
X176063095Y-69579580D01*
X176063095Y-69579580D02*
X176110714Y-69627200D01*
X176110714Y-69627200D02*
X176205952Y-69674819D01*
X176205952Y-69674819D02*
X176396428Y-69674819D01*
X176396428Y-69674819D02*
X176491666Y-69627200D01*
X176491666Y-69627200D02*
X176539285Y-69579580D01*
X176539285Y-69579580D02*
X176586904Y-69484342D01*
X176586904Y-69484342D02*
X176586904Y-69246247D01*
X176586904Y-69246247D02*
X176539285Y-69151009D01*
X176539285Y-69151009D02*
X176491666Y-69103390D01*
X176491666Y-69103390D02*
X176396428Y-69055771D01*
X176396428Y-69055771D02*
X176205952Y-69055771D01*
X176205952Y-69055771D02*
X176110714Y-69103390D01*
X176110714Y-69103390D02*
X176063095Y-69151009D01*
X176063095Y-69151009D02*
X176015476Y-69246247D01*
X177015476Y-69293866D02*
X177777381Y-69293866D01*
X178682142Y-68674819D02*
X178491666Y-68674819D01*
X178491666Y-68674819D02*
X178396428Y-68722438D01*
X178396428Y-68722438D02*
X178348809Y-68770057D01*
X178348809Y-68770057D02*
X178253571Y-68912914D01*
X178253571Y-68912914D02*
X178205952Y-69103390D01*
X178205952Y-69103390D02*
X178205952Y-69484342D01*
X178205952Y-69484342D02*
X178253571Y-69579580D01*
X178253571Y-69579580D02*
X178301190Y-69627200D01*
X178301190Y-69627200D02*
X178396428Y-69674819D01*
X178396428Y-69674819D02*
X178586904Y-69674819D01*
X178586904Y-69674819D02*
X178682142Y-69627200D01*
X178682142Y-69627200D02*
X178729761Y-69579580D01*
X178729761Y-69579580D02*
X178777380Y-69484342D01*
X178777380Y-69484342D02*
X178777380Y-69246247D01*
X178777380Y-69246247D02*
X178729761Y-69151009D01*
X178729761Y-69151009D02*
X178682142Y-69103390D01*
X178682142Y-69103390D02*
X178586904Y-69055771D01*
X178586904Y-69055771D02*
X178396428Y-69055771D01*
X178396428Y-69055771D02*
X178301190Y-69103390D01*
X178301190Y-69103390D02*
X178253571Y-69151009D01*
X178253571Y-69151009D02*
X178205952Y-69246247D01*
X179110714Y-68674819D02*
X179729761Y-68674819D01*
X179729761Y-68674819D02*
X179396428Y-69055771D01*
X179396428Y-69055771D02*
X179539285Y-69055771D01*
X179539285Y-69055771D02*
X179634523Y-69103390D01*
X179634523Y-69103390D02*
X179682142Y-69151009D01*
X179682142Y-69151009D02*
X179729761Y-69246247D01*
X179729761Y-69246247D02*
X179729761Y-69484342D01*
X179729761Y-69484342D02*
X179682142Y-69579580D01*
X179682142Y-69579580D02*
X179634523Y-69627200D01*
X179634523Y-69627200D02*
X179539285Y-69674819D01*
X179539285Y-69674819D02*
X179253571Y-69674819D01*
X179253571Y-69674819D02*
X179158333Y-69627200D01*
X179158333Y-69627200D02*
X179110714Y-69579580D01*
X180586904Y-68674819D02*
X180396428Y-68674819D01*
X180396428Y-68674819D02*
X180301190Y-68722438D01*
X180301190Y-68722438D02*
X180253571Y-68770057D01*
X180253571Y-68770057D02*
X180158333Y-68912914D01*
X180158333Y-68912914D02*
X180110714Y-69103390D01*
X180110714Y-69103390D02*
X180110714Y-69484342D01*
X180110714Y-69484342D02*
X180158333Y-69579580D01*
X180158333Y-69579580D02*
X180205952Y-69627200D01*
X180205952Y-69627200D02*
X180301190Y-69674819D01*
X180301190Y-69674819D02*
X180491666Y-69674819D01*
X180491666Y-69674819D02*
X180586904Y-69627200D01*
X180586904Y-69627200D02*
X180634523Y-69579580D01*
X180634523Y-69579580D02*
X180682142Y-69484342D01*
X180682142Y-69484342D02*
X180682142Y-69246247D01*
X180682142Y-69246247D02*
X180634523Y-69151009D01*
X180634523Y-69151009D02*
X180586904Y-69103390D01*
X180586904Y-69103390D02*
X180491666Y-69055771D01*
X180491666Y-69055771D02*
X180301190Y-69055771D01*
X180301190Y-69055771D02*
X180205952Y-69103390D01*
X180205952Y-69103390D02*
X180158333Y-69151009D01*
X180158333Y-69151009D02*
X180110714Y-69246247D01*
X154952381Y-106307200D02*
X155095238Y-106354819D01*
X155095238Y-106354819D02*
X155333333Y-106354819D01*
X155333333Y-106354819D02*
X155428571Y-106307200D01*
X155428571Y-106307200D02*
X155476190Y-106259580D01*
X155476190Y-106259580D02*
X155523809Y-106164342D01*
X155523809Y-106164342D02*
X155523809Y-106069104D01*
X155523809Y-106069104D02*
X155476190Y-105973866D01*
X155476190Y-105973866D02*
X155428571Y-105926247D01*
X155428571Y-105926247D02*
X155333333Y-105878628D01*
X155333333Y-105878628D02*
X155142857Y-105831009D01*
X155142857Y-105831009D02*
X155047619Y-105783390D01*
X155047619Y-105783390D02*
X155000000Y-105735771D01*
X155000000Y-105735771D02*
X154952381Y-105640533D01*
X154952381Y-105640533D02*
X154952381Y-105545295D01*
X154952381Y-105545295D02*
X155000000Y-105450057D01*
X155000000Y-105450057D02*
X155047619Y-105402438D01*
X155047619Y-105402438D02*
X155142857Y-105354819D01*
X155142857Y-105354819D02*
X155380952Y-105354819D01*
X155380952Y-105354819D02*
X155523809Y-105402438D01*
X155857143Y-105354819D02*
X156095238Y-106354819D01*
X156095238Y-106354819D02*
X156285714Y-105640533D01*
X156285714Y-105640533D02*
X156476190Y-106354819D01*
X156476190Y-106354819D02*
X156714286Y-105354819D01*
X156857143Y-106450057D02*
X157619047Y-106450057D01*
X157857143Y-106354819D02*
X157857143Y-105354819D01*
X157857143Y-105354819D02*
X158238095Y-105354819D01*
X158238095Y-105354819D02*
X158333333Y-105402438D01*
X158333333Y-105402438D02*
X158380952Y-105450057D01*
X158380952Y-105450057D02*
X158428571Y-105545295D01*
X158428571Y-105545295D02*
X158428571Y-105688152D01*
X158428571Y-105688152D02*
X158380952Y-105783390D01*
X158380952Y-105783390D02*
X158333333Y-105831009D01*
X158333333Y-105831009D02*
X158238095Y-105878628D01*
X158238095Y-105878628D02*
X157857143Y-105878628D01*
X159285714Y-105688152D02*
X159285714Y-106354819D01*
X158857143Y-105688152D02*
X158857143Y-106211961D01*
X158857143Y-106211961D02*
X158904762Y-106307200D01*
X158904762Y-106307200D02*
X159000000Y-106354819D01*
X159000000Y-106354819D02*
X159142857Y-106354819D01*
X159142857Y-106354819D02*
X159238095Y-106307200D01*
X159238095Y-106307200D02*
X159285714Y-106259580D01*
X159714286Y-106307200D02*
X159809524Y-106354819D01*
X159809524Y-106354819D02*
X160000000Y-106354819D01*
X160000000Y-106354819D02*
X160095238Y-106307200D01*
X160095238Y-106307200D02*
X160142857Y-106211961D01*
X160142857Y-106211961D02*
X160142857Y-106164342D01*
X160142857Y-106164342D02*
X160095238Y-106069104D01*
X160095238Y-106069104D02*
X160000000Y-106021485D01*
X160000000Y-106021485D02*
X159857143Y-106021485D01*
X159857143Y-106021485D02*
X159761905Y-105973866D01*
X159761905Y-105973866D02*
X159714286Y-105878628D01*
X159714286Y-105878628D02*
X159714286Y-105831009D01*
X159714286Y-105831009D02*
X159761905Y-105735771D01*
X159761905Y-105735771D02*
X159857143Y-105688152D01*
X159857143Y-105688152D02*
X160000000Y-105688152D01*
X160000000Y-105688152D02*
X160095238Y-105735771D01*
X160571429Y-106354819D02*
X160571429Y-105354819D01*
X161000000Y-106354819D02*
X161000000Y-105831009D01*
X161000000Y-105831009D02*
X160952381Y-105735771D01*
X160952381Y-105735771D02*
X160857143Y-105688152D01*
X160857143Y-105688152D02*
X160714286Y-105688152D01*
X160714286Y-105688152D02*
X160619048Y-105735771D01*
X160619048Y-105735771D02*
X160571429Y-105783390D01*
X156666667Y-102157200D02*
X156809524Y-102204819D01*
X156809524Y-102204819D02*
X157047619Y-102204819D01*
X157047619Y-102204819D02*
X157142857Y-102157200D01*
X157142857Y-102157200D02*
X157190476Y-102109580D01*
X157190476Y-102109580D02*
X157238095Y-102014342D01*
X157238095Y-102014342D02*
X157238095Y-101919104D01*
X157238095Y-101919104D02*
X157190476Y-101823866D01*
X157190476Y-101823866D02*
X157142857Y-101776247D01*
X157142857Y-101776247D02*
X157047619Y-101728628D01*
X157047619Y-101728628D02*
X156857143Y-101681009D01*
X156857143Y-101681009D02*
X156761905Y-101633390D01*
X156761905Y-101633390D02*
X156714286Y-101585771D01*
X156714286Y-101585771D02*
X156666667Y-101490533D01*
X156666667Y-101490533D02*
X156666667Y-101395295D01*
X156666667Y-101395295D02*
X156714286Y-101300057D01*
X156714286Y-101300057D02*
X156761905Y-101252438D01*
X156761905Y-101252438D02*
X156857143Y-101204819D01*
X156857143Y-101204819D02*
X157095238Y-101204819D01*
X157095238Y-101204819D02*
X157238095Y-101252438D01*
X157571429Y-101204819D02*
X157809524Y-102204819D01*
X157809524Y-102204819D02*
X158000000Y-101490533D01*
X158000000Y-101490533D02*
X158190476Y-102204819D01*
X158190476Y-102204819D02*
X158428572Y-101204819D01*
X159238095Y-101204819D02*
X159047619Y-101204819D01*
X159047619Y-101204819D02*
X158952381Y-101252438D01*
X158952381Y-101252438D02*
X158904762Y-101300057D01*
X158904762Y-101300057D02*
X158809524Y-101442914D01*
X158809524Y-101442914D02*
X158761905Y-101633390D01*
X158761905Y-101633390D02*
X158761905Y-102014342D01*
X158761905Y-102014342D02*
X158809524Y-102109580D01*
X158809524Y-102109580D02*
X158857143Y-102157200D01*
X158857143Y-102157200D02*
X158952381Y-102204819D01*
X158952381Y-102204819D02*
X159142857Y-102204819D01*
X159142857Y-102204819D02*
X159238095Y-102157200D01*
X159238095Y-102157200D02*
X159285714Y-102109580D01*
X159285714Y-102109580D02*
X159333333Y-102014342D01*
X159333333Y-102014342D02*
X159333333Y-101776247D01*
X159333333Y-101776247D02*
X159285714Y-101681009D01*
X159285714Y-101681009D02*
X159238095Y-101633390D01*
X159238095Y-101633390D02*
X159142857Y-101585771D01*
X159142857Y-101585771D02*
X158952381Y-101585771D01*
X158952381Y-101585771D02*
X158857143Y-101633390D01*
X158857143Y-101633390D02*
X158809524Y-101681009D01*
X158809524Y-101681009D02*
X158761905Y-101776247D01*
X147784819Y-68916666D02*
X147784819Y-69488094D01*
X147784819Y-69202380D02*
X146784819Y-69202380D01*
X146784819Y-69202380D02*
X146927676Y-69297618D01*
X146927676Y-69297618D02*
X147022914Y-69392856D01*
X147022914Y-69392856D02*
X147070533Y-69488094D01*
X146784819Y-68297618D02*
X146784819Y-68202380D01*
X146784819Y-68202380D02*
X146832438Y-68107142D01*
X146832438Y-68107142D02*
X146880057Y-68059523D01*
X146880057Y-68059523D02*
X146975295Y-68011904D01*
X146975295Y-68011904D02*
X147165771Y-67964285D01*
X147165771Y-67964285D02*
X147403866Y-67964285D01*
X147403866Y-67964285D02*
X147594342Y-68011904D01*
X147594342Y-68011904D02*
X147689580Y-68059523D01*
X147689580Y-68059523D02*
X147737200Y-68107142D01*
X147737200Y-68107142D02*
X147784819Y-68202380D01*
X147784819Y-68202380D02*
X147784819Y-68297618D01*
X147784819Y-68297618D02*
X147737200Y-68392856D01*
X147737200Y-68392856D02*
X147689580Y-68440475D01*
X147689580Y-68440475D02*
X147594342Y-68488094D01*
X147594342Y-68488094D02*
X147403866Y-68535713D01*
X147403866Y-68535713D02*
X147165771Y-68535713D01*
X147165771Y-68535713D02*
X146975295Y-68488094D01*
X146975295Y-68488094D02*
X146880057Y-68440475D01*
X146880057Y-68440475D02*
X146832438Y-68392856D01*
X146832438Y-68392856D02*
X146784819Y-68297618D01*
X146784819Y-67345237D02*
X146784819Y-67249999D01*
X146784819Y-67249999D02*
X146832438Y-67154761D01*
X146832438Y-67154761D02*
X146880057Y-67107142D01*
X146880057Y-67107142D02*
X146975295Y-67059523D01*
X146975295Y-67059523D02*
X147165771Y-67011904D01*
X147165771Y-67011904D02*
X147403866Y-67011904D01*
X147403866Y-67011904D02*
X147594342Y-67059523D01*
X147594342Y-67059523D02*
X147689580Y-67107142D01*
X147689580Y-67107142D02*
X147737200Y-67154761D01*
X147737200Y-67154761D02*
X147784819Y-67249999D01*
X147784819Y-67249999D02*
X147784819Y-67345237D01*
X147784819Y-67345237D02*
X147737200Y-67440475D01*
X147737200Y-67440475D02*
X147689580Y-67488094D01*
X147689580Y-67488094D02*
X147594342Y-67535713D01*
X147594342Y-67535713D02*
X147403866Y-67583332D01*
X147403866Y-67583332D02*
X147165771Y-67583332D01*
X147165771Y-67583332D02*
X146975295Y-67535713D01*
X146975295Y-67535713D02*
X146880057Y-67488094D01*
X146880057Y-67488094D02*
X146832438Y-67440475D01*
X146832438Y-67440475D02*
X146784819Y-67345237D01*
X147784819Y-66011904D02*
X147308628Y-66345237D01*
X147784819Y-66583332D02*
X146784819Y-66583332D01*
X146784819Y-66583332D02*
X146784819Y-66202380D01*
X146784819Y-66202380D02*
X146832438Y-66107142D01*
X146832438Y-66107142D02*
X146880057Y-66059523D01*
X146880057Y-66059523D02*
X146975295Y-66011904D01*
X146975295Y-66011904D02*
X147118152Y-66011904D01*
X147118152Y-66011904D02*
X147213390Y-66059523D01*
X147213390Y-66059523D02*
X147261009Y-66107142D01*
X147261009Y-66107142D02*
X147308628Y-66202380D01*
X147308628Y-66202380D02*
X147308628Y-66583332D01*
D12*
X145863855Y-67883332D02*
X145482902Y-68149999D01*
X145863855Y-68340475D02*
X145063855Y-68340475D01*
X145063855Y-68340475D02*
X145063855Y-68035713D01*
X145063855Y-68035713D02*
X145101950Y-67959523D01*
X145101950Y-67959523D02*
X145140045Y-67921428D01*
X145140045Y-67921428D02*
X145216236Y-67883332D01*
X145216236Y-67883332D02*
X145330521Y-67883332D01*
X145330521Y-67883332D02*
X145406712Y-67921428D01*
X145406712Y-67921428D02*
X145444807Y-67959523D01*
X145444807Y-67959523D02*
X145482902Y-68035713D01*
X145482902Y-68035713D02*
X145482902Y-68340475D01*
X145330521Y-67197618D02*
X145863855Y-67197618D01*
X145025760Y-67388094D02*
X145597188Y-67578571D01*
X145597188Y-67578571D02*
X145597188Y-67083332D01*
D10*
X169452381Y-118307200D02*
X169595238Y-118354819D01*
X169595238Y-118354819D02*
X169833333Y-118354819D01*
X169833333Y-118354819D02*
X169928571Y-118307200D01*
X169928571Y-118307200D02*
X169976190Y-118259580D01*
X169976190Y-118259580D02*
X170023809Y-118164342D01*
X170023809Y-118164342D02*
X170023809Y-118069104D01*
X170023809Y-118069104D02*
X169976190Y-117973866D01*
X169976190Y-117973866D02*
X169928571Y-117926247D01*
X169928571Y-117926247D02*
X169833333Y-117878628D01*
X169833333Y-117878628D02*
X169642857Y-117831009D01*
X169642857Y-117831009D02*
X169547619Y-117783390D01*
X169547619Y-117783390D02*
X169500000Y-117735771D01*
X169500000Y-117735771D02*
X169452381Y-117640533D01*
X169452381Y-117640533D02*
X169452381Y-117545295D01*
X169452381Y-117545295D02*
X169500000Y-117450057D01*
X169500000Y-117450057D02*
X169547619Y-117402438D01*
X169547619Y-117402438D02*
X169642857Y-117354819D01*
X169642857Y-117354819D02*
X169880952Y-117354819D01*
X169880952Y-117354819D02*
X170023809Y-117402438D01*
X170357143Y-117354819D02*
X170595238Y-118354819D01*
X170595238Y-118354819D02*
X170785714Y-117640533D01*
X170785714Y-117640533D02*
X170976190Y-118354819D01*
X170976190Y-118354819D02*
X171214286Y-117354819D01*
X171357143Y-118450057D02*
X172119047Y-118450057D01*
X172357143Y-118354819D02*
X172357143Y-117354819D01*
X172357143Y-117354819D02*
X172738095Y-117354819D01*
X172738095Y-117354819D02*
X172833333Y-117402438D01*
X172833333Y-117402438D02*
X172880952Y-117450057D01*
X172880952Y-117450057D02*
X172928571Y-117545295D01*
X172928571Y-117545295D02*
X172928571Y-117688152D01*
X172928571Y-117688152D02*
X172880952Y-117783390D01*
X172880952Y-117783390D02*
X172833333Y-117831009D01*
X172833333Y-117831009D02*
X172738095Y-117878628D01*
X172738095Y-117878628D02*
X172357143Y-117878628D01*
X173785714Y-117688152D02*
X173785714Y-118354819D01*
X173357143Y-117688152D02*
X173357143Y-118211961D01*
X173357143Y-118211961D02*
X173404762Y-118307200D01*
X173404762Y-118307200D02*
X173500000Y-118354819D01*
X173500000Y-118354819D02*
X173642857Y-118354819D01*
X173642857Y-118354819D02*
X173738095Y-118307200D01*
X173738095Y-118307200D02*
X173785714Y-118259580D01*
X174214286Y-118307200D02*
X174309524Y-118354819D01*
X174309524Y-118354819D02*
X174500000Y-118354819D01*
X174500000Y-118354819D02*
X174595238Y-118307200D01*
X174595238Y-118307200D02*
X174642857Y-118211961D01*
X174642857Y-118211961D02*
X174642857Y-118164342D01*
X174642857Y-118164342D02*
X174595238Y-118069104D01*
X174595238Y-118069104D02*
X174500000Y-118021485D01*
X174500000Y-118021485D02*
X174357143Y-118021485D01*
X174357143Y-118021485D02*
X174261905Y-117973866D01*
X174261905Y-117973866D02*
X174214286Y-117878628D01*
X174214286Y-117878628D02*
X174214286Y-117831009D01*
X174214286Y-117831009D02*
X174261905Y-117735771D01*
X174261905Y-117735771D02*
X174357143Y-117688152D01*
X174357143Y-117688152D02*
X174500000Y-117688152D01*
X174500000Y-117688152D02*
X174595238Y-117735771D01*
X175071429Y-118354819D02*
X175071429Y-117354819D01*
X175500000Y-118354819D02*
X175500000Y-117831009D01*
X175500000Y-117831009D02*
X175452381Y-117735771D01*
X175452381Y-117735771D02*
X175357143Y-117688152D01*
X175357143Y-117688152D02*
X175214286Y-117688152D01*
X175214286Y-117688152D02*
X175119048Y-117735771D01*
X175119048Y-117735771D02*
X175071429Y-117783390D01*
X170690476Y-114157200D02*
X170833333Y-114204819D01*
X170833333Y-114204819D02*
X171071428Y-114204819D01*
X171071428Y-114204819D02*
X171166666Y-114157200D01*
X171166666Y-114157200D02*
X171214285Y-114109580D01*
X171214285Y-114109580D02*
X171261904Y-114014342D01*
X171261904Y-114014342D02*
X171261904Y-113919104D01*
X171261904Y-113919104D02*
X171214285Y-113823866D01*
X171214285Y-113823866D02*
X171166666Y-113776247D01*
X171166666Y-113776247D02*
X171071428Y-113728628D01*
X171071428Y-113728628D02*
X170880952Y-113681009D01*
X170880952Y-113681009D02*
X170785714Y-113633390D01*
X170785714Y-113633390D02*
X170738095Y-113585771D01*
X170738095Y-113585771D02*
X170690476Y-113490533D01*
X170690476Y-113490533D02*
X170690476Y-113395295D01*
X170690476Y-113395295D02*
X170738095Y-113300057D01*
X170738095Y-113300057D02*
X170785714Y-113252438D01*
X170785714Y-113252438D02*
X170880952Y-113204819D01*
X170880952Y-113204819D02*
X171119047Y-113204819D01*
X171119047Y-113204819D02*
X171261904Y-113252438D01*
X171595238Y-113204819D02*
X171833333Y-114204819D01*
X171833333Y-114204819D02*
X172023809Y-113490533D01*
X172023809Y-113490533D02*
X172214285Y-114204819D01*
X172214285Y-114204819D02*
X172452381Y-113204819D01*
X173357142Y-114204819D02*
X172785714Y-114204819D01*
X173071428Y-114204819D02*
X173071428Y-113204819D01*
X173071428Y-113204819D02*
X172976190Y-113347676D01*
X172976190Y-113347676D02*
X172880952Y-113442914D01*
X172880952Y-113442914D02*
X172785714Y-113490533D01*
X173738095Y-113300057D02*
X173785714Y-113252438D01*
X173785714Y-113252438D02*
X173880952Y-113204819D01*
X173880952Y-113204819D02*
X174119047Y-113204819D01*
X174119047Y-113204819D02*
X174214285Y-113252438D01*
X174214285Y-113252438D02*
X174261904Y-113300057D01*
X174261904Y-113300057D02*
X174309523Y-113395295D01*
X174309523Y-113395295D02*
X174309523Y-113490533D01*
X174309523Y-113490533D02*
X174261904Y-113633390D01*
X174261904Y-113633390D02*
X173690476Y-114204819D01*
X173690476Y-114204819D02*
X174309523Y-114204819D01*
%TO.C,SW2*%
D11*
X140500000Y-98750000D02*
X146500000Y-98750000D01*
X146500000Y-104750000D01*
X140500000Y-104750000D01*
X140500000Y-98750000D01*
X145250000Y-101750000D02*
G75*
G02*
X141750000Y-101750000I-1750000J0D01*
G01*
X141750000Y-101750000D02*
G75*
G02*
X145250000Y-101750000I1750000J0D01*
G01*
%TO.C,SW22*%
X204050000Y-68300000D02*
X204050000Y-59700000D01*
X204050000Y-68300000D02*
X208450000Y-68300000D01*
X208450000Y-59700000D02*
X204050000Y-59700000D01*
X208450000Y-64000000D02*
X212450000Y-64000000D01*
X208450000Y-68300000D02*
X208450000Y-59700000D01*
X212450000Y-64000000D02*
X212450000Y-66000000D01*
X212450000Y-66000000D02*
X208450000Y-66000000D01*
%TO.C,SW13*%
X169500000Y-98750000D02*
X175500000Y-98750000D01*
X175500000Y-104750000D01*
X169500000Y-104750000D01*
X169500000Y-98750000D01*
X174250000Y-101750000D02*
G75*
G02*
X170750000Y-101750000I-1750000J0D01*
G01*
X170750000Y-101750000D02*
G75*
G02*
X174250000Y-101750000I1750000J0D01*
G01*
%TO.C,C2*%
X185925000Y-90200000D02*
X189125000Y-90200000D01*
X185925000Y-91800000D02*
X185925000Y-90200000D01*
X189125000Y-90200000D02*
X189125000Y-91800000D01*
X189125000Y-91800000D02*
X185925000Y-91800000D01*
%TO.C,SW5*%
X140550000Y-137000000D02*
X146550000Y-137000000D01*
X146550000Y-143000000D01*
X140550000Y-143000000D01*
X140550000Y-137000000D01*
X145300000Y-140000000D02*
G75*
G02*
X141800000Y-140000000I-1750000J0D01*
G01*
X141800000Y-140000000D02*
G75*
G02*
X145300000Y-140000000I1750000J0D01*
G01*
%TO.C,SW20*%
X197900000Y-123250000D02*
X203900000Y-123250000D01*
X203900000Y-129250000D01*
X197900000Y-129250000D01*
X197900000Y-123250000D01*
X202650000Y-126250000D02*
G75*
G02*
X199150000Y-126250000I-1750000J0D01*
G01*
X199150000Y-126250000D02*
G75*
G02*
X202650000Y-126250000I1750000J0D01*
G01*
%TO.C,SW21*%
X198050000Y-137000000D02*
X204050000Y-137000000D01*
X204050000Y-143000000D01*
X198050000Y-143000000D01*
X198050000Y-137000000D01*
X202800000Y-140000000D02*
G75*
G02*
X199300000Y-140000000I-1750000J0D01*
G01*
X199300000Y-140000000D02*
G75*
G02*
X202800000Y-140000000I1750000J0D01*
G01*
%TO.C,SW14*%
X184100000Y-98750000D02*
X190100000Y-98750000D01*
X190100000Y-104750000D01*
X184100000Y-104750000D01*
X184100000Y-98750000D01*
X188850000Y-101750000D02*
G75*
G02*
X185350000Y-101750000I-1750000J0D01*
G01*
X185350000Y-101750000D02*
G75*
G02*
X188850000Y-101750000I1750000J0D01*
G01*
%TO.C,SW8*%
X155150000Y-123250000D02*
X161150000Y-123250000D01*
X161150000Y-129250000D01*
X155150000Y-129250000D01*
X155150000Y-123250000D01*
X159900000Y-126250000D02*
G75*
G02*
X156400000Y-126250000I-1750000J0D01*
G01*
X156400000Y-126250000D02*
G75*
G02*
X159900000Y-126250000I1750000J0D01*
G01*
%TO.C,BZ1*%
X143500000Y-61920785D02*
X145500000Y-61920785D01*
X150600000Y-58120785D02*
G75*
G02*
X138400000Y-58120785I-6100000J0D01*
G01*
X138400000Y-58120785D02*
G75*
G02*
X150600000Y-58120785I6100000J0D01*
G01*
X145500000Y-58120785D02*
G75*
G02*
X143500000Y-58120785I-1000000J0D01*
G01*
X143500000Y-58120785D02*
G75*
G02*
X145500000Y-58120785I1000000J0D01*
G01*
%TO.C,R2*%
X185937500Y-86950000D02*
X189137500Y-86950000D01*
X185937500Y-88550000D02*
X185937500Y-86950000D01*
X189137500Y-86950000D02*
X189137500Y-88550000D01*
X189137500Y-88550000D02*
X185937500Y-88550000D01*
%TO.C,D2*%
X201500000Y-42750000D02*
X201500000Y-47750000D01*
X201500000Y-47750000D02*
X204000000Y-47750000D01*
X203375000Y-42750000D02*
X201500000Y-42750000D01*
X204000000Y-43375000D02*
X203375000Y-42750000D01*
X204000000Y-47750000D02*
X204000000Y-43375000D01*
%TO.C,SW3*%
X140550000Y-110750000D02*
X146550000Y-110750000D01*
X146550000Y-116750000D01*
X140550000Y-116750000D01*
X140550000Y-110750000D01*
X145300000Y-113750000D02*
G75*
G02*
X141800000Y-113750000I-1750000J0D01*
G01*
X141800000Y-113750000D02*
G75*
G02*
X145300000Y-113750000I1750000J0D01*
G01*
%TO.C,R3*%
X201950000Y-50150000D02*
X203550000Y-50150000D01*
X201950000Y-53350000D02*
X201950000Y-50150000D01*
X203550000Y-50150000D02*
X203550000Y-53350000D01*
X203550000Y-53350000D02*
X201950000Y-53350000D01*
%TO.C,SW16*%
X184150000Y-123250000D02*
X190150000Y-123250000D01*
X190150000Y-129250000D01*
X184150000Y-129250000D01*
X184150000Y-123250000D01*
X188900000Y-126250000D02*
G75*
G02*
X185400000Y-126250000I-1750000J0D01*
G01*
X185400000Y-126250000D02*
G75*
G02*
X188900000Y-126250000I1750000J0D01*
G01*
%TO.C,SW9*%
X155150000Y-137000000D02*
X161150000Y-137000000D01*
X161150000Y-143000000D01*
X155150000Y-143000000D01*
X155150000Y-137000000D01*
X159900000Y-140000000D02*
G75*
G02*
X156400000Y-140000000I-1750000J0D01*
G01*
X156400000Y-140000000D02*
G75*
G02*
X159900000Y-140000000I1750000J0D01*
G01*
%TO.C,SW11*%
X169500000Y-123250000D02*
X175500000Y-123250000D01*
X175500000Y-129250000D01*
X169500000Y-129250000D01*
X169500000Y-123250000D01*
X174250000Y-126250000D02*
G75*
G02*
X170750000Y-126250000I-1750000J0D01*
G01*
X170750000Y-126250000D02*
G75*
G02*
X174250000Y-126250000I1750000J0D01*
G01*
%TO.C,SW19*%
X197900000Y-110750000D02*
X203900000Y-110750000D01*
X203900000Y-116750000D01*
X197900000Y-116750000D01*
X197900000Y-110750000D01*
X202650000Y-113750000D02*
G75*
G02*
X199150000Y-113750000I-1750000J0D01*
G01*
X199150000Y-113750000D02*
G75*
G02*
X202650000Y-113750000I1750000J0D01*
G01*
%TO.C,SW18*%
X197850000Y-98750000D02*
X203850000Y-98750000D01*
X203850000Y-104750000D01*
X197850000Y-104750000D01*
X197850000Y-98750000D01*
X202600000Y-101750000D02*
G75*
G02*
X199100000Y-101750000I-1750000J0D01*
G01*
X199100000Y-101750000D02*
G75*
G02*
X202600000Y-101750000I1750000J0D01*
G01*
%TO.C,SW1*%
X204250000Y-78050000D02*
X198250000Y-78050000D01*
X198250000Y-84050000D01*
X204250000Y-84050000D01*
X204250000Y-78050000D01*
X203000000Y-81050000D02*
G75*
G02*
X199500000Y-81050000I-1750000J0D01*
G01*
X199500000Y-81050000D02*
G75*
G02*
X203000000Y-81050000I1750000J0D01*
G01*
%TO.C,SW17*%
X184250000Y-137000000D02*
X190250000Y-137000000D01*
X190250000Y-143000000D01*
X184250000Y-143000000D01*
X184250000Y-137000000D01*
X189000000Y-140000000D02*
G75*
G02*
X185500000Y-140000000I-1750000J0D01*
G01*
X185500000Y-140000000D02*
G75*
G02*
X189000000Y-140000000I1750000J0D01*
G01*
%TO.C,SW15*%
X184150000Y-110750000D02*
X190150000Y-110750000D01*
X190150000Y-116750000D01*
X184150000Y-116750000D01*
X184150000Y-110750000D01*
X188900000Y-113750000D02*
G75*
G02*
X185400000Y-113750000I-1750000J0D01*
G01*
X185400000Y-113750000D02*
G75*
G02*
X188900000Y-113750000I1750000J0D01*
G01*
%TO.C,U1*%
X140470000Y-82070000D02*
X176030000Y-82070000D01*
X140470000Y-87420000D02*
X140470000Y-82070000D01*
X141470000Y-88420000D02*
X140470000Y-87420000D01*
X176030000Y-82070000D02*
X176030000Y-88420000D01*
X176030000Y-88420000D02*
X141470000Y-88420000D01*
%TO.C,SW7*%
X155050000Y-110750000D02*
X161050000Y-110750000D01*
X161050000Y-116750000D01*
X155050000Y-116750000D01*
X155050000Y-110750000D01*
X159800000Y-113750000D02*
G75*
G02*
X156300000Y-113750000I-1750000J0D01*
G01*
X156300000Y-113750000D02*
G75*
G02*
X159800000Y-113750000I1750000J0D01*
G01*
%TO.C,D1*%
X186750000Y-81050000D02*
X188550000Y-81050000D01*
X186750000Y-82450000D02*
X186750000Y-81050000D01*
X187450000Y-81400000D02*
X187950000Y-81750000D01*
X187450000Y-81750000D02*
X187200000Y-81750000D01*
X187450000Y-82100000D02*
X187450000Y-81400000D01*
X187950000Y-81750000D02*
X187450000Y-82100000D01*
X187950000Y-81750000D02*
X188150000Y-81750000D01*
X187950000Y-82100000D02*
X187950000Y-81400000D01*
X188550000Y-81050000D02*
X188550000Y-82450000D01*
X188550000Y-82450000D02*
X186750000Y-82450000D01*
%TO.C,SW4*%
X140550000Y-123250000D02*
X146550000Y-123250000D01*
X146550000Y-129250000D01*
X140550000Y-129250000D01*
X140550000Y-123250000D01*
X145300000Y-126250000D02*
G75*
G02*
X141800000Y-126250000I-1750000J0D01*
G01*
X141800000Y-126250000D02*
G75*
G02*
X145300000Y-126250000I1750000J0D01*
G01*
%TO.C,R1*%
X185937500Y-83700000D02*
X189137500Y-83700000D01*
X185937500Y-85300000D02*
X185937500Y-83700000D01*
X189137500Y-83700000D02*
X189137500Y-85300000D01*
X189137500Y-85300000D02*
X185937500Y-85300000D01*
%TO.C,SW10*%
X169550000Y-137000000D02*
X175550000Y-137000000D01*
X175550000Y-143000000D01*
X169550000Y-143000000D01*
X169550000Y-137000000D01*
X174300000Y-140000000D02*
G75*
G02*
X170800000Y-140000000I-1750000J0D01*
G01*
X170800000Y-140000000D02*
G75*
G02*
X174300000Y-140000000I1750000J0D01*
G01*
D13*
%TO.C,U2*%
X160190000Y-42250000D02*
X186190000Y-42250000D01*
X160190000Y-68250000D02*
X160190000Y-42250000D01*
X166190000Y-66250000D02*
X180190000Y-66250000D01*
X166190000Y-68250000D02*
X160190000Y-68250000D01*
X166190000Y-68250000D02*
X166190000Y-66250000D01*
X180190000Y-66250000D02*
X180190000Y-68250000D01*
X186190000Y-42250000D02*
X186190000Y-68250000D01*
X186190000Y-68250000D02*
X180190000Y-68250000D01*
D14*
X169290000Y-41750000D02*
G75*
G02*
X169090000Y-41750000I-100000J0D01*
G01*
X169090000Y-41750000D02*
G75*
G02*
X169290000Y-41750000I100000J0D01*
G01*
%TO.C,SW6*%
D11*
X155000000Y-98750000D02*
X161000000Y-98750000D01*
X161000000Y-104750000D01*
X155000000Y-104750000D01*
X155000000Y-98750000D01*
X159750000Y-101750000D02*
G75*
G02*
X156250000Y-101750000I-1750000J0D01*
G01*
X156250000Y-101750000D02*
G75*
G02*
X159750000Y-101750000I1750000J0D01*
G01*
%TO.C,R4*%
X144700000Y-66150000D02*
X146300000Y-66150000D01*
X144700000Y-69350000D02*
X144700000Y-66150000D01*
X146300000Y-66150000D02*
X146300000Y-69350000D01*
X146300000Y-69350000D02*
X144700000Y-69350000D01*
%TO.C,SW12*%
X169500000Y-110750000D02*
X175500000Y-110750000D01*
X175500000Y-116750000D01*
X169500000Y-116750000D01*
X169500000Y-110750000D01*
X174250000Y-113750000D02*
G75*
G02*
X170750000Y-113750000I-1750000J0D01*
G01*
X170750000Y-113750000D02*
G75*
G02*
X174250000Y-113750000I1750000J0D01*
G01*
%TD*%
M02*
