%TF.GenerationSoftware,KiCad,Pcbnew,9.0.5*%
%TF.CreationDate,2026-01-24T15:15:31+01:00*%
%TF.ProjectId,Seminarski,53656d69-6e61-4727-936b-692e6b696361,rev?*%
%TF.SameCoordinates,Original*%
%TF.FileFunction,Legend,Bot*%
%TF.FilePolarity,Positive*%
%FSLAX46Y46*%
G04 Gerber Fmt 4.6, Leading zero omitted, Abs format (unit mm)*
G04 Created by KiCad (PCBNEW 9.0.5) date 2026-01-24 15:15:31*
%MOMM*%
%LPD*%
G01*
G04 APERTURE LIST*
%ADD10C,0.150000*%
%ADD11C,0.120000*%
G04 APERTURE END LIST*
D10*
X188060714Y-54181009D02*
X187917857Y-54228628D01*
X187917857Y-54228628D02*
X187870238Y-54276247D01*
X187870238Y-54276247D02*
X187822619Y-54371485D01*
X187822619Y-54371485D02*
X187822619Y-54514342D01*
X187822619Y-54514342D02*
X187870238Y-54609580D01*
X187870238Y-54609580D02*
X187917857Y-54657200D01*
X187917857Y-54657200D02*
X188013095Y-54704819D01*
X188013095Y-54704819D02*
X188394047Y-54704819D01*
X188394047Y-54704819D02*
X188394047Y-53704819D01*
X188394047Y-53704819D02*
X188060714Y-53704819D01*
X188060714Y-53704819D02*
X187965476Y-53752438D01*
X187965476Y-53752438D02*
X187917857Y-53800057D01*
X187917857Y-53800057D02*
X187870238Y-53895295D01*
X187870238Y-53895295D02*
X187870238Y-53990533D01*
X187870238Y-53990533D02*
X187917857Y-54085771D01*
X187917857Y-54085771D02*
X187965476Y-54133390D01*
X187965476Y-54133390D02*
X188060714Y-54181009D01*
X188060714Y-54181009D02*
X188394047Y-54181009D01*
X187536904Y-53704819D02*
X186965476Y-53704819D01*
X187251190Y-54704819D02*
X187251190Y-53704819D01*
X186108333Y-54704819D02*
X186679761Y-54704819D01*
X186394047Y-54704819D02*
X186394047Y-53704819D01*
X186394047Y-53704819D02*
X186489285Y-53847676D01*
X186489285Y-53847676D02*
X186584523Y-53942914D01*
X186584523Y-53942914D02*
X186679761Y-53990533D01*
X192359580Y-45583333D02*
X192407200Y-45535714D01*
X192407200Y-45535714D02*
X192454819Y-45392857D01*
X192454819Y-45392857D02*
X192454819Y-45297619D01*
X192454819Y-45297619D02*
X192407200Y-45154762D01*
X192407200Y-45154762D02*
X192311961Y-45059524D01*
X192311961Y-45059524D02*
X192216723Y-45011905D01*
X192216723Y-45011905D02*
X192026247Y-44964286D01*
X192026247Y-44964286D02*
X191883390Y-44964286D01*
X191883390Y-44964286D02*
X191692914Y-45011905D01*
X191692914Y-45011905D02*
X191597676Y-45059524D01*
X191597676Y-45059524D02*
X191502438Y-45154762D01*
X191502438Y-45154762D02*
X191454819Y-45297619D01*
X191454819Y-45297619D02*
X191454819Y-45392857D01*
X191454819Y-45392857D02*
X191502438Y-45535714D01*
X191502438Y-45535714D02*
X191550057Y-45583333D01*
X192454819Y-46535714D02*
X192454819Y-45964286D01*
X192454819Y-46250000D02*
X191454819Y-46250000D01*
X191454819Y-46250000D02*
X191597676Y-46154762D01*
X191597676Y-46154762D02*
X191692914Y-46059524D01*
X191692914Y-46059524D02*
X191740533Y-45964286D01*
D11*
%TO.C,BT1*%
X158600000Y-55700000D02*
X158600000Y-57250000D01*
X158600000Y-63400000D02*
X158600000Y-61850000D01*
X161800000Y-51200000D02*
X161800000Y-55700000D01*
X161800000Y-55700000D02*
X158600000Y-55700000D01*
X161800000Y-63400000D02*
X158600000Y-63400000D01*
X161800000Y-67900000D02*
X161800000Y-63400000D01*
X161800000Y-67900000D02*
X182700000Y-67900000D01*
X182700000Y-67900000D02*
X184500000Y-66100000D01*
X184500000Y-51200000D02*
X161800000Y-51200000D01*
X184500000Y-51200000D02*
X184500000Y-55700000D01*
X184500000Y-55700000D02*
X187700000Y-55700000D01*
X184500000Y-63400000D02*
X187700000Y-63400000D01*
X184500000Y-66100000D02*
X184500000Y-63400000D01*
X185150000Y-65550000D02*
X187150000Y-65550000D01*
X186150000Y-64550000D02*
X186150000Y-66550000D01*
X187700000Y-55700000D02*
X187700000Y-57250000D01*
X187700000Y-63400000D02*
X187700000Y-61850000D01*
%TO.C,C1*%
X193170000Y-45750000D02*
X198330000Y-45750000D01*
X193170000Y-45790000D02*
X198330000Y-45790000D01*
X193171000Y-45830000D02*
X198329000Y-45830000D01*
X193173000Y-45870000D02*
X198327000Y-45870000D01*
X193175000Y-45910000D02*
X198325000Y-45910000D01*
X193178000Y-45950000D02*
X198322000Y-45950000D01*
X193181000Y-45990000D02*
X194710000Y-45990000D01*
X193185000Y-46030000D02*
X194710000Y-46030000D01*
X193190000Y-46070000D02*
X194710000Y-46070000D01*
X193195000Y-46110000D02*
X194710000Y-46110000D01*
X193201000Y-46150000D02*
X194710000Y-46150000D01*
X193207000Y-46190000D02*
X194710000Y-46190000D01*
X193214000Y-46230000D02*
X194710000Y-46230000D01*
X193222000Y-46270000D02*
X194710000Y-46270000D01*
X193231000Y-46310000D02*
X194710000Y-46310000D01*
X193240000Y-46350000D02*
X194710000Y-46350000D01*
X193249000Y-46390000D02*
X194710000Y-46390000D01*
X193260000Y-46430000D02*
X194710000Y-46430000D01*
X193271000Y-46470000D02*
X194710000Y-46470000D01*
X193283000Y-46510000D02*
X194710000Y-46510000D01*
X193295000Y-46550000D02*
X194710000Y-46550000D01*
X193308000Y-46590000D02*
X194710000Y-46590000D01*
X193322000Y-46630000D02*
X194710000Y-46630000D01*
X193337000Y-46670000D02*
X194710000Y-46670000D01*
X193352000Y-46710000D02*
X194710000Y-46710000D01*
X193368000Y-46750000D02*
X194710000Y-46750000D01*
X193385000Y-46790000D02*
X194710000Y-46790000D01*
X193403000Y-46830000D02*
X194710000Y-46830000D01*
X193421000Y-46870000D02*
X194710000Y-46870000D01*
X193441000Y-46910000D02*
X194710000Y-46910000D01*
X193461000Y-46950000D02*
X194710000Y-46950000D01*
X193482000Y-46990000D02*
X194710000Y-46990000D01*
X193504000Y-47030000D02*
X194710000Y-47030000D01*
X193527000Y-47070000D02*
X194710000Y-47070000D01*
X193551000Y-47110000D02*
X194710000Y-47110000D01*
X193575000Y-47150000D02*
X194710000Y-47150000D01*
X193601000Y-47190000D02*
X194710000Y-47190000D01*
X193628000Y-47230000D02*
X194710000Y-47230000D01*
X193656000Y-47270000D02*
X194710000Y-47270000D01*
X193685000Y-47310000D02*
X194710000Y-47310000D01*
X193715000Y-47350000D02*
X194710000Y-47350000D01*
X193747000Y-47390000D02*
X194710000Y-47390000D01*
X193780000Y-47430000D02*
X194710000Y-47430000D01*
X193814000Y-47470000D02*
X194710000Y-47470000D01*
X193849000Y-47510000D02*
X194710000Y-47510000D01*
X193886000Y-47550000D02*
X194710000Y-47550000D01*
X193925000Y-47590000D02*
X194710000Y-47590000D01*
X193965000Y-47630000D02*
X194710000Y-47630000D01*
X194007000Y-47670000D02*
X194710000Y-47670000D01*
X194025000Y-43195225D02*
X194525000Y-43195225D01*
X194051000Y-47710000D02*
X194710000Y-47710000D01*
X194098000Y-47750000D02*
X194710000Y-47750000D01*
X194146000Y-47790000D02*
X194710000Y-47790000D01*
X194197000Y-47830000D02*
X194710000Y-47830000D01*
X194251000Y-47870000D02*
X194710000Y-47870000D01*
X194275000Y-42945225D02*
X194275000Y-43445225D01*
X194307000Y-47910000D02*
X194710000Y-47910000D01*
X194367000Y-47950000D02*
X194710000Y-47950000D01*
X194431000Y-47990000D02*
X194710000Y-47990000D01*
X194499000Y-48030000D02*
X194710000Y-48030000D01*
X194573000Y-48070000D02*
X196927000Y-48070000D01*
X194652000Y-48110000D02*
X196848000Y-48110000D01*
X194739000Y-48150000D02*
X196761000Y-48150000D01*
X194836000Y-48190000D02*
X196664000Y-48190000D01*
X194945000Y-48230000D02*
X196555000Y-48230000D01*
X195073000Y-48270000D02*
X196427000Y-48270000D01*
X195233000Y-48310000D02*
X196267000Y-48310000D01*
X195467000Y-48350000D02*
X196033000Y-48350000D01*
X196790000Y-45990000D02*
X198319000Y-45990000D01*
X196790000Y-46030000D02*
X198315000Y-46030000D01*
X196790000Y-46070000D02*
X198310000Y-46070000D01*
X196790000Y-46110000D02*
X198305000Y-46110000D01*
X196790000Y-46150000D02*
X198299000Y-46150000D01*
X196790000Y-46190000D02*
X198293000Y-46190000D01*
X196790000Y-46230000D02*
X198286000Y-46230000D01*
X196790000Y-46270000D02*
X198278000Y-46270000D01*
X196790000Y-46310000D02*
X198269000Y-46310000D01*
X196790000Y-46350000D02*
X198260000Y-46350000D01*
X196790000Y-46390000D02*
X198251000Y-46390000D01*
X196790000Y-46430000D02*
X198240000Y-46430000D01*
X196790000Y-46470000D02*
X198229000Y-46470000D01*
X196790000Y-46510000D02*
X198217000Y-46510000D01*
X196790000Y-46550000D02*
X198205000Y-46550000D01*
X196790000Y-46590000D02*
X198192000Y-46590000D01*
X196790000Y-46630000D02*
X198178000Y-46630000D01*
X196790000Y-46670000D02*
X198163000Y-46670000D01*
X196790000Y-46710000D02*
X198148000Y-46710000D01*
X196790000Y-46750000D02*
X198132000Y-46750000D01*
X196790000Y-46790000D02*
X198115000Y-46790000D01*
X196790000Y-46830000D02*
X198097000Y-46830000D01*
X196790000Y-46870000D02*
X198079000Y-46870000D01*
X196790000Y-46910000D02*
X198059000Y-46910000D01*
X196790000Y-46950000D02*
X198039000Y-46950000D01*
X196790000Y-46990000D02*
X198018000Y-46990000D01*
X196790000Y-47030000D02*
X197996000Y-47030000D01*
X196790000Y-47070000D02*
X197973000Y-47070000D01*
X196790000Y-47110000D02*
X197949000Y-47110000D01*
X196790000Y-47150000D02*
X197925000Y-47150000D01*
X196790000Y-47190000D02*
X197899000Y-47190000D01*
X196790000Y-47230000D02*
X197872000Y-47230000D01*
X196790000Y-47270000D02*
X197844000Y-47270000D01*
X196790000Y-47310000D02*
X197815000Y-47310000D01*
X196790000Y-47350000D02*
X197785000Y-47350000D01*
X196790000Y-47390000D02*
X197753000Y-47390000D01*
X196790000Y-47430000D02*
X197720000Y-47430000D01*
X196790000Y-47470000D02*
X197686000Y-47470000D01*
X196790000Y-47510000D02*
X197651000Y-47510000D01*
X196790000Y-47550000D02*
X197614000Y-47550000D01*
X196790000Y-47590000D02*
X197575000Y-47590000D01*
X196790000Y-47630000D02*
X197535000Y-47630000D01*
X196790000Y-47670000D02*
X197493000Y-47670000D01*
X196790000Y-47710000D02*
X197449000Y-47710000D01*
X196790000Y-47750000D02*
X197402000Y-47750000D01*
X196790000Y-47790000D02*
X197354000Y-47790000D01*
X196790000Y-47830000D02*
X197303000Y-47830000D01*
X196790000Y-47870000D02*
X197249000Y-47870000D01*
X196790000Y-47910000D02*
X197193000Y-47910000D01*
X196790000Y-47950000D02*
X197133000Y-47950000D01*
X196790000Y-47990000D02*
X197069000Y-47990000D01*
X196790000Y-48030000D02*
X197001000Y-48030000D01*
X198370000Y-45750000D02*
G75*
G02*
X193130000Y-45750000I-2620000J0D01*
G01*
X193130000Y-45750000D02*
G75*
G02*
X198370000Y-45750000I2620000J0D01*
G01*
%TD*%
M02*
