%TF.GenerationSoftware,KiCad,Pcbnew,9.0.5*%
%TF.CreationDate,2026-02-03T12:12:50+01:00*%
%TF.ProjectId,Seminarski,53656d69-6e61-4727-936b-692e6b696361,rev?*%
%TF.SameCoordinates,Original*%
%TF.FileFunction,AssemblyDrawing,Bot*%
%FSLAX46Y46*%
G04 Gerber Fmt 4.6, Leading zero omitted, Abs format (unit mm)*
G04 Created by KiCad (PCBNEW 9.0.5) date 2026-02-03 12:12:50*
%MOMM*%
%LPD*%
G01*
G04 APERTURE LIST*
%ADD10C,0.150000*%
%ADD11C,0.100000*%
G04 APERTURE END LIST*
D10*
X174626189Y-47254819D02*
X174007142Y-47254819D01*
X174007142Y-47254819D02*
X174340475Y-47635771D01*
X174340475Y-47635771D02*
X174197618Y-47635771D01*
X174197618Y-47635771D02*
X174102380Y-47683390D01*
X174102380Y-47683390D02*
X174054761Y-47731009D01*
X174054761Y-47731009D02*
X174007142Y-47826247D01*
X174007142Y-47826247D02*
X174007142Y-48064342D01*
X174007142Y-48064342D02*
X174054761Y-48159580D01*
X174054761Y-48159580D02*
X174102380Y-48207200D01*
X174102380Y-48207200D02*
X174197618Y-48254819D01*
X174197618Y-48254819D02*
X174483332Y-48254819D01*
X174483332Y-48254819D02*
X174578570Y-48207200D01*
X174578570Y-48207200D02*
X174626189Y-48159580D01*
X173578570Y-48159580D02*
X173530951Y-48207200D01*
X173530951Y-48207200D02*
X173578570Y-48254819D01*
X173578570Y-48254819D02*
X173626189Y-48207200D01*
X173626189Y-48207200D02*
X173578570Y-48159580D01*
X173578570Y-48159580D02*
X173578570Y-48254819D01*
X173197618Y-47254819D02*
X172578571Y-47254819D01*
X172578571Y-47254819D02*
X172911904Y-47635771D01*
X172911904Y-47635771D02*
X172769047Y-47635771D01*
X172769047Y-47635771D02*
X172673809Y-47683390D01*
X172673809Y-47683390D02*
X172626190Y-47731009D01*
X172626190Y-47731009D02*
X172578571Y-47826247D01*
X172578571Y-47826247D02*
X172578571Y-48064342D01*
X172578571Y-48064342D02*
X172626190Y-48159580D01*
X172626190Y-48159580D02*
X172673809Y-48207200D01*
X172673809Y-48207200D02*
X172769047Y-48254819D01*
X172769047Y-48254819D02*
X173054761Y-48254819D01*
X173054761Y-48254819D02*
X173149999Y-48207200D01*
X173149999Y-48207200D02*
X173197618Y-48159580D01*
X172292856Y-47254819D02*
X171959523Y-48254819D01*
X171959523Y-48254819D02*
X171626190Y-47254819D01*
X173935714Y-59481009D02*
X173792857Y-59528628D01*
X173792857Y-59528628D02*
X173745238Y-59576247D01*
X173745238Y-59576247D02*
X173697619Y-59671485D01*
X173697619Y-59671485D02*
X173697619Y-59814342D01*
X173697619Y-59814342D02*
X173745238Y-59909580D01*
X173745238Y-59909580D02*
X173792857Y-59957200D01*
X173792857Y-59957200D02*
X173888095Y-60004819D01*
X173888095Y-60004819D02*
X174269047Y-60004819D01*
X174269047Y-60004819D02*
X174269047Y-59004819D01*
X174269047Y-59004819D02*
X173935714Y-59004819D01*
X173935714Y-59004819D02*
X173840476Y-59052438D01*
X173840476Y-59052438D02*
X173792857Y-59100057D01*
X173792857Y-59100057D02*
X173745238Y-59195295D01*
X173745238Y-59195295D02*
X173745238Y-59290533D01*
X173745238Y-59290533D02*
X173792857Y-59385771D01*
X173792857Y-59385771D02*
X173840476Y-59433390D01*
X173840476Y-59433390D02*
X173935714Y-59481009D01*
X173935714Y-59481009D02*
X174269047Y-59481009D01*
X173411904Y-59004819D02*
X172840476Y-59004819D01*
X173126190Y-60004819D02*
X173126190Y-59004819D01*
X171983333Y-60004819D02*
X172554761Y-60004819D01*
X172269047Y-60004819D02*
X172269047Y-59004819D01*
X172269047Y-59004819D02*
X172364285Y-59147676D01*
X172364285Y-59147676D02*
X172459523Y-59242914D01*
X172459523Y-59242914D02*
X172554761Y-59290533D01*
X199954819Y-44202380D02*
X199954819Y-43630952D01*
X199954819Y-43916666D02*
X198954819Y-43916666D01*
X198954819Y-43916666D02*
X199097676Y-43821428D01*
X199097676Y-43821428D02*
X199192914Y-43726190D01*
X199192914Y-43726190D02*
X199240533Y-43630952D01*
X198954819Y-44821428D02*
X198954819Y-44916666D01*
X198954819Y-44916666D02*
X199002438Y-45011904D01*
X199002438Y-45011904D02*
X199050057Y-45059523D01*
X199050057Y-45059523D02*
X199145295Y-45107142D01*
X199145295Y-45107142D02*
X199335771Y-45154761D01*
X199335771Y-45154761D02*
X199573866Y-45154761D01*
X199573866Y-45154761D02*
X199764342Y-45107142D01*
X199764342Y-45107142D02*
X199859580Y-45059523D01*
X199859580Y-45059523D02*
X199907200Y-45011904D01*
X199907200Y-45011904D02*
X199954819Y-44916666D01*
X199954819Y-44916666D02*
X199954819Y-44821428D01*
X199954819Y-44821428D02*
X199907200Y-44726190D01*
X199907200Y-44726190D02*
X199859580Y-44678571D01*
X199859580Y-44678571D02*
X199764342Y-44630952D01*
X199764342Y-44630952D02*
X199573866Y-44583333D01*
X199573866Y-44583333D02*
X199335771Y-44583333D01*
X199335771Y-44583333D02*
X199145295Y-44630952D01*
X199145295Y-44630952D02*
X199050057Y-44678571D01*
X199050057Y-44678571D02*
X199002438Y-44726190D01*
X199002438Y-44726190D02*
X198954819Y-44821428D01*
X198954819Y-45773809D02*
X198954819Y-45869047D01*
X198954819Y-45869047D02*
X199002438Y-45964285D01*
X199002438Y-45964285D02*
X199050057Y-46011904D01*
X199050057Y-46011904D02*
X199145295Y-46059523D01*
X199145295Y-46059523D02*
X199335771Y-46107142D01*
X199335771Y-46107142D02*
X199573866Y-46107142D01*
X199573866Y-46107142D02*
X199764342Y-46059523D01*
X199764342Y-46059523D02*
X199859580Y-46011904D01*
X199859580Y-46011904D02*
X199907200Y-45964285D01*
X199907200Y-45964285D02*
X199954819Y-45869047D01*
X199954819Y-45869047D02*
X199954819Y-45773809D01*
X199954819Y-45773809D02*
X199907200Y-45678571D01*
X199907200Y-45678571D02*
X199859580Y-45630952D01*
X199859580Y-45630952D02*
X199764342Y-45583333D01*
X199764342Y-45583333D02*
X199573866Y-45535714D01*
X199573866Y-45535714D02*
X199335771Y-45535714D01*
X199335771Y-45535714D02*
X199145295Y-45583333D01*
X199145295Y-45583333D02*
X199050057Y-45630952D01*
X199050057Y-45630952D02*
X199002438Y-45678571D01*
X199002438Y-45678571D02*
X198954819Y-45773809D01*
X199288152Y-46964285D02*
X199954819Y-46964285D01*
X199288152Y-46535714D02*
X199811961Y-46535714D01*
X199811961Y-46535714D02*
X199907200Y-46583333D01*
X199907200Y-46583333D02*
X199954819Y-46678571D01*
X199954819Y-46678571D02*
X199954819Y-46821428D01*
X199954819Y-46821428D02*
X199907200Y-46916666D01*
X199907200Y-46916666D02*
X199859580Y-46964285D01*
X199431009Y-47773809D02*
X199431009Y-47440476D01*
X199954819Y-47440476D02*
X198954819Y-47440476D01*
X198954819Y-47440476D02*
X198954819Y-47916666D01*
X196109580Y-45583333D02*
X196157200Y-45535714D01*
X196157200Y-45535714D02*
X196204819Y-45392857D01*
X196204819Y-45392857D02*
X196204819Y-45297619D01*
X196204819Y-45297619D02*
X196157200Y-45154762D01*
X196157200Y-45154762D02*
X196061961Y-45059524D01*
X196061961Y-45059524D02*
X195966723Y-45011905D01*
X195966723Y-45011905D02*
X195776247Y-44964286D01*
X195776247Y-44964286D02*
X195633390Y-44964286D01*
X195633390Y-44964286D02*
X195442914Y-45011905D01*
X195442914Y-45011905D02*
X195347676Y-45059524D01*
X195347676Y-45059524D02*
X195252438Y-45154762D01*
X195252438Y-45154762D02*
X195204819Y-45297619D01*
X195204819Y-45297619D02*
X195204819Y-45392857D01*
X195204819Y-45392857D02*
X195252438Y-45535714D01*
X195252438Y-45535714D02*
X195300057Y-45583333D01*
X196204819Y-46535714D02*
X196204819Y-45964286D01*
X196204819Y-46250000D02*
X195204819Y-46250000D01*
X195204819Y-46250000D02*
X195347676Y-46154762D01*
X195347676Y-46154762D02*
X195442914Y-46059524D01*
X195442914Y-46059524D02*
X195490533Y-45964286D01*
D11*
%TO.C,BT1*%
X158950000Y-56050000D02*
X162150000Y-56050000D01*
X158950000Y-63050000D02*
X158950000Y-56050000D01*
X162150000Y-51550000D02*
X162150000Y-56050000D01*
X162150000Y-51550000D02*
X184150000Y-51550000D01*
X162150000Y-63050000D02*
X158950000Y-63050000D01*
X162150000Y-67550000D02*
X162150000Y-63050000D01*
X162150000Y-67550000D02*
X182550000Y-67550000D01*
X182550000Y-67550000D02*
X184150000Y-65950000D01*
X184150000Y-51550000D02*
X184150000Y-56050000D01*
X184150000Y-63050000D02*
X187350000Y-63050000D01*
X184150000Y-65950000D02*
X184150000Y-63050000D01*
X187350000Y-56050000D02*
X184150000Y-56050000D01*
X187350000Y-63050000D02*
X187350000Y-56050000D01*
%TO.C,C1*%
X194412500Y-43866395D02*
X194912500Y-43866395D01*
X194662500Y-43616395D02*
X194662500Y-44116395D01*
X198250000Y-45750000D02*
G75*
G02*
X193250000Y-45750000I-2500000J0D01*
G01*
X193250000Y-45750000D02*
G75*
G02*
X198250000Y-45750000I2500000J0D01*
G01*
%TD*%
M02*
